<?xml version="1.0" encoding="utf-8"?>
<!-- Generator: Adobe Illustrator 25.4.1, SVG Export Plug-In . SVG Version: 6.00 Build 0)  -->
<svg version="1.1" id="Layer_1" xmlns="http://www.w3.org/2000/svg" xmlns:xlink="http://www.w3.org/1999/xlink" x="0px" y="0px"
	 viewBox="0 0 491 487.2" style="enable-background:new 0 0 491 487.2;" xml:space="preserve">
<style type="text/css">
	.st0{fill:#F3F3F3;}
	.st1{fill:#E64C4C;}
	.st2{fill:#58CCBE;}
	.st3{fill:#58CC6F;}
	.st4{fill:#F5C858;}
	.st5{enable-background:new    ;}
	.st6{fill:#FFFFFF;}
	.st7{fill:#8E8AFF;}
	.st8{fill:#F0F0F0;}
</style>
<g transform="matrix(1, 0, 0, 1, 76, 47)">
	<path id="Rectangle_1-19" class="st0" d="M9.9-24.9h326.8c32.4,0,58.6,26.2,58.6,58.6v326.8c0,32.4-26.2,58.6-58.6,58.6H9.9
		c-32.4,0-58.6-26.2-58.6-58.6V33.7C-48.7,1.4-22.5-24.9,9.9-24.9z"/>
</g>
<path id="Intersection_1" class="st1" d="M25.5,187.3V80.7c0-32.4,26.2-58.6,58.6-58.6h107.5c0,91.2-74,165.2-165.2,165.2H25.5z"/>
<path id="Intersection_4" class="st2" d="M471.3,301.9v106.6c0,32.4-26.2,58.6-58.6,58.6H305.3c0-91.2,74-165.2,165.2-165.2H471.3z"
	/>
<path id="Intersection_2" class="st3" d="M306.1,22.1h106.6c32.4,0,58.6,26.2,58.6,58.6v107.5c-91.2,0-165.2-74-165.2-165.2V22.1z"
	/>
<path id="Intersection_3" class="st4" d="M190.7,467H84.1c-32.4,0-58.6-26.2-58.6-58.6V301c91.2,0,165.2,74,165.2,165.2V467z"/>
<g class="st5">
	<path class="st6" d="M427.6,80.2l-26.4,26.4l-6.1-6.1L416.6,79l-5.3-5.3l4.9-4.9L427.6,80.2z"/>
</g>
<g class="st5">
	<path class="st6" d="M388.5,400.4l-5-5l19.9-19.9l4,4l-0.6,19.8c-0.1,4.6,0.8,6.3,2.1,7.6c2.1,2.1,4.7,1.8,7.5-0.9
		c2.3-2.3,3.3-5,2.8-8.1l7.3-1.6c0.9,5-0.8,10.6-5.6,15.4c-5.9,5.9-12.8,6.8-17.6,2c-2.6-2.6-4.2-5.6-3.9-12.7l0.3-11.8L388.5,400.4
		z"/>
</g>
<g class="st5">
	<path class="st6" d="M110.4,90.2l-4.3,4.3l5.5,5.5l-6,6l-5.5-5.5L86,114.6l-4.1-4.1l-4.3-29.2l6.4-6.4l4.3,27.4l7.1-7.1l-4.9-4.9
		l5.8-5.8l4.9,4.9l4.3-4.3L110.4,90.2z"/>
</g>
<g class="st5">
	<path class="st6" d="M87.7,384c4.4-4.4,11.9-5.1,19.4,2.4c3.7,3.7,6.5,8.5,7.2,12.9l-7,2.3c-0.5-3.5-2.4-7.2-5.2-9.9
		c-3.1-3.1-6.2-3.7-8.3-1.5c-2,2-1.8,4.7,1.7,8.2l2.8,2.8l-4,4l-11.6,0.7L94,417.1l-4.9,4.9l-18.5-18.5l4-4l12.7-0.8
		C83.3,393.2,83.8,387.9,87.7,384z"/>
</g>
<g id="Group_185_00000047746885462061758480000003954164618692774553_" transform="translate(-2336.989 -1434.552)">
	<path id="Ellipse_33-2_00000120517185527052440430000008483800687695231673_" class="st7" d="M2582.1,1587.8
		c48.5,0,87.8,39.3,87.8,87.8s-39.3,87.8-87.8,87.8c-48.5,0-87.8-39.3-87.8-87.8c0,0,0,0,0,0
		C2494.3,1627.1,2533.6,1587.8,2582.1,1587.8z"/>
	<path id="Ellipse_34-2_00000122706570533819940440000008801262597330974381_" class="st8" d="M2548.3,1684.2
		c-22,0.4-22.3,0.1-22.3-18.6s0.3-41.5,22.3-48.8s22.3,30.1,22.3,48.8C2570.6,1684.3,2570.3,1683.8,2548.3,1684.2z"/>
	<path id="Ellipse_34-3_00000145040970920258096440000012151062109932154027_" class="st8" d="M2615.8,1684.2
		c22,0.4,22.3,0.1,22.3-18.6s1.4-41.8-20.6-49.1c-22-7.3-24,30.4-24,49.1S2593.8,1683.8,2615.8,1684.2z"/>
	<path id="Path_103_00000086692411977976607440000016117233498851581093_" class="st8" d="M2548.6,1702.2
		c40.9,5.9,66.7-12.8,83.9-9.3s8.9,20.4,0.6,27.9c-8.2,7.5-30.5,18.8-51.2,18.8s-29.7,4.3-36.8-3.9
		C2538.1,1727.5,2528,1702.2,2548.6,1702.2z"/>
	<circle id="Ellipse_57_00000155108316772940077340000002935004761746367407_" class="st7" cx="2536.2" cy="1636" r="13.8"/>
	<circle id="Ellipse_58_00000150102051912010368210000000748336471007843006_" class="st7" cx="2597.6" cy="1645.2" r="13.8"/>
	<g id="Path_104_00000047045688303685306650000006060085393125714311_" transform="translate(2845.977 2886.968)">
		<path class="st8" d="M-222.5-1109.7c-7,0-11.9-1.7-15.3-5.3c-3.2-3.3-5-8.1-6.9-13.2c-1.9-5-3.9-10.3-7.4-15
			c-4.1-5.5-10.8-5.5-14.8-5.5c-0.2,0-0.4,0-0.6,0l-0.5,0c-1,0-2.1,0-2.9-0.1c-0.5-0.1-0.8-0.1-0.9-0.2c0.2-0.6,1-1.9,2.9-3.9
			c2.1-2.3,5-4.7,8.2-6.8c4.6-3.2,14-8.6,24.3-9.2c1.6-0.1,3.2-0.1,4.7-0.1c8.8,0,16,1.5,21.7,4.5c2.9,1.6,5.4,3.5,7.4,5.9
			c2.1,2.5,3.6,5.4,4.7,8.7c1.6,5.3,3.2,10.9,3.7,16.4c0.6,6-0.3,10.7-2.7,14.2c-1.6,2.4-3.8,4.3-6.7,5.8c-3.4,1.7-7.7,2.9-12.9,3.4
			C-218.8-1109.9-220.8-1109.7-222.5-1109.7z"/>
		<path class="st7" d="M-231.9-1166.3c-1.5,0-3,0-4.5,0.1c-6.9,0.4-14.7,3.3-22.1,8.2c-3.8,2.5-6.5,4.9-8.3,6.7
			c4.2,0,11.9,0.1,16.7,6.5c3.8,5,5.9,10.7,7.8,15.6c1.8,4.8,3.5,9.3,6.3,12.3c1.8,1.9,5.2,4.5,13.4,4.5c1.7,0,3.5-0.1,5.5-0.3
			c4.9-0.5,8.9-1.6,12-3.2c2.5-1.3,4.4-2.9,5.7-4.9c2-3.1,2.7-7.2,2.2-12.5c-0.5-5.2-2-10.7-3.6-15.8c-1.8-5.9-5.3-10.1-10.8-13
			C-216.7-1164.9-223.6-1166.3-231.9-1166.3 M-231.9-1171.7c17.4,0,31.6,5.8,36.3,20.9c5.1,16.5,10.9,39.8-20.8,43.3
			c-31.7,3.5-26.5-19.1-37.9-34.1c-3.5-4.6-9.3-4.4-13.8-4.4c-3.5,0-6.2-0.1-6.6-2.6c-0.7-4.2,18.3-21.8,37.9-22.9
			C-235.1-1171.6-233.5-1171.7-231.9-1171.7z"/>
	</g>
</g>
</svg>
