<?xml version="1.0" encoding="utf-8"?>
<!-- Generator: Adobe Illustrator 25.4.1, SVG Export Plug-In . SVG Version: 6.00 Build 0)  -->
<svg version="1.1" id="Layer_1" xmlns="http://www.w3.org/2000/svg" xmlns:xlink="http://www.w3.org/1999/xlink" x="0px" y="0px"
	 viewBox="0 0 491 487.2" style="enable-background:new 0 0 491 487.2;" xml:space="preserve">
<style type="text/css">
	.st0{fill:#F3F3F3;}
	.st1{fill:#F5C858;}
	.st2{enable-background:new    ;}
	.st3{fill:#ECECEC;}
</style>
<g id="Concept_art_2-18" transform="translate(1307.153 602.317)">
	<g transform="matrix(1, 0, 0, 1, -1307.15, -602.32)">
		<path id="Path_145-2" class="st0" d="M74.6,17.2h337.8c33.5,0,60.6,27.1,60.6,60.6v337.8c0,33.5-27.1,60.6-60.6,60.6H74.6
			c-33.5,0-60.6-27.1-60.6-60.6V77.8C14,44.3,41.2,17.2,74.6,17.2z"/>
	</g>
</g>
<g id="Group_68" transform="translate(991.653 -649.683)">
	<g id="Group_57">
		<g id="Group_20-29" transform="translate(729.5 1608.5) rotate(180)">
			<path id="Intersection_4-43" class="st1" d="M1707.1,770.9v110.2c0,33.5-27.1,60.6-60.6,60.6h-111.1
				c0-94.3,76.5-170.8,170.8-170.8H1707.1z"/>
		</g>
	</g>
	<g id="ICON_YELLOW" transform="translate(404.982 1343.452) rotate(-45)">
		<g id="Group_67" transform="translate(-12.151 -8.153)">
			<g id="Group_34" transform="translate(0 0)">
				<circle id="Ellipse_5-2" class="st0" cx="-487.7" cy="-1341.4" r="29.2"/>
				<g id="Group_66" transform="translate(0 33.696) rotate(-45)">
					<path id="Rectangle_34" class="st0" d="M624.5-1276.4v-13.5c0-1.6,1.3-2.9,2.9-2.9l0,0c1.6,0,2.9,1.3,2.9,2.9v13.5
						c0,1.6-1.3,2.9-2.9,2.9l0,0C625.9-1273.4,624.5-1274.8,624.5-1276.4z"/>
					<path id="Rectangle_43" class="st0" d="M624.5-1344.6v-13.5c0-1.6,1.3-2.9,2.9-2.9l0,0c1.6,0,2.9,1.3,2.9,2.9v13.5
						c0,1.6-1.3,2.9-2.9,2.9l0,0C625.9-1341.6,624.5-1342.9,624.5-1344.6z"/>
					<path id="Rectangle_44" class="st0" d="M586.6-1320.1h13.5c1.6,0,2.9,1.3,2.9,2.9l0,0c0,1.6-1.3,2.9-2.9,2.9h-13.5
						c-1.6,0-2.9-1.3-2.9-2.9l0,0C583.7-1318.8,585-1320.1,586.6-1320.1z"/>
					<path id="Rectangle_45" class="st0" d="M654.8-1320.1h13.5c1.6,0,2.9,1.3,2.9,2.9l0,0c0,1.6-1.3,2.9-2.9,2.9h-13.5
						c-1.6,0-2.9-1.3-2.9-2.9l0,0C651.9-1318.8,653.2-1320.1,654.8-1320.1z"/>
					<path id="Rectangle_46" class="st0" d="M601.1-1295l9.5-9.5c1.1-1.1,3-1.1,4.1,0l0,0c1.1,1.1,1.1,3,0,4.1l-9.5,9.5
						c-1.1,1.1-3,1.1-4.1,0l0,0C600-1292,600-1293.8,601.1-1295z"/>
					<path id="Rectangle_47" class="st0" d="M640.1-1334l9.5-9.5c1.1-1.1,3-1.1,4.1,0l0,0c1.1,1.1,1.1,3,0,4.1l-9.5,9.5
						c-1.1,1.1-3,1.1-4.1,0l0,0C639-1331,639-1332.9,640.1-1334z"/>
					<path id="Rectangle_48" class="st0" d="M605.3-1343.5l9.5,9.5c1.1,1.1,1.1,3,0,4.1l0,0c-1.1,1.1-3,1.1-4.1,0l-9.5-9.5
						c-1.1-1.1-1.1-3,0-4.1l0,0C602.3-1344.7,604.1-1344.7,605.3-1343.5z"/>
					<path id="Rectangle_49" class="st0" d="M644.3-1304.5l9.5,9.5c1.1,1.1,1.1,3,0,4.1l0,0c-1.1,1.1-3,1.1-4.1,0l-9.5-9.5
						c-1.1-1.1-1.1-3,0-4.1l0,0C641.3-1305.7,643.1-1305.7,644.3-1304.5z"/>
				</g>
				<path id="Subtraction_5-6" class="st1" d="M-476.6-1337.4c-3.3,0-6-4.1-6-9.1c0-1.8,0.3-3.5,1.1-5.2l11,5.4
					c0,2.2-0.6,4.4-1.8,6.3C-473.2-1338.4-474.8-1337.5-476.6-1337.4z"/>
				<path id="Subtraction_9-2-2" class="st1" d="M-498.9-1337.4c3.3,0,6-4.1,6-9.1c0-1.8-0.3-3.5-1.1-5.2l-11,5.4
					c0,2.2,0.6,4.4,1.8,6.3C-502.2-1338.4-500.6-1337.5-498.9-1337.4z"/>
				<path id="Path_1-7" class="st1" d="M-499.5-1330.6c2-2,26.9-0.7,26.9-0.7c0,4.5-2.7,7.2-10.5,8.1
					C-490.9-1322.4-501.5-1328.6-499.5-1330.6z"/>
				
					<ellipse id="Ellipse_25" transform="matrix(-1 2.535182e-06 -2.535182e-06 -1 -952.8224 -2695.8459)" class="st0" cx="-476.4" cy="-1347.9" rx="2.3" ry="5.2"/>
				
					<ellipse id="Ellipse_26-2-2" transform="matrix(-1 2.535182e-06 -2.535182e-06 -1 -996.9959 -2697.0063)" class="st0" cx="-498.5" cy="-1348.5" rx="2.3" ry="4.7"/>
			</g>
		</g>
	</g>
</g>
<g id="Group_71" transform="translate(2036.779 2209.944) rotate(180)">
	<g id="Group_57-2">
		<g id="Group_20-30" transform="translate(729.5 1608.5) rotate(180)">
			<path id="Intersection_4-44" class="st1" d="M-834-296.7v110.2c0,33.5-27.1,60.6-60.6,60.6h-111.1c0-94.3,76.5-170.8,170.8-170.8
				H-834z"/>
		</g>
	</g>
	<g id="ICON_YELLOW-2" transform="translate(404.982 1343.452) rotate(-45)">
		<g id="Group_67-2" transform="translate(-12.151 -8.153)">
			<g id="Group_34-2" transform="translate(0 0)">
				<circle id="Ellipse_5-3" class="st0" cx="554.2" cy="1210.3" r="29.2"/>
				<g id="Group_66-2" transform="translate(0 33.696) rotate(-45)">
					<path id="Rectangle_34-2" class="st0" d="M-443,1264.7v-13.5c0-1.6,1.3-2.9,2.9-2.9l0,0c1.6,0,2.9,1.3,2.9,2.9v13.5
						c0,1.6-1.3,2.9-2.9,2.9l0,0C-441.7,1267.7-443,1266.3-443,1264.7z"/>
					<path id="Rectangle_43-2" class="st0" d="M-443,1196.5v-13.5c0-1.6,1.3-2.9,2.9-2.9l0,0c1.6,0,2.9,1.3,2.9,2.9v13.5
						c0,1.6-1.3,2.9-2.9,2.9l0,0C-441.7,1199.5-443,1198.2-443,1196.5z"/>
					<path id="Rectangle_44-2" class="st0" d="M-481,1221h13.5c1.6,0,2.9,1.3,2.9,2.9l0,0c0,1.6-1.3,2.9-2.9,2.9H-481
						c-1.6,0-2.9-1.3-2.9-2.9l0,0C-483.9,1222.3-482.6,1221-481,1221z"/>
					<path id="Rectangle_45-2" class="st0" d="M-412.8,1221h13.5c1.6,0,2.9,1.3,2.9,2.9l0,0c0,1.6-1.3,2.9-2.9,2.9h-13.5
						c-1.6,0-2.9-1.3-2.9-2.9l0,0C-415.7,1222.3-414.4,1221-412.8,1221z"/>
					<path id="Rectangle_46-2" class="st0" d="M-466.5,1246.1l9.5-9.5c1.1-1.1,3-1.1,4.1,0l0,0c1.1,1.1,1.1,3,0,4.1l-9.5,9.5
						c-1.1,1.1-3,1.1-4.1,0l0,0C-467.6,1249.1-467.6,1247.3-466.5,1246.1z"/>
					<path id="Rectangle_47-2" class="st0" d="M-427.4,1207.1l9.5-9.5c1.1-1.1,3-1.1,4.1,0l0,0c1.1,1.1,1.1,3,0,4.1l-9.5,9.5
						c-1.1,1.1-3,1.1-4.1,0l0,0C-428.6,1210.1-428.6,1208.2-427.4,1207.1z"/>
					<path id="Rectangle_48-2" class="st0" d="M-462.3,1197.6l9.5,9.5c1.1,1.1,1.1,3,0,4.1l0,0c-1.1,1.1-3,1.1-4.1,0l-9.5-9.5
						c-1.1-1.1-1.1-3,0-4.1l0,0C-465.3,1196.4-463.5,1196.4-462.3,1197.6z"/>
					<path id="Rectangle_49-2" class="st0" d="M-423.3,1236.6l9.5,9.5c1.1,1.1,1.1,3,0,4.1l0,0c-1.1,1.1-3,1.1-4.1,0l-9.5-9.5
						c-1.1-1.1-1.1-3,0-4.1l0,0C-426.3,1235.4-424.5,1235.4-423.3,1236.6z"/>
				</g>
				<path id="Subtraction_5-7" class="st1" d="M565.4,1214.4c-3.3,0-6-4.1-6-9.1c0-1.8,0.3-3.5,1.1-5.2l11,5.4
					c0,2.2-0.6,4.4-1.8,6.3C568.7,1213.3,567.1,1214.3,565.4,1214.4z"/>
				<path id="Subtraction_9-3" class="st1" d="M543.1,1214.4c3.3,0,6-4.1,6-9.1c0-1.8-0.3-3.5-1.1-5.2l-11,5.4
					c0,2.2,0.6,4.4,1.8,6.3C539.7,1213.3,541.3,1214.3,543.1,1214.4z"/>
				<path id="Path_1-8" class="st1" d="M542.4,1221.1c2-2,26.9-0.7,26.9-0.7c0,4.5-2.7,7.2-10.5,8.1
					C551,1229.3,540.4,1223.2,542.4,1221.1z"/>
				<ellipse id="Ellipse_25-2" class="st0" cx="565.5" cy="1203.8" rx="2.3" ry="5.2"/>
				<ellipse id="Ellipse_26-3" class="st0" cx="543.4" cy="1203.2" rx="2.3" ry="4.7"/>
			</g>
		</g>
	</g>
</g>
<g id="Group_57-3" transform="translate(2944.779 257.317) rotate(90)">
	<g id="Group_20-31" transform="translate(729.5 1608.5) rotate(180)">
		<path id="Intersection_4-45" class="st1" d="M970.6-1032.8v110.2c0,33.5-27.1,60.6-60.6,60.6H798.9c0-94.3,76.5-170.8,170.8-170.8
			H970.6z"/>
	</g>
</g>
<g id="Group_70" transform="translate(83.654 1302.944) rotate(-90)">
	<g id="Group_57-4">
		<g id="Group_20-32" transform="translate(729.5 1608.5) rotate(180)">
			<path id="Intersection_4-46" class="st1" d="M-97,1508.3v110.2c0,33.5-27.1,60.6-60.6,60.6h-111.1c0-94.3,76.5-170.8,170.8-170.8
				H-97z"/>
		</g>
	</g>
	<g id="ICON_YELLOW-3" transform="translate(404.982 1343.452) rotate(-45)">
		<g id="Group_67-3" transform="translate(-12.151 -8.153)">
			<g id="Group_34-3" transform="translate(0 0)">
				<circle id="Ellipse_5-4" class="st0" cx="1309.4" cy="-587.1" r="29.2"/>
				<g id="Group_66-3" transform="translate(0 33.696) rotate(-45)">
					<path id="Rectangle_34-3" class="st0" d="M1361.9,527.8v-13.5c0-1.6,1.3-2.9,2.9-2.9l0,0c1.6,0,2.9,1.3,2.9,2.9v13.5
						c0,1.6-1.3,2.9-2.9,2.9l0,0C1363.2,530.7,1361.9,529.4,1361.9,527.8z"/>
					<path id="Rectangle_43-3" class="st0" d="M1361.9,459.6v-13.5c0-1.6,1.3-2.9,2.9-2.9l0,0c1.6,0,2.9,1.3,2.9,2.9v13.5
						c0,1.6-1.3,2.9-2.9,2.9l0,0C1363.2,462.5,1361.9,461.2,1361.9,459.6z"/>
					<path id="Rectangle_44-3" class="st0" d="M1324,484h13.5c1.6,0,2.9,1.3,2.9,2.9l0,0c0,1.6-1.3,2.9-2.9,2.9H1324
						c-1.6,0-2.9-1.3-2.9-2.9l0,0C1321.1,485.3,1322.4,484,1324,484z"/>
					<path id="Rectangle_45-3" class="st0" d="M1392.2,484h13.5c1.6,0,2.9,1.3,2.9,2.9l0,0c0,1.6-1.3,2.9-2.9,2.9h-13.5
						c-1.6,0-2.9-1.3-2.9-2.9l0,0C1389.3,485.3,1390.6,484,1392.2,484z"/>
					<path id="Rectangle_46-3" class="st0" d="M1338.5,509.1l9.5-9.5c1.1-1.1,3-1.1,4.1,0l0,0c1.1,1.1,1.1,3,0,4.1l-9.5,9.5
						c-1.1,1.1-3,1.1-4.1,0l0,0C1337.4,512.1,1337.4,510.3,1338.5,509.1z"/>
					<path id="Rectangle_47-3" class="st0" d="M1377.5,470.1l9.5-9.5c1.1-1.1,3-1.1,4.1,0l0,0c1.1,1.1,1.1,3,0,4.1l-9.5,9.5
						c-1.1,1.1-3,1.1-4.1,0l0,0C1376.4,473.1,1376.4,471.3,1377.5,470.1z"/>
					<path id="Rectangle_48-3" class="st0" d="M1342.6,460.6l9.5,9.5c1.1,1.1,1.1,3,0,4.1l0,0c-1.1,1.1-3,1.1-4.1,0l-9.5-9.5
						c-1.1-1.1-1.1-3,0-4.1l0,0C1339.7,459.5,1341.5,459.5,1342.6,460.6z"/>
					<path id="Rectangle_49-3" class="st0" d="M1381.7,499.6l9.5,9.5c1.1,1.1,1.1,3,0,4.1l0,0c-1.1,1.1-3,1.1-4.1,0l-9.5-9.5
						c-1.1-1.1-1.1-3,0-4.1l0,0C1378.7,498.5,1380.5,498.5,1381.7,499.6z"/>
				</g>
				<path id="Subtraction_5-8" class="st1" d="M1320.6-583c-3.3,0-6-4.1-6-9.1c0-1.8,0.3-3.5,1.1-5.2l11,5.4c0,2.2-0.6,4.4-1.8,6.3
					C1323.9-584.1,1322.3-583.1,1320.6-583z"/>
				<path id="Subtraction_9-4" class="st1" d="M1298.3-583c3.3,0,6-4.1,6-9.1c0-1.8-0.3-3.5-1.1-5.2l-11,5.4c0,2.2,0.6,4.4,1.8,6.3
					C1294.9-584.1,1296.5-583.1,1298.3-583z"/>
				<path id="Path_1-9" class="st1" d="M1297.6-576.3c2-2,26.9-0.7,26.9-0.7c0,4.5-2.7,7.2-10.5,8.1
					C1306.2-568.1,1295.6-574.3,1297.6-576.3z"/>
				
					<ellipse id="Ellipse_25-3" transform="matrix(-2.535182e-06 -1 1 -2.535182e-06 1914.3291 727.0953)" class="st0" cx="1320.7" cy="-593.6" rx="5.2" ry="2.3"/>
				
					<ellipse id="Ellipse_26-4" transform="matrix(-2.535182e-06 -1 1 -2.535182e-06 1892.8225 704.4283)" class="st0" cx="1298.6" cy="-594.2" rx="4.7" ry="2.3"/>
			</g>
		</g>
	</g>
</g>
<g id="Group_180" transform="translate(-3196.541 -10676.443) rotate(60)">
	<g id="Group_148-9" transform="translate(12224.423 1552.942)">
		<g id="Group_146-17" transform="translate(0 133.268)">
			<g id="Group_135-33" transform="translate(0 0)">
				<g class="st2">
					<path class="st1" d="M-1140.3,882.3c0-0.5,0-0.8,0-1.1c0-0.2,0.1-0.5,0.3-0.8c0.3-0.5,1.1-0.8,2.4-0.8c1,0,1.7,0.2,2.1,0.5
						c0.4,0.3,0.5,0.7,0.6,1.3c0,0.2,0,0.5,0,0.9l0,10.9c0,0.5,0,0.8,0,1.1c0,0.2-0.1,0.5-0.3,0.8c-0.3,0.5-1.1,0.8-2.4,0.8
						c-1.3,0-2.1-0.3-2.4-0.8c-0.1-0.3-0.2-0.6-0.3-0.8c0-0.2,0-0.6,0-1.1L-1140.3,882.3z M-1135.2,876.6c-0.2,0.3-0.4,0.5-0.8,0.6
						c-0.4,0.1-0.9,0.2-1.6,0.2c-0.7,0-1.2-0.1-1.6-0.2s-0.7-0.3-0.8-0.7c-0.2-0.3-0.2-0.6-0.3-0.8c0-0.2,0-0.6,0-1.1
						c0-0.5,0-0.8,0-1.1c0-0.2,0.1-0.5,0.3-0.8c0.3-0.6,1.1-0.8,2.4-0.8c1.3,0,2.1,0.3,2.4,0.8c0.2,0.3,0.3,0.6,0.3,0.8
						c0,0.2,0,0.6,0,1.1s0,0.8,0,1.1C-1134.9,876-1135,876.3-1135.2,876.6z"/>
				</g>
				<g class="st2">
					<path class="st1" d="M-1019.4,882.3c0-0.5,0-0.8,0-1.1c0-0.2,0.1-0.5,0.3-0.8c0.3-0.5,1.1-0.8,2.4-0.8c1,0,1.7,0.2,2.1,0.5
						c0.4,0.3,0.5,0.7,0.6,1.3c0,0.2,0,0.5,0,0.9l0,10.9c0,0.5,0,0.8,0,1.1c0,0.2-0.1,0.5-0.3,0.8c-0.3,0.5-1.1,0.8-2.4,0.8
						c-1.3,0-2.1-0.3-2.4-0.8c-0.1-0.3-0.2-0.6-0.3-0.8c0-0.2,0-0.6,0-1.1L-1019.4,882.3z M-1014.3,876.6c-0.2,0.3-0.4,0.5-0.8,0.6
						c-0.4,0.1-0.9,0.2-1.6,0.2c-0.7,0-1.2-0.1-1.6-0.2c-0.4-0.1-0.7-0.3-0.8-0.7c-0.2-0.3-0.3-0.6-0.3-0.8c0-0.2,0-0.6,0-1.1
						c0-0.5,0-0.8,0-1.1c0-0.2,0.1-0.5,0.3-0.8c0.3-0.6,1.1-0.8,2.4-0.8c1.3,0,2.1,0.3,2.4,0.8c0.2,0.3,0.3,0.6,0.3,0.8
						c0,0.2,0,0.6,0,1.1s0,0.8,0,1.1C-1014,876-1014.1,876.3-1014.3,876.6z"/>
				</g>
				<g class="st2">
					<path class="st1" d="M-964.7,885.8c0.3,0.2,0.5,0.4,0.6,0.8c0.1,0.4,0.2,0.9,0.2,1.6c0,0.7-0.1,1.2-0.2,1.6
						c-0.1,0.4-0.3,0.7-0.7,0.8c-0.3,0.2-0.6,0.2-0.8,0.3c-0.2,0-0.6,0-1.1,0c-0.5,0-0.8,0-1.1,0c-0.2,0-0.5-0.1-0.8-0.3
						c-0.6-0.3-0.8-1.1-0.8-2.4c0-1.3,0.3-2.1,0.8-2.4c0.3-0.2,0.6-0.3,0.8-0.3c0.2,0,0.6,0,1.1,0c0.5,0,0.8,0,1.1,0
						C-965.2,885.5-965,885.6-964.7,885.8z M-958.9,890.9c-0.5,0-0.8,0-1.1,0c-0.2,0-0.5-0.1-0.8-0.3c-0.5-0.3-0.8-1.1-0.8-2.4
						c0-1,0.2-1.7,0.5-2.1c0.3-0.4,0.7-0.5,1.3-0.6c0.2,0,0.5,0,0.9,0l10.9,0c0.5,0,0.8,0,1.1,0c0.2,0,0.5,0.1,0.8,0.3
						c0.5,0.3,0.8,1.1,0.8,2.4c0,1.3-0.3,2.1-0.8,2.4c-0.3,0.1-0.6,0.2-0.8,0.3c-0.2,0-0.6,0-1.1,0L-958.9,890.9z"/>
				</g>
				<g class="st2">
					<path class="st1" d="M-917.4,873.1c3.8,0,7.1,1.4,9.9,4.1c2.8,2.8,4.2,6.2,4.2,10.2s-1.3,7.5-4,10.4c-2.7,2.9-6,4.3-9.9,4.3
						c-3.9,0-7.2-1.4-10-4.2c-2.7-2.8-4.1-6.2-4.1-10.1c0-2.1,0.4-4.1,1.2-6c0.8-1.9,1.8-3.4,3.1-4.7c1.3-1.3,2.8-2.2,4.4-3
						C-920.9,873.5-919.2,873.1-917.4,873.1z M-924.5,887.6c0,2.3,0.7,4.1,2.2,5.6c1.5,1.4,3.1,2.1,5,2.1c1.8,0,3.5-0.7,4.9-2.1
						c1.5-1.4,2.2-3.3,2.2-5.6c0-2.3-0.7-4.2-2.2-5.6c-1.5-1.4-3.1-2.1-5-2.1c-1.8,0-3.5,0.7-4.9,2.1
						C-923.7,883.5-924.5,885.3-924.5,887.6z"/>
				</g>
				<g class="st2">
					<path class="st1" d="M-1105.8,873.9c0.2-0.4,0.6-0.7,1-0.9c0.5-0.1,1-0.2,1.7-0.2c0.7,0,1.3,0.1,1.7,0.2c0.4,0.1,0.7,0.3,1,0.4
						c0.2,0.2,0.4,0.4,0.5,0.8c0.1,0.4,0.2,1,0.2,1.9l0,20.4c0,0.6,0,1-0.1,1.3c0,0.3-0.2,0.6-0.3,1c-0.3,0.7-1.3,1-2.9,1
						c-1,0-1.6-0.1-2-0.2c-0.4-0.1-0.7-0.4-0.9-0.7c-5.5-7.3-9.1-12.1-10.9-14.4l0,12.1c0,0.6,0,1-0.1,1.3c0,0.3-0.2,0.6-0.3,1
						c-0.3,0.7-1.3,1-2.9,1c-1.5,0-2.4-0.3-2.8-1c-0.2-0.4-0.3-0.7-0.3-1c0-0.3-0.1-0.7-0.1-1.3l0-20.5c0-0.9,0.1-1.6,0.3-2
						c0.2-0.4,0.6-0.7,1-0.9c0.5-0.1,1.1-0.2,1.8-0.2c0.7,0,1.3,0.1,1.7,0.2c0.4,0.1,0.7,0.3,0.9,0.5c0.1,0.1,0.4,0.4,0.8,1
						c5.2,7,8.6,11.7,10.4,13.9l0-12.4C-1106.1,875-1106,874.4-1105.8,873.9z"/>
				</g>
				<g class="st2">
					<path class="st1" d="M-876.7,874.1c0.2-0.4,0.6-0.7,1-0.9c0.5-0.1,1-0.2,1.7-0.2c0.7,0,1.3,0.1,1.7,0.2c0.4,0.1,0.7,0.3,1,0.4
						c0.2,0.2,0.4,0.4,0.5,0.8c0.1,0.4,0.2,1,0.2,1.9v20.4c0,0.6,0,1-0.1,1.3c0,0.3-0.2,0.6-0.3,1c-0.3,0.7-1.3,1-2.9,1
						c-1,0-1.6-0.1-2-0.2c-0.4-0.1-0.7-0.4-0.9-0.7c-5.5-7.3-9.1-12.1-10.9-14.4l0,12.1c0,0.6,0,1-0.1,1.3c0,0.3-0.2,0.6-0.3,1
						c-0.3,0.7-1.3,1-2.9,1c-1.5,0-2.4-0.3-2.8-1c-0.2-0.4-0.3-0.7-0.3-1c0-0.3-0.1-0.7-0.1-1.3l0-20.5c0-0.9,0.1-1.6,0.3-2
						c0.2-0.4,0.6-0.7,1-0.9c0.5-0.1,1.1-0.2,1.8-0.2c0.7,0,1.3,0.1,1.7,0.2c0.4,0.1,0.7,0.3,0.9,0.5c0.1,0.1,0.4,0.4,0.8,1
						c5.2,7,8.6,11.7,10.4,13.9l0-12.4C-877,875.2-876.9,874.5-876.7,874.1z"/>
				</g>
				<g class="st2">
					<path class="st1" d="M-1087,874.1h19.4c0.7,0,1.3,0.1,1.6,0.3c0.3,0.2,0.6,0.4,0.7,0.8c0.1,0.4,0.2,0.9,0.2,1.5
						c0,0.6-0.1,1.1-0.2,1.4c-0.1,0.4-0.3,0.6-0.6,0.8c-0.4,0.2-1,0.3-1.8,0.3l-6.7,0l0,17.5c0,0.5,0,0.9-0.1,1.2
						c0,0.3-0.1,0.6-0.3,0.9c-0.2,0.3-0.5,0.6-0.9,0.7c-0.4,0.1-1,0.2-1.7,0.2c-0.7,0-1.3-0.1-1.7-0.2c-0.4-0.1-0.7-0.4-0.9-0.7
						c-0.2-0.3-0.3-0.6-0.3-0.9c0-0.3-0.1-0.7-0.1-1.2l0-17.5l-6.7,0c-0.7,0-1.3-0.1-1.6-0.3c-0.3-0.2-0.6-0.4-0.7-0.8
						c-0.1-0.4-0.2-0.9-0.2-1.5s0.1-1.1,0.2-1.4c0.1-0.4,0.3-0.6,0.6-0.8C-1088.3,874.2-1087.7,874.1-1087,874.1z"/>
				</g>
				<g class="st2">
					<path class="st1" d="M-1000.6,874.1h19.4c0.7,0,1.3,0.1,1.6,0.3s0.6,0.4,0.7,0.8c0.1,0.4,0.2,0.9,0.2,1.5
						c0,0.6-0.1,1.1-0.2,1.4c-0.1,0.4-0.3,0.6-0.6,0.8c-0.4,0.2-1,0.3-1.8,0.3l-6.7,0l0,17.5c0,0.5,0,0.9-0.1,1.2
						c0,0.3-0.1,0.6-0.3,0.9c-0.2,0.3-0.5,0.6-0.9,0.7c-0.4,0.1-1,0.2-1.7,0.2s-1.3-0.1-1.7-0.2c-0.4-0.1-0.7-0.4-0.9-0.7
						c-0.2-0.3-0.3-0.6-0.3-0.9c0-0.3-0.1-0.7-0.1-1.2l0-17.5l-6.7,0c-0.7,0-1.3-0.1-1.6-0.3c-0.3-0.2-0.6-0.4-0.7-0.8
						c-0.1-0.4-0.2-0.9-0.2-1.5c0-0.6,0.1-1.1,0.2-1.4c0.1-0.4,0.3-0.6,0.6-0.8C-1002,874.2-1001.4,874.1-1000.6,874.1z"/>
				</g>
				<g class="st2">
					<path class="st1" d="M-1037.1,875.1c0.2-0.4,0.6-0.6,1-0.8c0.4-0.1,1-0.2,1.7-0.2c0.7,0,1.2,0.1,1.6,0.2
						c0.4,0.1,0.7,0.3,0.9,0.4c0.2,0.2,0.4,0.4,0.5,0.7c0.1,0.4,0.2,1,0.2,1.8l0,10.5c0,3.1-1,5.9-2.9,8.4c-0.9,1.2-2.1,2.1-3.6,2.9
						c-1.5,0.7-3.1,1.1-4.9,1.1c-1.8,0-3.4-0.4-4.8-1.1c-1.5-0.7-2.6-1.7-3.5-2.9c-1.9-2.5-2.8-5.3-2.8-8.4l0-10.5
						c0-0.6,0-1,0.1-1.2c0-0.3,0.1-0.6,0.3-0.9c0.2-0.3,0.5-0.6,0.9-0.7c0.4-0.1,1-0.2,1.8-0.2c0.7,0,1.3,0.1,1.8,0.2
						c0.4,0.1,0.7,0.4,0.9,0.7c0.3,0.5,0.4,1.3,0.4,2.2l0,10.5c0,1.4,0.3,2.8,1,4c0.3,0.7,0.9,1.2,1.6,1.6c0.7,0.4,1.5,0.6,2.5,0.6
						c1.7,0,3-0.6,3.8-1.9c0.8-1.3,1.3-2.7,1.3-4.4V877C-1037.5,876.1-1037.4,875.5-1037.1,875.1z"/>
				</g>
			</g>
		</g>
		<g id="Group_147-17" transform="translate(90.063 148.182) rotate(-90)">
			<g id="Group_135-34" transform="translate(0 0)">
				<g class="st2">
					<path class="st1" d="M-870.9-1054.5c-0.2,0.3-0.4,0.5-0.8,0.6c-0.4,0.1-0.9,0.2-1.6,0.2c-0.7,0-1.2-0.1-1.6-0.2
						c-0.4-0.1-0.7-0.3-0.8-0.7c-0.2-0.3-0.2-0.6-0.3-0.8c0-0.2,0-0.6,0-1.1c0-0.5,0-0.8,0-1.1c0-0.2,0.1-0.5,0.3-0.8
						c0.3-0.6,1.1-0.8,2.4-0.8c1.3,0,2.1,0.3,2.4,0.8c0.2,0.3,0.3,0.6,0.3,0.8c0,0.2,0,0.6,0,1.1c0,0.5,0,0.8,0,1.1
						C-870.7-1055.1-870.8-1054.8-870.9-1054.5z M-876.1-1048.7c0-0.5,0-0.8,0-1.1c0-0.2,0.1-0.5,0.3-0.8c0.3-0.5,1.1-0.8,2.4-0.8
						c1,0,1.7,0.2,2.1,0.5c0.4,0.3,0.5,0.7,0.6,1.3c0,0.2,0,0.5,0,0.9l0,10.9c0,0.5,0,0.8,0,1.1c0,0.2-0.1,0.5-0.3,0.8
						c-0.3,0.5-1.1,0.8-2.4,0.8c-1.3,0-2.1-0.3-2.4-0.8c-0.1-0.3-0.2-0.6-0.3-0.8c0-0.2,0-0.6,0-1.1L-876.1-1048.7z"/>
				</g>
				<g class="st2">
					<path class="st1" d="M-750-1054.5c-0.2,0.3-0.4,0.5-0.8,0.6c-0.4,0.1-0.9,0.2-1.6,0.2c-0.7,0-1.2-0.1-1.6-0.2
						c-0.4-0.1-0.7-0.3-0.8-0.7s-0.2-0.6-0.3-0.8c0-0.2,0-0.6,0-1.1c0-0.5,0-0.8,0-1.1c0-0.2,0.1-0.5,0.3-0.8
						c0.3-0.6,1.1-0.8,2.4-0.8c1.3,0,2.1,0.3,2.4,0.8c0.2,0.3,0.3,0.6,0.3,0.8c0,0.2,0,0.6,0,1.1c0,0.5,0,0.8,0,1.1
						C-749.7-1055.1-749.8-1054.8-750-1054.5z M-755.1-1048.7c0-0.5,0-0.8,0-1.1c0-0.2,0.1-0.5,0.3-0.8c0.3-0.5,1.1-0.8,2.4-0.8
						c1,0,1.7,0.2,2.1,0.5c0.4,0.3,0.5,0.7,0.6,1.3c0,0.2,0,0.5,0,0.9l0,10.9c0,0.5,0,0.8,0,1.1c0,0.2-0.1,0.5-0.3,0.8
						c-0.3,0.5-1.1,0.8-2.4,0.8c-1.3,0-2.1-0.3-2.4-0.8c-0.1-0.3-0.2-0.6-0.3-0.8c0-0.2,0-0.6,0-1.1L-755.1-1048.7z"/>
				</g>
				<g class="st2">
					<path class="st1" d="M-700.4-1045.3c0.3,0.2,0.5,0.4,0.6,0.8c0.1,0.4,0.2,0.9,0.2,1.6c0,0.7-0.1,1.2-0.2,1.6
						c-0.1,0.4-0.3,0.7-0.7,0.8c-0.3,0.2-0.6,0.2-0.8,0.3c-0.2,0-0.6,0-1.1,0c-0.5,0-0.8,0-1.1,0c-0.2,0-0.5-0.1-0.8-0.3
						c-0.6-0.3-0.8-1.1-0.8-2.4c0-1.3,0.3-2.1,0.8-2.4c0.3-0.2,0.6-0.3,0.8-0.3c0.2,0,0.6,0,1.1,0c0.5,0,0.8,0,1.1,0
						C-701-1045.6-700.7-1045.5-700.4-1045.3z M-694.6-1040.2c-0.5,0-0.8,0-1.1,0c-0.2,0-0.5-0.1-0.8-0.3c-0.5-0.3-0.8-1.1-0.8-2.4
						c0-1,0.2-1.7,0.5-2.1c0.3-0.4,0.7-0.5,1.3-0.6c0.2,0,0.5,0,0.9,0l10.9,0c0.5,0,0.8,0,1.1,0c0.2,0,0.5,0.1,0.8,0.3
						c0.5,0.3,0.8,1.1,0.8,2.4c0,1.3-0.3,2.1-0.8,2.4c-0.3,0.1-0.6,0.2-0.8,0.3c-0.2,0-0.6,0-1.1,0H-694.6z"/>
				</g>
				<g class="st2">
					<path class="st1" d="M-654.7-1057.1c3.4,0,6.4,1.2,9,3.7c2.5,2.5,3.8,5.6,3.8,9.3c0,3.7-1.2,6.8-3.6,9.4
						c-2.4,2.6-5.4,3.9-8.9,3.9c-3.5,0-6.5-1.3-9-3.8c-2.5-2.6-3.7-5.6-3.7-9.1c0-1.9,0.3-3.7,1-5.4c0.7-1.7,1.6-3.1,2.8-4.2
						c1.2-1.1,2.5-2,4-2.7C-657.9-1056.8-656.3-1057.1-654.7-1057.1z M-661.1-1044c0,2.1,0.7,3.7,2,5c1.3,1.3,2.8,1.9,4.5,1.9
						c1.7,0,3.1-0.6,4.5-1.9c1.3-1.3,2-2.9,2-5.1c0-2.1-0.7-3.8-2-5.1c-1.3-1.3-2.8-1.9-4.5-1.9c-1.7,0-3.1,0.6-4.5,1.9
						C-660.4-1047.7-661.1-1046.1-661.1-1044z"/>
				</g>
				<g class="st2">
					<path class="st1" d="M-841.5-1057.2c0.2-0.4,0.6-0.7,1-0.9c0.5-0.1,1-0.2,1.7-0.2c0.7,0,1.3,0.1,1.7,0.2c0.4,0.1,0.7,0.3,1,0.4
						c0.2,0.2,0.4,0.4,0.5,0.8c0.1,0.4,0.2,1,0.2,1.9v20.4c0,0.6,0,1-0.1,1.3c0,0.3-0.2,0.6-0.3,1c-0.3,0.7-1.3,1-2.9,1
						c-1,0-1.6-0.1-2-0.2c-0.4-0.1-0.7-0.4-0.9-0.7c-5.5-7.3-9.1-12.1-10.9-14.4l0,12.1c0,0.6,0,1-0.1,1.3c0,0.3-0.2,0.6-0.3,1
						c-0.3,0.7-1.3,1-2.9,1c-1.5,0-2.4-0.3-2.8-1c-0.2-0.4-0.3-0.7-0.3-1c0-0.3-0.1-0.7-0.1-1.3l0-20.5c0-0.9,0.1-1.6,0.3-2
						c0.2-0.4,0.6-0.7,1-0.9c0.5-0.1,1.1-0.2,1.8-0.2c0.7,0,1.3,0.1,1.7,0.2c0.4,0.1,0.7,0.3,0.9,0.5c0.1,0.1,0.4,0.4,0.8,1
						c5.2,7,8.6,11.7,10.4,13.9l0-12.4C-841.9-1056.1-841.8-1056.7-841.5-1057.2z"/>
				</g>
				<g class="st2">
					<path class="st1" d="M-613-1057.1c0.2-0.4,0.6-0.7,1-0.9c0.5-0.1,1-0.2,1.7-0.2c0.7,0,1.3,0.1,1.7,0.2c0.4,0.1,0.7,0.3,1,0.4
						c0.2,0.2,0.4,0.4,0.5,0.8c0.1,0.4,0.2,1,0.2,1.9l0,20.4c0,0.6,0,1-0.1,1.3c0,0.3-0.2,0.6-0.3,1c-0.3,0.7-1.3,1-2.9,1
						c-1,0-1.6-0.1-2-0.2c-0.4-0.1-0.7-0.4-0.9-0.7c-5.5-7.3-9.1-12.1-10.9-14.4l0,12.1c0,0.6,0,1-0.1,1.3c0,0.3-0.2,0.6-0.3,1
						c-0.3,0.7-1.3,1-2.9,1c-1.5,0-2.4-0.3-2.8-1c-0.2-0.4-0.3-0.7-0.3-1c0-0.3-0.1-0.7-0.1-1.3l0-20.5c0-0.9,0.1-1.6,0.3-2
						c0.2-0.4,0.6-0.7,1-0.9c0.5-0.1,1.1-0.2,1.8-0.2c0.7,0,1.3,0.1,1.7,0.2c0.4,0.1,0.7,0.3,0.9,0.5c0.1,0.1,0.4,0.4,0.8,1
						c5.2,7,8.6,11.7,10.4,13.9l0-12.4C-613.3-1055.9-613.2-1056.6-613-1057.1z"/>
				</g>
				<g class="st2">
					<path class="st1" d="M-822.7-1057l19.4,0c0.7,0,1.3,0.1,1.6,0.3c0.3,0.2,0.6,0.4,0.7,0.8c0.1,0.4,0.2,0.9,0.2,1.5
						c0,0.6-0.1,1.1-0.2,1.4c-0.1,0.4-0.3,0.6-0.6,0.7c-0.4,0.2-1,0.3-1.8,0.3l-6.7,0l0,17.5c0,0.5,0,0.9-0.1,1.2
						c0,0.3-0.1,0.6-0.3,0.9c-0.2,0.3-0.5,0.6-0.9,0.7c-0.4,0.1-1,0.2-1.7,0.2c-0.7,0-1.3-0.1-1.7-0.2c-0.4-0.1-0.7-0.4-0.9-0.7
						c-0.2-0.3-0.3-0.6-0.3-0.9c0-0.3-0.1-0.7-0.1-1.2l0-17.5l-6.7,0c-0.7,0-1.3-0.1-1.6-0.3c-0.3-0.2-0.6-0.4-0.7-0.8
						c-0.1-0.4-0.2-0.9-0.2-1.5c0-0.6,0.1-1.1,0.2-1.4c0.1-0.4,0.3-0.6,0.6-0.8C-824.1-1056.9-823.5-1057-822.7-1057z"/>
				</g>
				<g class="st2">
					<path class="st1" d="M-736.4-1057l19.4,0c0.7,0,1.3,0.1,1.6,0.3c0.3,0.2,0.6,0.4,0.7,0.8c0.1,0.4,0.2,0.9,0.2,1.5
						c0,0.6-0.1,1.1-0.2,1.4c-0.1,0.4-0.3,0.6-0.6,0.7c-0.4,0.2-1,0.3-1.8,0.3l-6.7,0l0,17.5c0,0.5,0,0.9-0.1,1.2
						c0,0.3-0.1,0.6-0.3,0.9c-0.2,0.3-0.5,0.6-0.9,0.7c-0.4,0.1-1,0.2-1.7,0.2c-0.7,0-1.3-0.1-1.7-0.2c-0.4-0.1-0.7-0.4-0.9-0.7
						c-0.2-0.3-0.3-0.6-0.3-0.9c0-0.3-0.1-0.7-0.1-1.2l0-17.5h-6.7c-0.7,0-1.3-0.1-1.6-0.3c-0.3-0.2-0.6-0.4-0.7-0.8
						c-0.1-0.4-0.2-0.9-0.2-1.5c0-0.6,0.1-1.1,0.2-1.4c0.1-0.4,0.3-0.6,0.6-0.7C-737.7-1056.9-737.1-1057-736.4-1057z"/>
				</g>
				<g class="st2">
					<path class="st1" d="M-772.9-1056c0.2-0.4,0.6-0.6,1-0.8c0.4-0.1,1-0.2,1.7-0.2c0.7,0,1.2,0.1,1.6,0.2c0.4,0.1,0.7,0.3,0.9,0.4
						c0.2,0.2,0.4,0.4,0.5,0.7c0.1,0.4,0.2,1,0.2,1.8l0,10.5c0,3.1-1,5.9-2.9,8.4c-0.9,1.2-2.1,2.1-3.6,2.9
						c-1.5,0.7-3.1,1.1-4.9,1.1c-1.8,0-3.4-0.4-4.8-1.1c-1.5-0.7-2.6-1.7-3.5-2.9c-1.9-2.5-2.8-5.3-2.8-8.4l0-10.5
						c0-0.6,0-1,0.1-1.2c0-0.3,0.1-0.6,0.3-0.9c0.2-0.3,0.5-0.6,0.9-0.7c0.4-0.1,1-0.2,1.8-0.2c0.7,0,1.3,0.1,1.8,0.2
						c0.4,0.1,0.7,0.4,0.9,0.7c0.3,0.5,0.4,1.3,0.4,2.2l0,10.5c0,1.4,0.3,2.8,1,4c0.3,0.7,0.9,1.2,1.6,1.6c0.7,0.4,1.5,0.6,2.5,0.6
						c1.7,0,3-0.6,3.8-1.9c0.8-1.3,1.3-2.7,1.3-4.4l0-10.7C-773.2-1055-773.1-1055.6-772.9-1056z"/>
				</g>
			</g>
		</g>
	</g>
	<g id="Group_149-9" transform="translate(12329.402 1744.362) rotate(180)">
		<g id="Group_146-18" transform="translate(0 133.268)">
			<g id="Group_135-35">
				<g class="st2">
					<path class="st1" d="M1060.2-790.3c-0.2,0.3-0.4,0.5-0.8,0.6c-0.4,0.1-0.9,0.2-1.6,0.2c-0.7,0-1.2-0.1-1.6-0.2
						c-0.4-0.1-0.7-0.3-0.8-0.7c-0.2-0.3-0.2-0.6-0.3-0.8c0-0.2,0-0.6,0-1.1c0-0.5,0-0.8,0-1.1c0-0.2,0.1-0.5,0.3-0.8
						c0.3-0.6,1.1-0.8,2.4-0.8c1.3,0,2.1,0.3,2.4,0.8c0.2,0.3,0.3,0.6,0.3,0.8c0,0.2,0,0.6,0,1.1c0,0.5,0,0.8,0,1.1
						C1060.4-790.9,1060.3-790.6,1060.2-790.3z M1055-784.5c0-0.5,0-0.8,0-1.1c0-0.2,0.1-0.5,0.3-0.8c0.3-0.5,1.1-0.8,2.4-0.8
						c1,0,1.7,0.2,2.1,0.5c0.4,0.3,0.5,0.7,0.6,1.3c0,0.2,0,0.5,0,0.9l0,10.9c0,0.5,0,0.8,0,1.1c0,0.2-0.1,0.5-0.3,0.8
						c-0.3,0.5-1.1,0.8-2.4,0.8c-1.3,0-2.1-0.3-2.4-0.8c-0.1-0.3-0.2-0.6-0.3-0.8c0-0.2,0-0.6,0-1.1L1055-784.5z"/>
				</g>
				<g class="st2">
					<path class="st1" d="M1181.1-790.3c-0.2,0.3-0.4,0.5-0.8,0.6c-0.4,0.1-0.9,0.2-1.6,0.2c-0.7,0-1.2-0.1-1.6-0.2
						c-0.4-0.1-0.7-0.3-0.8-0.7c-0.2-0.3-0.3-0.6-0.3-0.8c0-0.2,0-0.6,0-1.1c0-0.5,0-0.8,0-1.1c0-0.2,0.1-0.5,0.3-0.8
						c0.3-0.6,1.1-0.8,2.4-0.8c1.3,0,2.1,0.3,2.4,0.8c0.2,0.3,0.3,0.6,0.3,0.8c0,0.2,0,0.6,0,1.1c0,0.5,0,0.8,0,1.1
						C1181.3-790.9,1181.3-790.6,1181.1-790.3z M1176-784.5c0-0.5,0-0.8,0-1.1c0-0.2,0.1-0.5,0.3-0.8c0.3-0.5,1.1-0.8,2.4-0.8
						c1,0,1.7,0.2,2.1,0.5c0.4,0.3,0.5,0.7,0.6,1.3c0,0.2,0,0.5,0,0.9l0,10.9c0,0.5,0,0.8,0,1.1c0,0.2-0.1,0.5-0.3,0.8
						c-0.3,0.5-1.1,0.8-2.4,0.8c-1.3,0-2.1-0.3-2.4-0.8c-0.1-0.3-0.2-0.6-0.3-0.8c0-0.2,0-0.6,0-1.1V-784.5z"/>
				</g>
				<g class="st2">
					<path class="st1" d="M1236.5-776c-0.5,0-0.8,0-1.1,0c-0.2,0-0.5-0.1-0.8-0.3c-0.5-0.3-0.8-1.1-0.8-2.4c0-1,0.2-1.7,0.5-2.1
						c0.3-0.4,0.7-0.5,1.3-0.6c0.2,0,0.5,0,0.9,0l10.9,0c0.5,0,0.8,0,1.1,0c0.2,0,0.5,0.1,0.8,0.3c0.5,0.3,0.8,1.1,0.8,2.4
						c0,1.3-0.3,2.1-0.8,2.4c-0.3,0.1-0.6,0.2-0.8,0.3c-0.2,0-0.6,0-1.1,0L1236.5-776z M1230.7-781.1c0.3,0.2,0.5,0.4,0.6,0.8
						c0.1,0.4,0.2,0.9,0.2,1.6c0,0.7-0.1,1.2-0.2,1.6c-0.1,0.4-0.3,0.7-0.7,0.8c-0.3,0.2-0.6,0.2-0.8,0.3c-0.2,0-0.6,0-1.1,0
						c-0.5,0-0.8,0-1.1,0c-0.2,0-0.5-0.1-0.8-0.3c-0.6-0.3-0.8-1.1-0.8-2.4c0-1.3,0.3-2.1,0.8-2.4c0.3-0.2,0.6-0.3,0.8-0.3
						c0.2,0,0.6,0,1.1,0c0.5,0,0.8,0,1.1,0C1230.1-781.3,1230.4-781.2,1230.7-781.1z"/>
				</g>
				<g class="st2">
					<path class="st1" d="M1276.4-792.9c3.4,0,6.4,1.2,9,3.7c2.5,2.5,3.8,5.6,3.8,9.3c0,3.7-1.2,6.8-3.6,9.4
						c-2.4,2.6-5.4,3.9-8.9,3.9c-3.5,0-6.5-1.3-9-3.8c-2.5-2.6-3.7-5.6-3.7-9.1c0-1.9,0.3-3.7,1-5.4c0.7-1.7,1.6-3.1,2.8-4.2
						c1.2-1.1,2.5-2,4-2.7C1273.2-792.6,1274.8-792.9,1276.4-792.9z M1270-779.8c0,2.1,0.7,3.8,2,5c1.3,1.3,2.8,1.9,4.5,1.9
						c1.7,0,3.1-0.6,4.5-1.9c1.3-1.3,2-2.9,2-5.1c0-2.1-0.7-3.8-2-5.1c-1.3-1.3-2.8-1.9-4.5-1.9c-1.7,0-3.1,0.6-4.5,1.9
						C1270.7-783.5,1270-781.8,1270-779.8z"/>
				</g>
				<g class="st2">
					<path class="st1" d="M1089.6-792.9c0.2-0.4,0.6-0.7,1-0.9c0.5-0.1,1-0.2,1.7-0.2c0.7,0,1.3,0.1,1.7,0.2c0.4,0.1,0.7,0.3,1,0.4
						c0.2,0.2,0.4,0.4,0.5,0.8c0.1,0.4,0.2,1,0.2,1.9v20.4c0,0.6,0,1-0.1,1.3c0,0.3-0.2,0.6-0.3,1c-0.3,0.7-1.3,1-2.9,1
						c-1,0-1.6-0.1-2-0.2c-0.4-0.1-0.7-0.4-0.9-0.7c-5.5-7.3-9.1-12.1-10.9-14.4l0,12.1c0,0.6,0,1-0.1,1.3c0,0.3-0.2,0.6-0.3,1
						c-0.3,0.7-1.3,1-2.9,1c-1.5,0-2.4-0.3-2.8-1c-0.2-0.4-0.3-0.7-0.3-1c0-0.3-0.1-0.7-0.1-1.3l0-20.5c0-0.9,0.1-1.6,0.3-2
						c0.2-0.4,0.6-0.7,1-0.9c0.5-0.1,1.1-0.2,1.8-0.2c0.7,0,1.3,0.1,1.7,0.2c0.4,0.1,0.7,0.3,0.9,0.5c0.1,0.1,0.4,0.4,0.8,1
						c5.2,7,8.6,11.7,10.4,13.9l0-12.4C1089.2-791.8,1089.3-792.5,1089.6-792.9z"/>
				</g>
				<g class="st2">
					<path class="st1" d="M1318.1-792.8c0.2-0.4,0.6-0.7,1-0.9c0.5-0.1,1-0.2,1.7-0.2c0.7,0,1.3,0.1,1.7,0.2c0.4,0.1,0.7,0.3,1,0.4
						c0.2,0.2,0.4,0.4,0.5,0.8c0.1,0.4,0.2,1,0.2,1.9v20.4c0,0.6,0,1-0.1,1.3c0,0.3-0.2,0.6-0.3,1c-0.3,0.7-1.3,1-2.9,1
						c-1,0-1.6-0.1-2-0.2c-0.4-0.1-0.7-0.4-0.9-0.7c-5.5-7.3-9.1-12.1-10.9-14.4l0,12.1c0,0.6,0,1-0.1,1.3c0,0.3-0.2,0.6-0.3,1
						c-0.3,0.7-1.3,1-2.9,1c-1.5,0-2.4-0.3-2.8-1c-0.2-0.4-0.3-0.7-0.3-1c0-0.3-0.1-0.7-0.1-1.3l0-20.5c0-0.9,0.1-1.6,0.3-2
						c0.2-0.4,0.6-0.7,1-0.9c0.5-0.1,1.1-0.2,1.8-0.2c0.7,0,1.3,0.1,1.7,0.2c0.4,0.1,0.7,0.3,0.9,0.5c0.1,0.1,0.4,0.4,0.8,1
						c5.2,7,8.6,11.7,10.4,13.9l0-12.4C1317.8-791.7,1317.9-792.4,1318.1-792.8z"/>
				</g>
				<g class="st2">
					<path class="st1" d="M1108.4-792.7l19.4,0c0.7,0,1.3,0.1,1.6,0.3c0.3,0.2,0.6,0.4,0.7,0.8c0.1,0.4,0.2,0.9,0.2,1.5
						c0,0.6-0.1,1.1-0.2,1.4c-0.1,0.4-0.3,0.6-0.6,0.8c-0.4,0.2-1,0.3-1.8,0.3l-6.7,0l0,17.5c0,0.5,0,0.9-0.1,1.2
						c0,0.3-0.1,0.6-0.3,0.9c-0.2,0.3-0.5,0.6-0.9,0.7c-0.4,0.1-1,0.2-1.7,0.2c-0.7,0-1.3-0.1-1.7-0.2c-0.4-0.1-0.7-0.4-0.9-0.7
						c-0.2-0.3-0.3-0.6-0.3-0.9c0-0.3-0.1-0.7-0.1-1.2l0-17.5l-6.7,0c-0.7,0-1.3-0.1-1.6-0.3c-0.3-0.2-0.6-0.4-0.7-0.8
						c-0.1-0.4-0.2-0.9-0.2-1.5c0-0.6,0.1-1.1,0.2-1.4c0.1-0.4,0.3-0.6,0.6-0.8C1107-792.6,1107.6-792.7,1108.4-792.7z"/>
				</g>
				<g class="st2">
					<path class="st1" d="M1194.7-792.8h19.4c0.7,0,1.3,0.1,1.6,0.3c0.3,0.2,0.6,0.4,0.7,0.8c0.1,0.4,0.2,0.9,0.2,1.5
						c0,0.6-0.1,1.1-0.2,1.4c-0.1,0.4-0.3,0.6-0.6,0.8c-0.4,0.2-1,0.3-1.8,0.3l-6.7,0l0,17.5c0,0.5,0,0.9-0.1,1.2
						c0,0.3-0.1,0.6-0.3,0.9c-0.2,0.3-0.5,0.6-0.9,0.7c-0.4,0.1-1,0.2-1.7,0.2c-0.7,0-1.3-0.1-1.7-0.2c-0.4-0.1-0.7-0.4-0.9-0.7
						c-0.2-0.3-0.3-0.6-0.3-0.9c0-0.3-0.1-0.7-0.1-1.2l0-17.5l-6.7,0c-0.7,0-1.3-0.1-1.6-0.3c-0.3-0.2-0.6-0.4-0.7-0.8
						c-0.1-0.4-0.2-0.9-0.2-1.5c0-0.6,0.1-1.1,0.2-1.4c0.1-0.4,0.3-0.6,0.6-0.8C1193.4-792.6,1193.9-792.8,1194.7-792.8z"/>
				</g>
				<g class="st2">
					<path class="st1" d="M1158.2-791.8c0.2-0.4,0.6-0.6,1-0.8c0.4-0.1,1-0.2,1.7-0.2c0.7,0,1.2,0.1,1.6,0.2
						c0.4,0.1,0.7,0.3,0.9,0.4c0.2,0.2,0.4,0.4,0.5,0.7c0.1,0.4,0.2,1,0.2,1.8l0,10.5c0,3.1-1,5.9-2.9,8.4c-0.9,1.2-2.1,2.1-3.6,2.9
						c-1.5,0.7-3.1,1.1-4.9,1.1c-1.8,0-3.4-0.4-4.8-1.1c-1.5-0.7-2.6-1.7-3.5-2.9c-1.9-2.5-2.8-5.3-2.8-8.4l0-10.5
						c0-0.6,0-1,0.1-1.2c0-0.3,0.1-0.6,0.3-0.9c0.2-0.3,0.5-0.6,0.9-0.7c0.4-0.1,1-0.2,1.8-0.2c0.7,0,1.3,0.1,1.8,0.2
						c0.4,0.1,0.7,0.4,0.9,0.7c0.3,0.5,0.4,1.3,0.4,2.2l0,10.5c0,1.4,0.3,2.8,1,4c0.3,0.7,0.9,1.2,1.6,1.6c0.7,0.4,1.5,0.6,2.5,0.6
						c1.7,0,3-0.6,3.8-1.9c0.8-1.3,1.3-2.7,1.3-4.4l0-10.7C1157.9-790.8,1158-791.4,1158.2-791.8z"/>
				</g>
			</g>
		</g>
		<g id="Group_147-18" transform="translate(90.063 148.182) rotate(-90)">
			<g id="Group_135-36" transform="translate(0 0)">
				<g class="st2">
					<path class="st1" d="M790.8,1146.6c0-0.5,0-0.8,0-1.1c0-0.2,0.1-0.5,0.3-0.8c0.3-0.5,1.1-0.8,2.4-0.8c1,0,1.7,0.2,2.1,0.5
						c0.4,0.3,0.5,0.7,0.6,1.3c0,0.2,0,0.5,0,0.9l0,10.9c0,0.5,0,0.8,0,1.1c0,0.2-0.1,0.5-0.3,0.8c-0.3,0.5-1.1,0.8-2.4,0.8
						c-1.3,0-2.1-0.3-2.4-0.8c-0.1-0.3-0.2-0.6-0.3-0.8c0-0.2,0-0.6,0-1.1L790.8,1146.6z M795.9,1140.8c-0.2,0.3-0.4,0.5-0.8,0.6
						c-0.4,0.1-0.9,0.2-1.6,0.2c-0.7,0-1.2-0.1-1.6-0.2c-0.4-0.1-0.7-0.3-0.8-0.7c-0.2-0.3-0.2-0.6-0.3-0.8c0-0.2,0-0.6,0-1.1
						c0-0.5,0-0.8,0-1.1c0-0.2,0.1-0.5,0.3-0.8c0.3-0.6,1.1-0.8,2.4-0.8c1.3,0,2.1,0.3,2.4,0.8c0.2,0.3,0.3,0.6,0.3,0.8
						c0,0.2,0,0.6,0,1.1c0,0.5,0,0.8,0,1.1S796.1,1140.5,795.9,1140.8z"/>
				</g>
				<g class="st2">
					<path class="st1" d="M911.7,1146.6c0-0.5,0-0.8,0-1.1c0-0.2,0.1-0.5,0.3-0.8c0.3-0.5,1.1-0.8,2.4-0.8c1,0,1.7,0.2,2.1,0.5
						c0.4,0.3,0.5,0.7,0.6,1.3c0,0.2,0,0.5,0,0.9l0,10.9c0,0.5,0,0.8,0,1.1c0,0.2-0.1,0.5-0.3,0.8c-0.3,0.5-1.1,0.8-2.4,0.8
						c-1.3,0-2.1-0.3-2.4-0.8c-0.1-0.3-0.2-0.6-0.3-0.8c0-0.2,0-0.6,0-1.1L911.7,1146.6z M916.9,1140.8c-0.2,0.3-0.4,0.5-0.8,0.6
						c-0.4,0.1-0.9,0.2-1.6,0.2c-0.7,0-1.2-0.1-1.6-0.2c-0.4-0.1-0.7-0.3-0.8-0.7c-0.2-0.3-0.2-0.6-0.3-0.8c0-0.2,0-0.6,0-1.1
						c0-0.5,0-0.8,0-1.1c0-0.2,0.1-0.5,0.3-0.8c0.3-0.6,1.1-0.8,2.4-0.8c1.3,0,2.1,0.3,2.4,0.8c0.2,0.3,0.3,0.6,0.3,0.8
						c0,0.2,0,0.6,0,1.1c0,0.5,0,0.8,0,1.1C917.1,1140.2,917,1140.5,916.9,1140.8z"/>
				</g>
				<g class="st2">
					<path class="st1" d="M972.3,1155.2c-0.5,0-0.8,0-1.1,0c-0.2,0-0.5-0.1-0.8-0.3c-0.5-0.3-0.8-1.1-0.8-2.4c0-1,0.2-1.7,0.5-2.1
						c0.3-0.4,0.7-0.5,1.3-0.6c0.2,0,0.5,0,0.9,0l10.9,0c0.5,0,0.8,0,1.1,0c0.2,0,0.5,0.1,0.8,0.3c0.5,0.3,0.8,1.1,0.8,2.4
						c0,1.3-0.3,2.1-0.8,2.4c-0.3,0.1-0.6,0.2-0.8,0.3c-0.2,0-0.6,0-1.1,0L972.3,1155.2z M966.5,1150c0.3,0.2,0.5,0.4,0.6,0.8
						c0.1,0.4,0.2,0.9,0.2,1.6c0,0.7-0.1,1.2-0.2,1.6c-0.1,0.4-0.3,0.7-0.7,0.8c-0.3,0.2-0.6,0.2-0.8,0.3c-0.2,0-0.6,0-1.1,0
						c-0.5,0-0.8,0-1.1,0c-0.2,0-0.5-0.1-0.8-0.3c-0.6-0.3-0.8-1.1-0.8-2.4c0-1.3,0.3-2.1,0.8-2.4c0.3-0.2,0.6-0.3,0.8-0.3
						c0.2,0,0.6,0,1.1,0c0.5,0,0.8,0,1.1,0C965.9,1149.8,966.2,1149.9,966.5,1150z"/>
				</g>
				<g class="st2">
					<path class="st1" d="M1012.2,1138.2c3.4,0,6.4,1.2,9,3.7c2.5,2.5,3.8,5.6,3.8,9.3c0,3.7-1.2,6.8-3.6,9.4
						c-2.4,2.6-5.4,3.9-8.9,3.9c-3.5,0-6.5-1.3-9-3.8c-2.5-2.6-3.7-5.6-3.7-9.1c0-1.9,0.3-3.7,1-5.4c0.7-1.7,1.6-3.1,2.8-4.2
						c1.2-1.1,2.5-2,4-2.7C1009,1138.5,1010.6,1138.2,1012.2,1138.2z M1005.8,1151.4c0,2.1,0.7,3.8,2,5c1.3,1.3,2.8,1.9,4.5,1.9
						c1.7,0,3.1-0.6,4.5-1.9c1.3-1.3,2-2.9,2-5.1c0-2.1-0.7-3.8-2-5.1c-1.3-1.3-2.8-1.9-4.5-1.9c-1.7,0-3.1,0.6-4.5,1.9
						C1006.5,1147.6,1005.8,1149.3,1005.8,1151.4z"/>
				</g>
				<g class="st2">
					<path class="st1" d="M825.3,1138.2c0.2-0.4,0.6-0.7,1-0.9c0.5-0.1,1-0.2,1.7-0.2s1.3,0.1,1.7,0.2c0.4,0.1,0.7,0.3,1,0.4
						c0.2,0.2,0.4,0.4,0.5,0.8c0.1,0.4,0.2,1,0.2,1.9l0,20.4c0,0.6,0,1-0.1,1.3c0,0.3-0.2,0.6-0.3,1c-0.3,0.7-1.3,1-2.9,1
						c-1,0-1.6-0.1-2-0.2c-0.4-0.1-0.7-0.4-0.9-0.7c-5.5-7.3-9.1-12.1-10.9-14.4l0,12.1c0,0.6,0,1-0.1,1.3c0,0.3-0.2,0.6-0.3,1
						c-0.3,0.7-1.3,1-2.9,1c-1.5,0-2.4-0.3-2.8-1c-0.2-0.4-0.3-0.7-0.3-1c0-0.3-0.1-0.7-0.1-1.3l0-20.5c0-0.9,0.1-1.6,0.3-2
						c0.2-0.4,0.6-0.7,1-0.9c0.5-0.1,1.1-0.2,1.8-0.2c0.7,0,1.3,0.1,1.7,0.2c0.4,0.1,0.7,0.3,0.9,0.5c0.1,0.1,0.4,0.4,0.8,1
						c5.2,7,8.6,11.7,10.4,13.9l0-12.4C825,1139.3,825.1,1138.6,825.3,1138.2z"/>
				</g>
				<g class="st2">
					<path class="st1" d="M1053.9,1138.3c0.2-0.4,0.6-0.7,1-0.9c0.5-0.1,1-0.2,1.7-0.2c0.7,0,1.3,0.1,1.7,0.2c0.4,0.1,0.7,0.3,1,0.4
						c0.2,0.2,0.4,0.4,0.5,0.8c0.1,0.4,0.2,1,0.2,1.9v20.4c0,0.6,0,1-0.1,1.3c0,0.3-0.2,0.6-0.3,1c-0.3,0.7-1.3,1-2.9,1
						c-1,0-1.6-0.1-2-0.2c-0.4-0.1-0.7-0.4-0.9-0.7c-5.5-7.3-9.1-12.1-10.9-14.4l0,12.1c0,0.6,0,1-0.1,1.3c0,0.3-0.2,0.6-0.3,1
						c-0.3,0.7-1.3,1-2.9,1c-1.5,0-2.4-0.3-2.8-1c-0.2-0.4-0.3-0.7-0.3-1c0-0.3-0.1-0.7-0.1-1.3l0-20.5c0-0.9,0.1-1.6,0.3-2
						c0.2-0.4,0.6-0.7,1-0.9c0.5-0.1,1.1-0.2,1.8-0.2c0.7,0,1.3,0.1,1.7,0.2c0.4,0.1,0.7,0.3,0.9,0.5c0.1,0.1,0.4,0.4,0.8,1
						c5.2,7,8.6,11.7,10.4,13.9l0-12.4C1053.5,1139.4,1053.7,1138.7,1053.9,1138.3z"/>
				</g>
				<g class="st2">
					<path class="st1" d="M844.1,1138.4l19.4,0c0.7,0,1.3,0.1,1.6,0.3c0.3,0.2,0.6,0.4,0.7,0.8c0.1,0.4,0.2,0.9,0.2,1.5
						c0,0.6-0.1,1.1-0.2,1.4c-0.1,0.4-0.3,0.6-0.6,0.7c-0.4,0.2-1,0.3-1.8,0.3h-6.7l0,17.5c0,0.5,0,0.9-0.1,1.2
						c0,0.3-0.1,0.6-0.3,0.9c-0.2,0.3-0.5,0.6-0.9,0.7s-1,0.2-1.7,0.2c-0.7,0-1.3-0.1-1.7-0.2c-0.4-0.1-0.7-0.4-0.9-0.7
						c-0.2-0.3-0.3-0.6-0.3-0.9c0-0.3-0.1-0.7-0.1-1.2l0-17.5h-6.7c-0.7,0-1.3-0.1-1.6-0.3c-0.3-0.2-0.6-0.4-0.7-0.8
						c-0.1-0.4-0.2-0.9-0.2-1.5c0-0.6,0.1-1.1,0.2-1.4c0.1-0.4,0.3-0.6,0.6-0.7C842.8,1138.5,843.4,1138.4,844.1,1138.4z"/>
				</g>
				<g class="st2">
					<path class="st1" d="M930.5,1138.4l19.4,0c0.7,0,1.3,0.1,1.6,0.3c0.3,0.2,0.6,0.4,0.7,0.8c0.1,0.4,0.2,0.9,0.2,1.5
						c0,0.6-0.1,1.1-0.2,1.4c-0.1,0.4-0.3,0.6-0.6,0.7c-0.4,0.2-1,0.3-1.8,0.3h-6.7l0,17.5c0,0.5,0,0.9-0.1,1.2
						c0,0.3-0.1,0.6-0.3,0.9c-0.2,0.3-0.5,0.6-0.9,0.7c-0.4,0.1-1,0.2-1.7,0.2c-0.7,0-1.3-0.1-1.7-0.2c-0.4-0.1-0.7-0.4-0.9-0.7
						c-0.2-0.3-0.3-0.6-0.3-0.9c0-0.3-0.1-0.7-0.1-1.2l0-17.5h-6.7c-0.7,0-1.3-0.1-1.6-0.3c-0.3-0.2-0.6-0.4-0.7-0.8
						c-0.1-0.4-0.2-0.9-0.2-1.5c0-0.6,0.1-1.1,0.2-1.4c0.1-0.4,0.3-0.6,0.6-0.7C929.1,1138.5,929.7,1138.4,930.5,1138.4z"/>
				</g>
				<g class="st2">
					<path class="st1" d="M894,1139.3c0.2-0.4,0.6-0.6,1-0.8c0.4-0.1,1-0.2,1.7-0.2c0.7,0,1.2,0.1,1.6,0.2c0.4,0.1,0.7,0.3,0.9,0.4
						c0.2,0.2,0.4,0.4,0.5,0.7c0.1,0.4,0.2,1,0.2,1.8l0,10.5c0,3.1-1,5.9-2.9,8.4c-0.9,1.2-2.1,2.1-3.6,2.9
						c-1.5,0.7-3.1,1.1-4.9,1.1c-1.8,0-3.4-0.4-4.8-1.1c-1.5-0.7-2.6-1.7-3.5-2.9c-1.9-2.5-2.8-5.3-2.8-8.4l0-10.5
						c0-0.6,0-1,0.1-1.2c0-0.3,0.1-0.6,0.3-0.9c0.2-0.3,0.5-0.6,0.9-0.7c0.4-0.1,1-0.2,1.8-0.2c0.7,0,1.3,0.1,1.8,0.2
						c0.4,0.1,0.7,0.4,0.9,0.7c0.3,0.5,0.4,1.3,0.4,2.2l0,10.5c0,1.4,0.3,2.8,1,4c0.3,0.7,0.9,1.2,1.6,1.6c0.7,0.4,1.5,0.6,2.5,0.6
						c1.7,0,3-0.6,3.8-1.9c0.8-1.3,1.3-2.7,1.3-4.4l0-10.7C893.7,1140.4,893.8,1139.7,894,1139.3z"/>
				</g>
			</g>
		</g>
	</g>
</g>
<g id="Group_221" transform="translate(-133 -239.778)">
	<g id="Group_189" transform="translate(2660.15 -1726.115) rotate(45)">
		<circle id="Ellipse_5-5" class="st3" cx="-51.6" cy="2953.8" r="29.8"/>
		<path id="Path_1-10" class="st1" d="M-63.6,2964.8c2.1-2.1,27.4-0.7,27.4-0.7c0,4.5-2.7,7.4-10.7,8.2
			C-54.9,2973.2-65.7,2966.9-63.6,2964.8z"/>
		<g id="Group_96-2" transform="translate(1215.186 2527.541)">
			<path id="Subtraction_9-5" class="st1" d="M-1278.3,411.9c3.4,0,6.2,4.1,6.2,9.2c0,2.7,0.3,6.1-1,7.9c-1,1.4-0.9,1.4-5.1,1.3
				c-4.2-0.1-3.9,0.5-5-0.9c-1.4-1.6-1.2-5.4-1.2-8.4C-1284.5,416-1281.7,411.9-1278.3,411.9z"/>
			
				<ellipse id="Ellipse_26-5" transform="matrix(2.535182e-06 1 -1 2.535182e-06 -856.7533 1693.083)" class="st3" cx="-1274.9" cy="418.2" rx="5.1" ry="2.3"/>
		</g>
		<g id="Group_97-2" transform="translate(1227.706 2527.541)">
			<path id="Subtraction_9-2-3" class="st1" d="M-1267.8,411.9c3.4,0,6.2,4.1,6.2,9.2c0,2.7,0.3,6.1-1,7.9c-1,1.4-0.9,1.4-5.1,1.3
				c-4.2-0.1-3.9,0.5-5-0.9c-1.4-1.6-1.2-5.4-1.2-8.4C-1274,416-1271.2,411.9-1267.8,411.9z"/>
			
				<ellipse id="Ellipse_26-2-3" transform="matrix(2.535182e-06 1 -1 2.535182e-06 -846.285 1682.6147)" class="st3" cx="-1264.5" cy="418.2" rx="5.1" ry="2.3"/>
		</g>
		<path id="Path_137-2" class="st3" d="M-49.5,2906c0.2-0.1,0.4,0,0.5,0.2c0,0.1,0,0.2,0,0.3c-1.1,3.1-0.7,6.5,1.2,9.1
			c0.9,1.2,2,2.3,3.3,3.2c0.2,0.1,0.2,0.3,0.1,0.5c-0.1,0.1-0.2,0.2-0.4,0.1c-2.1-0.5-4.3-0.7-6.5-0.7c-2.5,0-5,0.4-7.5,1.1
			c-0.2,0.1-0.4-0.1-0.4-0.2c0,0,0,0,0-0.1c-0.3-1.9,0-3.8,0.8-5.6C-56.4,2909.3-51.6,2906.9-49.5,2906z"/>
		<path id="Path_138-2" class="st3" d="M-55,3000.5c-0.2,0.1-0.4,0-0.4-0.2c0-0.1,0-0.2,0-0.3c1.3-3,1-6.4-0.8-9.2
			c-0.8-1.3-1.9-2.4-3.1-3.3c-0.2-0.1-0.2-0.3-0.1-0.5c0.1-0.1,0.2-0.2,0.4-0.1c2.1,0.6,4.2,1,6.4,1.1c2.5,0.1,5.1-0.1,7.5-0.7
			c0.2,0,0.4,0.1,0.4,0.3c0,0,0,0,0,0.1c0.2,1.9-0.2,3.8-1.1,5.6C-47.9,2997.6-52.8,2999.8-55,3000.5z"/>
		<path id="Path_139-2" class="st3" d="M-4.1,2957.4c0.1,0.2,0,0.4-0.2,0.4c-0.1,0-0.2,0-0.3,0c-3-1.3-6.4-1-9.2,0.7
			c-1.3,0.8-2.4,1.9-3.4,3.1c-0.1,0.2-0.3,0.2-0.5,0.1c-0.1-0.1-0.2-0.2-0.1-0.4c0.6-2.1,1-4.2,1.1-6.4c0.1-2.5-0.1-5.1-0.7-7.5
			c0-0.2,0.1-0.4,0.3-0.4c0,0,0,0,0.1,0c1.9-0.2,3.8,0.2,5.5,1.1C-7,2950.3-4.9,2955.2-4.1,2957.4z"/>
		<path id="Path_140-2" class="st3" d="M-99.3,2954.9c-0.1-0.2,0-0.4,0.2-0.5c0.1,0,0.2,0,0.3,0c3.1,1,6.5,0.3,9-1.7
			c1.2-1,2.2-2.1,3-3.4c0.1-0.2,0.3-0.2,0.5-0.1c0.1,0.1,0.2,0.2,0.2,0.4c-0.4,2.1-0.5,4.3-0.4,6.5c0.1,2.5,0.6,5,1.5,7.4
			c0.1,0.2,0,0.4-0.2,0.4c0,0,0,0-0.1,0c-1.9,0.4-3.8,0.2-5.6-0.5C-95.7,2961.7-98.3,2957-99.3,2954.9z"/>
		<path id="Path_141-2" class="st3" d="M-12.2,2914.8c-6.5,0.3-8.7,2.1-9.4,3.7c-0.8,1.6-0.4,3.8-2.2,5.5c-0.7,0.5-1.4,0.9-2.2,1.1
			c-1.1,0.4-2.3,0.5-3.5,0.2c-0.9-0.3-2.8-1.2-3.3-1.4h0l0,0c-0.3-0.1-0.6-0.2-0.7-0.1c0,0,0,0-0.1,0.1c-0.1,0.2,0.2,0.6,0.4,0.7
			c0.2,0.2,0.4,0.4,0.7,0.5c0.6,0.3,2.4,1.4,4.8,2.9c2.9,2.1,5,5.1,6,8.5c1.1-0.5,2-1.3,2.6-2.3c0.7-1.2,1.1-2.6,1.1-4
			c0-1.6-0.2-3.3-0.5-4.9c-0.2-1.5-0.1-3.1,0.1-4.6C-17.6,2917.5-14.3,2915.6-12.2,2914.8z"/>
		<path id="Path_142-2" class="st3" d="M-11.4,2992.8c-0.3-6.5-2.1-8.7-3.7-9.4c-1.6-0.8-3.8-0.4-5.5-2.2c-0.5-0.7-0.9-1.4-1.1-2.2
			c-0.4-1.1-0.5-2.3-0.2-3.5c0.3-0.9,1.2-2.8,1.4-3.3v0l0,0c0.1-0.3,0.2-0.6,0.1-0.7c0,0,0,0-0.1-0.1c-0.2-0.1-0.6,0.2-0.7,0.4
			c-0.2,0.2-0.4,0.4-0.5,0.7c-0.3,0.6-1.4,2.4-2.9,4.8c-2.1,2.9-5.1,5-8.5,6c0.5,1.1,1.3,2,2.3,2.6c1.2,0.7,2.6,1.1,4,1.1
			c1.6,0,3.3-0.2,4.9-0.5c1.5-0.2,3.1-0.1,4.6,0.1C-14.1,2987.3-12.2,2990.7-11.4,2992.8z"/>
		<path id="Path_143-2" class="st3" d="M-89.9,2993.8c6.5-0.3,8.7-2.1,9.4-3.7c0.8-1.6,0.4-3.8,2.2-5.5c0.7-0.5,1.4-0.9,2.2-1.1
			c1.1-0.4,2.3-0.5,3.5-0.2c0.9,0.3,2.8,1.2,3.3,1.4h0l0,0c0.3,0.1,0.6,0.2,0.7,0.1c0,0,0,0,0.1-0.1c0.1-0.2-0.2-0.6-0.4-0.7
			c-0.2-0.2-0.4-0.4-0.7-0.5c-0.6-0.3-2.4-1.4-4.8-2.9c-2.9-2.1-5-5.1-6-8.5c-1.1,0.5-2,1.3-2.6,2.3c-0.7,1.2-1.1,2.6-1.1,4
			c0,1.6,0.2,3.3,0.5,4.9c0.2,1.5,0.1,3.1-0.1,4.6C-84.5,2991.1-87.8,2992.9-89.9,2993.8z"/>
		<path id="Path_144-2" class="st3" d="M-93.1,2913.6c0.3,6.5,2.1,8.7,3.7,9.4c1.6,0.8,3.8,0.4,5.5,2.2c0.5,0.7,0.9,1.4,1.1,2.2
			c0.4,1.1,0.5,2.3,0.2,3.5c-0.3,0.9-1.2,2.8-1.4,3.3v0l0,0c-0.1,0.3-0.2,0.6-0.1,0.7c0,0,0,0,0.1,0.1c0.2,0.1,0.6-0.2,0.7-0.4
			c0.2-0.2,0.4-0.4,0.5-0.7c0.3-0.6,1.4-2.4,2.9-4.8c2.1-2.9,5.1-5,8.5-6c-0.5-1.1-1.3-2-2.3-2.6c-1.2-0.7-2.6-1.1-4-1.1
			c-1.6,0-3.3,0.2-4.9,0.5c-1.5,0.2-3.1,0.1-4.6-0.1C-90.4,2919-92.2,2915.7-93.1,2913.6z"/>
	</g>
</g>
<g id="Group_215" transform="translate(991.652 -649.933)">
	<g id="Group_20-33" transform="translate(729.5 1608.5) rotate(180)">
		<path id="Intersection_4-47" class="st1" d="M1707.1,771.1v110.2c0,33.5-27.1,60.6-60.6,60.6h-111.1
			c0-94.3,76.5-170.8,170.8-170.8H1707.1z"/>
	</g>
</g>
<g id="Group_216" transform="translate(83.654 1302.944) rotate(-90)">
	<g id="Group_20-34" transform="translate(729.5 1608.5) rotate(180)">
		<path id="Intersection_4-48" class="st1" d="M-97,1508.3v110.2c0,33.5-27.1,60.6-60.6,60.6h-111.1c0-94.3,76.5-170.8,170.8-170.8
			H-97z"/>
	</g>
</g>
<g id="Group_220" transform="translate(2036.653 2210.194) rotate(180)">
	<g id="Group_20-35" transform="translate(729.5 1608.5) rotate(180)">
		<path id="Intersection_4-49" class="st1" d="M-834.1-296.5v110.2c0,33.5-27.1,60.6-60.6,60.6h-111.1
			c0-94.3,76.5-170.8,170.8-170.8H-834.1z"/>
	</g>
</g>
<g id="Group_222" transform="translate(3161.201 1801.365) rotate(180)">
	<g id="Group_189-2" transform="translate(2660.15 -1726.115) rotate(45)">
		<circle id="Ellipse_5-6" class="st3" cx="2499.5" cy="1911" r="29.8"/>
		<path id="Path_1-11" class="st1" d="M2487.4,1922c2.1-2.1,27.4-0.7,27.4-0.7c0,4.5-2.7,7.4-10.7,8.2
			C2496.2,1930.3,2485.4,1924.1,2487.4,1922z"/>
		<g id="Group_96-3" transform="translate(1215.186 2527.541)">
			<path id="Subtraction_9-6" class="st1" d="M1272.8-630.9c3.4,0,6.2,4.1,6.2,9.2c0,2.7,0.3,6.1-1,7.9c-1,1.4-0.9,1.4-5.1,1.3
				c-4.2-0.1-3.9,0.5-5-0.9c-1.4-1.6-1.2-5.4-1.2-8.4C1266.6-626.8,1269.4-630.9,1272.8-630.9z"/>
			
				<ellipse id="Ellipse_26-6" transform="matrix(-2.535182e-06 -1 1 -2.535182e-06 1900.8448 651.4735)" class="st3" cx="1276.2" cy="-624.7" rx="5.1" ry="2.3"/>
		</g>
		<g id="Group_97-3" transform="translate(1227.706 2527.541)">
			<path id="Subtraction_9-2-4" class="st1" d="M1283.2-630.9c3.4,0,6.2,4.1,6.2,9.2c0,2.7,0.3,6.1-1,7.9c-1,1.4-0.9,1.4-5.1,1.3
				c-4.2-0.1-3.9,0.5-5-0.9c-1.4-1.6-1.2-5.4-1.2-8.4C1277.1-626.8,1279.8-630.9,1283.2-630.9z"/>
			
				<ellipse id="Ellipse_26-2-4" transform="matrix(-2.535182e-06 -1 1 -2.535182e-06 1911.3132 661.9418)" class="st3" cx="1286.6" cy="-624.7" rx="5.1" ry="2.3"/>
		</g>
		<path id="Path_137-3" class="st3" d="M2501.6,1863.2c0.2-0.1,0.4,0,0.5,0.2c0,0.1,0,0.2,0,0.3c-1.1,3.1-0.7,6.5,1.2,9.1
			c0.9,1.2,2,2.3,3.3,3.2c0.2,0.1,0.2,0.3,0.1,0.5c-0.1,0.1-0.2,0.2-0.4,0.1c-2.1-0.5-4.3-0.7-6.5-0.7c-2.5,0-5,0.4-7.5,1.1
			c-0.2,0.1-0.4-0.1-0.4-0.2c0,0,0,0,0-0.1c-0.3-1.9,0-3.8,0.8-5.6C2494.7,1866.4,2499.4,1864.1,2501.6,1863.2z"/>
		<path id="Path_138-3" class="st3" d="M2496.1,1957.7c-0.2,0.1-0.4,0-0.4-0.2c0-0.1,0-0.2,0-0.3c1.3-3,1-6.4-0.8-9.2
			c-0.8-1.3-1.9-2.4-3.1-3.3c-0.2-0.1-0.2-0.3-0.1-0.5c0.1-0.1,0.2-0.2,0.4-0.1c2.1,0.6,4.2,1,6.4,1.1c2.5,0.1,5.1-0.1,7.5-0.7
			c0.2,0,0.4,0.1,0.4,0.3c0,0,0,0,0,0.1c0.2,1.9-0.2,3.8-1.1,5.6C2503.2,1954.8,2498.3,1956.9,2496.1,1957.7z"/>
		<path id="Path_139-3" class="st3" d="M2546.9,1914.6c0.1,0.2,0,0.4-0.2,0.4c-0.1,0-0.2,0-0.3,0c-3-1.3-6.4-1-9.2,0.7
			c-1.3,0.8-2.4,1.9-3.4,3.1c-0.1,0.2-0.3,0.2-0.5,0.1c-0.1-0.1-0.2-0.2-0.1-0.4c0.6-2.1,1-4.2,1.1-6.4c0.1-2.5-0.1-5.1-0.7-7.5
			c0-0.2,0.1-0.4,0.3-0.4c0,0,0,0,0.1,0c1.9-0.2,3.8,0.2,5.5,1.1C2544.1,1907.5,2546.2,1912.4,2546.9,1914.6z"/>
		<path id="Path_140-3" class="st3" d="M2451.7,1912.1c-0.1-0.2,0-0.4,0.2-0.5c0.1,0,0.2,0,0.3,0c3.1,1,6.5,0.3,9-1.7
			c1.2-1,2.2-2.1,3-3.4c0.1-0.2,0.3-0.2,0.5-0.1c0.1,0.1,0.2,0.2,0.2,0.4c-0.4,2.1-0.5,4.3-0.4,6.5c0.1,2.5,0.6,5,1.5,7.4
			c0.1,0.2,0,0.4-0.2,0.4c0,0,0,0-0.1,0c-1.9,0.4-3.8,0.2-5.6-0.5C2455.4,1918.8,2452.7,1914.2,2451.7,1912.1z"/>
		<path id="Path_141-3" class="st3" d="M2538.9,1871.9c-6.5,0.3-8.7,2.1-9.4,3.7c-0.8,1.6-0.4,3.8-2.2,5.5c-0.7,0.5-1.4,0.9-2.2,1.1
			c-1.1,0.4-2.3,0.5-3.5,0.2c-0.9-0.3-2.8-1.2-3.3-1.4h0l0,0c-0.3-0.1-0.6-0.2-0.7-0.1c0,0,0,0-0.1,0.1c-0.1,0.2,0.2,0.6,0.4,0.7
			c0.2,0.2,0.4,0.4,0.7,0.5c0.6,0.3,2.4,1.4,4.8,2.9c2.9,2.1,5,5.1,6,8.5c1.1-0.5,2-1.3,2.6-2.3c0.7-1.2,1.1-2.6,1.1-4
			c0-1.6-0.2-3.3-0.5-4.9c-0.2-1.5-0.1-3.1,0.1-4.6C2533.5,1874.6,2536.8,1872.8,2538.9,1871.9z"/>
		<path id="Path_142-3" class="st3" d="M2539.7,1949.9c-0.3-6.5-2.1-8.7-3.7-9.4c-1.6-0.8-3.8-0.4-5.5-2.2c-0.5-0.7-0.9-1.4-1.1-2.2
			c-0.4-1.1-0.5-2.3-0.2-3.5c0.3-0.9,1.2-2.8,1.4-3.3v0l0,0c0.1-0.3,0.2-0.6,0.1-0.7c0,0,0,0-0.1-0.1c-0.2-0.1-0.6,0.2-0.7,0.4
			c-0.2,0.2-0.4,0.4-0.5,0.7c-0.3,0.6-1.4,2.4-2.9,4.8c-2.1,2.9-5.1,5-8.5,6c0.5,1.1,1.3,2,2.3,2.6c1.2,0.7,2.6,1.1,4,1.1
			c1.6,0,3.3-0.2,4.9-0.5c1.5-0.2,3.1-0.1,4.6,0.1C2537,1944.5,2538.8,1947.8,2539.7,1949.9z"/>
		<path id="Path_143-3" class="st3" d="M2461.2,1950.9c6.5-0.3,8.7-2.1,9.4-3.7c0.8-1.6,0.4-3.8,2.2-5.5c0.7-0.5,1.4-0.9,2.2-1.1
			c1.1-0.4,2.3-0.5,3.5-0.2c0.9,0.3,2.8,1.2,3.3,1.4h0l0,0c0.3,0.1,0.6,0.2,0.7,0.1c0,0,0,0,0.1-0.1c0.1-0.2-0.2-0.6-0.4-0.7
			c-0.2-0.2-0.4-0.4-0.7-0.5c-0.6-0.3-2.4-1.4-4.8-2.9c-2.9-2.1-5-5.1-6-8.5c-1.1,0.5-2,1.3-2.6,2.3c-0.7,1.2-1.1,2.6-1.1,4
			c0,1.6,0.2,3.3,0.5,4.9c0.2,1.5,0.1,3.1-0.1,4.6C2466.6,1948.2,2463.2,1950.1,2461.2,1950.9z"/>
		<path id="Path_144-3" class="st3" d="M2458,1870.8c0.3,6.5,2.1,8.7,3.7,9.4c1.6,0.8,3.8,0.4,5.5,2.2c0.5,0.7,0.9,1.4,1.1,2.2
			c0.4,1.1,0.5,2.3,0.2,3.5c-0.3,0.9-1.2,2.8-1.4,3.3v0l0,0c-0.1,0.3-0.2,0.6-0.1,0.7c0,0,0,0,0.1,0.1c0.2,0.1,0.6-0.2,0.7-0.4
			c0.2-0.2,0.4-0.4,0.5-0.7c0.3-0.6,1.4-2.4,2.9-4.8c2.1-2.9,5.1-5,8.5-6c-0.5-1.1-1.3-2-2.3-2.6c-1.2-0.7-2.6-1.1-4-1.1
			c-1.6,0-3.3,0.2-4.9,0.5c-1.5,0.2-3.1,0.1-4.6-0.1C2460.7,1876.2,2458.9,1872.8,2458,1870.8z"/>
	</g>
</g>
<g id="Group_223" transform="matrix(-0.259, -0.966, 0.966, -0.259, 975.589, 2606.568)">
	<g id="Group_189-3" transform="translate(2660.15 -1726.115) rotate(45)">
		<circle id="Ellipse_5-7" class="st3" cx="1080.8" cy="1068.2" r="29.8"/>
		<path id="Path_1-12" class="st1" d="M1068.8,1079.2c2.1-2.1,27.4-0.7,27.4-0.7c0,4.5-2.7,7.4-10.7,8.2
			C1077.5,1087.5,1066.7,1081.2,1068.8,1079.2z"/>
		<g id="Group_96-4" transform="translate(1215.186 2527.541)">
			<path id="Subtraction_9-7" class="st1" d="M-145.9-1473.8c3.4,0,6.2,4.1,6.2,9.2c0,2.7,0.3,6.1-1,7.9c-1,1.4-0.9,1.4-5.1,1.3
				s-3.9,0.5-5-0.9c-1.4-1.6-1.2-5.4-1.2-8.4C-152.1-1469.6-149.3-1473.8-145.9-1473.8z"/>
			
				<ellipse id="Ellipse_26-7" transform="matrix(-1 2.533096e-06 -2.533096e-06 -1 -285.0498 -2935.0278)" class="st3" cx="-142.5" cy="-1467.5" rx="2.3" ry="5.1"/>
		</g>
		<g id="Group_97-4" transform="translate(1227.706 2527.541)">
			<path id="Subtraction_9-2-5" class="st1" d="M-135.4-1473.8c3.4,0,6.2,4.1,6.2,9.2c0,2.7,0.3,6.1-1,7.9c-1,1.4-0.9,1.4-5.1,1.3
				s-3.9,0.5-5-0.9c-1.4-1.6-1.2-5.4-1.2-8.4C-141.6-1469.6-138.8-1473.8-135.4-1473.8z"/>
			
				<ellipse id="Ellipse_26-2-5" transform="matrix(-1 2.533096e-06 -2.533096e-06 -1 -264.1131 -2935.0278)" class="st3" cx="-132.1" cy="-1467.5" rx="2.3" ry="5.1"/>
		</g>
		<path id="Path_137-4" class="st3" d="M1082.9,1020.3c0.2-0.1,0.4,0,0.5,0.2c0,0.1,0,0.2,0,0.3c-1.1,3.1-0.7,6.5,1.2,9.1
			c0.9,1.2,2,2.3,3.3,3.2c0.2,0.1,0.2,0.3,0.1,0.5c-0.1,0.1-0.2,0.2-0.4,0.1c-2.1-0.5-4.3-0.7-6.5-0.7c-2.5,0-5,0.4-7.5,1.1
			c-0.2,0.1-0.4-0.1-0.4-0.2c0,0,0,0,0-0.1c-0.3-1.9,0-3.8,0.8-5.6C1076,1023.6,1080.8,1021.2,1082.9,1020.3z"/>
		<path id="Path_138-4" class="st3" d="M1077.4,1114.9c-0.2,0.1-0.4,0-0.4-0.2c0-0.1,0-0.2,0-0.3c1.3-3,1-6.4-0.8-9.2
			c-0.8-1.3-1.9-2.4-3.1-3.3c-0.2-0.1-0.2-0.3-0.1-0.5c0.1-0.1,0.2-0.2,0.4-0.1c2.1,0.6,4.2,1,6.4,1.1c2.5,0.1,5.1-0.1,7.5-0.7
			c0.2,0,0.4,0.1,0.4,0.3c0,0,0,0,0,0.1c0.2,1.9-0.2,3.8-1.1,5.6C1084.5,1111.9,1079.6,1114.1,1077.4,1114.9z"/>
		<path id="Path_139-4" class="st3" d="M1128.3,1071.8c0.1,0.2,0,0.4-0.2,0.4c-0.1,0-0.2,0-0.3,0c-3-1.3-6.4-1-9.2,0.7
			c-1.3,0.8-2.4,1.9-3.4,3.1c-0.1,0.2-0.3,0.2-0.5,0.1c-0.1-0.1-0.2-0.2-0.1-0.4c0.6-2.1,1-4.2,1.1-6.4c0.1-2.5-0.1-5.1-0.7-7.5
			c0-0.2,0.1-0.4,0.3-0.4c0,0,0,0,0.1,0c1.9-0.2,3.8,0.2,5.5,1.1C1125.4,1064.7,1127.5,1069.6,1128.3,1071.8z"/>
		<path id="Path_140-4" class="st3" d="M1033.1,1069.2c-0.1-0.2,0-0.4,0.2-0.5c0.1,0,0.2,0,0.3,0c3.1,1,6.5,0.3,9-1.7
			c1.2-1,2.2-2.1,3-3.4c0.1-0.2,0.3-0.2,0.5-0.1c0.1,0.1,0.2,0.2,0.2,0.4c-0.4,2.1-0.5,4.3-0.4,6.5c0.1,2.5,0.6,5,1.5,7.4
			c0.1,0.2,0,0.4-0.2,0.4c0,0,0,0-0.1,0c-1.9,0.4-3.8,0.2-5.6-0.5C1036.7,1076,1034.1,1071.3,1033.1,1069.2z"/>
		<path id="Path_141-4" class="st3" d="M1120.2,1029.1c-6.5,0.3-8.7,2.1-9.4,3.7c-0.8,1.6-0.4,3.8-2.2,5.5c-0.7,0.5-1.4,0.9-2.2,1.1
			c-1.1,0.4-2.3,0.5-3.5,0.2c-0.9-0.3-2.8-1.2-3.3-1.4h0l0,0c-0.3-0.1-0.6-0.2-0.7-0.1c0,0,0,0-0.1,0.1c-0.1,0.2,0.2,0.6,0.4,0.7
			c0.2,0.2,0.4,0.4,0.7,0.5c0.6,0.3,2.4,1.4,4.8,2.9c2.9,2.1,5,5.1,6,8.5c1.1-0.5,2-1.3,2.6-2.3c0.7-1.2,1.1-2.6,1.1-4
			c0-1.6-0.2-3.3-0.5-4.9c-0.2-1.5-0.1-3.1,0.1-4.6C1114.8,1031.8,1118.1,1030,1120.2,1029.1z"/>
		<path id="Path_142-4" class="st3" d="M1121,1107.1c-0.3-6.5-2.1-8.7-3.7-9.4c-1.6-0.8-3.8-0.4-5.5-2.2c-0.5-0.7-0.9-1.4-1.1-2.2
			c-0.4-1.1-0.5-2.3-0.2-3.5c0.3-0.9,1.2-2.8,1.4-3.3v0l0,0c0.1-0.3,0.2-0.6,0.1-0.7c0,0,0,0-0.1-0.1c-0.2-0.1-0.6,0.2-0.7,0.4
			c-0.2,0.2-0.4,0.4-0.5,0.7c-0.3,0.6-1.4,2.4-2.9,4.8c-2.1,2.9-5.1,5-8.5,6c0.5,1.1,1.3,2,2.3,2.6c1.2,0.7,2.6,1.1,4,1.1
			c1.6,0,3.3-0.2,4.9-0.5c1.5-0.2,3.1-0.1,4.6,0.1C1118.3,1101.7,1120.2,1105,1121,1107.1z"/>
		<path id="Path_143-4" class="st3" d="M1042.5,1108.1c6.5-0.3,8.7-2.1,9.4-3.7c0.8-1.6,0.4-3.8,2.2-5.5c0.7-0.5,1.4-0.9,2.2-1.1
			c1.1-0.4,2.3-0.5,3.5-0.2c0.9,0.3,2.8,1.2,3.3,1.4h0l0,0c0.3,0.1,0.6,0.2,0.7,0.1c0,0,0,0,0.1-0.1c0.1-0.2-0.2-0.6-0.4-0.7
			c-0.2-0.2-0.4-0.4-0.7-0.5c-0.6-0.3-2.4-1.4-4.8-2.9c-2.9-2.1-5-5.1-6-8.5c-1.1,0.5-2,1.3-2.6,2.3c-0.7,1.2-1.1,2.6-1.1,4
			c0,1.6,0.2,3.3,0.5,4.9c0.2,1.5,0.1,3.1-0.1,4.6C1047.9,1105.4,1044.6,1107.2,1042.5,1108.1z"/>
		<path id="Path_144-4" class="st3" d="M1039.3,1027.9c0.3,6.5,2.1,8.7,3.7,9.4c1.6,0.8,3.8,0.4,5.5,2.2c0.5,0.7,0.9,1.4,1.1,2.2
			c0.4,1.1,0.5,2.3,0.2,3.5c-0.3,0.9-1.2,2.8-1.4,3.3v0l0,0c-0.1,0.3-0.2,0.6-0.1,0.7c0,0,0,0,0.1,0.1c0.2,0.1,0.6-0.2,0.7-0.4
			c0.2-0.2,0.4-0.4,0.5-0.7c0.3-0.6,1.4-2.4,2.9-4.8c2.1-2.9,5.1-5,8.5-6c-0.5-1.1-1.3-2-2.3-2.6c-1.2-0.7-2.6-1.1-4-1.1
			c-1.6,0-3.3,0.2-4.9,0.5c-1.5,0.2-3.1,0.1-4.6-0.1C1042,1033.3,1040.2,1030,1039.3,1027.9z"/>
	</g>
</g>
<g id="Group_226" transform="translate(2280.623 -979.808) rotate(82)">
	<g id="Group_189-4" transform="translate(2660.15 -1726.115) rotate(45)">
		<circle id="Ellipse_5-8" class="st3" cx="1578.6" cy="3771.8" r="29.8"/>
		<path id="Path_1-13" class="st1" d="M1566.6,3782.8c2.1-2.1,27.4-0.7,27.4-0.7c0,4.5-2.7,7.4-10.7,8.2
			C1575.3,3791.1,1564.5,3784.8,1566.6,3782.8z"/>
		<g id="Group_96-5" transform="translate(1215.186 2527.541)">
			<path id="Subtraction_9-8" class="st1" d="M351.9,1229.8c3.4,0,6.2,4.1,6.2,9.2c0,2.7,0.3,6.1-1,7.9c-1,1.4-0.9,1.4-5.1,1.3
				c-4.2-0.1-3.9,0.5-5-0.9c-1.4-1.6-1.2-5.4-1.2-8.4C345.7,1233.9,348.5,1229.8,351.9,1229.8z"/>
			<ellipse id="Ellipse_26-8" class="st3" cx="355.3" cy="1236.1" rx="2.3" ry="5.1"/>
		</g>
		<g id="Group_97-5" transform="translate(1227.706 2527.541)">
			<path id="Subtraction_9-2-6" class="st1" d="M362.4,1229.8c3.4,0,6.2,4.1,6.2,9.2c0,2.7,0.3,6.1-1,7.9c-1,1.4-0.9,1.4-5.1,1.3
				c-4.2-0.1-3.9,0.5-5-0.9c-1.4-1.6-1.2-5.4-1.2-8.4C356.2,1233.9,359,1229.8,362.4,1229.8z"/>
			<ellipse id="Ellipse_26-2-6" class="st3" cx="365.8" cy="1236.1" rx="2.3" ry="5.1"/>
		</g>
		<path id="Path_137-5" class="st3" d="M1580.7,3723.9c0.2-0.1,0.4,0,0.5,0.2c0,0.1,0,0.2,0,0.3c-1.1,3.1-0.7,6.5,1.2,9.1
			c0.9,1.2,2,2.3,3.3,3.2c0.2,0.1,0.2,0.3,0.1,0.5c-0.1,0.1-0.2,0.2-0.4,0.1c-2.1-0.5-4.3-0.7-6.5-0.7c-2.5,0-5,0.4-7.5,1.1
			c-0.2,0.1-0.4-0.1-0.4-0.2c0,0,0,0,0-0.1c-0.3-1.9,0-3.8,0.8-5.6C1573.8,3727.2,1578.6,3724.8,1580.7,3723.9z"/>
		<path id="Path_138-5" class="st3" d="M1575.2,3818.5c-0.2,0.1-0.4,0-0.4-0.2c0-0.1,0-0.2,0-0.3c1.3-3,1-6.4-0.8-9.2
			c-0.8-1.3-1.9-2.4-3.1-3.3c-0.2-0.1-0.2-0.3-0.1-0.5c0.1-0.1,0.2-0.2,0.4-0.1c2.1,0.6,4.2,1,6.4,1.1c2.5,0.1,5.1-0.1,7.5-0.7
			c0.2,0,0.4,0.1,0.4,0.3c0,0,0,0,0,0.1c0.2,1.9-0.2,3.8-1.1,5.6C1582.3,3815.5,1577.4,3817.7,1575.2,3818.5z"/>
		<path id="Path_139-5" class="st3" d="M1626.1,3775.4c0.1,0.2,0,0.4-0.2,0.4c-0.1,0-0.2,0-0.3,0c-3-1.3-6.4-1-9.2,0.7
			c-1.3,0.8-2.4,1.9-3.4,3.1c-0.1,0.2-0.3,0.2-0.5,0.1c-0.1-0.1-0.2-0.2-0.1-0.4c0.6-2.1,1-4.2,1.1-6.4c0.1-2.5-0.1-5.1-0.7-7.5
			c0-0.2,0.1-0.4,0.3-0.4c0,0,0,0,0.1,0c1.9-0.2,3.8,0.2,5.5,1.1C1623.2,3768.3,1625.3,3773.2,1626.1,3775.4z"/>
		<path id="Path_140-5" class="st3" d="M1530.9,3772.8c-0.1-0.2,0-0.4,0.2-0.5c0.1,0,0.2,0,0.3,0c3.1,1,6.5,0.3,9-1.7
			c1.2-1,2.2-2.1,3-3.4c0.1-0.2,0.3-0.2,0.5-0.1c0.1,0.1,0.2,0.2,0.2,0.4c-0.4,2.1-0.5,4.3-0.4,6.5c0.1,2.5,0.6,5,1.5,7.4
			c0.1,0.2,0,0.4-0.2,0.4c0,0,0,0-0.1,0c-1.9,0.4-3.8,0.2-5.6-0.5C1534.5,3779.6,1531.9,3774.9,1530.9,3772.8z"/>
		<path id="Path_141-5" class="st3" d="M1618,3732.7c-6.5,0.3-8.7,2.1-9.4,3.7c-0.8,1.6-0.4,3.8-2.2,5.5c-0.7,0.5-1.4,0.9-2.2,1.1
			c-1.1,0.4-2.3,0.5-3.5,0.2c-0.9-0.3-2.8-1.2-3.3-1.4h0l0,0c-0.3-0.1-0.6-0.2-0.7-0.1c0,0,0,0-0.1,0.1c-0.1,0.2,0.2,0.6,0.4,0.7
			c0.2,0.2,0.4,0.4,0.7,0.5c0.6,0.3,2.4,1.4,4.8,2.9c2.9,2.1,5,5.1,6,8.5c1.1-0.5,2-1.3,2.6-2.3c0.7-1.2,1.1-2.6,1.1-4
			c0-1.6-0.2-3.3-0.5-4.9c-0.2-1.5-0.1-3.1,0.1-4.6C1612.6,3735.4,1616,3733.6,1618,3732.7z"/>
		<path id="Path_142-5" class="st3" d="M1618.9,3810.7c-0.3-6.5-2.1-8.7-3.7-9.4c-1.6-0.8-3.8-0.4-5.5-2.2c-0.5-0.7-0.9-1.4-1.1-2.2
			c-0.4-1.1-0.5-2.3-0.2-3.5c0.3-0.9,1.2-2.8,1.4-3.3v0l0,0c0.1-0.3,0.2-0.6,0.1-0.7c0,0,0,0-0.1-0.1c-0.2-0.1-0.6,0.2-0.7,0.4
			c-0.2,0.2-0.4,0.4-0.5,0.7c-0.3,0.6-1.4,2.4-2.9,4.8c-2.1,2.9-5.1,5-8.5,6c0.5,1.1,1.3,2,2.3,2.6c1.2,0.7,2.6,1.1,4,1.1
			c1.6,0,3.3-0.2,4.9-0.5c1.5-0.2,3.1-0.1,4.6,0.1C1616.1,3805.3,1618,3808.6,1618.9,3810.7z"/>
		<path id="Path_143-5" class="st3" d="M1540.3,3811.7c6.5-0.3,8.7-2.1,9.4-3.7c0.8-1.6,0.4-3.8,2.2-5.5c0.7-0.5,1.4-0.9,2.2-1.1
			c1.1-0.4,2.3-0.5,3.5-0.2c0.9,0.3,2.8,1.2,3.3,1.4h0l0,0c0.3,0.1,0.6,0.2,0.7,0.1c0,0,0,0,0.1-0.1c0.1-0.2-0.2-0.6-0.4-0.7
			c-0.2-0.2-0.4-0.4-0.7-0.5c-0.6-0.3-2.4-1.4-4.8-2.9c-2.9-2.1-5-5.1-6-8.5c-1.1,0.5-2,1.3-2.6,2.3c-0.7,1.2-1.1,2.6-1.1,4
			c0,1.6,0.2,3.3,0.5,4.9c0.2,1.5,0.1,3.1-0.1,4.6C1545.7,3809,1542.4,3810.8,1540.3,3811.7z"/>
		<path id="Path_144-5" class="st3" d="M1537.1,3731.5c0.3,6.5,2.1,8.7,3.7,9.4c1.6,0.8,3.8,0.4,5.5,2.2c0.5,0.7,0.9,1.4,1.1,2.2
			c0.4,1.1,0.5,2.3,0.2,3.5c-0.3,0.9-1.2,2.8-1.4,3.3v0l0,0c-0.1,0.3-0.2,0.6-0.1,0.7c0,0,0,0,0.1,0.1c0.2,0.1,0.6-0.2,0.7-0.4
			c0.2-0.2,0.4-0.4,0.5-0.7c0.3-0.6,1.4-2.4,2.9-4.8c2.1-2.9,5.1-5,8.5-6c-0.5-1.1-1.3-2-2.3-2.6c-1.2-0.7-2.6-1.1-4-1.1
			c-1.6,0-3.3,0.2-4.9,0.5c-1.5,0.2-3.1,0.1-4.6-0.1C1539.9,3736.9,1538,3733.6,1537.1,3731.5z"/>
	</g>
</g>
</svg>
