<?xml version="1.0" encoding="utf-8"?>
<!-- Generator: Adobe Illustrator 25.4.1, SVG Export Plug-In . SVG Version: 6.00 Build 0)  -->
<svg version="1.1" id="Layer_1" xmlns="http://www.w3.org/2000/svg" xmlns:xlink="http://www.w3.org/1999/xlink" x="0px" y="0px"
	 viewBox="0 0 491 487.2" style="enable-background:new 0 0 491 487.2;" xml:space="preserve">
<style type="text/css">
	.st0{fill:#F3F3F3;}
	.st1{fill:#E64C4C;}
	.st2{fill:#58CCBE;}
	.st3{fill:#58CC6F;}
	.st4{fill:#F5C858;}
	.st5{enable-background:new    ;}
	.st6{fill:#FFFFFF;}
	.st7{fill:#F9BA40;}
	.st8{fill:#F0F0F0;}
</style>
<g transform="matrix(1, 0, 0, 1, 76, 47)">
	<path id="Rectangle_1-19" class="st0" d="M9.9-24.9h326.8c32.4,0,58.6,26.2,58.6,58.6v326.8c0,32.4-26.2,58.6-58.6,58.6H9.9
		c-32.4,0-58.6-26.2-58.6-58.6V33.7C-48.7,1.4-22.5-24.9,9.9-24.9z"/>
</g>
<path id="Intersection_1" class="st1" d="M25.5,187.3V80.7c0-32.4,26.2-58.6,58.6-58.6h107.5c0,91.2-74,165.2-165.2,165.2H25.5z"/>
<path id="Intersection_4" class="st2" d="M471.3,301.9v106.6c0,32.4-26.2,58.6-58.6,58.6H305.3c0-91.2,74-165.2,165.2-165.2H471.3z"
	/>
<path id="Intersection_2" class="st3" d="M306.1,22.1h106.6c32.4,0,58.6,26.2,58.6,58.6v107.5c-91.2,0-165.2-74-165.2-165.2V22.1z"
	/>
<path id="Intersection_3" class="st4" d="M190.7,467H84.1c-32.4,0-58.6-26.2-58.6-58.6V301c91.2,0,165.2,74,165.2,165.2V467z"/>
<g class="st5">
	<path class="st6" d="M427.6,80.2l-26.4,26.4l-6.1-6.1L416.6,79l-5.3-5.3l4.9-4.9L427.6,80.2z"/>
</g>
<g class="st5">
	<path class="st6" d="M388.5,400.4l-5-5l19.9-19.9l4,4l-0.6,19.8c-0.1,4.6,0.8,6.3,2.1,7.6c2.1,2.1,4.7,1.8,7.5-0.9
		c2.3-2.3,3.3-5,2.8-8.1l7.3-1.6c0.9,5-0.8,10.6-5.6,15.4c-5.9,5.9-12.8,6.8-17.6,2c-2.6-2.6-4.2-5.6-3.9-12.7l0.3-11.8L388.5,400.4
		z"/>
</g>
<g class="st5">
	<path class="st6" d="M110.4,90.2l-4.3,4.3l5.5,5.5l-6,6l-5.5-5.5L86,114.6l-4.1-4.1l-4.3-29.2l6.4-6.4l4.3,27.4l7.1-7.1l-4.9-4.9
		l5.8-5.8l4.9,4.9l4.3-4.3L110.4,90.2z"/>
</g>
<g class="st5">
	<path class="st6" d="M87.7,384c4.4-4.4,11.9-5.1,19.4,2.4c3.7,3.7,6.5,8.5,7.2,12.9l-7,2.3c-0.5-3.5-2.4-7.2-5.2-9.9
		c-3.1-3.1-6.2-3.7-8.3-1.5c-2,2-1.8,4.7,1.7,8.2l2.8,2.8l-4,4l-11.6,0.7L94,417.1l-4.9,4.9l-18.5-18.5l4-4l12.7-0.8
		C83.3,393.2,83.8,387.9,87.7,384z"/>
</g>
<g id="Group_175" transform="translate(-740.062 -1141.88)">
	<circle id="Ellipse_5" class="st7" cx="991.1" cy="1387.9" r="64.6"/>
	<path id="Path_1-2" class="st8" d="M965,1411.8c4.5-4.5,59.5-1.6,59.5-1.6c0,9.8-5.9,16-23.2,17.8
		C984,1429.8,960.5,1416.2,965,1411.8z"/>
	<g id="Group_96" transform="translate(1238.767 2553.754)">
		<path id="Subtraction_9" class="st8" d="M-272.7-1197.1c7.4,0,13.4,9,13.4,20c0,5.9,0.6,13.2-2.3,17.1c-2.2,3-2,3.1-11.1,2.9
			s-8.4,1-10.8-1.9c-2.9-3.5-2.5-11.8-2.5-18.2C-286-1188.1-280.1-1197.1-272.7-1197.1z"/>
		<ellipse id="Ellipse_26" class="st7" cx="-265.3" cy="-1183.5" rx="5.1" ry="11.1"/>
	</g>
	<g id="Group_97" transform="translate(1269.302 2553.754)">
		<path id="Subtraction_9-2" class="st8" d="M-253.3-1197.1c7.4,0,13.4,9,13.4,20c0,5.9,0.6,13.2-2.3,17.1c-2.2,3-2,3.1-11.1,2.9
			c-9.1-0.2-8.4,1-10.8-1.9c-2.9-3.5-2.5-11.8-2.5-18.2C-266.7-1188.1-260.7-1197.1-253.3-1197.1z"/>
		<ellipse id="Ellipse_26-2" class="st7" cx="-246" cy="-1183.5" rx="5.1" ry="11.1"/>
	</g>
	<path id="Path_137" class="st7" d="M995.7,1284.1c0.4-0.2,0.8,0,1,0.4c0.1,0.2,0.1,0.4,0,0.5c-2.4,6.6-1.4,14,2.7,19.8
		c1.9,2.7,4.3,5,7.1,6.9c0.3,0.2,0.4,0.7,0.2,1.1c-0.2,0.3-0.5,0.4-0.8,0.3c-4.6-1.1-9.3-1.6-14-1.6c-5.5,0-10.9,0.8-16.2,2.4
		c-0.4,0.1-0.8-0.1-0.9-0.5c0,0,0-0.1,0-0.1c-0.6-4.1,0-8.3,1.7-12.1C980.7,1291.2,991,1286.1,995.7,1284.1z"/>
	<path id="Path_138" class="st7" d="M983.8,1489.2c-0.4,0.1-0.8-0.1-1-0.5c-0.1-0.2-0.1-0.4,0-0.6c2.8-6.5,2.1-14-1.7-19.9
		c-1.8-2.8-4.1-5.2-6.7-7.3c-0.3-0.3-0.4-0.7-0.1-1.1c0.2-0.3,0.5-0.4,0.8-0.3c4.5,1.3,9.2,2.1,14,2.3c5.5,0.3,11-0.3,16.3-1.5
		c0.4-0.1,0.8,0.2,0.9,0.6c0,0,0,0.1,0,0.1c0.4,4.2-0.4,8.3-2.3,12C999.2,1482.9,988.5,1487.5,983.8,1489.2z"/>
	<path id="Path_139" class="st7" d="M1094.1,1395.7c0.1,0.4-0.1,0.8-0.5,1c-0.2,0.1-0.4,0.1-0.6,0c-6.5-2.8-13.9-2.2-19.9,1.6
		c-2.8,1.8-5.3,4.1-7.3,6.7c-0.3,0.3-0.7,0.4-1.1,0.1c-0.2-0.2-0.4-0.5-0.3-0.8c1.3-4.5,2.1-9.2,2.4-13.9c0.3-5.5-0.2-11-1.5-16.3
		c-0.1-0.4,0.2-0.8,0.6-0.9c0,0,0.1,0,0.1,0c4.2-0.3,8.3,0.5,12,2.4C1087.8,1380.3,1092.4,1391,1094.1,1395.7z"/>
	<path id="Path_140" class="st7" d="M887.5,1390.2c-0.2-0.4,0-0.8,0.4-1c0.2-0.1,0.4-0.1,0.5,0c6.8,2.1,14.1,0.7,19.6-3.7
		c2.6-2.1,4.8-4.6,6.5-7.4c0.2-0.4,0.7-0.5,1-0.3c0.3,0.2,0.4,0.5,0.4,0.8c-0.8,4.7-1.1,9.4-0.8,14.1c0.3,5.5,1.4,10.9,3.2,16.1
		c0.1,0.4-0.1,0.8-0.5,1c0,0-0.1,0-0.1,0c-4.1,0.8-8.3,0.4-12.2-1C895.4,1404.8,889.7,1394.8,887.5,1390.2z"/>
	<path id="Path_141" class="st7" d="M1076.6,1303.1c-14,0.7-18.8,4.5-20.4,7.9c-1.7,3.5-0.8,8.3-4.9,11.8c-1.4,1.2-3.1,2-4.8,2.5
		c-2.4,0.9-5.1,1-7.6,0.3c-2-0.6-6.1-2.7-7.1-3.1l0,0l-0.1,0c-0.6-0.2-1.2-0.5-1.5-0.3c-0.1,0-0.1,0.1-0.1,0.1
		c-0.2,0.5,0.5,1.2,0.8,1.5c0.4,0.5,0.9,0.8,1.5,1.2c1.2,0.6,5.1,3,10.5,6.3c6.3,4.5,10.9,11.1,13,18.5c2.3-1.1,4.3-2.8,5.7-5
		c1.5-2.6,2.3-5.6,2.3-8.6c0.3-4.3-0.6-5.4-1-10.6c-0.4-3.3-0.3-6.6,0.3-9.9C1064.9,1309,1072.1,1305,1076.6,1303.1z"/>
	<path id="Path_142" class="st7" d="M1078.4,1472.4c-0.7-14.1-4.5-18.8-7.9-20.4c-3.5-1.7-8.3-0.8-11.8-4.9c-1.2-1.4-2-3.1-2.5-4.8
		c-0.9-2.4-1-5.1-0.3-7.6c0.6-2,2.7-6.1,3.1-7.1l0,0c0,0,0,0,0-0.1c0.2-0.6,0.5-1.2,0.3-1.5c0-0.1-0.1-0.1-0.1-0.1
		c-0.5-0.2-1.2,0.5-1.5,0.8c-0.5,0.4-0.8,0.9-1.2,1.5c-0.6,1.2-3,5.1-6.3,10.5c-4.5,6.3-11.1,10.9-18.5,13c1.1,2.3,2.8,4.3,5,5.7
		c2.6,1.5,5.6,2.3,8.6,2.3c4.3,0.3,5.4-0.6,10.6-1c3.3-0.4,6.6-0.3,9.9,0.3C1072.5,1460.6,1076.5,1467.9,1078.4,1472.4z"/>
	<path id="Path_143" class="st7" d="M908,1474.6c14.1-0.7,18.8-4.5,20.4-7.9c1.7-3.5,0.8-8.3,4.9-11.8c1.4-1.2,3.1-2,4.8-2.5
		c2.4-0.9,5.1-1,7.6-0.3c2,0.6,6.1,2.7,7.1,3.1l0,0l0.1,0c0.6,0.2,1.2,0.5,1.5,0.3c0.1,0,0.1-0.1,0.1-0.1c0.2-0.5-0.5-1.2-0.8-1.5
		c-0.4-0.5-0.9-0.8-1.5-1.2c-1.2-0.6-5.1-3-10.5-6.3c-6.3-4.5-10.9-11.1-13-18.5c-2.3,1.1-4.3,2.8-5.7,5c-1.5,2.6-2.3,5.6-2.3,8.6
		c-0.3,4.3,0.6,5.4,1,10.6c0.4,3.3,0.3,6.6-0.3,9.9C919.7,1468.7,912.5,1472.7,908,1474.6z"/>
	<path id="Path_144" class="st7" d="M901.1,1300.6c0.7,14,4.5,18.8,7.9,20.4c3.5,1.7,8.3,0.8,11.8,4.9c1.2,1.4,2,3.1,2.5,4.8
		c0.9,2.4,1,5.1,0.3,7.6c-0.6,2-2.7,6.1-3.1,7.1l0,0l0,0.1c-0.2,0.6-0.5,1.2-0.3,1.5c0,0.1,0.1,0.1,0.1,0.1c0.5,0.2,1.2-0.5,1.5-0.8
		c0.5-0.4,0.8-0.9,1.2-1.5c0.6-1.2,3-5.1,6.3-10.5c4.5-6.3,11.1-10.9,18.5-13c-1.1-2.3-2.8-4.3-5-5.7c-2.6-1.5-5.6-2.3-8.6-2.3
		c-4.3-0.3-5.4,0.6-10.6,1c-3.3,0.4-6.6,0.3-9.9-0.3C907,1312.4,903,1305.1,901.1,1300.6z"/>
</g>
</svg>
