<?xml version="1.0" encoding="utf-8"?>
<!-- Generator: Adobe Illustrator 25.4.1, SVG Export Plug-In . SVG Version: 6.00 Build 0)  -->
<svg version="1.1" id="Layer_1" xmlns="http://www.w3.org/2000/svg" xmlns:xlink="http://www.w3.org/1999/xlink" x="0px" y="0px"
	 viewBox="0 0 491 487.2" style="enable-background:new 0 0 491 487.2;" xml:space="preserve">
<style type="text/css">
	.st0{fill:#F3F3F3;}
	.st1{fill:#E64C4C;}
	.st2{fill:#58CCBE;}
	.st3{fill:#58CC6F;}
	.st4{fill:#F5C858;}
	.st5{enable-background:new    ;}
	.st6{fill:#FFFFFF;}
	.st7{fill:#FF8EBB;}
	.st8{fill:#ECECEC;stroke:#FF8EBB;stroke-width:3;stroke-miterlimit:10;}
	.st9{fill:#ECECEC;}
</style>
<g transform="matrix(1, 0, 0, 1, 76, 47)">
	<path id="Rectangle_1-19" class="st0" d="M9.9-24.9h326.8c32.4,0,58.6,26.2,58.6,58.6v326.8c0,32.4-26.2,58.6-58.6,58.6H9.9
		c-32.4,0-58.6-26.2-58.6-58.6V33.7C-48.7,1.4-22.5-24.9,9.9-24.9z"/>
</g>
<path id="Intersection_1" class="st1" d="M25.5,187.3V80.7c0-32.4,26.2-58.6,58.6-58.6h107.5c0,91.2-74,165.2-165.2,165.2H25.5z"/>
<path id="Intersection_4" class="st2" d="M471.3,301.9v106.6c0,32.4-26.2,58.6-58.6,58.6H305.3c0-91.2,74-165.2,165.2-165.2H471.3z"
	/>
<path id="Intersection_2" class="st3" d="M306.1,22.1h106.6c32.4,0,58.6,26.2,58.6,58.6v107.5c-91.2,0-165.2-74-165.2-165.2V22.1z"
	/>
<path id="Intersection_3" class="st4" d="M190.7,467H84.1c-32.4,0-58.6-26.2-58.6-58.6V301c91.2,0,165.2,74,165.2,165.2V467z"/>
<g class="st5">
	<path class="st6" d="M427.6,80.2l-26.4,26.4l-6.1-6.1L416.6,79l-5.3-5.3l4.9-4.9L427.6,80.2z"/>
</g>
<g class="st5">
	<path class="st6" d="M388.5,400.4l-5-5l19.9-19.9l4,4l-0.6,19.8c-0.1,4.6,0.8,6.3,2.1,7.6c2.1,2.1,4.7,1.8,7.5-0.9
		c2.3-2.3,3.3-5,2.8-8.1l7.3-1.6c0.9,5-0.8,10.6-5.6,15.4c-5.9,5.9-12.8,6.8-17.6,2c-2.6-2.6-4.2-5.6-3.9-12.7l0.3-11.8L388.5,400.4
		z"/>
</g>
<g class="st5">
	<path class="st6" d="M110.4,90.2l-4.3,4.3l5.5,5.5l-6,6l-5.5-5.5L86,114.6l-4.1-4.1l-4.3-29.2l6.4-6.4l4.3,27.4l7.1-7.1l-4.9-4.9
		l5.8-5.8l4.9,4.9l4.3-4.3L110.4,90.2z"/>
</g>
<g class="st5">
	<path class="st6" d="M87.7,384c4.4-4.4,11.9-5.1,19.4,2.4c3.7,3.7,6.5,8.5,7.2,12.9l-7,2.3c-0.5-3.5-2.4-7.2-5.2-9.9
		c-3.1-3.1-6.2-3.7-8.3-1.5c-2,2-1.8,4.7,1.7,8.2l2.8,2.8l-4,4l-11.6,0.7L94,417.1l-4.9,4.9l-18.5-18.5l4-4l12.7-0.8
		C83.3,393.2,83.8,387.9,87.7,384z"/>
</g>
<g id="Group_183_00000175295404775903235000000003663520965173762472_" transform="translate(148.807 1323.797)">
	
		<ellipse id="Ellipse_24-2_00000121251470056746381480000016594269768228339353_" transform="matrix(0.9876 -0.1569 0.1569 0.9876 167.7201 2.7796)" class="st7" cx="101.5" cy="-1060.7" rx="79.1" ry="80.4"/>
	<path id="Path_85_00000082334699953353977850000009763609929854343054_" class="st8" d="M56.9-1089.3l123.7-19l3,27.9
		c-0.8,5.5-5,9.8-10.5,10.7c0,0-36.3,6.9-40.3,6.4c-4-0.5-6.1-9.6-11.2-8.7s-3.5,9.9-9.3,12c-5.8,2.1-37.8,6-37.8,6
		c-4.6,0.7-9.1-1.5-11.4-5.5L56.9-1089.3z"/>
	<path id="Path_94_00000051359248391493591640000010961633193682603688_" class="st9" d="M74.1-1017.3c1.7,3.7,12.6,14.6,32.9,14.2
		c13.5,0,27-2.3,39.7-6.7c1.8-0.5,3.5-1.4,4.8-2.7c0.8-1,1.5-2.1,1.9-3.3c2.7-6.3,4.4-13,5.2-19.8c-5.5,1.9-11.1,3.3-16.7,4.7
		c-21.8,5.5-38.5,10.3-54.9,8.8C70.6-1023.7,72.4-1021,74.1-1017.3z"/>
	<path id="Path_97_00000022534180704011425740000008006259327850681512_" class="st7" d="M86-1195.9l2.3,5.1l11.2-7l1.8,5.1
		l10.5-6.4c-1.8,11.9-1.8,24.1,0,36c2.4,11.8,6.6,23.2,12.3,33.8l-28.7,5.1c0,0-45.1,56.6-55.4,19C29.7-1143,86-1195.9,86-1195.9z"
		/>
</g>
</svg>
