<?xml version="1.0" encoding="utf-8"?>
<!-- Generator: Adobe Illustrator 25.4.1, SVG Export Plug-In . SVG Version: 6.00 Build 0)  -->
<svg version="1.1" id="Layer_1" xmlns="http://www.w3.org/2000/svg" xmlns:xlink="http://www.w3.org/1999/xlink" x="0px" y="0px"
	 viewBox="0 0 491 487.2" style="enable-background:new 0 0 491 487.2;" xml:space="preserve">
<style type="text/css">
	.st0{fill:#F3F3F3;}
	.st1{fill:#3B87EB;}
	.st2{fill:#F0F0F0;}
	.st3{fill:none;stroke:#36665A;stroke-width:2.126;stroke-miterlimit:10;}
	.st4{fill:none;stroke:#3B87EB;stroke-miterlimit:10;}
	.st5{enable-background:new    ;}
</style>
<g id="Concept_art_Back_3-2" transform="translate(632.5 1689)">
	<g id="Concept_art_2-12" transform="translate(315.5 1252)">
		<g transform="matrix(1, 0, 0, 1, -269.15, -923.29)">
			<path id="Rectangle_1-30" class="st0" d="M-597.5-1995.6h334.4c33.1,0,60,26.8,60,60v334.4c0,33.1-26.8,60-60,60h-334.4
				c-33.1,0-60-26.8-60-60v-334.4C-657.5-1968.7-630.6-1995.6-597.5-1995.6z"/>
		</g>
		<g id="Group_76">
			<g id="Group_29-2" transform="translate(-1225 -2941)">
				<g id="Group_20-5" transform="translate(1639 3297.5) rotate(180)">
					<path id="Intersection_4-15" class="st1" d="M1340.6,3106.4v109c0,33.1-26.8,60-60,60h-109.9c0-93.3,75.7-169,169-169H1340.6z"
						/>
				</g>
			</g>
			<g id="Group_192" transform="translate(-3830.014 136.376) rotate(-45)">
				<path id="Ellipse_33-3" class="st2" d="M4212.1-23.1c24-0.2,36.9,9.1,36.9,29.5c0,20.4-16.5,36.9-36.9,36.9
					c-20.4,0-36.9-16.5-36.9-36.9C4175.3-14,4188.1-22.9,4212.1-23.1z"/>
				
					<ellipse id="Ellipse_34-4" transform="matrix(-1 2.535182e-06 -2.535182e-06 -1 8394.0322 9.2767)" class="st1" cx="4197" cy="4.6" rx="8.5" ry="8.6"/>
				
					<ellipse id="Ellipse_35-2" transform="matrix(-0.9751 0.2218 -0.2218 -0.9751 8351.376 -929.2637)" class="st1" cx="4227.9" cy="4.3" rx="9.1" ry="8.7"/>
				
					<ellipse id="Ellipse_37-2" transform="matrix(-1 2.535182e-06 -2.535182e-06 -1 8394.0645 7.2998)" class="st2" cx="4197" cy="3.7" rx="4.1" ry="3.8"/>
				<path id="Path_108-2" class="st3" d="M4239.2-29.4"/>
				<g id="Group_158-2" transform="translate(2805.442 2731.279)">
					<path id="Path_105-2" class="st2" d="M1375.1-2771.8l4.5,21.8c0,0,9.8-7.4,27.2-6.8c9.6-0.2,19.1,2.1,27.5,6.8
						c0,0,4.6-19.5,5-24.4l-9.5,8.3l-1.6-16.3l-11.1,11.9l-10.3-21.6l-10.1,21.2l-10.7-10.5l-3,14.9L1375.1-2771.8z"/>
					<circle id="Ellipse_59-2" class="st2" cx="1374.4" cy="-2773.3" r="2.3"/>
					<circle id="Ellipse_60-2" class="st2" cx="1385.9" cy="-2781.6" r="2.7"/>
					<circle id="Ellipse_61-2" class="st2" cx="1439.1" cy="-2773.1" r="2.3"/>
					<circle id="Ellipse_62-2" class="st2" cx="1427.5" cy="-2781.4" r="2.7"/>
					<circle id="Ellipse_63-2" class="st2" cx="1407" cy="-2791.4" r="3.6"/>
					
						<ellipse id="Ellipse_64-2" transform="matrix(-1 2.535182e-06 -2.535182e-06 -1 2813.2761 -5532.7383)" class="st1" cx="1406.6" cy="-2766.4" rx="2.9" ry="5.6"/>
					
						<ellipse id="Ellipse_65-2" transform="matrix(-0.9764 0.2161 -0.2161 -0.9764 2151.2744 -5764.5713)" class="st1" cx="1390.8" cy="-2764.7" rx="2.5" ry="3.7"/>
					
						<ellipse id="Ellipse_66-2" transform="matrix(-0.9653 -0.2611 0.2611 -0.9653 3518.6707 -5061.9199)" class="st1" cx="1423.1" cy="-2764.7" rx="2.5" ry="3.7"/>
				</g>
				<path id="Path_110-2" class="st4" d="M4230,5.3c1.7,0.9,3.1,2.4,4,4.1c0.3,1.5,0.7,3,1.3,4.4c0.7,1,1.8,1.7,3,1.9
					c1.2,0.2,2.4,0.2,3.6,0.1"/>
				<path id="Path_111-2" class="st1" d="M4197.7,20.9c-0.1-0.1-0.3-0.1-0.4-0.2c-0.5-0.5-1.4-0.5-1.9,0c-0.8,0.6-1.1,1.5-0.9,2.4
					c0.1,0.5,0.6,0.9,1.1,1c1.1,0.3,2.3,0.1,3.3-0.6c1.1-0.7,2.3-1.5,3.4-2.3c1-0.7,2.1-1.3,3.2-1.6c1.3-0.4,2.8-0.5,4.1-0.1
					c1,0.3,2,0.7,2.9,1.2c0.1,0,0.2,0,0.3,0c1.1-0.6,2.3-1.1,3.6-1.4c0.8-0.2,1.7-0.1,2.5,0c1.8,0.4,3.4,1.2,4.8,2.3
					c1,0.8,2.1,1.5,3.2,2.1c1,0.5,2.1,0.6,3.1,0.2c0.6-0.2,1-0.9,0.9-1.6c-0.1-0.7-0.4-1.4-1-1.8c-0.5-0.4-1.2-0.4-1.7,0
					c-0.1,0.1-0.3,0.2-0.5,0.3l-0.1,0c0-0.1,0.1-0.2,0.1-0.2c0.7-1,2.1-1.3,3.2-0.6c1.5,0.8,2.3,2.3,2.2,3.9c-0.1,1.7-1.1,3.2-2.6,4
					c-1.1,0.6-2.3,1-3.5,1.1c-1.1,0.2-2.2,0.2-3.3,0.2c-1.2-0.1-2.4-0.2-3.6-0.4c-1.2-0.3-2.4-0.6-3.5-1.1c-1.2-0.5-2.3-1.2-3.3-2
					c-0.5-0.4-0.5-0.4-1,0c-0.8,0.7-1.8,1.3-2.8,1.8c-1,0.5-2,0.8-3,1.1c-0.9,0.2-1.9,0.4-2.8,0.5c-1.3,0.2-2.6,0.2-3.9,0.1
					c-0.9-0.1-1.7-0.2-2.6-0.4c-1.6-0.3-3.1-1.2-4.1-2.6c-1.4-1.9-0.9-4.6,1-6c0.1-0.1,0.2-0.2,0.4-0.2c0.9-0.6,2.1-0.5,2.9,0.2
					C4197.5,20.5,4197.7,20.7,4197.7,20.9L4197.7,20.9z"/>
			</g>
		</g>
		<g id="Group_199" transform="translate(414.001 356) rotate(180)">
			<g id="Group_29-3" transform="translate(-1225 -2941)">
				<g id="Group_20-6" transform="translate(1639 3297.5) rotate(180)">
					<path id="Intersection_4-16" class="st1" d="M-472.3-2633.1v109c0,33.1-26.8,60-60,60h-109.9c0-93.3,75.7-169,169-169H-472.3z"
						/>
				</g>
			</g>
			<g id="Group_192-2" transform="translate(-3830.014 136.376) rotate(-45)">
				<path id="Ellipse_33-4" class="st2" d="M1435.7,5317.3c24-0.2,36.9,9.1,36.9,29.5c0,20.4-16.5,36.9-36.9,36.9
					s-36.9-16.5-36.9-36.9C1398.8,5326.4,1411.7,5317.4,1435.7,5317.3z"/>
				<ellipse id="Ellipse_34-5" class="st1" cx="1420.6" cy="5345" rx="8.5" ry="8.6"/>
				
					<ellipse id="Ellipse_35-3" transform="matrix(0.9751 -0.2218 0.2218 0.9751 -1149.4194 455.1187)" class="st1" cx="1451.5" cy="5344.7" rx="9.1" ry="8.7"/>
				<ellipse id="Ellipse_37-3" class="st2" cx="1420.6" cy="5344" rx="4.1" ry="3.8"/>
				<path id="Path_108-3" class="st3" d="M1462.8,5311"/>
				<g id="Group_158-3" transform="translate(2805.442 2731.279)">
					<path id="Path_105-3" class="st2" d="M-1401.4,2568.6l4.5,21.8c0,0,9.8-7.4,27.2-6.8c9.6-0.2,19.1,2.1,27.5,6.8
						c0,0,4.6-19.5,5-24.4l-9.5,8.3l-1.6-16.3l-11.1,11.9l-10.3-21.6l-10.1,21.2l-10.7-10.5l-3,14.9L-1401.4,2568.6z"/>
					<circle id="Ellipse_59-3" class="st2" cx="-1402" cy="2567.1" r="2.3"/>
					<circle id="Ellipse_60-3" class="st2" cx="-1390.5" cy="2558.7" r="2.7"/>
					<circle id="Ellipse_61-3" class="st2" cx="-1337.4" cy="2567.3" r="2.3"/>
					<circle id="Ellipse_62-3" class="st2" cx="-1348.9" cy="2558.9" r="2.7"/>
					<circle id="Ellipse_63-3" class="st2" cx="-1369.4" cy="2548.9" r="3.6"/>
					<ellipse id="Ellipse_64-3" class="st1" cx="-1369.8" cy="2574" rx="2.9" ry="5.6"/>
					
						<ellipse id="Ellipse_65-3" transform="matrix(0.9764 -0.2161 0.2161 0.9764 -589.3036 -238.5671)" class="st1" cx="-1385.7" cy="2575.7" rx="2.5" ry="3.7"/>
					
						<ellipse id="Ellipse_66-3" transform="matrix(0.9653 0.2611 -0.2611 0.9653 625.5288 442.6604)" class="st1" cx="-1353.3" cy="2575.7" rx="2.5" ry="3.7"/>
				</g>
				<path id="Path_110-3" class="st4" d="M1453.6,5345.7c1.7,0.9,3.1,2.4,4,4.1c0.3,1.5,0.7,3,1.3,4.4c0.7,1,1.8,1.7,3,1.9
					c1.2,0.2,2.4,0.2,3.6,0.1"/>
				<path id="Path_111-3" class="st1" d="M1421.3,5361.3c-0.1-0.1-0.3-0.1-0.4-0.2c-0.5-0.5-1.4-0.5-1.9,0c-0.8,0.6-1.1,1.5-0.9,2.4
					c0.1,0.5,0.6,0.9,1.1,1c1.1,0.3,2.3,0.1,3.3-0.6c1.1-0.7,2.3-1.5,3.4-2.3c1-0.7,2.1-1.3,3.2-1.6c1.3-0.4,2.8-0.5,4.1-0.1
					c1,0.3,2,0.7,2.9,1.2c0.1,0,0.2,0,0.3,0c1.1-0.6,2.3-1.1,3.6-1.4c0.8-0.2,1.7-0.1,2.5,0c1.8,0.4,3.4,1.2,4.8,2.3
					c1,0.8,2.1,1.5,3.2,2.1c1,0.5,2.1,0.6,3.1,0.2c0.6-0.2,1-0.9,0.9-1.6c-0.1-0.7-0.4-1.4-1-1.8c-0.5-0.4-1.2-0.4-1.7,0
					c-0.1,0.1-0.3,0.2-0.5,0.3l-0.1,0c0-0.1,0.1-0.2,0.1-0.2c0.7-1,2.1-1.3,3.2-0.6c1.5,0.8,2.3,2.3,2.2,3.9c-0.1,1.7-1.1,3.2-2.6,4
					c-1.1,0.6-2.3,1-3.5,1.1c-1.1,0.2-2.2,0.2-3.3,0.2c-1.2-0.1-2.4-0.2-3.6-0.4c-1.2-0.3-2.4-0.6-3.5-1.1c-1.2-0.5-2.3-1.2-3.3-2
					c-0.5-0.4-0.5-0.4-1,0c-0.8,0.7-1.8,1.3-2.8,1.8c-1,0.5-2,0.8-3,1.1c-0.9,0.2-1.9,0.4-2.8,0.5c-1.3,0.2-2.6,0.2-3.9,0.1
					c-0.9-0.1-1.7-0.2-2.6-0.4c-1.6-0.3-3.1-1.2-4.1-2.6c-1.4-1.9-0.9-4.6,1-6c0.1-0.1,0.2-0.2,0.4-0.2c0.9-0.6,2.1-0.5,2.9,0.2
					C1421.1,5360.8,1421.2,5361,1421.3,5361.3L1421.3,5361.3z"/>
			</g>
		</g>
		<g id="Group_197" transform="translate(385 -29) rotate(90)">
			<g id="Group_29-4" transform="translate(-1225 -2941)">
				<g id="Group_20-7" transform="translate(1639 3297.5) rotate(180)">
					<path id="Intersection_4-17" class="st1" d="M3303.9-669.8v109c0,33.1-26.8,60-60,60H3134c0-93.3,75.7-169,169-169H3303.9z"/>
				</g>
			</g>
			<g id="Group_192-3" transform="translate(-3830.014 136.376) rotate(-45)">
				<path id="Ellipse_33-5" class="st2" d="M153.8,1258.9c24-0.2,36.9,9.1,36.9,29.5c0,20.4-16.5,36.9-36.9,36.9
					s-36.9-16.5-36.9-36.9C116.9,1268,129.7,1259,153.8,1258.9z"/>
				
					<ellipse id="Ellipse_34-6" transform="matrix(2.535182e-06 1 -1 2.535182e-06 1425.2395 1147.986)" class="st1" cx="138.6" cy="1286.6" rx="8.6" ry="8.5"/>
				
					<ellipse id="Ellipse_35-4" transform="matrix(0.2218 0.9751 -0.9751 0.2218 1386.153 835.7208)" class="st1" cx="169.5" cy="1286.3" rx="8.7" ry="9.1"/>
				
					<ellipse id="Ellipse_37-4" transform="matrix(2.535182e-06 1 -1 2.535182e-06 1424.2676 1146.981)" class="st2" cx="138.6" cy="1285.6" rx="3.8" ry="4.1"/>
				<path id="Path_108-4" class="st3" d="M180.9,1252.6"/>
				<g id="Group_158-4" transform="translate(2805.442 2731.279)">
					<path id="Path_105-4" class="st2" d="M-2683.3-1489.8l4.5,21.8c0,0,9.8-7.4,27.2-6.8c9.6-0.2,19.1,2.1,27.5,6.8
						c0,0,4.6-19.5,5-24.4l-9.5,8.3l-1.6-16.3l-11.1,11.9l-10.3-21.6l-10.1,21.2l-10.7-10.5l-3,14.9L-2683.3-1489.8z"/>
					<circle id="Ellipse_59-4" class="st2" cx="-2684" cy="-1491.3" r="2.3"/>
					<circle id="Ellipse_60-4" class="st2" cx="-2672.5" cy="-1499.6" r="2.7"/>
					<circle id="Ellipse_61-4" class="st2" cx="-2619.3" cy="-1491.1" r="2.3"/>
					<circle id="Ellipse_62-4" class="st2" cx="-2630.8" cy="-1499.4" r="2.7"/>
					<circle id="Ellipse_63-4" class="st2" cx="-2651.4" cy="-1509.5" r="3.6"/>
					
						<ellipse id="Ellipse_64-4" transform="matrix(2.535182e-06 1 -1 2.535182e-06 -4136.1387 1167.3563)" class="st1" cx="-2651.7" cy="-1484.4" rx="5.6" ry="2.9"/>
					
						<ellipse id="Ellipse_65-4" transform="matrix(0.2161 0.9764 -0.9764 0.2161 -3538.8677 1442.2783)" class="st1" cx="-2667.6" cy="-1482.7" rx="3.7" ry="2.5"/>
					
						<ellipse id="Ellipse_66-4" transform="matrix(-0.2611 0.9653 -0.9653 -0.2611 -4754.5908 674.0618)" class="st1" cx="-2635.3" cy="-1482.7" rx="3.7" ry="2.5"/>
				</g>
				<path id="Path_110-4" class="st4" d="M171.7,1287.3c1.7,0.9,3.1,2.4,4,4.1c0.3,1.5,0.7,3,1.3,4.4c0.7,1,1.8,1.7,3,1.9
					c1.2,0.2,2.4,0.2,3.6,0.1"/>
				<path id="Path_111-4" class="st1" d="M139.3,1302.9c-0.1-0.1-0.3-0.1-0.4-0.2c-0.5-0.5-1.4-0.5-1.9,0c-0.8,0.6-1.1,1.5-0.9,2.4
					c0.1,0.5,0.6,0.9,1.1,1c1.1,0.3,2.3,0.1,3.3-0.6c1.1-0.7,2.3-1.5,3.4-2.3c1-0.7,2.1-1.3,3.2-1.6c1.3-0.4,2.8-0.5,4.1-0.1
					c1,0.3,2,0.7,2.9,1.2c0.1,0,0.2,0,0.3,0c1.1-0.6,2.3-1.1,3.6-1.4c0.8-0.2,1.7-0.1,2.5,0c1.8,0.4,3.4,1.2,4.8,2.3
					c1,0.8,2.1,1.5,3.2,2.1c1,0.5,2.1,0.6,3.1,0.2c0.6-0.2,1-0.9,0.9-1.6c-0.1-0.7-0.4-1.4-1-1.8c-0.5-0.4-1.2-0.4-1.7,0
					c-0.1,0.1-0.3,0.2-0.5,0.3l-0.1,0c0-0.1,0.1-0.2,0.1-0.2c0.7-1,2.1-1.3,3.2-0.6c1.5,0.8,2.3,2.3,2.2,3.9c-0.1,1.7-1.1,3.2-2.6,4
					c-1.1,0.6-2.3,1-3.5,1.1c-1.1,0.2-2.2,0.2-3.3,0.2c-1.2-0.1-2.4-0.2-3.6-0.4c-1.2-0.3-2.4-0.6-3.5-1.1c-1.2-0.5-2.3-1.2-3.3-2
					c-0.5-0.4-0.5-0.4-1,0c-0.8,0.7-1.8,1.3-2.8,1.8c-1,0.5-2,0.8-3,1.1c-0.9,0.2-1.9,0.4-2.8,0.5c-1.3,0.2-2.6,0.2-3.9,0.1
					c-0.9-0.1-1.7-0.2-2.6-0.4c-1.6-0.3-3.1-1.2-4.1-2.6c-1.4-1.9-0.9-4.6,1-6c0.1-0.1,0.2-0.2,0.4-0.2c0.9-0.6,2.1-0.5,2.9,0.2
					C139.1,1302.4,139.3,1302.6,139.3,1302.9L139.3,1302.9z"/>
			</g>
		</g>
		<g id="Group_198" transform="translate(29 385) rotate(-90)">
			<g id="Group_29-5" transform="translate(-1225 -2941)">
				<g id="Group_20-8" transform="translate(1639 3297.5) rotate(180)">
					<path id="Intersection_4-18" class="st1" d="M-2435.6,1143.1v109c0,33.1-26.8,60-60,60h-109.9c0-93.3,75.7-169,169-169H-2435.6
						z"/>
				</g>
			</g>
			<g id="Group_192-4" transform="translate(-3830.014 136.376) rotate(-45)">
				<path id="Ellipse_33-6" class="st2" d="M5494.1,4035.3c24-0.2,36.9,9.1,36.9,29.5c0,20.4-16.5,36.9-36.9,36.9
					c-20.4,0-36.9-16.5-36.9-36.9C5457.2,4044.4,5470.1,4035.5,5494.1,4035.3z"/>
				
					<ellipse id="Ellipse_34-7" transform="matrix(-2.535182e-06 -1 1 -2.535182e-06 1415.9664 9542.0312)" class="st1" cx="5479" cy="4063" rx="8.6" ry="8.5"/>
				
					<ellipse id="Ellipse_35-5" transform="matrix(-0.2218 -0.9751 0.9751 -0.2218 2770.5354 10336.5166)" class="st1" cx="5509.8" cy="4062.7" rx="8.7" ry="9.1"/>
				
					<ellipse id="Ellipse_37-5" transform="matrix(-2.535182e-06 -1 1 -2.535182e-06 1416.9714 9541.0596)" class="st2" cx="5479" cy="4062" rx="3.8" ry="4.1"/>
				<path id="Path_108-5" class="st3" d="M5521.2,4029"/>
				<g id="Group_158-5" transform="translate(2805.442 2731.279)">
					<path id="Path_105-5" class="st2" d="M2657,1286.6l4.5,21.8c0,0,9.8-7.4,27.2-6.8c9.6-0.2,19.1,2.1,27.5,6.8
						c0,0,4.6-19.5,5-24.4l-9.5,8.3l-1.6-16.3l-11.1,11.9l-10.3-21.6l-10.1,21.2l-10.7-10.5l-3,14.9L2657,1286.6z"/>
					<circle id="Ellipse_59-5" class="st2" cx="2656.3" cy="1285.1" r="2.3"/>
					<circle id="Ellipse_60-5" class="st2" cx="2667.8" cy="1276.8" r="2.7"/>
					<circle id="Ellipse_61-5" class="st2" cx="2721" cy="1285.3" r="2.3"/>
					<circle id="Ellipse_62-5" class="st2" cx="2709.5" cy="1277" r="2.7"/>
					<circle id="Ellipse_63-5" class="st2" cx="2689" cy="1267" r="3.6"/>
					
						<ellipse id="Ellipse_64-5" transform="matrix(-2.535182e-06 -1 1 -2.535182e-06 1396.5959 3980.6389)" class="st1" cx="2688.6" cy="1292" rx="5.6" ry="2.9"/>
					
						<ellipse id="Ellipse_65-5" transform="matrix(-0.2161 -0.9764 0.9764 -0.2161 1987.1367 4182.8564)" class="st1" cx="2672.7" cy="1293.7" rx="3.7" ry="2.5"/>
					
						<ellipse id="Ellipse_66-5" transform="matrix(0.2611 -0.9653 0.9653 0.2611 749.9892 3567.2036)" class="st1" cx="2705.1" cy="1293.7" rx="3.7" ry="2.5"/>
				</g>
				<path id="Path_110-5" class="st4" d="M5512,4063.7c1.7,0.9,3.1,2.4,4,4.1c0.3,1.5,0.7,3,1.3,4.4c0.7,1,1.8,1.7,3,1.9
					c1.2,0.2,2.4,0.2,3.6,0.1"/>
				<path id="Path_111-5" class="st1" d="M5479.7,4079.3c-0.1-0.1-0.3-0.1-0.4-0.2c-0.5-0.5-1.4-0.5-1.9,0c-0.8,0.6-1.1,1.5-0.9,2.4
					c0.1,0.5,0.6,0.9,1.1,1c1.1,0.3,2.3,0.1,3.3-0.6c1.1-0.7,2.3-1.5,3.4-2.3c1-0.7,2.1-1.3,3.2-1.6c1.3-0.4,2.8-0.5,4.1-0.1
					c1,0.3,2,0.7,2.9,1.2c0.1,0,0.2,0,0.3,0c1.1-0.6,2.3-1.1,3.6-1.4c0.8-0.2,1.7-0.1,2.5,0c1.8,0.4,3.4,1.2,4.8,2.3
					c1,0.8,2.1,1.5,3.2,2.1c1,0.5,2.1,0.6,3.1,0.2c0.6-0.2,1-0.9,0.9-1.6c-0.1-0.7-0.4-1.4-1-1.8c-0.5-0.4-1.2-0.4-1.7,0
					c-0.1,0.1-0.3,0.2-0.5,0.3l-0.1,0c0-0.1,0.1-0.2,0.1-0.2c0.7-1,2.1-1.3,3.2-0.6c1.5,0.8,2.3,2.3,2.2,3.9c-0.1,1.7-1.1,3.2-2.6,4
					c-1.1,0.6-2.3,1-3.5,1.1c-1.1,0.2-2.2,0.2-3.3,0.2c-1.2-0.1-2.4-0.2-3.6-0.4c-1.2-0.3-2.4-0.6-3.5-1.1c-1.2-0.5-2.3-1.2-3.3-2
					c-0.5-0.4-0.5-0.4-1,0c-0.8,0.7-1.8,1.3-2.8,1.8c-1,0.5-2,0.8-3,1.1c-0.9,0.2-1.9,0.4-2.8,0.5c-1.3,0.2-2.6,0.2-3.9,0.1
					c-0.9-0.1-1.7-0.2-2.6-0.4c-1.6-0.3-3.1-1.2-4.1-2.6c-1.4-1.9-0.9-4.6,1-6c0.1-0.1,0.2-0.2,0.4-0.2c0.9-0.6,2.1-0.5,2.9,0.2
					C5479.5,4078.9,5479.6,4079,5479.7,4079.3L5479.7,4079.3z"/>
			</g>
		</g>
	</g>
</g>
<g id="Group_182" transform="translate(-3555.757 -8337.574) rotate(60)">
	<g id="Group_148-2" transform="translate(12224.423 1552.942)">
		<g id="Group_146-3" transform="translate(0 133.268)">
			<g id="Group_135-5" transform="translate(0 0)">
				<g class="st5">
					<path class="st1" d="M-2980.3-601.8c0-0.5,0-0.8,0-1.1c0-0.2,0.1-0.5,0.3-0.8c0.3-0.5,1.1-0.8,2.4-0.8c1,0,1.7,0.2,2.1,0.5
						c0.3,0.3,0.5,0.7,0.6,1.3c0,0.2,0,0.5,0,0.9l0,10.8c0,0.5,0,0.8,0,1.1c0,0.2-0.1,0.5-0.3,0.8c-0.3,0.5-1.1,0.8-2.4,0.8
						c-1.3,0-2.1-0.3-2.4-0.8c-0.1-0.3-0.2-0.6-0.3-0.8c0-0.2,0-0.6,0-1.1L-2980.3-601.8z M-2975.2-607.5c-0.2,0.3-0.4,0.5-0.8,0.6
						c-0.4,0.1-0.9,0.2-1.6,0.2c-0.6,0-1.2-0.1-1.6-0.2c-0.4-0.1-0.7-0.3-0.8-0.6c-0.2-0.3-0.2-0.6-0.3-0.8c0-0.2,0-0.6,0-1.1
						c0-0.5,0-0.8,0-1.1c0-0.2,0.1-0.5,0.3-0.8c0.3-0.6,1.1-0.8,2.4-0.8c1.3,0,2.1,0.3,2.3,0.8c0.2,0.3,0.3,0.6,0.3,0.8
						c0,0.2,0,0.6,0,1.1c0,0.5,0,0.8,0,1.1C-2974.9-608.1-2975-607.8-2975.2-607.5z"/>
				</g>
				<g class="st5">
					<path class="st1" d="M-2860.6-601.8c0-0.5,0-0.8,0-1.1c0-0.2,0.1-0.5,0.3-0.8c0.3-0.5,1.1-0.8,2.4-0.8c1,0,1.7,0.2,2.1,0.5
						c0.3,0.3,0.5,0.7,0.6,1.3c0,0.2,0,0.5,0,0.9l0,10.8c0,0.5,0,0.8,0,1.1c0,0.2-0.1,0.5-0.3,0.8c-0.3,0.5-1.1,0.8-2.4,0.8
						c-1.3,0-2.1-0.3-2.4-0.8c-0.1-0.3-0.2-0.6-0.3-0.8c0-0.2,0-0.6,0-1.1L-2860.6-601.8z M-2855.5-607.5c-0.2,0.3-0.4,0.5-0.8,0.6
						c-0.4,0.1-0.9,0.2-1.6,0.2c-0.6,0-1.2-0.1-1.6-0.2c-0.4-0.1-0.7-0.3-0.8-0.6c-0.2-0.3-0.2-0.6-0.3-0.8c0-0.2,0-0.6,0-1.1
						c0-0.5,0-0.8,0-1.1c0-0.2,0.1-0.5,0.3-0.8c0.3-0.6,1.1-0.8,2.4-0.8c1.3,0,2.1,0.3,2.3,0.8c0.2,0.3,0.3,0.6,0.3,0.8
						c0,0.2,0,0.6,0,1.1c0,0.5,0,0.8,0,1.1C-2855.3-608.1-2855.4-607.8-2855.5-607.5z"/>
				</g>
				<g class="st5">
					<path class="st1" d="M-2806.4-598.4c0.3,0.2,0.5,0.4,0.6,0.8c0.1,0.4,0.2,0.9,0.2,1.6c0,0.6-0.1,1.2-0.2,1.6
						c-0.1,0.4-0.3,0.7-0.6,0.8c-0.3,0.2-0.6,0.2-0.8,0.3c-0.2,0-0.6,0-1.1,0c-0.5,0-0.8,0-1.1,0c-0.2,0-0.5-0.1-0.8-0.3
						c-0.6-0.3-0.8-1.1-0.8-2.4c0-1.3,0.3-2.1,0.8-2.3c0.3-0.2,0.6-0.3,0.8-0.3c0.2,0,0.6,0,1.1,0c0.5,0,0.8,0,1.1,0
						C-2807-598.6-2806.7-598.5-2806.4-598.4z M-2800.7-593.3c-0.5,0-0.8,0-1.1,0c-0.2,0-0.5-0.1-0.8-0.3c-0.5-0.3-0.8-1.1-0.8-2.4
						c0-1,0.2-1.7,0.5-2.1c0.3-0.4,0.7-0.5,1.3-0.6c0.2,0,0.5,0,0.9,0l10.8,0c0.5,0,0.8,0,1.1,0c0.2,0,0.5,0.1,0.8,0.3
						c0.5,0.3,0.8,1.1,0.8,2.4c0,1.3-0.3,2.1-0.8,2.4c-0.3,0.1-0.6,0.2-0.8,0.3c-0.2,0-0.6,0-1.1,0L-2800.7-593.3z"/>
				</g>
				<g class="st5">
					<path class="st1" d="M-2759.7-610.9c3.8,0,7,1.4,9.8,4.1c2.8,2.7,4.2,6.1,4.2,10.1c0,4-1.3,7.5-4,10.3
						c-2.6,2.8-5.9,4.3-9.8,4.3c-3.9,0-7.2-1.4-9.9-4.2c-2.7-2.8-4.1-6.1-4.1-10c0-2.1,0.4-4.1,1.1-5.9c0.8-1.8,1.8-3.4,3.1-4.6
						c1.3-1.2,2.7-2.2,4.4-2.9C-2763.2-610.6-2761.5-610.9-2759.7-610.9z M-2766.7-596.6c0,2.3,0.7,4.1,2.2,5.5
						c1.5,1.4,3.1,2.1,4.9,2.1c1.8,0,3.4-0.7,4.9-2.1c1.5-1.4,2.2-3.2,2.2-5.5c0-2.3-0.7-4.2-2.2-5.6c-1.5-1.4-3.1-2.1-4.9-2.1
						c-1.8,0-3.4,0.7-4.9,2.1C-2765.9-600.7-2766.7-598.8-2766.7-596.6z"/>
				</g>
				<g class="st5">
					<path class="st1" d="M-2946.1-610.1c0.2-0.4,0.6-0.7,1-0.9c0.5-0.1,1-0.2,1.7-0.2c0.7,0,1.2,0.1,1.7,0.2
						c0.4,0.1,0.7,0.3,0.9,0.4c0.2,0.2,0.4,0.4,0.5,0.8c0.1,0.4,0.2,1,0.2,1.9v20.2c0,0.6,0,1-0.1,1.3c0,0.3-0.2,0.6-0.3,0.9
						c-0.3,0.7-1.3,1-2.8,1c-0.9,0-1.6-0.1-2-0.2c-0.4-0.1-0.7-0.4-0.9-0.7c-5.5-7.3-9-12-10.8-14.2l0,12c0,0.6,0,1-0.1,1.3
						c0,0.3-0.2,0.6-0.3,0.9c-0.3,0.7-1.3,1-2.8,1c-1.5,0-2.4-0.3-2.8-1c-0.2-0.4-0.3-0.7-0.3-1c0-0.3-0.1-0.7-0.1-1.3l0-20.3
						c0-0.9,0.1-1.6,0.3-2c0.2-0.4,0.6-0.7,1-0.9c0.5-0.1,1.1-0.2,1.8-0.2c0.7,0,1.3,0.1,1.7,0.2c0.4,0.1,0.7,0.3,0.9,0.5
						c0.1,0.1,0.4,0.4,0.8,0.9c5.1,7,8.5,11.5,10.2,13.8l0-12.3C-2946.4-609-2946.3-609.7-2946.1-610.1z"/>
				</g>
				<g class="st5">
					<path class="st1" d="M-2719.4-610c0.2-0.4,0.6-0.7,1-0.9c0.5-0.1,1-0.2,1.7-0.2c0.7,0,1.2,0.1,1.7,0.2c0.4,0.1,0.7,0.3,0.9,0.4
						c0.2,0.2,0.4,0.4,0.5,0.8c0.1,0.4,0.2,1,0.2,1.9v20.2c0,0.6,0,1-0.1,1.3c0,0.3-0.2,0.6-0.3,0.9c-0.3,0.7-1.3,1-2.8,1
						c-0.9,0-1.6-0.1-2-0.2c-0.4-0.1-0.7-0.4-0.9-0.7c-5.5-7.3-9-12-10.8-14.2l0,12c0,0.6,0,1-0.1,1.3c0,0.3-0.2,0.6-0.3,0.9
						c-0.3,0.7-1.3,1-2.8,1c-1.5,0-2.4-0.3-2.8-1c-0.2-0.4-0.3-0.7-0.3-1c0-0.3-0.1-0.7-0.1-1.3l0-20.3c0-0.9,0.1-1.6,0.3-2
						c0.2-0.4,0.6-0.7,1-0.9c0.5-0.1,1.1-0.2,1.8-0.2c0.7,0,1.3,0.1,1.7,0.2c0.4,0.1,0.7,0.3,0.9,0.5c0.1,0.1,0.4,0.4,0.8,0.9
						c5.1,7,8.5,11.5,10.2,13.8l0-12.3C-2719.7-608.9-2719.6-609.6-2719.4-610z"/>
				</g>
				<g class="st5">
					<path class="st1" d="M-2927.5-609.9l19.2,0c0.7,0,1.3,0.1,1.6,0.3c0.3,0.2,0.6,0.4,0.7,0.8c0.1,0.4,0.2,0.9,0.2,1.5
						c0,0.6-0.1,1.1-0.2,1.4c-0.1,0.4-0.3,0.6-0.6,0.7c-0.4,0.2-1,0.3-1.8,0.3l-6.6,0l0,17.4c0,0.5,0,0.9-0.1,1.2
						c0,0.3-0.1,0.5-0.3,0.9c-0.2,0.3-0.5,0.6-0.9,0.7c-0.4,0.1-1,0.2-1.7,0.2c-0.7,0-1.3-0.1-1.7-0.2c-0.4-0.1-0.7-0.4-0.9-0.7
						c-0.2-0.3-0.3-0.6-0.3-0.9c0-0.3-0.1-0.7-0.1-1.2v-17.3l-6.6,0c-0.7,0-1.3-0.1-1.6-0.3c-0.3-0.2-0.6-0.4-0.7-0.8
						c-0.1-0.4-0.2-0.9-0.2-1.5c0-0.6,0.1-1.1,0.2-1.4c0.1-0.4,0.3-0.6,0.6-0.7C-2928.8-609.8-2928.2-609.9-2927.5-609.9z"/>
				</g>
				<g class="st5">
					<path class="st1" d="M-2842-609.9l19.2,0c0.7,0,1.3,0.1,1.6,0.3c0.3,0.2,0.6,0.4,0.7,0.8c0.1,0.4,0.2,0.9,0.2,1.5
						c0,0.6-0.1,1.1-0.2,1.4c-0.1,0.4-0.3,0.6-0.6,0.7c-0.4,0.2-1,0.3-1.8,0.3l-6.6,0l0,17.4c0,0.5,0,0.9-0.1,1.2
						c0,0.3-0.1,0.5-0.3,0.9c-0.2,0.3-0.5,0.6-0.9,0.7c-0.4,0.1-1,0.2-1.7,0.2c-0.7,0-1.3-0.1-1.7-0.2c-0.4-0.1-0.7-0.4-0.9-0.7
						c-0.2-0.3-0.3-0.6-0.3-0.9c0-0.3-0.1-0.7-0.1-1.2l0-17.3l-6.6,0c-0.7,0-1.3-0.1-1.6-0.3c-0.3-0.2-0.6-0.4-0.7-0.8
						c-0.1-0.4-0.2-0.9-0.2-1.5c0-0.6,0.1-1.1,0.2-1.4c0.1-0.4,0.3-0.6,0.6-0.7C-2843.4-609.8-2842.8-609.9-2842-609.9z"/>
				</g>
				<g class="st5">
					<path class="st1" d="M-2878.1-609c0.2-0.4,0.6-0.6,1-0.8c0.4-0.1,1-0.2,1.6-0.2c0.7,0,1.2,0.1,1.6,0.2c0.4,0.1,0.7,0.3,0.9,0.4
						c0.2,0.2,0.4,0.4,0.4,0.7c0.1,0.4,0.2,1,0.2,1.8v10.4c0,3-0.9,5.8-2.8,8.3c-0.9,1.2-2.1,2.1-3.6,2.8c-1.5,0.7-3.1,1.1-4.8,1.1
						c-1.8,0-3.4-0.4-4.8-1.1c-1.4-0.7-2.6-1.7-3.5-2.9c-1.9-2.4-2.8-5.2-2.8-8.3l0-10.4c0-0.6,0-1,0.1-1.2c0-0.3,0.1-0.6,0.3-0.9
						c0.2-0.3,0.5-0.6,0.9-0.7c0.4-0.1,1-0.2,1.8-0.2c0.7,0,1.3,0.1,1.8,0.2c0.4,0.1,0.7,0.4,0.9,0.7c0.3,0.5,0.4,1.3,0.4,2.2
						l0,10.4c0,1.4,0.3,2.7,1,4c0.3,0.6,0.9,1.2,1.6,1.6c0.7,0.4,1.5,0.6,2.5,0.6c1.7,0,2.9-0.6,3.8-1.9c0.8-1.2,1.2-2.7,1.2-4.3
						l0-10.6C-2878.5-608-2878.4-608.6-2878.1-609z"/>
				</g>
			</g>
		</g>
		<g id="Group_147-3" transform="translate(90.063 148.182) rotate(-90)">
			<g id="Group_135-6" transform="translate(0 0)">
				<g class="st5">
					<path class="st1" d="M613.3-2896.3c-0.2,0.3-0.4,0.5-0.8,0.6c-0.4,0.1-0.9,0.2-1.6,0.2c-0.6,0-1.2-0.1-1.6-0.2
						c-0.4-0.1-0.7-0.3-0.8-0.6c-0.2-0.3-0.2-0.6-0.3-0.8c0-0.2,0-0.6,0-1.1c0-0.5,0-0.8,0-1.1c0-0.2,0.1-0.5,0.3-0.8
						c0.3-0.6,1.1-0.8,2.4-0.8c1.3,0,2.1,0.3,2.3,0.8c0.2,0.3,0.3,0.6,0.3,0.8c0,0.2,0,0.6,0,1.1c0,0.5,0,0.8,0,1.1
						C613.5-2896.9,613.4-2896.6,613.3-2896.3z M608.2-2890.6c0-0.5,0-0.8,0-1.1c0-0.2,0.1-0.5,0.3-0.8c0.3-0.5,1.1-0.8,2.4-0.8
						c1,0,1.7,0.2,2.1,0.5c0.3,0.3,0.5,0.7,0.6,1.3c0,0.2,0,0.5,0,0.9l0,10.8c0,0.5,0,0.8,0,1.1c0,0.2-0.1,0.5-0.3,0.8
						c-0.3,0.5-1.1,0.8-2.4,0.8c-1.3,0-2.1-0.3-2.4-0.8c-0.1-0.3-0.2-0.6-0.3-0.8c0-0.2,0-0.6,0-1.1L608.2-2890.6z"/>
				</g>
				<g class="st5">
					<path class="st1" d="M732.9-2896.3c-0.2,0.3-0.4,0.5-0.8,0.6c-0.4,0.1-0.9,0.2-1.6,0.2c-0.6,0-1.2-0.1-1.6-0.2
						c-0.4-0.1-0.7-0.3-0.8-0.6c-0.2-0.3-0.2-0.6-0.3-0.8c0-0.2,0-0.6,0-1.1s0-0.8,0-1.1c0-0.2,0.1-0.5,0.3-0.8
						c0.3-0.6,1.1-0.8,2.4-0.8c1.3,0,2.1,0.3,2.3,0.8c0.2,0.3,0.3,0.6,0.3,0.8c0,0.2,0,0.6,0,1.1c0,0.5,0,0.8,0,1.1
						C733.2-2896.9,733.1-2896.6,732.9-2896.3z M727.8-2890.6c0-0.5,0-0.8,0-1.1c0-0.2,0.1-0.5,0.3-0.8c0.3-0.5,1.1-0.8,2.4-0.8
						c1,0,1.7,0.2,2.1,0.5c0.3,0.3,0.5,0.7,0.6,1.3c0,0.2,0,0.5,0,0.9l0,10.8c0,0.5,0,0.8,0,1.1c0,0.2-0.1,0.5-0.3,0.8
						c-0.3,0.5-1.1,0.8-2.4,0.8c-1.3,0-2.1-0.3-2.4-0.8c-0.1-0.3-0.2-0.6-0.3-0.8c0-0.2,0-0.6,0-1.1L727.8-2890.6z"/>
				</g>
				<g class="st5">
					<path class="st1" d="M782-2887.2c0.3,0.2,0.5,0.4,0.6,0.8c0.1,0.4,0.2,0.9,0.2,1.6c0,0.6-0.1,1.2-0.2,1.6
						c-0.1,0.4-0.3,0.7-0.6,0.8c-0.3,0.2-0.6,0.2-0.8,0.3c-0.2,0-0.6,0-1.1,0c-0.5,0-0.8,0-1.1,0c-0.2,0-0.5-0.1-0.8-0.3
						c-0.6-0.3-0.8-1.1-0.8-2.4c0-1.3,0.3-2.1,0.8-2.3c0.3-0.2,0.6-0.3,0.8-0.3c0.2,0,0.6,0,1.1,0c0.5,0,0.8,0,1.1,0
						C781.4-2887.4,781.7-2887.3,782-2887.2z M787.7-2882.1c-0.5,0-0.8,0-1.1,0c-0.2,0-0.5-0.1-0.8-0.3c-0.5-0.3-0.8-1.1-0.8-2.4
						c0-1,0.2-1.7,0.5-2.1c0.3-0.3,0.7-0.5,1.3-0.6c0.2,0,0.5,0,0.9,0l10.8,0c0.5,0,0.8,0,1.1,0c0.2,0,0.5,0.1,0.8,0.3
						c0.5,0.3,0.8,1.1,0.8,2.4c0,1.3-0.3,2.1-0.8,2.4c-0.3,0.1-0.6,0.2-0.8,0.3c-0.2,0-0.6,0-1.1,0L787.7-2882.1z"/>
				</g>
				<g class="st5">
					<path class="st1" d="M827.2-2898.9c3.4,0,6.4,1.2,8.9,3.7c2.5,2.5,3.8,5.5,3.8,9.2c0,3.6-1.2,6.8-3.6,9.3
						c-2.4,2.6-5.3,3.8-8.8,3.8c-3.5,0-6.5-1.3-8.9-3.8c-2.5-2.5-3.7-5.5-3.7-9c0-1.9,0.3-3.7,1-5.4c0.7-1.7,1.6-3.1,2.8-4.2
						c1.2-1.1,2.5-2,4-2.7C824.1-2898.6,825.6-2898.9,827.2-2898.9z M820.9-2885.9c0,2,0.7,3.7,2,5c1.3,1.3,2.8,1.9,4.4,1.9
						c1.6,0,3.1-0.6,4.4-1.9c1.3-1.2,2-2.9,2-5c0-2.1-0.7-3.8-2-5c-1.3-1.3-2.8-1.9-4.4-1.9c-1.6,0-3.1,0.6-4.4,1.9
						C821.6-2889.6,820.9-2887.9,820.9-2885.9z"/>
				</g>
				<g class="st5">
					<path class="st1" d="M642.4-2898.9c0.2-0.4,0.6-0.7,1-0.9c0.5-0.1,1-0.2,1.7-0.2c0.7,0,1.2,0.1,1.7,0.2s0.7,0.3,0.9,0.4
						c0.2,0.2,0.4,0.4,0.5,0.8c0.1,0.4,0.2,1,0.2,1.9l0,20.2c0,0.6,0,1-0.1,1.3c0,0.3-0.2,0.6-0.3,0.9c-0.3,0.7-1.3,1-2.8,1
						c-0.9,0-1.6-0.1-2-0.2c-0.4-0.1-0.7-0.4-0.9-0.7c-5.5-7.3-9-12-10.8-14.2l0,12c0,0.6,0,1-0.1,1.3c0,0.3-0.2,0.6-0.3,0.9
						c-0.3,0.7-1.3,1-2.8,1c-1.5,0-2.4-0.3-2.8-1c-0.2-0.4-0.3-0.7-0.3-1c0-0.3-0.1-0.7-0.1-1.3l0-20.3c0-0.9,0.1-1.6,0.3-2
						c0.2-0.4,0.6-0.7,1-0.9c0.5-0.1,1.1-0.2,1.8-0.2c0.7,0,1.3,0.1,1.7,0.2s0.7,0.3,0.9,0.5c0.1,0.1,0.4,0.4,0.8,0.9
						c5.1,7,8.5,11.5,10.2,13.8l0-12.3C642-2897.8,642.1-2898.5,642.4-2898.9z"/>
				</g>
				<g class="st5">
					<path class="st1" d="M868.5-2898.8c0.2-0.4,0.6-0.7,1-0.9c0.5-0.1,1-0.2,1.7-0.2c0.7,0,1.2,0.1,1.7,0.2
						c0.4,0.1,0.7,0.3,0.9,0.4c0.2,0.2,0.4,0.4,0.5,0.8c0.1,0.4,0.2,1,0.2,1.9l0,20.2c0,0.6,0,1-0.1,1.3c0,0.3-0.2,0.6-0.3,0.9
						c-0.3,0.7-1.3,1-2.8,1c-0.9,0-1.6-0.1-2-0.2c-0.4-0.1-0.7-0.4-0.9-0.7c-5.5-7.3-9-12-10.8-14.2l0,12c0,0.6,0,1-0.1,1.3
						c0,0.3-0.2,0.6-0.3,0.9c-0.3,0.7-1.3,1-2.8,1c-1.5,0-2.4-0.3-2.8-1c-0.2-0.4-0.3-0.7-0.3-1c0-0.3-0.1-0.7-0.1-1.3l0-20.3
						c0-0.9,0.1-1.6,0.3-2c0.2-0.4,0.6-0.7,1-0.9c0.5-0.1,1.1-0.2,1.8-0.2c0.7,0,1.3,0.1,1.7,0.2c0.4,0.1,0.7,0.3,0.9,0.5
						c0.1,0.1,0.4,0.4,0.8,0.9c5.1,7,8.5,11.5,10.2,13.8l0-12.3C868.2-2897.7,868.3-2898.4,868.5-2898.8z"/>
				</g>
				<g class="st5">
					<path class="st1" d="M661-2898.7l19.2,0c0.7,0,1.3,0.1,1.6,0.3c0.3,0.2,0.6,0.4,0.7,0.8c0.1,0.4,0.2,0.9,0.2,1.5
						c0,0.6-0.1,1.1-0.2,1.4c-0.1,0.4-0.3,0.6-0.6,0.7c-0.4,0.2-1,0.3-1.8,0.3h-6.6l0,17.4c0,0.5,0,0.9-0.1,1.2
						c0,0.3-0.1,0.5-0.3,0.9c-0.2,0.3-0.5,0.6-0.9,0.7c-0.4,0.1-1,0.2-1.7,0.2c-0.7,0-1.3-0.1-1.7-0.2c-0.4-0.1-0.7-0.4-0.9-0.7
						c-0.2-0.3-0.3-0.6-0.3-0.9c0-0.3-0.1-0.7-0.1-1.2l0-17.3l-6.6,0c-0.7,0-1.3-0.1-1.6-0.3c-0.3-0.2-0.6-0.4-0.7-0.8
						c-0.1-0.4-0.2-0.8-0.2-1.5c0-0.6,0.1-1.1,0.2-1.4c0.1-0.4,0.3-0.6,0.6-0.7C659.6-2898.6,660.2-2898.7,661-2898.7z"/>
				</g>
				<g class="st5">
					<path class="st1" d="M746.4-2898.7l19.2,0c0.7,0,1.3,0.1,1.6,0.3c0.3,0.2,0.6,0.4,0.7,0.8c0.1,0.4,0.2,0.9,0.2,1.5
						c0,0.6-0.1,1.1-0.2,1.4c-0.1,0.4-0.3,0.6-0.6,0.7c-0.4,0.2-1,0.3-1.8,0.3H759l0,17.4c0,0.5,0,0.9-0.1,1.2
						c0,0.3-0.1,0.5-0.3,0.9c-0.2,0.3-0.5,0.6-0.9,0.7c-0.4,0.1-1,0.2-1.7,0.2c-0.7,0-1.3-0.1-1.7-0.2c-0.4-0.1-0.7-0.4-0.9-0.7
						c-0.2-0.3-0.3-0.6-0.3-0.9c0-0.3-0.1-0.7-0.1-1.2l0-17.3l-6.6,0c-0.7,0-1.3-0.1-1.6-0.3c-0.3-0.2-0.6-0.4-0.7-0.8
						c-0.1-0.4-0.2-0.8-0.2-1.5c0-0.6,0.1-1.1,0.2-1.4c0.1-0.4,0.3-0.6,0.6-0.7C745.1-2898.6,745.6-2898.7,746.4-2898.7z"/>
				</g>
				<g class="st5">
					<path class="st1" d="M710.3-2897.8c0.2-0.4,0.6-0.6,1-0.8c0.4-0.1,1-0.2,1.6-0.2c0.7,0,1.2,0.1,1.6,0.2
						c0.4,0.1,0.7,0.3,0.9,0.4c0.2,0.2,0.4,0.4,0.4,0.7c0.1,0.4,0.2,1,0.2,1.8l0,10.4c0,3-0.9,5.8-2.8,8.3c-0.9,1.2-2.1,2.1-3.6,2.8
						c-1.4,0.7-3.1,1.1-4.8,1.1c-1.8,0-3.4-0.4-4.8-1.1c-1.4-0.7-2.6-1.7-3.5-2.9c-1.9-2.4-2.8-5.2-2.8-8.3l0-10.4
						c0-0.6,0-1,0.1-1.2c0-0.3,0.1-0.6,0.3-0.9c0.2-0.3,0.5-0.6,0.9-0.7c0.4-0.1,1-0.2,1.8-0.2c0.7,0,1.3,0.1,1.8,0.2
						c0.4,0.1,0.7,0.4,0.9,0.7c0.3,0.5,0.4,1.3,0.4,2.2l0,10.4c0,1.4,0.3,2.7,1,4c0.3,0.6,0.9,1.2,1.6,1.6c0.7,0.4,1.5,0.6,2.5,0.6
						c1.7,0,2.9-0.6,3.8-1.9c0.8-1.2,1.2-2.7,1.2-4.3l0-10.6C710-2896.8,710.1-2897.4,710.3-2897.8z"/>
				</g>
			</g>
		</g>
	</g>
	<g id="Group_149-2" transform="translate(12329.402 1744.362) rotate(180)">
		<g id="Group_146-4" transform="translate(0 133.268)">
			<g id="Group_135-7">
				<g class="st5">
					<path class="st1" d="M2902,692.1c-0.2,0.3-0.4,0.5-0.8,0.6c-0.4,0.1-0.9,0.2-1.6,0.2s-1.2-0.1-1.6-0.2
						c-0.4-0.1-0.7-0.3-0.8-0.6c-0.2-0.3-0.2-0.6-0.3-0.8c0-0.2,0-0.6,0-1.1c0-0.5,0-0.8,0-1.1c0-0.2,0.1-0.5,0.3-0.8
						c0.3-0.6,1.1-0.8,2.4-0.8c1.3,0,2.1,0.3,2.3,0.8c0.2,0.3,0.3,0.6,0.3,0.8c0,0.2,0,0.6,0,1.1c0,0.5,0,0.8,0,1.1
						C2902.3,691.5,2902.2,691.8,2902,692.1z M2897,697.8c0-0.5,0-0.8,0-1.1c0-0.2,0.1-0.5,0.3-0.8c0.3-0.5,1.1-0.8,2.4-0.8
						c1,0,1.7,0.2,2.1,0.5c0.3,0.3,0.5,0.7,0.6,1.3c0,0.2,0,0.5,0,0.9l0,10.8c0,0.5,0,0.8,0,1.1c0,0.2-0.1,0.5-0.3,0.8
						c-0.3,0.5-1.1,0.8-2.4,0.8c-1.3,0-2.1-0.3-2.4-0.8c-0.1-0.3-0.2-0.6-0.3-0.8c0-0.2,0-0.6,0-1.1L2897,697.8z"/>
				</g>
				<g class="st5">
					<path class="st1" d="M3021.7,692.1c-0.2,0.3-0.4,0.5-0.8,0.6c-0.4,0.1-0.9,0.2-1.6,0.2s-1.2-0.1-1.6-0.2
						c-0.4-0.1-0.7-0.3-0.8-0.6c-0.2-0.3-0.2-0.6-0.3-0.8c0-0.2,0-0.6,0-1.1s0-0.8,0-1.1c0-0.2,0.1-0.5,0.3-0.8
						c0.3-0.6,1.1-0.8,2.4-0.8c1.3,0,2.1,0.3,2.3,0.8c0.2,0.3,0.3,0.6,0.3,0.8c0,0.2,0,0.6,0,1.1c0,0.5,0,0.8,0,1.1
						C3022,691.5,3021.9,691.8,3021.7,692.1z M3016.6,697.8c0-0.5,0-0.8,0-1.1c0-0.2,0.1-0.5,0.3-0.8c0.3-0.5,1.1-0.8,2.4-0.8
						c1,0,1.7,0.2,2.1,0.5c0.3,0.3,0.5,0.7,0.6,1.3c0,0.2,0,0.5,0,0.9v10.8c0,0.5,0,0.8,0,1.1c0,0.2-0.1,0.5-0.3,0.8
						c-0.3,0.5-1.1,0.8-2.4,0.8c-1.3,0-2.1-0.3-2.4-0.8c-0.1-0.3-0.2-0.6-0.3-0.8c0-0.2,0-0.6,0-1.1L3016.6,697.8z"/>
				</g>
				<g class="st5">
					<path class="st1" d="M3076.5,706.3c-0.5,0-0.8,0-1.1,0c-0.2,0-0.5-0.1-0.8-0.3c-0.5-0.3-0.8-1.1-0.8-2.4c0-1,0.2-1.7,0.5-2.1
						c0.3-0.4,0.7-0.5,1.3-0.6c0.2,0,0.5,0,0.9,0l10.8,0c0.5,0,0.8,0,1.1,0c0.2,0,0.5,0.1,0.8,0.3c0.5,0.3,0.8,1.1,0.8,2.4
						c0,1.3-0.3,2.1-0.8,2.4c-0.3,0.1-0.6,0.2-0.8,0.3c-0.2,0-0.6,0-1.1,0L3076.5,706.3z M3070.8,701.2c0.3,0.2,0.5,0.4,0.6,0.8
						c0.1,0.4,0.2,0.9,0.2,1.6c0,0.6-0.1,1.2-0.2,1.6c-0.1,0.4-0.3,0.7-0.6,0.8c-0.3,0.2-0.6,0.2-0.8,0.3c-0.2,0-0.6,0-1.1,0
						c-0.5,0-0.8,0-1.1,0c-0.2,0-0.5-0.1-0.8-0.3c-0.6-0.3-0.8-1.1-0.8-2.4c0-1.3,0.3-2.1,0.8-2.3c0.3-0.2,0.6-0.3,0.8-0.3
						c0.2,0,0.6,0,1.1,0c0.5,0,0.8,0,1.1,0C3070.2,701,3070.5,701.1,3070.8,701.2z"/>
				</g>
				<g class="st5">
					<path class="st1" d="M3116,689.5c3.4,0,6.4,1.2,8.9,3.7s3.8,5.5,3.8,9.2c0,3.6-1.2,6.8-3.6,9.3c-2.4,2.6-5.3,3.8-8.8,3.8
						c-3.5,0-6.5-1.3-8.9-3.8c-2.5-2.5-3.7-5.5-3.7-9c0-1.9,0.3-3.7,1-5.4c0.7-1.7,1.6-3.1,2.8-4.2c1.2-1.1,2.5-2,4-2.7
						C3112.9,689.9,3114.4,689.5,3116,689.5z M3109.7,702.5c0,2,0.7,3.7,2,5c1.3,1.3,2.8,1.9,4.4,1.9c1.6,0,3.1-0.6,4.4-1.9
						c1.3-1.2,2-2.9,2-5c0-2.1-0.7-3.8-2-5c-1.3-1.3-2.8-1.9-4.4-1.9c-1.6,0-3.1,0.6-4.4,1.9
						C3110.4,698.8,3109.7,700.5,3109.7,702.5z"/>
				</g>
				<g class="st5">
					<path class="st1" d="M2931.1,689.5c0.2-0.4,0.6-0.7,1-0.9c0.5-0.1,1-0.2,1.7-0.2c0.7,0,1.2,0.1,1.7,0.2
						c0.4,0.1,0.7,0.3,0.9,0.4c0.2,0.2,0.4,0.4,0.5,0.8c0.1,0.4,0.2,1,0.2,1.9v20.2c0,0.6,0,1-0.1,1.3c0,0.3-0.2,0.6-0.3,0.9
						c-0.3,0.7-1.3,1-2.8,1c-0.9,0-1.6-0.1-2-0.2c-0.4-0.1-0.7-0.4-0.9-0.7c-5.5-7.3-9-12-10.8-14.2l0,12c0,0.6,0,1-0.1,1.3
						c0,0.3-0.2,0.6-0.3,0.9c-0.3,0.7-1.3,1-2.8,1c-1.5,0-2.4-0.3-2.8-1c-0.2-0.4-0.3-0.7-0.3-1c0-0.3-0.1-0.7-0.1-1.3l0-20.3
						c0-0.9,0.1-1.6,0.3-2c0.2-0.4,0.6-0.7,1-0.9c0.5-0.1,1.1-0.2,1.8-0.2c0.7,0,1.3,0.1,1.7,0.2c0.4,0.1,0.7,0.3,0.9,0.5
						c0.1,0.1,0.4,0.4,0.8,0.9c5.1,7,8.5,11.5,10.2,13.8l0-12.3C2930.8,690.6,2930.9,689.9,2931.1,689.5z"/>
				</g>
				<g class="st5">
					<path class="st1" d="M3157.3,689.6c0.2-0.4,0.6-0.7,1-0.9c0.5-0.1,1-0.2,1.7-0.2c0.7,0,1.2,0.1,1.7,0.2
						c0.4,0.1,0.7,0.3,0.9,0.4c0.2,0.2,0.4,0.4,0.5,0.8c0.1,0.4,0.2,1,0.2,1.9l0,20.2c0,0.6,0,1-0.1,1.3c0,0.3-0.2,0.6-0.3,0.9
						c-0.3,0.7-1.3,1-2.8,1c-0.9,0-1.6-0.1-2-0.2c-0.4-0.1-0.7-0.4-0.9-0.7c-5.5-7.3-9-12-10.8-14.2l0,12c0,0.6,0,1-0.1,1.3
						c0,0.3-0.2,0.6-0.3,0.9c-0.3,0.7-1.3,1-2.8,1c-1.5,0-2.4-0.3-2.8-1c-0.2-0.4-0.3-0.7-0.3-1c0-0.3-0.1-0.7-0.1-1.3l0-20.3
						c0-0.9,0.1-1.6,0.3-2c0.2-0.4,0.6-0.7,1-0.9c0.5-0.1,1.1-0.2,1.8-0.2c0.7,0,1.3,0.1,1.7,0.2c0.4,0.1,0.7,0.3,0.9,0.5
						c0.1,0.1,0.4,0.4,0.8,0.9c5.1,7,8.5,11.5,10.2,13.8l0-12.3C3157,690.7,3157.1,690,3157.3,689.6z"/>
				</g>
				<g class="st5">
					<path class="st1" d="M2949.7,689.7l19.2,0c0.7,0,1.3,0.1,1.6,0.3c0.3,0.2,0.6,0.4,0.7,0.8c0.1,0.4,0.2,0.9,0.2,1.4
						c0,0.6-0.1,1.1-0.2,1.4c-0.1,0.4-0.3,0.6-0.6,0.7c-0.4,0.2-1,0.3-1.8,0.3l-6.6,0v17.4c0,0.5,0,0.9-0.1,1.2
						c0,0.3-0.1,0.5-0.3,0.9c-0.2,0.3-0.5,0.6-0.9,0.7c-0.4,0.1-1,0.2-1.7,0.2c-0.7,0-1.3-0.1-1.7-0.2c-0.4-0.1-0.7-0.4-0.9-0.7
						c-0.2-0.3-0.3-0.6-0.3-0.9c0-0.3-0.1-0.7-0.1-1.2l0-17.3l-6.6,0c-0.7,0-1.3-0.1-1.6-0.3c-0.3-0.2-0.6-0.4-0.7-0.8
						c-0.1-0.4-0.2-0.9-0.2-1.5c0-0.6,0.1-1.1,0.2-1.4c0.1-0.4,0.3-0.6,0.6-0.7C2948.4,689.8,2949,689.7,2949.7,689.7z"/>
				</g>
				<g class="st5">
					<path class="st1" d="M3035.2,689.7l19.2,0c0.7,0,1.3,0.1,1.6,0.3c0.3,0.2,0.6,0.4,0.7,0.8c0.1,0.4,0.2,0.9,0.2,1.5
						c0,0.6-0.1,1.1-0.2,1.4c-0.1,0.4-0.3,0.6-0.6,0.7c-0.4,0.2-1,0.3-1.8,0.3l-6.6,0l0,17.4c0,0.5,0,0.9-0.1,1.2
						c0,0.3-0.1,0.5-0.3,0.9c-0.2,0.3-0.5,0.6-0.9,0.7c-0.4,0.1-1,0.2-1.7,0.2c-0.7,0-1.3-0.1-1.7-0.2c-0.4-0.1-0.7-0.4-0.9-0.7
						c-0.2-0.3-0.3-0.6-0.3-0.9c0-0.3-0.1-0.7-0.1-1.2l0-17.3l-6.6,0c-0.7,0-1.3-0.1-1.6-0.3c-0.3-0.2-0.6-0.4-0.7-0.8
						c-0.1-0.4-0.2-0.9-0.2-1.5c0-0.6,0.1-1.1,0.2-1.4c0.1-0.4,0.3-0.6,0.6-0.7C3033.8,689.8,3034.4,689.7,3035.2,689.7z"/>
				</g>
				<g class="st5">
					<path class="st1" d="M2999.1,690.7c0.2-0.4,0.6-0.6,1-0.8c0.4-0.1,1-0.2,1.6-0.2c0.7,0,1.2,0.1,1.6,0.2
						c0.4,0.1,0.7,0.3,0.9,0.4c0.2,0.2,0.4,0.4,0.4,0.7c0.1,0.4,0.2,1,0.2,1.8l0,10.4c0,3-0.9,5.8-2.8,8.3c-0.9,1.2-2.1,2.1-3.6,2.8
						c-1.5,0.7-3.1,1.1-4.8,1.1c-1.8,0-3.4-0.4-4.8-1.1c-1.4-0.7-2.6-1.7-3.5-2.9c-1.9-2.4-2.8-5.2-2.8-8.3l0-10.4
						c0-0.6,0-1,0.1-1.2c0-0.3,0.1-0.6,0.3-0.9c0.2-0.3,0.5-0.6,0.9-0.7c0.4-0.1,1-0.2,1.8-0.2c0.7,0,1.3,0.1,1.8,0.2
						c0.4,0.1,0.7,0.4,0.9,0.7c0.3,0.5,0.4,1.3,0.4,2.2v10.4c0,1.4,0.3,2.7,1,4c0.3,0.6,0.9,1.2,1.6,1.6c0.7,0.4,1.5,0.6,2.5,0.6
						c1.7,0,2.9-0.6,3.8-1.9c0.8-1.2,1.2-2.7,1.2-4.3l0-10.6C2998.7,691.7,2998.9,691,2999.1,690.7z"/>
				</g>
			</g>
		</g>
		<g id="Group_147-4" transform="translate(90.063 148.182) rotate(-90)">
			<g id="Group_135-8" transform="translate(0 0)">
				<g class="st5">
					<path class="st1" d="M-691.5,2986.6c0-0.5,0-0.8,0-1.1c0-0.2,0.1-0.5,0.3-0.8c0.3-0.5,1.1-0.8,2.4-0.8c1,0,1.7,0.2,2.1,0.5
						c0.4,0.3,0.5,0.7,0.6,1.3c0,0.2,0,0.5,0,0.9l0,10.8c0,0.5,0,0.8,0,1.1c0,0.2-0.1,0.5-0.3,0.8c-0.3,0.5-1.1,0.8-2.4,0.8
						c-1.3,0-2.1-0.3-2.4-0.8c-0.1-0.3-0.2-0.6-0.3-0.8c0-0.2,0-0.6,0-1.1L-691.5,2986.6z M-686.4,2980.9c-0.2,0.3-0.4,0.5-0.8,0.6
						c-0.4,0.1-0.9,0.2-1.6,0.2c-0.6,0-1.2-0.1-1.6-0.2c-0.4-0.1-0.7-0.3-0.8-0.6c-0.2-0.3-0.2-0.6-0.3-0.8c0-0.2,0-0.6,0-1.1
						c0-0.5,0-0.8,0-1.1c0-0.2,0.1-0.5,0.3-0.8c0.3-0.6,1.1-0.8,2.4-0.8c1.3,0,2.1,0.3,2.3,0.8c0.2,0.3,0.3,0.6,0.3,0.8
						c0,0.2,0,0.6,0,1.1c0,0.5,0,0.8,0,1.1C-686.1,2980.3-686.2,2980.6-686.4,2980.9z"/>
				</g>
				<g class="st5">
					<path class="st1" d="M-571.8,2986.6c0-0.5,0-0.8,0-1.1c0-0.2,0.1-0.5,0.3-0.8c0.3-0.5,1.1-0.8,2.4-0.8c1,0,1.7,0.2,2.1,0.5
						c0.3,0.3,0.5,0.7,0.6,1.3c0,0.2,0,0.5,0,0.9l0,10.8c0,0.5,0,0.8,0,1.1c0,0.2-0.1,0.5-0.3,0.8c-0.3,0.5-1.1,0.8-2.4,0.8
						c-1.3,0-2.1-0.3-2.4-0.8c-0.1-0.3-0.2-0.6-0.3-0.8c0-0.2,0-0.6,0-1.1L-571.8,2986.6z M-566.7,2980.9c-0.2,0.3-0.4,0.5-0.8,0.6
						c-0.4,0.1-0.9,0.2-1.6,0.2c-0.6,0-1.2-0.1-1.6-0.2c-0.4-0.1-0.7-0.3-0.8-0.6c-0.2-0.3-0.2-0.6-0.3-0.8c0-0.2,0-0.6,0-1.1
						c0-0.5,0-0.8,0-1.1c0-0.2,0.1-0.5,0.3-0.8c0.3-0.6,1.1-0.8,2.4-0.8c1.3,0,2.1,0.3,2.3,0.8c0.2,0.3,0.3,0.6,0.3,0.8
						c0,0.2,0,0.6,0,1.1c0,0.5,0,0.8,0,1.1C-566.5,2980.3-566.5,2980.6-566.7,2980.9z"/>
				</g>
				<g class="st5">
					<path class="st1" d="M-511.9,2995.1c-0.5,0-0.8,0-1.1,0c-0.2,0-0.5-0.1-0.8-0.3c-0.5-0.3-0.8-1.1-0.8-2.4c0-1,0.2-1.7,0.5-2.1
						c0.3-0.3,0.7-0.5,1.3-0.6c0.2,0,0.5,0,0.9,0l10.8,0c0.5,0,0.8,0,1.1,0c0.2,0,0.5,0.1,0.8,0.3c0.5,0.3,0.8,1.1,0.8,2.4
						c0,1.3-0.3,2.1-0.8,2.4c-0.3,0.1-0.6,0.2-0.8,0.3c-0.2,0-0.6,0-1.1,0L-511.9,2995.1z M-517.6,2990c0.3,0.2,0.5,0.4,0.6,0.8
						c0.1,0.4,0.2,0.9,0.2,1.6s-0.1,1.2-0.2,1.6c-0.1,0.4-0.3,0.7-0.6,0.8c-0.3,0.2-0.6,0.2-0.8,0.3c-0.2,0-0.6,0-1.1,0
						c-0.5,0-0.8,0-1.1,0c-0.2,0-0.5-0.1-0.8-0.3c-0.6-0.3-0.8-1.1-0.8-2.4c0-1.3,0.3-2.1,0.8-2.3c0.3-0.2,0.6-0.3,0.8-0.3
						c0.2,0,0.6,0,1.1,0c0.5,0,0.8,0,1.1,0C-518.2,2989.8-517.9,2989.9-517.6,2990z"/>
				</g>
				<g class="st5">
					<path class="st1" d="M-472.4,2978.3c3.4,0,6.4,1.2,8.9,3.7c2.5,2.5,3.8,5.5,3.8,9.2c0,3.6-1.2,6.8-3.6,9.3
						c-2.4,2.6-5.3,3.8-8.8,3.8c-3.5,0-6.5-1.3-8.9-3.8c-2.5-2.5-3.7-5.5-3.7-9c0-1.9,0.3-3.7,1-5.4c0.7-1.7,1.6-3.1,2.8-4.2
						c1.2-1.1,2.5-2,4-2.7C-475.5,2978.7-474,2978.3-472.4,2978.3z M-478.7,2991.4c0,2,0.7,3.7,2,5c1.3,1.3,2.8,1.9,4.4,1.9
						c1.6,0,3.1-0.6,4.4-1.9c1.3-1.2,2-2.9,2-5c0-2.1-0.7-3.8-2-5c-1.3-1.3-2.8-1.9-4.4-1.9c-1.6,0-3.1,0.6-4.4,1.9
						C-478,2987.6-478.7,2989.3-478.7,2991.4z"/>
				</g>
				<g class="st5">
					<path class="st1" d="M-657.3,2978.3c0.2-0.4,0.6-0.7,1-0.9c0.5-0.1,1-0.2,1.7-0.2s1.2,0.1,1.7,0.2c0.4,0.1,0.7,0.3,0.9,0.4
						c0.2,0.2,0.4,0.4,0.5,0.8c0.1,0.4,0.2,1,0.2,1.9l0,20.2c0,0.6,0,1-0.1,1.3c0,0.3-0.2,0.6-0.3,0.9c-0.3,0.7-1.3,1-2.8,1
						c-0.9,0-1.6-0.1-2-0.2c-0.4-0.1-0.7-0.4-0.9-0.7c-5.5-7.3-9-12-10.8-14.2l0,12c0,0.6,0,1-0.1,1.3c0,0.3-0.2,0.6-0.3,0.9
						c-0.3,0.7-1.3,1-2.8,1c-1.5,0-2.4-0.3-2.8-1c-0.2-0.4-0.3-0.7-0.3-1c0-0.3-0.1-0.7-0.1-1.3l0-20.3c0-0.9,0.1-1.6,0.3-2
						c0.2-0.4,0.6-0.7,1-0.9c0.5-0.1,1.1-0.2,1.8-0.2c0.7,0,1.3,0.1,1.7,0.2c0.4,0.1,0.7,0.3,0.9,0.5c0.1,0.1,0.4,0.4,0.8,0.9
						c5.1,7,8.5,11.5,10.2,13.8l0-12.3C-657.6,2979.4-657.5,2978.7-657.3,2978.3z"/>
				</g>
				<g class="st5">
					<path class="st1" d="M-431.1,2978.4c0.2-0.4,0.6-0.7,1-0.9c0.5-0.1,1-0.2,1.7-0.2c0.7,0,1.2,0.1,1.7,0.2
						c0.4,0.1,0.7,0.3,0.9,0.4c0.2,0.2,0.4,0.4,0.5,0.8c0.1,0.4,0.2,1,0.2,1.9l0,20.2c0,0.6,0,1-0.1,1.3c0,0.3-0.2,0.6-0.3,0.9
						c-0.3,0.7-1.3,1-2.8,1c-0.9,0-1.6-0.1-2-0.2s-0.7-0.4-0.9-0.7c-5.5-7.3-9-12-10.8-14.2l0,12c0,0.6,0,1-0.1,1.3
						c0,0.3-0.2,0.6-0.3,0.9c-0.3,0.7-1.3,1-2.8,1c-1.5,0-2.4-0.3-2.8-1c-0.2-0.4-0.3-0.7-0.3-1c0-0.3-0.1-0.7-0.1-1.3l0-20.3
						c0-0.9,0.1-1.6,0.3-2c0.2-0.4,0.6-0.7,1-0.9c0.5-0.1,1.1-0.2,1.8-0.2c0.7,0,1.3,0.1,1.7,0.2c0.4,0.1,0.7,0.3,0.9,0.5
						c0.1,0.1,0.4,0.4,0.8,0.9c5.1,7,8.5,11.5,10.2,13.8l0-12.3C-431.4,2979.5-431.3,2978.9-431.1,2978.4z"/>
				</g>
				<g class="st5">
					<path class="st1" d="M-638.7,2978.5l19.2,0c0.7,0,1.3,0.1,1.6,0.3c0.3,0.2,0.6,0.4,0.7,0.8c0.1,0.4,0.2,0.9,0.2,1.5
						c0,0.6-0.1,1.1-0.2,1.4c-0.1,0.4-0.3,0.6-0.6,0.7c-0.4,0.2-1,0.3-1.8,0.3l-6.6,0l0,17.4c0,0.5,0,0.9-0.1,1.2
						c0,0.3-0.1,0.5-0.3,0.9c-0.2,0.3-0.5,0.6-0.9,0.7c-0.4,0.1-1,0.2-1.7,0.2c-0.7,0-1.3-0.1-1.7-0.2c-0.4-0.1-0.7-0.4-0.9-0.7
						c-0.2-0.3-0.3-0.6-0.3-0.9c0-0.3-0.1-0.7-0.1-1.2l0-17.3l-6.6,0c-0.7,0-1.3-0.1-1.6-0.3c-0.3-0.2-0.6-0.4-0.7-0.8
						c-0.1-0.4-0.2-0.8-0.2-1.5c0-0.6,0.1-1.1,0.2-1.4c0.1-0.4,0.3-0.6,0.6-0.7C-640,2978.6-639.4,2978.5-638.7,2978.5z"/>
				</g>
				<g class="st5">
					<path class="st1" d="M-553.2,2978.5h19.2c0.7,0,1.3,0.1,1.6,0.3c0.3,0.2,0.6,0.4,0.7,0.8c0.1,0.4,0.2,0.9,0.2,1.4
						c0,0.6-0.1,1.1-0.2,1.4c-0.1,0.4-0.3,0.6-0.6,0.7c-0.4,0.2-1,0.3-1.8,0.3h-6.6l0,17.4c0,0.5,0,0.9-0.1,1.2
						c0,0.3-0.1,0.5-0.3,0.9c-0.2,0.3-0.5,0.6-0.9,0.7c-0.4,0.1-1,0.2-1.7,0.2c-0.7,0-1.3-0.1-1.7-0.2c-0.4-0.1-0.7-0.4-0.9-0.7
						c-0.2-0.3-0.3-0.6-0.3-0.9c0-0.3-0.1-0.7-0.1-1.2l0-17.3l-6.6,0c-0.7,0-1.3-0.1-1.6-0.3c-0.3-0.2-0.6-0.4-0.7-0.8
						c-0.1-0.4-0.2-0.9-0.2-1.5c0-0.6,0.1-1.1,0.2-1.4c0.1-0.4,0.3-0.6,0.6-0.7C-554.6,2978.6-554,2978.5-553.2,2978.5z"/>
				</g>
				<g class="st5">
					<path class="st1" d="M-589.3,2979.5c0.2-0.4,0.6-0.6,1-0.8c0.4-0.1,1-0.2,1.6-0.2c0.7,0,1.2,0.1,1.6,0.2
						c0.4,0.1,0.7,0.3,0.9,0.4s0.4,0.4,0.4,0.7c0.1,0.4,0.2,1,0.2,1.8l0,10.4c0,3-0.9,5.8-2.8,8.3c-0.9,1.2-2.1,2.1-3.6,2.8
						c-1.4,0.7-3.1,1.1-4.8,1.1c-1.8,0-3.4-0.4-4.8-1.1c-1.4-0.7-2.6-1.7-3.5-2.9c-1.9-2.4-2.8-5.2-2.8-8.3l0-10.4
						c0-0.6,0-1,0.1-1.2c0-0.3,0.1-0.6,0.3-0.9c0.2-0.3,0.5-0.6,0.9-0.7c0.4-0.1,1-0.2,1.8-0.2c0.7,0,1.3,0.1,1.8,0.2
						c0.4,0.1,0.7,0.4,0.9,0.7c0.3,0.5,0.4,1.3,0.4,2.2v10.4c0,1.4,0.3,2.7,1,4c0.3,0.6,0.9,1.2,1.6,1.6c0.7,0.4,1.5,0.6,2.5,0.6
						c1.7,0,2.9-0.6,3.8-1.9c0.8-1.2,1.2-2.7,1.2-4.3l0-10.6C-589.7,2980.5-589.6,2979.8-589.3,2979.5z"/>
				</g>
			</g>
		</g>
	</g>
</g>
</svg>
