<?xml version="1.0" encoding="utf-8"?>
<!-- Generator: Adobe Illustrator 25.4.1, SVG Export Plug-In . SVG Version: 6.00 Build 0)  -->
<svg version="1.1" id="Layer_1" xmlns="http://www.w3.org/2000/svg" xmlns:xlink="http://www.w3.org/1999/xlink" x="0px" y="0px"
	 viewBox="0 0 491 487.2" style="enable-background:new 0 0 491 487.2;" xml:space="preserve">
<style type="text/css">
	.st0{fill:#F3F3F3;}
	.st1{fill:#58CCBE;}
	.st2{enable-background:new    ;}
</style>
<g id="Concept_art_Back_3-6" transform="translate(632.5 1689)">
	<g id="Concept_art_2-16" transform="translate(315.5 1252)">
		<g transform="matrix(1, 0, 0, 1, -615.15, -602.32)">
			<path id="Rectangle_1-34" class="st0" d="M-257-2322.4H80.8c33.5,0,60.6,27.1,60.6,60.6v337.8c0,33.5-27.1,60.6-60.6,60.6H-257
				c-33.5,0-60.6-27.1-60.6-60.6v-337.8C-317.6-2295.3-290.5-2322.4-257-2322.4z"/>
		</g>
		<g id="Group_36">
			<g id="Group_29-18" transform="translate(-1225 -2941)">
				<g id="Group_20-25" transform="translate(1639 3297.5) rotate(180)">
					<path id="Intersection_4-35" class="st1" d="M1346.7,3110.5v110.2c0,33.5-27.1,60.6-60.6,60.6h-111.1
						c0-94.3,76.4-170.8,170.8-170.8H1346.7z"/>
				</g>
			</g>
			<g id="Group_196" transform="translate(-2483.469 1392.863) rotate(-45)">
				<g id="ICON_BLUE-2" transform="translate(2742.999 901.631)">
					<g id="Group_7-2" transform="translate(0 0)">
						<path id="Path_115-2" class="st0" d="M1404.9-2793.9c17.8,0,32.3,14.4,32.3,32.3c0,0,0,0,0,0c0,17.8-14.5,22.7-32.3,22.7
							c-17.8,0-32.3-4.9-32.3-22.7C1372.6-2779.4,1387.1-2793.9,1404.9-2793.9z"/>
					</g>
					<path id="Path_2-2" class="st0" d="M1378.1-2744c0,0,2.4,8.2,27,8.3s26.7-8.3,26.7-8.3s2.5,15.5,0,18.7
						c-2.5,3.2-4.3,5.2-26.7,5c-22.3-0.2-22.2-2.2-24.9-5C1377.6-2728.1,1378.1-2744,1378.1-2744z"/>
					
						<rect id="Rectangle_11-2" x="1415.9" y="-2733.4" transform="matrix(-1 2.535182e-06 -2.535182e-06 -1 2845.0796 -5445.728)" class="st0" width="13.4" height="21.1"/>
				</g>
				<path id="Path_116-2" class="st1" d="M4137.2-1881.3c4.2,0,7.6,2.8,7.6,11.4c0,8.7-3.4,9.2-7.6,9.2c-4.2,0-7.6-0.5-7.6-9.2
					C4129.5-1878.5,4133-1881.3,4137.2-1881.3z"/>
				<path id="Path_118-2" class="st1" d="M4147.7-1840.2c-3.6-0.1-8.5-1.9-8.5-7.9s-0.5-4.5,8.5-6.3c9-1.9,8.8,0.4,8.8,6.3
					S4151.4-1840.1,4147.7-1840.2z"/>
				<path id="Path_117-2" class="st1" d="M4158.6-1881.3c4.2,0,7.6,2.8,7.6,11.4c0,8.7-3.4,9.2-7.6,9.2c-4.2,0-7.6-0.5-7.6-9.2
					C4150.9-1878.5,4154.4-1881.3,4158.6-1881.3z"/>
				<path id="Path_119-2" class="st0" d="M4143.6-1903.1c1.5,1.4,1.5,1.1,1.9,2.9c0.9-1.3,1.1-2.9,0.5-4.3c2.8,1.1,1.9,3.3,2.2,4.3
					c0.9-1.1,1.1-2.6,0.6-4c5.5,2.3,8.8,9.9,5.4,13.2s-14.6,0-14.6,0s1.7-0.5,3.1-5.2C4143.4-1898.4,4143.7-1900.8,4143.6-1903.1z"
					/>
				<g id="Group_161-2" transform="translate(2751.803 909.905)">
					<path id="Polygon_5-3" class="st0" d="M1385.3-2786.9l1.5,3.4h-3.1L1385.3-2786.9z"/>
					<path id="Polygon_8-3" class="st0" d="M1388.5-2777.6l-3.2-2l2.5-1.7L1388.5-2777.6z"/>
					<path id="Polygon_10-3" class="st0" d="M1380.5-2783.5l3.8-0.1l-1.1,2.8L1380.5-2783.5z"/>
					<path id="Polygon_11-3" class="st0" d="M1390.2-2783.5l-2.6,2.7l-1.1-2.8L1390.2-2783.5z"/>
					<path id="Polygon_12-3" class="st0" d="M1382.4-2777.6l0.7-3.7l2.5,1.7L1382.4-2777.6z"/>
					<path id="Path_120-3" class="st0" d="M1384-2783.6l2.6-0.1l1,2.6l-2.3,1.4l-2.3-1.4L1384-2783.6z"/>
				</g>
				<g id="Group_162-2" transform="translate(2763.456 909.905)">
					<path id="Polygon_5-4" class="st0" d="M1395.1-2786.9l1.5,3.4h-3.1L1395.1-2786.9z"/>
					<path id="Polygon_8-4" class="st0" d="M1398.2-2777.6l-3.2-2l2.5-1.7L1398.2-2777.6z"/>
					<path id="Polygon_10-4" class="st0" d="M1390.3-2783.5l3.8-0.1l-1.1,2.8L1390.3-2783.5z"/>
					<path id="Polygon_11-4" class="st0" d="M1400-2783.5l-2.6,2.7l-1.1-2.8L1400-2783.5z"/>
					<path id="Polygon_12-4" class="st0" d="M1392.1-2777.6l0.7-3.7l2.5,1.7L1392.1-2777.6z"/>
					<path id="Path_120-4" class="st0" d="M1393.8-2783.6l2.6-0.1l1,2.6l-2.3,1.4l-2.3-1.4L1393.8-2783.6z"/>
				</g>
			</g>
		</g>
		<g id="Group_224" transform="translate(385 -29) rotate(90)">
			<g id="Group_29-19" transform="translate(-1225 -2941)">
				<g id="Group_20-26" transform="translate(1639 3297.5) rotate(180)">
					<path id="Intersection_4-36" class="st1" d="M3309.8-673v110.2c0,33.5-27.1,60.6-60.6,60.6h-111.1
						c0-94.3,76.4-170.8,170.8-170.8H3309.8z"/>
				</g>
			</g>
			<g id="Group_196-2" transform="translate(-2483.469 1392.863) rotate(-45)">
				<g id="ICON_BLUE-3" transform="translate(2742.999 901.631)">
					<g id="Group_7-3" transform="translate(0 0)">
						<path id="Path_115-3" class="st0" d="M-2658.5-1506.6c17.8,0,32.3,14.4,32.3,32.3c0,0,0,0,0,0c0,17.8-14.5,22.7-32.3,22.7
							s-32.3-4.9-32.3-22.7C-2690.8-1492.1-2676.3-1506.6-2658.5-1506.6z"/>
					</g>
					<path id="Path_2-3" class="st0" d="M-2685.3-1456.8c0,0,2.4,8.2,27,8.3c24.6,0.1,26.7-8.3,26.7-8.3s2.5,15.5,0,18.7
						s-4.3,5.2-26.7,5c-22.3-0.2-22.2-2.2-24.9-5S-2685.3-1456.8-2685.3-1456.8z"/>
					
						<rect id="Rectangle_11-3" x="-2651.4" y="-1442.3" transform="matrix(2.535181e-06 1 -1 2.535181e-06 -4076.4297 1205.2579)" class="st0" width="21.1" height="13.4"/>
				</g>
				<path id="Path_116-3" class="st1" d="M73.8-594c4.2,0,7.6,2.8,7.6,11.4s-3.4,9.2-7.6,9.2s-7.6-0.5-7.6-9.2S69.6-594,73.8-594z"
					/>
				<path id="Path_118-3" class="st1" d="M84.3-552.9c-3.6-0.1-8.5-1.9-8.5-7.9s-0.5-4.5,8.5-6.3c9-1.9,8.8,0.4,8.8,6.3
					C93.1-554.9,88-552.9,84.3-552.9z"/>
				<path id="Path_117-3" class="st1" d="M95.2-594c4.2,0,7.6,2.8,7.6,11.4s-3.4,9.2-7.6,9.2s-7.6-0.5-7.6-9.2S91-594,95.2-594z"/>
				<path id="Path_119-3" class="st0" d="M80.2-615.9c1.5,1.4,1.5,1.1,1.9,2.9c0.9-1.3,1.1-2.9,0.5-4.3c2.8,1.1,1.9,3.3,2.2,4.3
					c0.9-1.1,1.1-2.6,0.6-4c5.5,2.3,8.8,9.9,5.4,13.2c-3.4,3.3-14.6,0-14.6,0s1.7-0.5,3.1-5.2C80-611.1,80.3-613.5,80.2-615.9z"/>
				<g id="Group_161-3" transform="translate(2751.803 909.905)">
					<path id="Polygon_5-5" class="st0" d="M-2678.1-1499.7l1.5,3.4h-3.1L-2678.1-1499.7z"/>
					<path id="Polygon_8-5" class="st0" d="M-2674.9-1490.3l-3.2-2l2.5-1.7L-2674.9-1490.3z"/>
					<path id="Polygon_10-5" class="st0" d="M-2682.9-1496.2l3.8-0.1l-1.1,2.8L-2682.9-1496.2z"/>
					<path id="Polygon_11-5" class="st0" d="M-2673.2-1496.2l-2.6,2.7l-1.1-2.8L-2673.2-1496.2z"/>
					<path id="Polygon_12-5" class="st0" d="M-2681-1490.3l0.7-3.7l2.5,1.7L-2681-1490.3z"/>
					<path id="Path_120-5" class="st0" d="M-2679.4-1496.3l2.6-0.1l1,2.6l-2.3,1.4l-2.3-1.4L-2679.4-1496.3z"/>
				</g>
				<g id="Group_162-3" transform="translate(2763.456 909.905)">
					<path id="Polygon_5-6" class="st0" d="M-2668.3-1499.7l1.5,3.4h-3.1L-2668.3-1499.7z"/>
					<path id="Polygon_8-6" class="st0" d="M-2665.2-1490.3l-3.2-2l2.5-1.7L-2665.2-1490.3z"/>
					<path id="Polygon_10-6" class="st0" d="M-2673.1-1496.2l3.8-0.1l-1.1,2.8L-2673.1-1496.2z"/>
					<path id="Polygon_11-6" class="st0" d="M-2663.4-1496.2l-2.6,2.7l-1.1-2.8L-2663.4-1496.2z"/>
					<path id="Polygon_12-6" class="st0" d="M-2671.3-1490.3l0.7-3.7l2.5,1.7L-2671.3-1490.3z"/>
					<path id="Path_120-6" class="st0" d="M-2669.6-1496.3l2.6-0.1l1,2.6l-2.3,1.4l-2.3-1.4L-2669.6-1496.3z"/>
				</g>
			</g>
		</g>
		<g id="Group_225" transform="translate(414.5 356) rotate(180)">
			<g id="Group_29-20" transform="translate(-1225 -2941)">
				<g id="Group_20-27" transform="translate(1639 3297.5) rotate(180)">
					<path id="Intersection_4-37" class="st1" d="M-473.3-2636v110.2c0,33.5-27.1,60.6-60.6,60.6H-645
						c0-94.3,76.4-170.8,170.8-170.8H-473.3z"/>
				</g>
			</g>
			<g id="Group_196-3" transform="translate(-2483.469 1392.863) rotate(-45)">
				<g id="ICON_BLUE-4" transform="translate(2742.999 901.631)">
					<g id="Group_7-4" transform="translate(0 0)">
						<path id="Path_115-4" class="st0" d="M-1371.5,2556.5c17.8,0,32.3,14.4,32.3,32.3c0,0,0,0,0,0c0,17.8-14.5,22.7-32.3,22.7
							c-17.8,0-32.3-4.9-32.3-22.7C-1403.8,2571-1389.4,2556.5-1371.5,2556.5z"/>
					</g>
					<path id="Path_2-4" class="st0" d="M-1398.3,2606.3c0,0,2.4,8.2,27,8.3s26.7-8.3,26.7-8.3s2.5,15.5,0,18.7s-4.3,5.2-26.7,5
						c-22.3-0.2-22.2-2.2-24.9-5C-1398.9,2622.3-1398.3,2606.3-1398.3,2606.3z"/>
					<rect id="Rectangle_11-4" x="-1360.5" y="2616.9" class="st0" width="13.4" height="21.1"/>
				</g>
				<path id="Path_116-4" class="st1" d="M1360.8,3469.1c4.2,0,7.6,2.8,7.6,11.4c0,8.7-3.4,9.2-7.6,9.2c-4.2,0-7.6-0.5-7.6-9.2
					C1353.1,3471.8,1356.5,3469.1,1360.8,3469.1z"/>
				<path id="Path_118-4" class="st1" d="M1371.3,3510.1c-3.6-0.1-8.5-1.9-8.5-7.9c0-6-0.5-4.5,8.5-6.3s8.8,0.4,8.8,6.3
					C1380.1,3508.2,1375,3510.2,1371.3,3510.1z"/>
				<path id="Path_117-4" class="st1" d="M1382.2,3469.1c4.2,0,7.6,2.8,7.6,11.4c0,8.7-3.4,9.2-7.6,9.2c-4.2,0-7.6-0.5-7.6-9.2
					C1374.5,3471.8,1377.9,3469.1,1382.2,3469.1z"/>
				<path id="Path_119-4" class="st0" d="M1367.2,3447.2c1.5,1.4,1.5,1.1,1.9,2.9c0.9-1.3,1.1-2.9,0.5-4.3c2.8,1.1,1.9,3.3,2.2,4.3
					c0.9-1.1,1.1-2.6,0.6-4c5.5,2.3,8.8,9.9,5.4,13.2c-3.4,3.3-14.6,0-14.6,0s1.7-0.5,3.1-5.2
					C1367,3452,1367.3,3449.6,1367.2,3447.2z"/>
				<g id="Group_161-4" transform="translate(2751.803 909.905)">
					<path id="Polygon_5-7" class="st0" d="M-1391.1,2563.4l1.5,3.4h-3.1L-1391.1,2563.4z"/>
					<path id="Polygon_8-7" class="st0" d="M-1387.9,2572.7l-3.2-2l2.5-1.7L-1387.9,2572.7z"/>
					<path id="Polygon_10-7" class="st0" d="M-1395.9,2566.9l3.8-0.1l-1.1,2.8L-1395.9,2566.9z"/>
					<path id="Polygon_11-7" class="st0" d="M-1386.2,2566.9l-2.6,2.7l-1.1-2.8L-1386.2,2566.9z"/>
					<path id="Polygon_12-7" class="st0" d="M-1394.1,2572.7l0.7-3.7l2.5,1.7L-1394.1,2572.7z"/>
					<path id="Path_120-7" class="st0" d="M-1392.4,2566.8l2.6-0.1l1,2.6l-2.3,1.4l-2.3-1.4L-1392.4,2566.8z"/>
				</g>
				<g id="Group_162-4" transform="translate(2763.456 909.905)">
					<path id="Polygon_5-8" class="st0" d="M-1381.3,2563.4l1.5,3.4h-3.1L-1381.3,2563.4z"/>
					<path id="Polygon_8-8" class="st0" d="M-1378.2,2572.7l-3.2-2l2.5-1.7L-1378.2,2572.7z"/>
					<path id="Polygon_10-8" class="st0" d="M-1386.1,2566.9l3.8-0.1l-1.1,2.8L-1386.1,2566.9z"/>
					<path id="Polygon_11-8" class="st0" d="M-1376.5,2566.9l-2.6,2.7l-1.1-2.8L-1376.5,2566.9z"/>
					<path id="Polygon_12-8" class="st0" d="M-1384.3,2572.7l0.7-3.7l2.5,1.7L-1384.3,2572.7z"/>
					<path id="Path_120-8" class="st0" d="M-1382.7,2566.8l2.6-0.1l1,2.6l-2.3,1.4l-2.3-1.4L-1382.7,2566.8z"/>
				</g>
			</g>
		</g>
		<g id="Group_227" transform="translate(29.5 385) rotate(-90)">
			<g id="Group_29-21" transform="translate(-1225 -2941)">
				<g id="Group_20-28" transform="translate(1639 3297.5) rotate(180)">
					<path id="Intersection_4-38" class="st1" d="M-2436.7,1147.1v110.2c0,33.5-27.1,60.6-60.6,60.6h-111.1
						c0-94.3,76.4-170.8,170.8-170.8H-2436.7z"/>
				</g>
			</g>
			<g id="Group_196-4" transform="translate(-2483.469 1392.863) rotate(-45)">
				<g id="ICON_BLUE-5" transform="translate(2742.999 901.631)">
					<g id="Group_7-5" transform="translate(0 0)">
						<path id="Path_115-5" class="st0" d="M2691.9,1269.8c17.8,0,32.3,14.4,32.3,32.3c0,0,0,0,0,0c0,17.8-14.5,22.7-32.3,22.7
							s-32.3-4.9-32.3-22.7C2659.6,1284.3,2674,1269.8,2691.9,1269.8z"/>
					</g>
					<path id="Path_2-5" class="st0" d="M2665.1,1319.7c0,0,2.4,8.2,27,8.3c24.6,0.1,26.7-8.3,26.7-8.3s2.5,15.5,0,18.7
						s-4.3,5.2-26.7,5c-22.3-0.2-22.2-2.2-24.9-5C2664.5,1335.6,2665.1,1319.7,2665.1,1319.7z"/>
					
						<rect id="Rectangle_11-5" x="2698.9" y="1334.1" transform="matrix(-2.535181e-06 -1 1 -2.535181e-06 1368.704 4050.3442)" class="st0" width="21.1" height="13.4"/>
				</g>
				<path id="Path_116-5" class="st1" d="M5424.2,2182.4c4.2,0,7.6,2.8,7.6,11.4c0,8.7-3.4,9.2-7.6,9.2c-4.2,0-7.6-0.5-7.6-9.2
					C5416.5,2185.1,5419.9,2182.4,5424.2,2182.4z"/>
				<path id="Path_118-5" class="st1" d="M5434.7,2223.5c-3.6-0.1-8.5-1.9-8.5-7.9s-0.5-4.5,8.5-6.3c9-1.9,8.8,0.4,8.8,6.3
					S5438.3,2223.6,5434.7,2223.5z"/>
				<path id="Path_117-5" class="st1" d="M5445.6,2182.4c4.2,0,7.6,2.8,7.6,11.4c0,8.7-3.4,9.2-7.6,9.2c-4.2,0-7.6-0.5-7.6-9.2
					C5437.9,2185.1,5441.3,2182.4,5445.6,2182.4z"/>
				<path id="Path_119-5" class="st0" d="M5430.5,2160.6c1.5,1.4,1.5,1.1,1.9,2.9c0.9-1.3,1.1-2.9,0.5-4.3c2.8,1.1,1.9,3.3,2.2,4.3
					c0.9-1.1,1.1-2.6,0.6-4c5.5,2.3,8.8,9.9,5.4,13.2c-3.4,3.3-14.6,0-14.6,0s1.7-0.5,3.1-5.2
					C5430.3,2165.3,5430.7,2162.9,5430.5,2160.6z"/>
				<g id="Group_161-5" transform="translate(2751.803 909.905)">
					<path id="Polygon_5-9" class="st0" d="M2672.3,1276.7l1.5,3.4h-3.1L2672.3,1276.7z"/>
					<path id="Polygon_8-9" class="st0" d="M2675.5,1286.1l-3.2-2l2.5-1.7L2675.5,1286.1z"/>
					<path id="Polygon_10-9" class="st0" d="M2667.5,1280.2l3.8-0.1l-1.1,2.8L2667.5,1280.2z"/>
					<path id="Polygon_11-9" class="st0" d="M2677.2,1280.2l-2.6,2.7l-1.1-2.8L2677.2,1280.2z"/>
					<path id="Polygon_12-9" class="st0" d="M2669.3,1286.1l0.7-3.7l2.5,1.7L2669.3,1286.1z"/>
					<path id="Path_120-9" class="st0" d="M2671,1280.1l2.6-0.1l1,2.6l-2.3,1.4l-2.3-1.4L2671,1280.1z"/>
				</g>
				<g id="Group_162-5" transform="translate(2763.456 909.905)">
					<path id="Polygon_5-10" class="st0" d="M2682,1276.7l1.5,3.4h-3.1L2682,1276.7z"/>
					<path id="Polygon_8-10" class="st0" d="M2685.2,1286.1l-3.2-2l2.5-1.7L2685.2,1286.1z"/>
					<path id="Polygon_10-10" class="st0" d="M2677.3,1280.2l3.8-0.1l-1.1,2.8L2677.3,1280.2z"/>
					<path id="Polygon_11-10" class="st0" d="M2686.9,1280.2l-2.6,2.7l-1.1-2.8L2686.9,1280.2z"/>
					<path id="Polygon_12-10" class="st0" d="M2679.1,1286.1l0.7-3.7l2.5,1.7L2679.1,1286.1z"/>
					<path id="Path_120-10" class="st0" d="M2680.7,1280.1l2.6-0.1l1,2.6l-2.3,1.4l-2.3-1.4L2680.7,1280.1z"/>
				</g>
			</g>
		</g>
	</g>
</g>
<g id="Group_178" transform="translate(-3555.757 -8337.574) rotate(60)">
	<g id="Group_148-7" transform="translate(12224.423 1552.942)">
		<g id="Group_146-13" transform="translate(0 133.268)">
			<g id="Group_135-25" transform="translate(0 0)">
				<g class="st2">
					<path class="st1" d="M-2986.2-599.4c0-0.5,0-0.8,0-1.1c0-0.2,0.1-0.5,0.3-0.8c0.3-0.5,1.1-0.8,2.4-0.8c1,0,1.7,0.2,2.1,0.5
						c0.4,0.3,0.5,0.7,0.6,1.3c0,0.2,0,0.5,0,0.9l0,10.9c0,0.5,0,0.8,0,1.1c0,0.2-0.1,0.5-0.3,0.8c-0.3,0.5-1.1,0.8-2.4,0.8
						c-1.3,0-2.1-0.3-2.4-0.8c-0.1-0.3-0.2-0.6-0.3-0.8c0-0.2,0-0.6,0-1.1V-599.4z M-2981.1-605.2c-0.2,0.3-0.4,0.5-0.8,0.6
						c-0.4,0.1-0.9,0.2-1.6,0.2c-0.7,0-1.2-0.1-1.6-0.2c-0.4-0.1-0.7-0.3-0.8-0.7c-0.2-0.3-0.3-0.6-0.3-0.8c0-0.2,0-0.6,0-1.1
						c0-0.5,0-0.8,0-1.1c0-0.2,0.1-0.5,0.3-0.8c0.3-0.6,1.1-0.8,2.4-0.8c1.3,0,2.1,0.3,2.4,0.8c0.2,0.3,0.3,0.6,0.3,0.8
						c0,0.2,0,0.6,0,1.1c0,0.5,0,0.8,0,1.1C-2980.8-605.8-2980.9-605.5-2981.1-605.2z"/>
				</g>
				<g class="st2">
					<path class="st1" d="M-2865.3-599.4c0-0.5,0-0.8,0-1.1c0-0.2,0.1-0.5,0.3-0.8c0.3-0.5,1.1-0.8,2.4-0.8c1,0,1.7,0.2,2.1,0.5
						c0.4,0.3,0.5,0.7,0.6,1.3c0,0.2,0,0.5,0,0.9l0,10.9c0,0.5,0,0.8,0,1.1c0,0.2-0.1,0.5-0.3,0.8c-0.3,0.5-1.1,0.8-2.4,0.8
						c-1.3,0-2.1-0.3-2.4-0.8c-0.1-0.3-0.2-0.6-0.3-0.8c0-0.2,0-0.6,0-1.1V-599.4z M-2860.1-605.2c-0.2,0.3-0.4,0.5-0.8,0.6
						c-0.4,0.1-0.9,0.2-1.6,0.2c-0.7,0-1.2-0.1-1.6-0.2c-0.4-0.1-0.7-0.3-0.8-0.7c-0.2-0.3-0.2-0.6-0.3-0.8c0-0.2,0-0.6,0-1.1
						c0-0.5,0-0.8,0-1.1c0-0.2,0.1-0.5,0.3-0.8c0.3-0.6,1.1-0.8,2.4-0.8c1.3,0,2.1,0.3,2.4,0.8c0.2,0.3,0.3,0.6,0.3,0.8
						c0,0.2,0,0.6,0,1.1c0,0.5,0,0.8,0,1.1C-2859.9-605.8-2860-605.5-2860.1-605.2z"/>
				</g>
				<g class="st2">
					<path class="st1" d="M-2810.5-596c0.3,0.2,0.5,0.4,0.6,0.8c0.1,0.4,0.2,0.9,0.2,1.6c0,0.7-0.1,1.2-0.2,1.6
						c-0.1,0.4-0.3,0.7-0.7,0.8c-0.3,0.2-0.6,0.3-0.8,0.3c-0.2,0-0.6,0-1.1,0c-0.5,0-0.8,0-1.1,0c-0.2,0-0.5-0.1-0.8-0.3
						c-0.6-0.3-0.8-1.1-0.8-2.4c0-1.3,0.3-2.1,0.8-2.4c0.3-0.2,0.6-0.3,0.8-0.3c0.2,0,0.6,0,1.1,0c0.5,0,0.8,0,1.1,0
						C-2811.1-596.2-2810.8-596.1-2810.5-596z M-2804.7-590.9c-0.5,0-0.8,0-1.1,0c-0.2,0-0.5-0.1-0.8-0.3c-0.5-0.3-0.8-1.1-0.8-2.4
						c0-1,0.2-1.7,0.5-2.1c0.3-0.4,0.7-0.5,1.3-0.6c0.2,0,0.5,0,0.9,0l10.9,0c0.5,0,0.8,0,1.1,0c0.2,0,0.5,0.1,0.8,0.3
						c0.5,0.3,0.8,1.1,0.8,2.4c0,1.3-0.3,2.1-0.8,2.4c-0.3,0.1-0.6,0.2-0.8,0.3c-0.2,0-0.6,0-1.1,0L-2804.7-590.9z"/>
				</g>
				<g class="st2">
					<path class="st1" d="M-2763.3-608.7c3.8,0,7.1,1.4,9.9,4.1c2.8,2.8,4.2,6.2,4.2,10.2c0,4.1-1.3,7.5-4,10.4
						c-2.7,2.9-6,4.3-9.9,4.3c-3.9,0-7.2-1.4-10-4.2c-2.7-2.8-4.1-6.2-4.1-10.1c0-2.1,0.4-4.1,1.2-6c0.8-1.9,1.8-3.4,3.1-4.7
						c1.3-1.3,2.8-2.2,4.4-3C-2766.8-608.3-2765.1-608.7-2763.3-608.7z M-2770.3-594.1c0,2.3,0.7,4.1,2.2,5.6c1.5,1.4,3.1,2.1,5,2.1
						c1.8,0,3.5-0.7,4.9-2.1c1.5-1.4,2.2-3.3,2.2-5.6c0-2.3-0.7-4.2-2.2-5.6c-1.5-1.4-3.1-2.1-5-2.1c-1.8,0-3.5,0.7-4.9,2.1
						C-2769.6-598.3-2770.3-596.4-2770.3-594.1z"/>
				</g>
				<g class="st2">
					<path class="st1" d="M-2951.7-607.8c0.2-0.4,0.6-0.7,1-0.9c0.5-0.1,1-0.2,1.7-0.2c0.7,0,1.3,0.1,1.7,0.2c0.4,0.1,0.7,0.3,1,0.4
						c0.2,0.2,0.4,0.4,0.5,0.8c0.1,0.4,0.2,1,0.2,1.9v20.4c0,0.6,0,1-0.1,1.3c0,0.3-0.2,0.6-0.3,1c-0.3,0.7-1.3,1-2.9,1
						c-1,0-1.6-0.1-2-0.2c-0.4-0.1-0.7-0.4-0.9-0.7c-5.5-7.3-9.1-12.1-10.9-14.4l0,12.1c0,0.6,0,1-0.1,1.3c0,0.3-0.2,0.6-0.3,1
						c-0.3,0.7-1.3,1-2.9,1c-1.5,0-2.4-0.3-2.8-1c-0.2-0.4-0.3-0.7-0.3-1c0-0.3-0.1-0.7-0.1-1.3v-20.5c0-0.9,0.1-1.6,0.3-2
						c0.2-0.4,0.6-0.7,1-0.9c0.5-0.1,1.1-0.2,1.8-0.2c0.7,0,1.3,0.1,1.7,0.2c0.4,0.1,0.7,0.3,0.9,0.5c0.1,0.1,0.4,0.4,0.8,1
						c5.2,7,8.6,11.7,10.4,13.9l0-12.4C-2952-606.7-2951.9-607.4-2951.7-607.8z"/>
				</g>
				<g class="st2">
					<path class="st1" d="M-2722.6-607.7c0.2-0.4,0.6-0.7,1-0.9c0.5-0.1,1-0.2,1.7-0.2c0.7,0,1.3,0.1,1.7,0.2c0.4,0.1,0.7,0.3,1,0.4
						c0.2,0.2,0.4,0.4,0.5,0.8c0.1,0.4,0.2,1,0.2,1.9l0,20.4c0,0.6,0,1-0.1,1.3c0,0.3-0.2,0.6-0.3,1c-0.3,0.7-1.3,1-2.9,1
						c-1,0-1.6-0.1-2-0.2c-0.4-0.1-0.7-0.4-0.9-0.7c-5.5-7.3-9.1-12.1-10.9-14.4l0,12.1c0,0.6,0,1-0.1,1.3c0,0.3-0.2,0.6-0.3,1
						c-0.3,0.7-1.3,1-2.9,1c-1.5,0-2.4-0.3-2.8-1c-0.2-0.4-0.3-0.7-0.3-1c0-0.3-0.1-0.7-0.1-1.3l0-20.5c0-0.9,0.1-1.6,0.3-2
						c0.2-0.4,0.6-0.7,1-0.9c0.5-0.1,1.1-0.2,1.8-0.2c0.7,0,1.3,0.1,1.7,0.2c0.4,0.1,0.7,0.3,0.9,0.5c0.1,0.1,0.4,0.4,0.8,1
						c5.2,7,8.6,11.7,10.4,13.9l0-12.4C-2722.9-606.6-2722.8-607.3-2722.6-607.7z"/>
				</g>
				<g class="st2">
					<path class="st1" d="M-2932.9-607.7l19.4,0c0.7,0,1.3,0.1,1.6,0.3c0.3,0.2,0.6,0.4,0.7,0.8s0.2,0.9,0.2,1.5
						c0,0.6-0.1,1.1-0.2,1.4c-0.1,0.4-0.3,0.6-0.6,0.8c-0.4,0.2-1,0.3-1.8,0.3l-6.7,0l0,17.5c0,0.5,0,0.9-0.1,1.2
						c0,0.3-0.1,0.6-0.3,0.9c-0.2,0.3-0.5,0.6-0.9,0.7c-0.4,0.1-1,0.2-1.7,0.2c-0.7,0-1.3-0.1-1.7-0.2c-0.4-0.1-0.7-0.4-0.9-0.7
						c-0.2-0.3-0.3-0.6-0.3-0.9c0-0.3-0.1-0.7-0.1-1.2v-17.5l-6.7,0c-0.7,0-1.3-0.1-1.6-0.3c-0.3-0.2-0.6-0.4-0.7-0.8
						c-0.1-0.4-0.2-0.9-0.2-1.5c0-0.6,0.1-1.1,0.2-1.4c0.1-0.4,0.3-0.6,0.6-0.7C-2934.2-607.5-2933.6-607.7-2932.9-607.7z"/>
				</g>
				<g class="st2">
					<path class="st1" d="M-2846.5-607.7l19.4,0c0.7,0,1.3,0.1,1.6,0.3c0.3,0.2,0.6,0.4,0.7,0.8c0.1,0.4,0.2,0.9,0.2,1.5
						c0,0.6-0.1,1.1-0.2,1.4c-0.1,0.4-0.3,0.6-0.6,0.8c-0.4,0.2-1,0.3-1.8,0.3l-6.7,0l0,17.5c0,0.5,0,0.9-0.1,1.2
						c0,0.3-0.1,0.6-0.3,0.9c-0.2,0.3-0.5,0.6-0.9,0.7c-0.4,0.1-1,0.2-1.7,0.2c-0.7,0-1.3-0.1-1.7-0.2c-0.4-0.1-0.7-0.4-0.9-0.7
						c-0.2-0.3-0.3-0.6-0.3-0.9c0-0.3-0.1-0.7-0.1-1.2v-17.5l-6.7,0c-0.7,0-1.3-0.1-1.6-0.3c-0.3-0.2-0.6-0.4-0.7-0.8
						c-0.1-0.4-0.2-0.9-0.2-1.5c0-0.6,0.1-1.1,0.2-1.4c0.1-0.4,0.3-0.6,0.6-0.8C-2847.9-607.5-2847.3-607.7-2846.5-607.7z"/>
				</g>
				<g class="st2">
					<path class="st1" d="M-2883-606.7c0.2-0.4,0.6-0.6,1-0.8c0.4-0.1,1-0.2,1.7-0.2c0.7,0,1.2,0.1,1.6,0.2c0.4,0.1,0.7,0.3,0.9,0.4
						c0.2,0.2,0.4,0.4,0.5,0.7c0.1,0.4,0.2,1,0.2,1.8l0,10.5c0,3.1-1,5.9-2.9,8.4c-0.9,1.2-2.1,2.1-3.6,2.9
						c-1.5,0.7-3.1,1.1-4.9,1.1c-1.8,0-3.4-0.4-4.8-1.1c-1.5-0.7-2.6-1.7-3.5-2.9c-1.9-2.5-2.8-5.3-2.8-8.4l0-10.5
						c0-0.6,0-1,0.1-1.2c0-0.3,0.1-0.6,0.3-0.9c0.2-0.3,0.5-0.6,0.9-0.7c0.4-0.1,1-0.2,1.8-0.2c0.7,0,1.3,0.1,1.8,0.2
						c0.4,0.1,0.7,0.4,0.9,0.7c0.3,0.5,0.4,1.3,0.4,2.2l0,10.5c0,1.4,0.3,2.8,1,4c0.3,0.7,0.9,1.2,1.6,1.6c0.7,0.4,1.5,0.6,2.5,0.6
						c1.7,0,3-0.6,3.8-1.9c0.8-1.3,1.3-2.7,1.3-4.4l0-10.7C-2883.3-605.7-2883.2-606.3-2883-606.7z"/>
				</g>
			</g>
		</g>
		<g id="Group_147-13" transform="translate(90.063 148.182) rotate(-90)">
			<g id="Group_135-26" transform="translate(0 0)">
				<g class="st2">
					<path class="st1" d="M610.8-2900.4c-0.2,0.3-0.4,0.5-0.8,0.6c-0.4,0.1-0.9,0.2-1.6,0.2c-0.7,0-1.2-0.1-1.6-0.2
						c-0.4-0.1-0.7-0.3-0.8-0.7c-0.2-0.3-0.2-0.6-0.3-0.8c0-0.2,0-0.6,0-1.1c0-0.5,0-0.8,0-1.1c0-0.2,0.1-0.5,0.3-0.8
						c0.3-0.6,1.1-0.8,2.4-0.8c1.3,0,2.1,0.3,2.4,0.8c0.2,0.3,0.3,0.6,0.3,0.8c0,0.2,0,0.6,0,1.1c0,0.5,0,0.8,0,1.1
						C611.1-2901,611-2900.7,610.8-2900.4z M605.7-2894.6c0-0.5,0-0.8,0-1.1c0-0.2,0.1-0.5,0.3-0.8c0.3-0.5,1.1-0.8,2.4-0.8
						c1,0,1.7,0.2,2.1,0.5c0.4,0.3,0.5,0.7,0.6,1.3c0,0.2,0,0.5,0,0.9l0,10.9c0,0.5,0,0.8,0,1.1c0,0.2-0.1,0.5-0.3,0.8
						c-0.3,0.5-1.1,0.8-2.4,0.8c-1.3,0-2.1-0.3-2.4-0.8c-0.1-0.3-0.2-0.6-0.3-0.8c0-0.2,0-0.6,0-1.1L605.7-2894.6z"/>
				</g>
				<g class="st2">
					<path class="st1" d="M731.8-2900.4c-0.2,0.3-0.4,0.5-0.8,0.6c-0.4,0.1-0.9,0.2-1.6,0.2c-0.7,0-1.2-0.1-1.6-0.2
						c-0.4-0.1-0.7-0.3-0.8-0.7c-0.2-0.3-0.3-0.6-0.3-0.8c0-0.2,0-0.6,0-1.1c0-0.5,0-0.8,0-1.1c0-0.2,0.1-0.5,0.3-0.8
						c0.3-0.6,1.1-0.8,2.4-0.8c1.3,0,2.1,0.3,2.4,0.8c0.2,0.3,0.3,0.6,0.3,0.8c0,0.2,0,0.6,0,1.1c0,0.5,0,0.8,0,1.1
						C732-2901,731.9-2900.7,731.8-2900.4z M726.6-2894.6c0-0.5,0-0.8,0-1.1c0-0.2,0.1-0.5,0.3-0.8c0.3-0.5,1.1-0.8,2.4-0.8
						c1,0,1.7,0.2,2.1,0.5c0.4,0.3,0.5,0.7,0.6,1.3c0,0.2,0,0.5,0,0.9l0,10.9c0,0.5,0,0.8,0,1.1c0,0.2-0.1,0.5-0.3,0.8
						c-0.3,0.5-1.1,0.8-2.4,0.8c-1.3,0-2.1-0.3-2.4-0.8c-0.1-0.3-0.2-0.6-0.3-0.8c0-0.2,0-0.6,0-1.1V-2894.6z"/>
				</g>
				<g class="st2">
					<path class="st1" d="M781.4-2891.2c0.3,0.2,0.5,0.4,0.6,0.8c0.1,0.4,0.2,0.9,0.2,1.6c0,0.7-0.1,1.2-0.2,1.6
						c-0.1,0.4-0.3,0.7-0.7,0.8c-0.3,0.2-0.6,0.3-0.8,0.3c-0.2,0-0.6,0-1.1,0c-0.5,0-0.8,0-1.1,0c-0.2,0-0.5-0.1-0.8-0.3
						c-0.6-0.3-0.8-1.1-0.8-2.4c0-1.3,0.3-2.1,0.8-2.4c0.3-0.2,0.6-0.3,0.8-0.3c0.2,0,0.6,0,1.1,0c0.5,0,0.8,0,1.1,0
						C780.8-2891.4,781.1-2891.3,781.4-2891.2z M787.2-2886.1c-0.5,0-0.8,0-1.1,0c-0.2,0-0.5-0.1-0.8-0.3c-0.5-0.3-0.8-1.1-0.8-2.4
						c0-1,0.2-1.7,0.5-2.1c0.3-0.4,0.7-0.5,1.3-0.6c0.2,0,0.5,0,0.9,0l10.9,0c0.5,0,0.8,0,1.1,0c0.2,0,0.5,0.1,0.8,0.3
						c0.5,0.3,0.8,1.1,0.8,2.4c0,1.3-0.3,2.1-0.8,2.4c-0.3,0.1-0.6,0.2-0.8,0.3c-0.2,0-0.6,0-1.1,0L787.2-2886.1z"/>
				</g>
				<g class="st2">
					<path class="st1" d="M827.1-2903c3.4,0,6.4,1.2,9,3.7c2.5,2.5,3.8,5.6,3.8,9.3c0,3.7-1.2,6.8-3.6,9.4c-2.4,2.6-5.4,3.9-8.9,3.9
						s-6.5-1.3-9-3.8c-2.5-2.6-3.7-5.6-3.7-9.1c0-1.9,0.3-3.7,1-5.4c0.7-1.7,1.6-3.1,2.8-4.2c1.2-1.1,2.5-2,4-2.7
						C823.9-2902.7,825.4-2903,827.1-2903z M820.7-2889.9c0,2.1,0.7,3.8,2,5c1.3,1.3,2.8,1.9,4.5,1.9c1.7,0,3.1-0.6,4.5-1.9
						c1.3-1.3,2-2.9,2-5.1c0-2.1-0.7-3.8-2-5.1c-1.3-1.3-2.8-1.9-4.5-1.9c-1.7,0-3.1,0.6-4.5,1.9
						C821.4-2893.6,820.7-2891.9,820.7-2889.9z"/>
				</g>
				<g class="st2">
					<path class="st1" d="M640.2-2903c0.2-0.4,0.6-0.7,1-0.9c0.5-0.1,1-0.2,1.7-0.2c0.7,0,1.3,0.1,1.7,0.2c0.4,0.1,0.7,0.3,1,0.4
						c0.2,0.2,0.4,0.4,0.5,0.8c0.1,0.4,0.2,1,0.2,1.9l0,20.4c0,0.6,0,1-0.1,1.3c0,0.3-0.2,0.6-0.3,1c-0.3,0.7-1.3,1-2.9,1
						c-1,0-1.6-0.1-2-0.2c-0.4-0.1-0.7-0.4-0.9-0.7c-5.5-7.3-9.1-12.1-10.9-14.4l0,12.1c0,0.6,0,1-0.1,1.3c0,0.3-0.2,0.6-0.3,1
						c-0.3,0.7-1.3,1-2.9,1c-1.5,0-2.4-0.3-2.8-1c-0.2-0.4-0.3-0.7-0.3-1c0-0.3-0.1-0.7-0.1-1.3l0-20.5c0-0.9,0.1-1.6,0.3-2
						c0.2-0.4,0.6-0.7,1-0.9c0.5-0.1,1.1-0.2,1.8-0.2c0.7,0,1.3,0.1,1.7,0.2c0.4,0.1,0.7,0.3,0.9,0.5c0.1,0.1,0.4,0.4,0.8,1
						c5.2,7,8.6,11.7,10.4,13.9l0-12.4C639.9-2901.9,640-2902.6,640.2-2903z"/>
				</g>
				<g class="st2">
					<path class="st1" d="M868.8-2902.9c0.2-0.4,0.6-0.7,1-0.9s1-0.2,1.7-0.2c0.7,0,1.3,0.1,1.7,0.2c0.4,0.1,0.7,0.3,1,0.4
						c0.2,0.2,0.4,0.4,0.5,0.8c0.1,0.4,0.2,1,0.2,1.9l0,20.4c0,0.6,0,1-0.1,1.3c0,0.3-0.2,0.6-0.3,1c-0.3,0.7-1.3,1-2.9,1
						c-1,0-1.6-0.1-2-0.2c-0.4-0.1-0.7-0.4-0.9-0.7c-5.5-7.3-9.1-12.1-10.9-14.4l0,12.1c0,0.6,0,1-0.1,1.3c0,0.3-0.2,0.6-0.3,1
						c-0.3,0.7-1.3,1-2.9,1c-1.5,0-2.4-0.3-2.8-1c-0.2-0.4-0.3-0.7-0.3-1c0-0.3-0.1-0.7-0.1-1.3l0-20.5c0-0.9,0.1-1.6,0.3-2
						c0.2-0.4,0.6-0.7,1-0.9c0.5-0.1,1.1-0.2,1.8-0.2c0.7,0,1.3,0.1,1.7,0.2c0.4,0.1,0.7,0.3,0.9,0.5c0.1,0.1,0.4,0.4,0.8,1
						c5.2,7,8.6,11.7,10.4,13.9l0-12.4C868.4-2901.8,868.6-2902.5,868.8-2902.9z"/>
				</g>
				<g class="st2">
					<path class="st1" d="M659-2902.9l19.4,0c0.7,0,1.3,0.1,1.6,0.3c0.3,0.2,0.6,0.4,0.7,0.8c0.1,0.4,0.2,0.9,0.2,1.5
						c0,0.6-0.1,1.1-0.2,1.4c-0.1,0.4-0.3,0.6-0.6,0.7c-0.4,0.2-1,0.3-1.8,0.3h-6.7l0,17.5c0,0.5,0,0.9-0.1,1.2
						c0,0.3-0.1,0.6-0.3,0.9c-0.2,0.3-0.5,0.6-0.9,0.7c-0.4,0.1-1,0.2-1.7,0.2c-0.7,0-1.3-0.1-1.7-0.2c-0.4-0.1-0.7-0.4-0.9-0.7
						c-0.2-0.3-0.3-0.6-0.3-0.9c0-0.3-0.1-0.7-0.1-1.2l0-17.5l-6.7,0c-0.7,0-1.3-0.1-1.6-0.3c-0.3-0.2-0.6-0.4-0.7-0.8
						c-0.1-0.4-0.2-0.9-0.2-1.5c0-0.6,0.1-1.1,0.2-1.4c0.1-0.4,0.3-0.6,0.6-0.8C657.7-2902.8,658.3-2902.9,659-2902.9z"/>
				</g>
				<g class="st2">
					<path class="st1" d="M745.4-2902.9l19.4,0c0.7,0,1.3,0.1,1.6,0.3c0.3,0.2,0.6,0.4,0.7,0.8c0.1,0.4,0.2,0.9,0.2,1.5
						c0,0.6-0.1,1.1-0.2,1.4c-0.1,0.4-0.3,0.6-0.6,0.7c-0.4,0.2-1,0.3-1.8,0.3l-6.7,0l0,17.5c0,0.5,0,0.9-0.1,1.2
						c0,0.3-0.1,0.6-0.3,0.9c-0.2,0.3-0.5,0.6-0.9,0.7c-0.4,0.1-1,0.2-1.7,0.2c-0.7,0-1.3-0.1-1.7-0.2c-0.4-0.1-0.7-0.4-0.9-0.7
						c-0.2-0.3-0.3-0.6-0.3-0.9c0-0.3-0.1-0.7-0.1-1.2l0-17.5l-6.7,0c-0.7,0-1.3-0.1-1.6-0.3c-0.3-0.2-0.6-0.4-0.7-0.8
						c-0.1-0.4-0.2-0.9-0.2-1.5c0-0.6,0.1-1.1,0.2-1.4c0.1-0.4,0.3-0.6,0.6-0.7C744-2902.8,744.6-2902.9,745.4-2902.9z"/>
				</g>
				<g class="st2">
					<path class="st1" d="M708.9-2901.9c0.2-0.4,0.6-0.6,1-0.8c0.4-0.1,1-0.2,1.7-0.2c0.7,0,1.2,0.1,1.6,0.2
						c0.4,0.1,0.7,0.3,0.9,0.4c0.2,0.2,0.4,0.4,0.5,0.7c0.1,0.4,0.2,1,0.2,1.8l0,10.5c0,3.1-1,5.9-2.9,8.4c-0.9,1.2-2.1,2.1-3.6,2.9
						c-1.5,0.7-3.1,1.1-4.9,1.1c-1.8,0-3.4-0.4-4.8-1.1c-1.5-0.7-2.6-1.7-3.5-2.9c-1.9-2.5-2.8-5.3-2.8-8.4l0-10.5
						c0-0.6,0-1,0.1-1.2c0-0.3,0.1-0.6,0.3-0.9c0.2-0.3,0.5-0.6,0.9-0.7c0.4-0.1,1-0.2,1.8-0.2c0.7,0,1.3,0.1,1.8,0.2
						c0.4,0.1,0.7,0.4,0.9,0.7c0.3,0.5,0.4,1.3,0.4,2.2l0,10.5c0,1.4,0.3,2.8,1,4c0.3,0.7,0.9,1.2,1.6,1.6c0.7,0.4,1.5,0.6,2.5,0.6
						c1.7,0,3-0.6,3.8-1.9c0.8-1.3,1.3-2.7,1.3-4.4l0-10.7C708.6-2900.9,708.7-2901.5,708.9-2901.9z"/>
				</g>
			</g>
		</g>
	</g>
	<g id="Group_149-7" transform="translate(12329.402 1744.362) rotate(180)">
		<g id="Group_146-14" transform="translate(0 133.268)">
			<g id="Group_135-27">
				<g class="st2">
					<path class="st1" d="M2906,691.5c-0.2,0.3-0.4,0.5-0.8,0.6c-0.4,0.1-0.9,0.2-1.6,0.2c-0.7,0-1.2-0.1-1.6-0.2
						c-0.4-0.1-0.7-0.3-0.8-0.7c-0.2-0.3-0.3-0.6-0.3-0.8c0-0.2,0-0.6,0-1.1c0-0.5,0-0.8,0-1.1c0-0.2,0.1-0.5,0.3-0.8
						c0.3-0.6,1.1-0.8,2.4-0.8c1.3,0,2.1,0.3,2.4,0.8c0.2,0.3,0.3,0.6,0.3,0.8c0,0.2,0,0.6,0,1.1c0,0.5,0,0.8,0,1.1
						C2906.3,690.9,2906.2,691.2,2906,691.5z M2900.9,697.2c0-0.5,0-0.8,0-1.1s0.1-0.5,0.3-0.8c0.3-0.5,1.1-0.8,2.4-0.8
						c1,0,1.7,0.2,2.1,0.5c0.4,0.3,0.5,0.7,0.6,1.3c0,0.2,0,0.5,0,0.9l0,10.9c0,0.5,0,0.8,0,1.1c0,0.2-0.1,0.5-0.3,0.8
						c-0.3,0.5-1.1,0.8-2.4,0.8c-1.3,0-2.1-0.3-2.4-0.8c-0.1-0.3-0.2-0.6-0.3-0.8c0-0.2,0-0.6,0-1.1V697.2z"/>
				</g>
				<g class="st2">
					<path class="st1" d="M3027,691.5c-0.2,0.3-0.4,0.5-0.8,0.6c-0.4,0.1-0.9,0.2-1.6,0.2c-0.7,0-1.2-0.1-1.6-0.2
						c-0.4-0.1-0.7-0.3-0.8-0.7c-0.2-0.3-0.3-0.6-0.3-0.8c0-0.2,0-0.6,0-1.1c0-0.5,0-0.8,0-1.1c0-0.2,0.1-0.5,0.3-0.8
						c0.3-0.6,1.1-0.8,2.4-0.8c1.3,0,2.1,0.3,2.4,0.8c0.2,0.3,0.3,0.6,0.3,0.8c0,0.2,0,0.6,0,1.1c0,0.5,0,0.8,0,1.1
						C3027.2,690.9,3027.1,691.2,3027,691.5z M3021.8,697.2c0-0.5,0-0.8,0-1.1c0-0.2,0.1-0.5,0.3-0.8c0.3-0.5,1.1-0.8,2.4-0.8
						c1,0,1.7,0.2,2.1,0.5c0.4,0.3,0.5,0.7,0.6,1.3c0,0.2,0,0.5,0,0.9l0,10.9c0,0.5,0,0.8,0,1.1c0,0.2-0.1,0.5-0.3,0.8
						c-0.3,0.5-1.1,0.8-2.4,0.8c-1.3,0-2.1-0.3-2.4-0.8c-0.1-0.3-0.2-0.6-0.3-0.8c0-0.2,0-0.6,0-1.1L3021.8,697.2z"/>
				</g>
				<g class="st2">
					<path class="st1" d="M3082.4,705.8c-0.5,0-0.8,0-1.1,0c-0.2,0-0.5-0.1-0.8-0.3c-0.5-0.3-0.8-1.1-0.8-2.4c0-1,0.2-1.7,0.5-2.1
						c0.3-0.4,0.7-0.5,1.3-0.6c0.2,0,0.5,0,0.9,0l10.9,0c0.5,0,0.8,0,1.1,0c0.2,0,0.5,0.1,0.8,0.3c0.5,0.3,0.8,1.1,0.8,2.4
						c0,1.3-0.3,2.1-0.8,2.4c-0.3,0.1-0.6,0.2-0.8,0.3s-0.6,0-1.1,0L3082.4,705.8z M3076.6,700.7c0.3,0.2,0.5,0.4,0.6,0.8
						c0.1,0.4,0.2,0.9,0.2,1.6c0,0.7-0.1,1.2-0.2,1.6c-0.1,0.4-0.3,0.7-0.7,0.8c-0.3,0.2-0.6,0.3-0.8,0.3c-0.2,0-0.6,0-1.1,0
						c-0.5,0-0.8,0-1.1,0s-0.5-0.1-0.8-0.3c-0.6-0.3-0.8-1.1-0.8-2.4c0-1.3,0.3-2.1,0.8-2.4c0.3-0.2,0.6-0.3,0.8-0.3
						c0.2,0,0.6,0,1.1,0c0.5,0,0.8,0,1.1,0C3076,700.4,3076.3,700.5,3076.6,700.7z"/>
				</g>
				<g class="st2">
					<path class="st1" d="M3122.3,688.9c3.4,0,6.4,1.2,9,3.7c2.5,2.5,3.8,5.6,3.8,9.3c0,3.7-1.2,6.8-3.6,9.4
						c-2.4,2.6-5.4,3.9-8.9,3.9s-6.5-1.3-9-3.8c-2.5-2.6-3.7-5.6-3.7-9.1c0-1.9,0.3-3.7,1-5.4c0.7-1.7,1.6-3.1,2.8-4.2
						c1.2-1.1,2.5-2,4-2.7C3119.1,689.2,3120.7,688.9,3122.3,688.9z M3115.9,702c0,2.1,0.7,3.8,2,5c1.3,1.3,2.8,1.9,4.5,1.9
						c1.7,0,3.1-0.6,4.5-1.9c1.3-1.3,2-2.9,2-5.1c0-2.1-0.7-3.8-2-5.1c-1.3-1.3-2.8-1.9-4.5-1.9c-1.7,0-3.1,0.6-4.5,1.9
						C3116.6,698.3,3115.9,699.9,3115.9,702z"/>
				</g>
				<g class="st2">
					<path class="st1" d="M2935.5,688.8c0.2-0.4,0.6-0.7,1-0.9c0.5-0.1,1-0.2,1.7-0.2c0.7,0,1.3,0.1,1.7,0.2c0.4,0.1,0.7,0.3,1,0.4
						c0.2,0.2,0.4,0.4,0.5,0.8c0.1,0.4,0.2,1,0.2,1.9l0,20.4c0,0.6,0,1-0.1,1.3c0,0.3-0.2,0.6-0.3,1c-0.3,0.7-1.3,1-2.9,1
						c-1,0-1.6-0.1-2-0.2c-0.4-0.1-0.7-0.4-0.9-0.7c-5.5-7.3-9.1-12.1-10.9-14.4v12.1c0,0.6,0,1-0.1,1.3c0,0.3-0.2,0.6-0.3,1
						c-0.3,0.7-1.3,1-2.9,1c-1.5,0-2.4-0.3-2.8-1c-0.2-0.4-0.3-0.7-0.3-1c0-0.3-0.1-0.7-0.1-1.3l0-20.5c0-0.9,0.1-1.6,0.3-2
						c0.2-0.4,0.6-0.7,1-0.9c0.5-0.1,1.1-0.2,1.8-0.2s1.3,0.1,1.7,0.2c0.4,0.1,0.7,0.3,0.9,0.5c0.1,0.1,0.4,0.4,0.8,1
						c5.2,7,8.6,11.7,10.4,13.9l0-12.4C2935.1,689.9,2935.2,689.2,2935.5,688.8z"/>
				</g>
				<g class="st2">
					<path class="st1" d="M3164,688.9c0.2-0.4,0.6-0.7,1-0.9c0.5-0.1,1-0.2,1.7-0.2c0.7,0,1.3,0.1,1.7,0.2c0.4,0.1,0.7,0.3,1,0.4
						c0.2,0.2,0.4,0.4,0.5,0.8c0.1,0.4,0.2,1,0.2,1.9l0,20.4c0,0.6,0,1-0.1,1.3c0,0.3-0.2,0.6-0.3,1c-0.3,0.7-1.3,1-2.9,1
						c-1,0-1.6-0.1-2-0.2c-0.4-0.1-0.7-0.4-0.9-0.7c-5.5-7.3-9.1-12.1-10.9-14.4l0,12.1c0,0.6,0,1-0.1,1.3c0,0.3-0.2,0.6-0.3,1
						c-0.3,0.7-1.3,1-2.9,1c-1.5,0-2.4-0.3-2.8-1c-0.2-0.4-0.3-0.7-0.4-1c0-0.3-0.1-0.7-0.1-1.3V691c0-0.9,0.1-1.6,0.3-2
						c0.2-0.4,0.6-0.7,1-0.9c0.5-0.1,1.1-0.2,1.8-0.2c0.7,0,1.3,0.1,1.7,0.2c0.4,0.1,0.7,0.3,0.9,0.5c0.1,0.1,0.4,0.4,0.8,1
						c5.2,7,8.6,11.7,10.4,13.9l0-12.4C3163.6,690,3163.8,689.4,3164,688.9z"/>
				</g>
				<g class="st2">
					<path class="st1" d="M2954.2,689l19.4,0c0.7,0,1.3,0.1,1.6,0.3c0.3,0.2,0.6,0.4,0.7,0.8c0.1,0.4,0.2,0.9,0.2,1.5
						c0,0.6-0.1,1.1-0.2,1.4c-0.1,0.4-0.3,0.6-0.6,0.7c-0.4,0.2-1,0.3-1.8,0.3l-6.7,0l0,17.5c0,0.5,0,0.9-0.1,1.2
						c0,0.3-0.1,0.6-0.3,0.9c-0.2,0.3-0.5,0.6-0.9,0.7c-0.4,0.1-1,0.2-1.7,0.2s-1.3-0.1-1.7-0.2c-0.4-0.1-0.7-0.4-0.9-0.7
						c-0.2-0.3-0.3-0.6-0.3-0.9c0-0.3-0.1-0.7-0.1-1.2l0-17.5l-6.7,0c-0.7,0-1.3-0.1-1.6-0.3c-0.3-0.2-0.6-0.4-0.7-0.8
						c-0.1-0.4-0.2-0.9-0.2-1.5c0-0.6,0.1-1.1,0.2-1.4c0.1-0.4,0.3-0.6,0.6-0.8C2952.9,689.1,2953.5,689,2954.2,689z"/>
				</g>
				<g class="st2">
					<path class="st1" d="M3040.6,689l19.4,0c0.7,0,1.3,0.1,1.6,0.3c0.3,0.2,0.6,0.4,0.7,0.8c0.1,0.4,0.2,0.9,0.2,1.5
						s-0.1,1.1-0.2,1.4c-0.1,0.4-0.3,0.6-0.6,0.7c-0.4,0.2-1,0.3-1.8,0.3l-6.7,0l0,17.5c0,0.5,0,0.9-0.1,1.2c0,0.3-0.1,0.6-0.3,0.9
						c-0.2,0.3-0.5,0.6-0.9,0.7c-0.4,0.1-1,0.2-1.7,0.2c-0.7,0-1.3-0.1-1.7-0.2s-0.7-0.4-0.9-0.7c-0.2-0.3-0.3-0.6-0.3-0.9
						c0-0.3-0.1-0.7-0.1-1.2l0-17.5l-6.7,0c-0.7,0-1.3-0.1-1.6-0.3c-0.3-0.2-0.6-0.4-0.7-0.8c-0.1-0.4-0.2-0.9-0.2-1.5
						c0-0.6,0.1-1.1,0.2-1.4c0.1-0.4,0.3-0.6,0.6-0.7C3039.2,689.1,3039.8,689,3040.6,689z"/>
				</g>
				<g class="st2">
					<path class="st1" d="M3004.1,690c0.2-0.4,0.6-0.6,1-0.8c0.4-0.1,1-0.2,1.7-0.2c0.7,0,1.2,0.1,1.6,0.2c0.4,0.1,0.7,0.3,0.9,0.4
						c0.2,0.2,0.4,0.4,0.5,0.7c0.1,0.4,0.2,1,0.2,1.8v10.5c0,3.1-1,5.9-2.9,8.4c-0.9,1.2-2.1,2.1-3.6,2.9c-1.5,0.7-3.1,1.1-4.9,1.1
						c-1.8,0-3.4-0.4-4.8-1.1c-1.5-0.7-2.6-1.7-3.5-2.9c-1.9-2.5-2.8-5.3-2.8-8.4l0-10.5c0-0.6,0-1,0.1-1.2c0-0.3,0.1-0.6,0.3-0.9
						c0.2-0.3,0.5-0.6,0.9-0.7c0.4-0.1,1-0.2,1.8-0.2c0.7,0,1.3,0.1,1.8,0.2c0.4,0.1,0.7,0.4,0.9,0.7c0.3,0.5,0.4,1.3,0.4,2.2
						l0,10.5c0,1.4,0.3,2.8,1,4c0.3,0.7,0.9,1.2,1.6,1.6c0.7,0.4,1.5,0.6,2.5,0.6c1.7,0,3-0.6,3.8-1.9c0.8-1.3,1.3-2.7,1.3-4.4
						l0-10.7C3003.8,691,3003.9,690.4,3004.1,690z"/>
				</g>
			</g>
		</g>
		<g id="Group_147-14" transform="translate(90.063 148.182) rotate(-90)">
			<g id="Group_135-28" transform="translate(0 0)">
				<g class="st2">
					<path class="st1" d="M-691,2992.5c0-0.5,0-0.8,0-1.1c0-0.2,0.1-0.5,0.3-0.8c0.3-0.5,1.1-0.8,2.4-0.8c1,0,1.7,0.2,2.1,0.5
						c0.4,0.3,0.5,0.7,0.6,1.3c0,0.2,0,0.5,0,0.9l0,10.9c0,0.5,0,0.8,0,1.1c0,0.2-0.1,0.5-0.3,0.8c-0.3,0.5-1.1,0.8-2.4,0.8
						c-1.3,0-2.1-0.3-2.4-0.8c-0.1-0.3-0.2-0.6-0.3-0.8c0-0.2,0-0.6,0-1.1L-691,2992.5z M-685.8,2986.7c-0.2,0.3-0.4,0.5-0.8,0.6
						s-0.9,0.2-1.6,0.2c-0.7,0-1.2-0.1-1.6-0.2c-0.4-0.1-0.7-0.3-0.8-0.7c-0.2-0.3-0.3-0.6-0.3-0.8c0-0.2,0-0.6,0-1.1
						c0-0.5,0-0.8,0-1.1c0-0.2,0.1-0.5,0.3-0.8c0.3-0.6,1.1-0.8,2.4-0.8c1.3,0,2.1,0.3,2.4,0.8c0.2,0.3,0.3,0.6,0.3,0.8
						c0,0.2,0,0.6,0,1.1c0,0.5,0,0.8,0,1.1C-685.6,2986.1-685.7,2986.4-685.8,2986.7z"/>
				</g>
				<g class="st2">
					<path class="st1" d="M-570,2992.5c0-0.5,0-0.8,0-1.1c0-0.2,0.1-0.5,0.3-0.8c0.3-0.5,1.1-0.8,2.4-0.8c1,0,1.7,0.2,2.1,0.5
						c0.4,0.3,0.5,0.7,0.6,1.3c0,0.2,0,0.5,0,0.9l0,10.9c0,0.5,0,0.8,0,1.1c0,0.2-0.1,0.5-0.3,0.8c-0.3,0.5-1.1,0.8-2.4,0.8
						c-1.3,0-2.1-0.3-2.4-0.8c-0.1-0.3-0.2-0.6-0.3-0.8s0-0.6,0-1.1V2992.5z M-564.9,2986.7c-0.2,0.3-0.4,0.5-0.8,0.6
						c-0.4,0.1-0.9,0.2-1.6,0.2c-0.7,0-1.2-0.1-1.6-0.2c-0.4-0.1-0.7-0.3-0.8-0.7c-0.2-0.3-0.3-0.6-0.3-0.8c0-0.2,0-0.6,0-1.1
						c0-0.5,0-0.8,0-1.1c0-0.2,0.1-0.5,0.3-0.8c0.3-0.6,1.1-0.8,2.4-0.8c1.3,0,2.1,0.3,2.4,0.8c0.2,0.3,0.3,0.6,0.3,0.8
						c0,0.2,0,0.6,0,1.1c0,0.5,0,0.8,0,1.1C-564.7,2986.1-564.7,2986.4-564.9,2986.7z"/>
				</g>
				<g class="st2">
					<path class="st1" d="M-509.5,3001c-0.5,0-0.8,0-1.1,0c-0.2,0-0.5-0.1-0.8-0.3c-0.5-0.3-0.8-1.1-0.8-2.4c0-1,0.2-1.7,0.5-2.1
						c0.3-0.4,0.7-0.5,1.3-0.6c0.2,0,0.5,0,0.9,0l10.9,0c0.5,0,0.8,0,1.1,0c0.2,0,0.5,0.1,0.8,0.3c0.5,0.3,0.8,1.1,0.8,2.4
						c0,1.3-0.3,2.1-0.8,2.4c-0.3,0.1-0.6,0.2-0.8,0.3c-0.2,0-0.6,0-1.1,0H-509.5z M-515.3,2995.9c0.3,0.2,0.5,0.4,0.6,0.8
						c0.1,0.4,0.2,0.9,0.2,1.6s-0.1,1.2-0.2,1.6c-0.1,0.4-0.3,0.7-0.7,0.8c-0.3,0.2-0.6,0.2-0.8,0.3c-0.2,0-0.6,0-1.1,0
						c-0.5,0-0.8,0-1.1,0c-0.2,0-0.5-0.1-0.8-0.3c-0.6-0.3-0.8-1.1-0.8-2.4c0-1.3,0.3-2.1,0.8-2.4c0.3-0.2,0.6-0.3,0.8-0.3
						c0.2,0,0.6,0,1.1,0c0.5,0,0.8,0,1.1,0C-515.9,2995.7-515.6,2995.8-515.3,2995.9z"/>
				</g>
				<g class="st2">
					<path class="st1" d="M-469.6,2984.1c3.4,0,6.4,1.2,9,3.7c2.5,2.5,3.8,5.6,3.8,9.3c0,3.7-1.2,6.8-3.6,9.4
						c-2.4,2.6-5.4,3.9-8.9,3.9c-3.5,0-6.5-1.3-9-3.8c-2.5-2.6-3.7-5.6-3.7-9.1c0-1.9,0.3-3.7,1-5.4c0.7-1.7,1.6-3.1,2.8-4.2
						c1.2-1.1,2.5-2,4-2.7C-472.8,2984.4-471.2,2984.1-469.6,2984.1z M-476,2997.2c0,2.1,0.7,3.8,2,5c1.3,1.3,2.8,1.9,4.5,1.9
						c1.7,0,3.1-0.6,4.5-1.9c1.3-1.3,2-2.9,2-5.1c0-2.1-0.7-3.8-2-5.1c-1.3-1.3-2.8-1.9-4.5-1.9c-1.7,0-3.1,0.6-4.5,1.9
						C-475.3,2993.5-476,2995.2-476,2997.2z"/>
				</g>
				<g class="st2">
					<path class="st1" d="M-656.4,2984c0.2-0.4,0.6-0.7,1-0.9c0.5-0.1,1-0.2,1.7-0.2c0.7,0,1.3,0.1,1.7,0.2c0.4,0.1,0.7,0.3,1,0.4
						c0.2,0.2,0.4,0.4,0.5,0.8c0.1,0.4,0.2,1,0.2,1.9l0,20.4c0,0.6,0,1-0.1,1.3c0,0.3-0.2,0.6-0.3,1c-0.3,0.7-1.3,1-2.9,1
						c-1,0-1.6-0.1-2-0.2c-0.4-0.1-0.7-0.4-0.9-0.7c-5.5-7.3-9.1-12.1-10.9-14.4l0,12.1c0,0.6,0,1-0.1,1.3c0,0.3-0.2,0.6-0.3,1
						c-0.3,0.7-1.3,1-2.9,1c-1.5,0-2.4-0.3-2.8-1c-0.2-0.4-0.3-0.7-0.3-1c0-0.3-0.1-0.7-0.1-1.3l0-20.5c0-0.9,0.1-1.6,0.3-2
						c0.2-0.4,0.6-0.7,1-0.9c0.5-0.1,1.1-0.2,1.8-0.2c0.7,0,1.3,0.1,1.7,0.2c0.4,0.1,0.7,0.3,0.9,0.5c0.1,0.1,0.4,0.4,0.8,1
						c5.2,7,8.6,11.7,10.4,13.9l0-12.4C-656.8,2985.2-656.7,2984.5-656.4,2984z"/>
				</g>
				<g class="st2">
					<path class="st1" d="M-427.9,2984.2c0.2-0.4,0.6-0.7,1-0.9c0.5-0.1,1-0.2,1.7-0.2c0.7,0,1.3,0.1,1.7,0.2c0.4,0.1,0.7,0.3,1,0.4
						c0.2,0.2,0.4,0.4,0.5,0.8c0.1,0.4,0.2,1,0.2,1.9l0,20.4c0,0.6,0,1-0.1,1.3c0,0.3-0.2,0.6-0.3,1c-0.3,0.7-1.3,1-2.9,1
						c-1,0-1.6-0.1-2-0.2c-0.4-0.1-0.7-0.4-0.9-0.7c-5.5-7.3-9.1-12.1-10.9-14.4l0,12.1c0,0.6,0,1-0.1,1.3c0,0.3-0.2,0.6-0.3,1
						c-0.3,0.7-1.3,1-2.9,1c-1.5,0-2.4-0.3-2.8-1c-0.2-0.4-0.3-0.7-0.3-1c0-0.3-0.1-0.7-0.1-1.3l0-20.5c0-0.9,0.1-1.6,0.3-2
						c0.2-0.4,0.6-0.7,1-0.9c0.5-0.1,1.1-0.2,1.8-0.2c0.7,0,1.3,0.1,1.7,0.2c0.4,0.1,0.7,0.3,0.9,0.5c0.1,0.1,0.4,0.4,0.8,1
						c5.2,7,8.6,11.7,10.4,13.9l0-12.4C-428.2,2985.3-428.1,2984.6-427.9,2984.2z"/>
				</g>
				<g class="st2">
					<path class="st1" d="M-637.6,2984.2l19.4,0c0.7,0,1.3,0.1,1.6,0.3c0.3,0.2,0.6,0.4,0.7,0.8c0.1,0.4,0.2,0.9,0.2,1.5
						c0,0.6-0.1,1.1-0.2,1.4c-0.1,0.4-0.3,0.6-0.6,0.8c-0.4,0.2-1,0.3-1.8,0.3l-6.7,0l0,17.5c0,0.5,0,0.9-0.1,1.2
						c0,0.3-0.1,0.6-0.3,0.9c-0.2,0.3-0.5,0.6-0.9,0.7c-0.4,0.1-1,0.2-1.7,0.2c-0.7,0-1.3-0.1-1.7-0.2c-0.4-0.1-0.7-0.4-0.9-0.7
						c-0.2-0.3-0.3-0.6-0.3-0.9c0-0.3-0.1-0.7-0.1-1.2l0-17.5l-6.7,0c-0.7,0-1.3-0.1-1.6-0.3c-0.3-0.2-0.6-0.4-0.7-0.8
						c-0.1-0.4-0.2-0.9-0.2-1.5c0-0.6,0.1-1.1,0.2-1.4c0.1-0.4,0.3-0.6,0.6-0.8C-639,2984.3-638.4,2984.2-637.6,2984.2z"/>
				</g>
				<g class="st2">
					<path class="st1" d="M-551.3,2984.2h19.4c0.7,0,1.3,0.1,1.6,0.3c0.3,0.2,0.6,0.4,0.7,0.8c0.1,0.4,0.2,0.9,0.2,1.5
						c0,0.6-0.1,1.1-0.2,1.4c-0.1,0.4-0.3,0.6-0.6,0.7c-0.4,0.2-1,0.3-1.8,0.3h-6.7l0,17.5c0,0.5,0,0.9-0.1,1.2
						c0,0.3-0.1,0.6-0.3,0.9c-0.2,0.3-0.5,0.6-0.9,0.7c-0.4,0.1-1,0.2-1.7,0.2c-0.7,0-1.3-0.1-1.7-0.2c-0.4-0.1-0.7-0.4-0.9-0.7
						c-0.2-0.3-0.3-0.6-0.3-0.9c0-0.3-0.1-0.7-0.1-1.2l0-17.5l-6.7,0c-0.7,0-1.3-0.1-1.6-0.3c-0.3-0.2-0.6-0.4-0.7-0.8
						c-0.1-0.4-0.2-0.9-0.2-1.5c0-0.6,0.1-1.1,0.2-1.4c0.1-0.4,0.3-0.6,0.6-0.8C-552.6,2984.3-552,2984.2-551.3,2984.2z"/>
				</g>
				<g class="st2">
					<path class="st1" d="M-587.8,2985.2c0.2-0.4,0.6-0.6,1-0.8c0.4-0.1,1-0.2,1.7-0.2c0.7,0,1.2,0.1,1.6,0.2
						c0.4,0.1,0.7,0.3,0.9,0.4c0.2,0.2,0.4,0.4,0.5,0.7c0.1,0.4,0.2,1,0.2,1.8l0,10.5c0,3.1-1,5.9-2.9,8.4c-0.9,1.2-2.1,2.1-3.6,2.9
						c-1.5,0.7-3.1,1.1-4.9,1.1c-1.8,0-3.4-0.4-4.8-1.1c-1.5-0.7-2.6-1.7-3.5-2.9c-1.9-2.5-2.8-5.3-2.8-8.4l0-10.5
						c0-0.6,0-1,0.1-1.2c0-0.3,0.1-0.6,0.3-0.9c0.2-0.3,0.5-0.6,0.9-0.7c0.4-0.1,1-0.2,1.8-0.2c0.7,0,1.3,0.1,1.8,0.2
						c0.4,0.1,0.7,0.4,0.9,0.7c0.3,0.5,0.4,1.3,0.4,2.2l0,10.5c0,1.4,0.3,2.8,1,4c0.3,0.7,0.9,1.2,1.6,1.6c0.7,0.4,1.5,0.6,2.5,0.6
						c1.7,0,3-0.6,3.8-1.9c0.8-1.3,1.3-2.7,1.3-4.4l0-10.7C-588.1,2986.2-588,2985.6-587.8,2985.2z"/>
				</g>
			</g>
		</g>
	</g>
</g>
</svg>
