<?xml version="1.0" encoding="utf-8"?>
<!-- Generator: Adobe Illustrator 25.4.1, SVG Export Plug-In . SVG Version: 6.00 Build 0)  -->
<svg version="1.1" id="Layer_1" xmlns="http://www.w3.org/2000/svg" xmlns:xlink="http://www.w3.org/1999/xlink" x="0px" y="0px"
	 viewBox="0 0 491 487.2" style="enable-background:new 0 0 491 487.2;" xml:space="preserve">
<style type="text/css">
	.st0{fill:#F3F3F3;}
	.st1{fill:#58CC6F;}
	.st2{enable-background:new    ;}
</style>
<g id="Concept_art_2-11" transform="translate(315.5 1252)">
	<g transform="matrix(1, 0, 0, 1, -269.15, -602.32)">
		<path id="Rectangle_1-29" class="st0" d="M36.6-627.6h329.2c32.6,0,59,26.4,59,59v329.2c0,32.6-26.4,59-59,59H36.6
			c-32.6,0-59-26.4-59-59v-329.2C-22.5-601.1,4-627.6,36.6-627.6z"/>
	</g>
	<g id="Group_29" transform="translate(-1225 -2941)">
		<g id="Group_20" transform="translate(1639 3297.5) rotate(180)">
			<path id="Intersection_4-11" class="st1" d="M705.6,1420v107.3c0,32.6-26.4,59-59,59H538.3c0-91.9,74.5-166.4,166.4-166.4H705.6z
				"/>
		</g>
		<g id="Group_191" transform="translate(-602.187 3823.447) rotate(-45)">
			<g id="Group_165-2" transform="translate(1913 798)">
				<path id="Path_130-2" class="st0" d="M706.6-1128.7c-1.8-1.6-6.6,0.7-11.2,5.2c-1.9,1.9-3.5,3.9-5,6.1l-0.6-0.5
					c0.9-1.4,1.8-2.7,2.8-4c-5.5-13.6-15.1-22.3-26.5-22.3c-11.5,0-21.3,8.7-26.8,22.5c1,0.8,1.9,1.8,2.8,2.7l-0.2,1.1
					c-2.4-2.8-5.3-5.3-8.4-7.2l0,0c-3.9-2.3-7.2-3.1-8.5-1.6c-1.8,2.1,1.3,7.9,7.1,13.1c0.2,0.2,0.4,0.3,0.6,0.5
					c2,1.6,5.4,4,8.2,4.3v0.9c-2-0.4-3.9-1.2-5.6-2.2c-0.8,4.3,0.3,11.8,0.3,16.4c0,21.1-0.7,17,16.7,13.8c4,3.7,9.2-1,15-1
					s11.4,4.7,15.4,1.1c17.4,3.1,15.5,7.3,15.5-13.8c-0.2-5.3-0.7-10.5-1.7-15.7c-1.4,0.9-3,1.5-4.7,1.6v-0.7
					c1.6-0.2,3.1-0.8,4.4-1.8v0c1.7-1.4,3.4-2.9,4.8-4.5C706.2-1120.7,708.7-1126.9,706.6-1128.7z"/>
				<path id="Path_131-2" class="st1" d="M652.6-1100.9c0,3.5,8.4,10.5,15.2,10.5c6.8,0,9.3-7,9.3-10.5c0-3.5-5.6,1.9-12.3,1.9
					S652.6-1104.4,652.6-1100.9z"/>
				<path id="Subtraction_7-2" class="st1" d="M656.6-1121.5c-6.3,0-6.2,5.8-6.2,0.8c0-4.9,2.7-8.9,6-8.9s6,4,6,8.9
					S662.9-1121.5,656.6-1121.5z"/>
				<path id="Subtraction_8-2" class="st1" d="M674.3-1121.5c-6.3,0-6,5.7-6,0.7c0-4.9,2.7-8.9,6-8.9c3.3,0,6,4,6,8.9
					S680.6-1121.5,674.3-1121.5z"/>
				<path id="Path_132-2" class="st0" d="M666.2-1100.2c0,0,1.2,5.2-0.6,4.9c-1.7-0.3-3.5,0.1-1.9-4.8"/>
				<path id="Path_133-2" class="st0" d="M667.1-1099.2c0,0-0.3,4.6,1.7,3.5c2-1.1,1.8-2.5,0.1-4.8"/>
			</g>
		</g>
	</g>
	<g id="Group_217" transform="translate(3326 -1254.001) rotate(90)">
		<g id="Group_20-2" transform="translate(1639 3297.5) rotate(180)">
			<path id="Intersection_4-12" class="st1" d="M1614.9-39.2V68.1c0,32.6-26.4,59-59,59h-108.2c0-91.9,74.5-166.4,166.4-166.4
				H1614.9z"/>
		</g>
		<g id="Group_191-2" transform="translate(-602.187 3823.447) rotate(-45)">
			<g id="Group_165-3" transform="translate(1913 798)">
				<path id="Path_130-3" class="st0" d="M-968.2-739.8c-1.8-1.6-6.6,0.7-11.2,5.2c-1.9,1.9-3.5,3.9-5,6.1l-0.6-0.5
					c0.9-1.4,1.8-2.7,2.8-4c-5.5-13.6-15.1-22.3-26.5-22.3c-11.5,0-21.3,8.7-26.8,22.5c1,0.8,1.9,1.8,2.8,2.7l-0.2,1.1
					c-2.4-2.8-5.3-5.3-8.4-7.2l0,0c-3.9-2.3-7.2-3.1-8.5-1.6c-1.8,2.1,1.3,7.9,7.1,13.1c0.2,0.2,0.4,0.3,0.6,0.5
					c2,1.6,5.4,4,8.2,4.3v0.9c-2-0.4-3.9-1.2-5.6-2.2c-0.8,4.3,0.3,11.8,0.3,16.4c0,21.1-0.7,17,16.7,13.8c4,3.7,9.2-1,15-1
					s11.4,4.7,15.4,1.1c17.4,3.1,15.5,7.3,15.5-13.8c-0.2-5.3-0.7-10.5-1.7-15.7c-1.4,0.9-3,1.5-4.7,1.6v-0.7
					c1.6-0.2,3.1-0.8,4.4-1.8v0c1.7-1.4,3.4-2.9,4.8-4.5C-968.7-731.8-966.1-738-968.2-739.8z"/>
				<path id="Path_131-3" class="st1" d="M-1022.2-712c0,3.5,8.4,10.5,15.2,10.5c6.8,0,9.3-7,9.3-10.5c0-3.5-5.6,1.9-12.3,1.9
					S-1022.2-715.5-1022.2-712z"/>
				<path id="Subtraction_7-3" class="st1" d="M-1018.2-732.6c-6.3,0-6.2,5.8-6.2,0.8s2.7-8.9,6-8.9s6,4,6,8.9
					C-1012.5-726.8-1011.9-732.6-1018.2-732.6z"/>
				<path id="Subtraction_8-3" class="st1" d="M-1000.5-732.6c-6.3,0-6,5.7-6,0.7s2.7-8.9,6-8.9s6,4,6,8.9
					C-994.6-726.9-994.2-732.6-1000.5-732.6z"/>
				<path id="Path_132-3" class="st0" d="M-1008.6-711.3c0,0,1.2,5.2-0.6,4.9c-1.7-0.3-3.5,0.1-1.9-4.8"/>
				<path id="Path_133-3" class="st0" d="M-1007.7-710.3c0,0-0.3,4.6,1.7,3.5s1.8-2.5,0.1-4.8"/>
			</g>
		</g>
	</g>
	<g id="Group_218" transform="translate(1639.001 3297) rotate(180)">
		<g id="Group_20-3" transform="translate(1639 3297.5) rotate(180)">
			<path id="Intersection_4-13" class="st1" d="M155.6-948.5v107.3c0,32.6-26.4,59-59,59H-11.6c0-91.9,74.5-166.4,166.4-166.4H155.6
				z"/>
		</g>
		<g id="Group_191-3" transform="translate(-602.187 3823.447) rotate(-45)">
			<g id="Group_165-4" transform="translate(1913 798)">
				<path id="Path_130-4" class="st0" d="M-579.3,935c-1.8-1.6-6.6,0.7-11.2,5.2c-1.9,1.9-3.5,3.9-5,6.1l-0.6-0.5
					c0.9-1.4,1.8-2.7,2.8-4c-5.5-13.6-15.1-22.3-26.5-22.3c-11.5,0-21.3,8.7-26.8,22.5c1,0.8,1.9,1.8,2.8,2.8l-0.2,1.1
					c-2.4-2.8-5.3-5.3-8.4-7.2l0,0c-3.9-2.3-7.2-3.1-8.5-1.6c-1.8,2.1,1.3,7.9,7.1,13.1c0.2,0.2,0.4,0.3,0.6,0.5
					c2,1.6,5.4,4,8.2,4.3v0.9c-2-0.4-3.9-1.2-5.6-2.2c-0.8,4.3,0.3,11.8,0.3,16.4c0,21.1-0.7,17,16.7,13.8c4,3.7,9.2-1,15-1
					s11.4,4.7,15.4,1.1c17.4,3.1,15.5,7.3,15.5-13.8c-0.2-5.3-0.7-10.5-1.7-15.7c-1.4,0.9-3,1.5-4.7,1.6v-0.7
					c1.6-0.2,3.1-0.8,4.4-1.8v0c1.7-1.4,3.4-2.9,4.8-4.5C-579.8,943-577.2,936.9-579.3,935z"/>
				<path id="Path_131-4" class="st1" d="M-633.3,962.8c0,3.5,8.4,10.5,15.2,10.5c6.8,0,9.3-7,9.3-10.5c0-3.5-5.6,1.9-12.3,1.9
					S-633.3,959.3-633.3,962.8z"/>
				<path id="Subtraction_7-4" class="st1" d="M-629.3,942.2c-6.3,0-6.2,5.8-6.2,0.8s2.7-8.9,6-8.9s6,4,6,8.9
					C-623.6,948-623,942.2-629.3,942.2z"/>
				<path id="Subtraction_8-4" class="st1" d="M-611.6,942.2c-6.3,0-6,5.7-6,0.7s2.7-8.9,6-8.9s6,4,6,8.9
					C-605.7,947.9-605.3,942.2-611.6,942.2z"/>
				<path id="Path_132-4" class="st0" d="M-619.7,963.5c0,0,1.2,5.2-0.6,4.9c-1.7-0.3-3.5,0.1-1.9-4.8"/>
				<path id="Path_133-4" class="st0" d="M-618.8,964.5c0,0-0.3,4.6,1.7,3.5c2-1.1,1.8-2.5,0.1-4.8"/>
			</g>
		</g>
	</g>
	<g id="Group_219" transform="translate(-2911.5 1610.001) rotate(-90)">
		<g id="Group_20-4" transform="translate(1639 3297.5) rotate(180)">
			<path id="Intersection_4-14" class="st1" d="M-753.6,510.3v107.3c0,32.6-26.4,59-59,59h-108.2c0-91.9,74.5-166.4,166.4-166.4
				H-753.6z"/>
		</g>
		<g id="Group_191-4" transform="translate(-602.187 3823.447) rotate(-45)">
			<g id="Group_165-5" transform="translate(1913 798)">
				<path id="Path_130-5" class="st0" d="M1095.2,546.4c-1.8-1.6-6.6,0.7-11.2,5.2c-1.9,1.9-3.5,3.9-5,6.1l-0.6-0.5
					c0.9-1.4,1.8-2.7,2.8-4c-5.5-13.6-15.1-22.3-26.5-22.3c-11.5,0-21.3,8.7-26.8,22.5c1,0.8,1.9,1.8,2.8,2.7l-0.2,1.1
					c-2.4-2.8-5.3-5.3-8.4-7.2l0,0c-3.9-2.3-7.2-3.1-8.5-1.6c-1.8,2.1,1.3,7.9,7.1,13.1c0.2,0.2,0.4,0.3,0.6,0.5
					c2,1.6,5.4,4,8.2,4.3v0.9c-2-0.4-3.9-1.2-5.6-2.2c-0.8,4.3,0.3,11.8,0.3,16.4c0,21.1-0.7,17,16.7,13.8c4,3.7,9.2-1,15-1
					s11.4,4.7,15.4,1.1c17.4,3.1,15.5,7.3,15.5-13.8c-0.2-5.3-0.7-10.5-1.7-15.7c-1.4,0.9-3,1.5-4.7,1.6v-0.7
					c1.6-0.2,3.1-0.8,4.4-1.8v0c1.7-1.4,3.4-2.9,4.8-4.5C1094.8,554.4,1097.3,548.2,1095.2,546.4z"/>
				<path id="Path_131-5" class="st1" d="M1041.3,574.2c0,3.5,8.4,10.5,15.2,10.5c6.8,0,9.3-7,9.3-10.5c0-3.5-5.6,1.9-12.3,1.9
					S1041.3,570.7,1041.3,574.2z"/>
				<path id="Subtraction_7-5" class="st1" d="M1045.2,553.6c-6.3,0-6.2,5.8-6.2,0.8s2.7-8.9,6-8.9c3.3,0,6,4,6,8.9
					C1050.9,559.3,1051.5,553.6,1045.2,553.6z"/>
				<path id="Subtraction_8-5" class="st1" d="M1062.9,553.6c-6.3,0-6,5.7-6,0.7s2.7-8.9,6-8.9c3.3,0,6,4,6,8.9
					C1068.9,559.3,1069.3,553.6,1062.9,553.6z"/>
				<path id="Path_132-5" class="st0" d="M1054.9,574.9c0,0,1.2,5.2-0.6,4.9c-1.7-0.3-3.5,0.1-1.9-4.8"/>
				<path id="Path_133-5" class="st0" d="M1055.7,575.9c0,0-0.3,4.6,1.7,3.5c2-1.1,1.8-2.5,0.1-4.8"/>
			</g>
		</g>
	</g>
</g>
<g id="Group_177" transform="translate(-3555.757 -8337.574) rotate(60)">
	<g id="Group_148" transform="translate(12224.423 1552.942)">
		<g id="Group_146" transform="translate(0 133.268)">
			<g id="Group_135" transform="translate(0 0)">
				<g class="st2">
					<path class="st1" d="M-2982.4-604c0-0.5,0-0.8,0-1c0-0.2,0.1-0.5,0.3-0.8c0.3-0.5,1.1-0.8,2.4-0.8c1,0,1.7,0.2,2.1,0.5
						c0.3,0.3,0.5,0.7,0.5,1.3c0,0.2,0,0.5,0,0.9l0,10.6c0,0.5,0,0.8,0,1c0,0.2-0.1,0.5-0.3,0.8c-0.3,0.5-1,0.8-2.3,0.8
						c-1.3,0-2.1-0.3-2.3-0.8c-0.1-0.3-0.2-0.6-0.3-0.8c0-0.2,0-0.6,0-1.1V-604z M-2977.4-609.7c-0.2,0.3-0.4,0.5-0.8,0.6
						c-0.4,0.1-0.9,0.2-1.5,0.2s-1.2-0.1-1.5-0.2c-0.4-0.1-0.7-0.3-0.8-0.6c-0.2-0.3-0.2-0.6-0.3-0.8c0-0.2,0-0.6,0-1
						c0-0.5,0-0.8,0-1c0-0.2,0.1-0.5,0.3-0.8c0.3-0.5,1.1-0.8,2.4-0.8c1.3,0,2,0.3,2.3,0.8c0.2,0.3,0.3,0.6,0.3,0.8c0,0.2,0,0.6,0,1
						c0,0.5,0,0.8,0,1C-2977.1-610.2-2977.2-610-2977.4-609.7z"/>
				</g>
				<g class="st2">
					<path class="st1" d="M-2864.6-604c0-0.5,0-0.8,0-1c0-0.2,0.1-0.5,0.3-0.8c0.3-0.5,1.1-0.8,2.4-0.8c1,0,1.7,0.2,2.1,0.5
						c0.3,0.3,0.5,0.7,0.5,1.3c0,0.2,0,0.5,0,0.9l0,10.6c0,0.5,0,0.8,0,1c0,0.2-0.1,0.5-0.3,0.8c-0.3,0.5-1,0.8-2.3,0.8
						c-1.3,0-2.1-0.3-2.3-0.8c-0.1-0.3-0.2-0.6-0.3-0.8c0-0.2,0-0.6,0-1.1L-2864.6-604z M-2859.6-609.7c-0.2,0.3-0.4,0.5-0.8,0.6
						c-0.4,0.1-0.9,0.2-1.5,0.2c-0.6,0-1.2-0.1-1.5-0.2c-0.4-0.1-0.7-0.3-0.8-0.6c-0.2-0.3-0.2-0.6-0.3-0.8c0-0.2,0-0.6,0-1
						c0-0.5,0-0.8,0-1c0-0.2,0.1-0.5,0.3-0.8c0.3-0.5,1.1-0.8,2.4-0.8c1.3,0,2,0.3,2.3,0.8c0.2,0.3,0.3,0.6,0.3,0.8c0,0.2,0,0.6,0,1
						c0,0.5,0,0.8,0,1C-2859.3-610.2-2859.4-610-2859.6-609.7z"/>
				</g>
				<g class="st2">
					<path class="st1" d="M-2811.2-600.7c0.3,0.2,0.5,0.4,0.6,0.8c0.1,0.4,0.2,0.9,0.2,1.5c0,0.6-0.1,1.2-0.2,1.5
						c-0.1,0.4-0.3,0.7-0.6,0.8c-0.3,0.2-0.6,0.2-0.8,0.3c-0.2,0-0.6,0-1,0c-0.5,0-0.8,0-1,0c-0.2,0-0.5-0.1-0.8-0.3
						c-0.5-0.3-0.8-1.1-0.8-2.4c0-1.3,0.3-2,0.8-2.3c0.3-0.2,0.6-0.3,0.8-0.3c0.2,0,0.6,0,1,0c0.5,0,0.8,0,1,0
						C-2811.8-600.9-2811.5-600.8-2811.2-600.7z M-2805.6-595.7c-0.5,0-0.8,0-1,0c-0.2,0-0.5-0.1-0.8-0.3c-0.5-0.3-0.8-1.1-0.8-2.4
						c0-1,0.2-1.7,0.5-2.1c0.3-0.3,0.7-0.5,1.3-0.5c0.2,0,0.5,0,0.9,0l10.6,0c0.5,0,0.8,0,1,0c0.2,0,0.5,0.1,0.8,0.3
						c0.5,0.3,0.8,1,0.8,2.3c0,1.3-0.3,2.1-0.8,2.3c-0.3,0.1-0.6,0.2-0.8,0.3c-0.2,0-0.6,0-1.1,0L-2805.6-595.7z"/>
				</g>
				<g class="st2">
					<path class="st1" d="M-2765.2-613c3.7,0,6.9,1.3,9.7,4c2.7,2.7,4.1,6,4.1,10c0,4-1.3,7.4-3.9,10.1c-2.6,2.8-5.8,4.2-9.6,4.2
						c-3.8,0-7-1.4-9.7-4.1c-2.7-2.8-4-6-4-9.8c0-2.1,0.4-4,1.1-5.8c0.8-1.8,1.8-3.3,3-4.6c1.3-1.2,2.7-2.2,4.3-2.9
						C-2768.6-612.7-2767-613-2765.2-613z M-2772.1-598.9c0,2.2,0.7,4,2.2,5.4c1.4,1.4,3,2.1,4.8,2.1c1.8,0,3.4-0.7,4.8-2
						c1.4-1.4,2.1-3.2,2.1-5.4c0-2.3-0.7-4.1-2.2-5.5c-1.4-1.4-3-2.1-4.8-2.1c-1.8,0-3.4,0.7-4.8,2.1
						C-2771.4-602.9-2772.1-601.1-2772.1-598.9z"/>
				</g>
				<g class="st2">
					<path class="st1" d="M-2948.7-612.2c0.2-0.4,0.6-0.7,1-0.8c0.5-0.1,1-0.2,1.7-0.2c0.7,0,1.2,0.1,1.6,0.2
						c0.4,0.1,0.7,0.3,0.9,0.4c0.2,0.2,0.4,0.4,0.4,0.8c0.1,0.4,0.2,1,0.2,1.8l0,19.9c0,0.6,0,1-0.1,1.3c0,0.3-0.1,0.6-0.3,0.9
						c-0.3,0.6-1.3,1-2.8,1c-0.9,0-1.6-0.1-1.9-0.2c-0.4-0.1-0.7-0.4-0.9-0.7c-5.4-7.2-8.9-11.8-10.6-14l0,11.8c0,0.6,0,1-0.1,1.3
						c0,0.3-0.1,0.6-0.3,0.9c-0.3,0.6-1.3,1-2.8,1c-1.5,0-2.4-0.3-2.7-1c-0.2-0.4-0.3-0.7-0.3-1c0-0.3-0.1-0.7-0.1-1.3v-20
						c0-0.9,0.1-1.6,0.3-2c0.2-0.4,0.6-0.7,1-0.8c0.5-0.1,1-0.2,1.8-0.2c0.7,0,1.3,0.1,1.7,0.2c0.4,0.1,0.7,0.3,0.9,0.4
						c0.1,0.1,0.4,0.4,0.8,0.9c5,6.8,8.4,11.4,10.1,13.6l0-12.1C-2949.1-611.1-2949-611.8-2948.7-612.2z"/>
				</g>
				<g class="st2">
					<path class="st1" d="M-2725.5-612.1c0.2-0.4,0.6-0.7,1-0.8c0.5-0.1,1-0.2,1.7-0.2c0.7,0,1.2,0.1,1.6,0.2
						c0.4,0.1,0.7,0.3,0.9,0.4c0.2,0.2,0.4,0.4,0.4,0.8c0.1,0.4,0.2,1,0.2,1.8v19.9c0,0.6,0,1-0.1,1.3c0,0.3-0.1,0.6-0.3,0.9
						c-0.3,0.6-1.3,1-2.8,1c-0.9,0-1.6-0.1-1.9-0.2c-0.4-0.1-0.7-0.4-0.9-0.7c-5.4-7.2-8.9-11.8-10.6-14l0,11.8c0,0.6,0,1-0.1,1.3
						c0,0.3-0.1,0.6-0.3,0.9c-0.3,0.6-1.3,1-2.8,1c-1.5,0-2.4-0.3-2.7-1c-0.2-0.4-0.3-0.7-0.3-1c0-0.3-0.1-0.7-0.1-1.3l0-20
						c0-0.9,0.1-1.6,0.3-2c0.2-0.4,0.6-0.7,1-0.8c0.5-0.1,1-0.2,1.8-0.2c0.7,0,1.3,0.1,1.7,0.2c0.4,0.1,0.7,0.3,0.9,0.4
						c0.1,0.1,0.4,0.4,0.8,0.9c5,6.8,8.4,11.4,10.1,13.6l0-12.1C-2725.8-611-2725.7-611.7-2725.5-612.1z"/>
				</g>
				<g class="st2">
					<path class="st1" d="M-2930.4-612l18.9,0c0.7,0,1.3,0.1,1.6,0.3c0.3,0.2,0.6,0.4,0.7,0.8c0.1,0.4,0.2,0.8,0.2,1.4
						c0,0.6-0.1,1.1-0.2,1.4c-0.1,0.4-0.3,0.6-0.6,0.7c-0.4,0.2-1,0.3-1.7,0.3l-6.5,0l0,17.1c0,0.5,0,0.9-0.1,1.2
						c0,0.2-0.1,0.5-0.3,0.9c-0.2,0.3-0.5,0.6-0.9,0.7c-0.4,0.1-1,0.2-1.7,0.2c-0.7,0-1.3-0.1-1.7-0.2c-0.4-0.1-0.7-0.4-0.9-0.7
						c-0.2-0.3-0.3-0.6-0.3-0.9c0-0.3-0.1-0.7-0.1-1.2v-17.1l-6.5,0c-0.7,0-1.3-0.1-1.6-0.3c-0.3-0.2-0.6-0.4-0.7-0.8
						c-0.1-0.4-0.2-0.8-0.2-1.4c0-0.6,0.1-1.1,0.2-1.4c0.1-0.4,0.3-0.6,0.6-0.7C-2931.7-611.9-2931.2-612-2930.4-612z"/>
				</g>
				<g class="st2">
					<path class="st1" d="M-2846.3-612l18.9,0c0.7,0,1.3,0.1,1.6,0.3c0.3,0.2,0.6,0.4,0.7,0.8s0.2,0.8,0.2,1.4
						c0,0.6-0.1,1.1-0.2,1.4c-0.1,0.4-0.3,0.6-0.6,0.7c-0.4,0.2-1,0.3-1.7,0.3l-6.5,0v17.1c0,0.5,0,0.9-0.1,1.2
						c0,0.2-0.1,0.5-0.3,0.9c-0.2,0.3-0.5,0.6-0.9,0.7c-0.4,0.1-1,0.2-1.7,0.2c-0.7,0-1.3-0.1-1.7-0.2c-0.4-0.1-0.7-0.4-0.9-0.7
						c-0.2-0.3-0.3-0.6-0.3-0.9c0-0.3-0.1-0.7-0.1-1.2v-17.1l-6.5,0c-0.7,0-1.3-0.1-1.6-0.3c-0.3-0.2-0.6-0.4-0.7-0.8
						c-0.1-0.4-0.2-0.8-0.2-1.4c0-0.6,0.1-1.1,0.2-1.4c0.1-0.4,0.3-0.6,0.6-0.7C-2847.6-611.9-2847-612-2846.3-612z"/>
				</g>
				<g class="st2">
					<path class="st1" d="M-2881.8-611.1c0.2-0.4,0.6-0.6,1-0.7c0.4-0.1,1-0.2,1.6-0.2c0.6,0,1.2,0.1,1.5,0.2
						c0.4,0.1,0.7,0.2,0.9,0.4c0.2,0.2,0.4,0.4,0.4,0.7c0.1,0.4,0.2,1,0.2,1.8v10.3c0,3-0.9,5.7-2.8,8.2c-0.9,1.2-2.1,2.1-3.5,2.8
						c-1.4,0.7-3,1.1-4.7,1.1c-1.7,0-3.3-0.4-4.7-1.1c-1.4-0.7-2.6-1.7-3.5-2.9c-1.8-2.4-2.8-5.1-2.8-8.2l0-10.2
						c0-0.5,0-0.9,0.1-1.2c0-0.3,0.1-0.6,0.3-0.9c0.2-0.3,0.5-0.6,0.9-0.7c0.4-0.1,1-0.2,1.7-0.2c0.7,0,1.3,0.1,1.7,0.2
						c0.4,0.1,0.7,0.4,0.9,0.7c0.3,0.5,0.4,1.2,0.4,2.1l0,10.2c0,1.4,0.3,2.7,1,3.9c0.3,0.6,0.8,1.1,1.5,1.5
						c0.7,0.4,1.5,0.6,2.4,0.6c1.7,0,2.9-0.6,3.7-1.8c0.8-1.2,1.2-2.6,1.2-4.2l0-10.4C-2882.2-610.1-2882.1-610.7-2881.8-611.1z"/>
				</g>
			</g>
		</g>
		<g id="Group_147" transform="translate(90.063 148.182) rotate(-90)">
			<g id="Group_135-2" transform="translate(0 0)">
				<g class="st2">
					<path class="st1" d="M615.5-2901.1c-0.2,0.3-0.4,0.5-0.8,0.6c-0.4,0.1-0.9,0.2-1.5,0.2c-0.6,0-1.2-0.1-1.5-0.2
						c-0.4-0.1-0.7-0.3-0.8-0.6c-0.2-0.3-0.2-0.6-0.3-0.8c0-0.2,0-0.6,0-1c0-0.5,0-0.8,0-1c0-0.2,0.1-0.5,0.3-0.8
						c0.3-0.5,1.1-0.8,2.4-0.8c1.3,0,2,0.3,2.3,0.8c0.2,0.3,0.3,0.6,0.3,0.8c0,0.2,0,0.6,0,1c0,0.5,0,0.8,0,1
						C615.8-2901.7,615.7-2901.4,615.5-2901.1z M610.5-2895.5c0-0.5,0-0.8,0-1c0-0.2,0.1-0.5,0.3-0.8c0.3-0.5,1.1-0.8,2.4-0.8
						c1,0,1.7,0.2,2.1,0.5c0.3,0.3,0.5,0.7,0.5,1.3c0,0.2,0,0.5,0,0.9l0,10.6c0,0.5,0,0.8,0,1c0,0.2-0.1,0.5-0.3,0.8
						c-0.3,0.5-1,0.8-2.3,0.8c-1.3,0-2.1-0.3-2.3-0.8c-0.1-0.3-0.2-0.6-0.3-0.8c0-0.2,0-0.6,0-1.1L610.5-2895.5z"/>
				</g>
				<g class="st2">
					<path class="st1" d="M733.4-2901.1c-0.2,0.3-0.4,0.5-0.8,0.6c-0.4,0.1-0.9,0.2-1.5,0.2c-0.6,0-1.2-0.1-1.5-0.2
						c-0.4-0.1-0.7-0.3-0.8-0.6c-0.2-0.3-0.2-0.6-0.3-0.8c0-0.2,0-0.6,0-1c0-0.5,0-0.8,0-1c0-0.2,0.1-0.5,0.3-0.8
						c0.3-0.5,1.1-0.8,2.4-0.8c1.3,0,2,0.3,2.3,0.8c0.2,0.3,0.3,0.6,0.3,0.8c0,0.2,0,0.6,0,1c0,0.5,0,0.8,0,1
						C733.6-2901.7,733.5-2901.4,733.4-2901.1z M728.4-2895.5c0-0.5,0-0.8,0-1c0-0.2,0.1-0.5,0.3-0.8c0.3-0.5,1.1-0.8,2.4-0.8
						c1,0,1.7,0.2,2.1,0.5c0.3,0.3,0.5,0.7,0.5,1.3c0,0.2,0,0.5,0,0.9l0,10.6c0,0.5,0,0.8,0,1c0,0.2-0.1,0.5-0.3,0.8
						c-0.3,0.5-1,0.8-2.3,0.8c-1.3,0-2.1-0.3-2.3-0.8c-0.1-0.3-0.2-0.6-0.3-0.8c0-0.2,0-0.6,0-1.1L728.4-2895.5z"/>
				</g>
				<g class="st2">
					<path class="st1" d="M781.7-2892.1c0.3,0.2,0.5,0.4,0.6,0.8c0.1,0.4,0.2,0.9,0.2,1.5c0,0.6-0.1,1.2-0.2,1.5
						c-0.1,0.4-0.3,0.7-0.6,0.8c-0.3,0.2-0.6,0.2-0.8,0.3c-0.2,0-0.6,0-1,0c-0.5,0-0.8,0-1.1,0c-0.2,0-0.5-0.1-0.8-0.3
						c-0.5-0.3-0.8-1.1-0.8-2.4c0-1.3,0.3-2,0.8-2.3c0.3-0.2,0.6-0.3,0.8-0.3c0.2,0,0.6,0,1,0c0.5,0,0.8,0,1,0
						C781.1-2892.4,781.4-2892.3,781.7-2892.1z M787.3-2887.1c-0.5,0-0.8,0-1.1,0c-0.2,0-0.5-0.1-0.8-0.3c-0.5-0.3-0.8-1.1-0.8-2.4
						c0-1,0.2-1.7,0.5-2.1c0.3-0.3,0.7-0.5,1.3-0.5c0.2,0,0.5,0,0.9,0H798c0.5,0,0.8,0,1,0c0.2,0,0.5,0.1,0.8,0.3
						c0.5,0.3,0.8,1,0.8,2.3c0,1.3-0.3,2.1-0.8,2.3c-0.3,0.1-0.6,0.2-0.8,0.3c-0.2,0-0.6,0-1.1,0L787.3-2887.1z"/>
				</g>
				<g class="st2">
					<path class="st1" d="M826.2-2903.6c3.4,0,6.3,1.2,8.7,3.6c2.5,2.4,3.7,5.4,3.7,9c0,3.6-1.2,6.6-3.5,9.2
						c-2.4,2.5-5.3,3.8-8.7,3.8c-3.4,0-6.4-1.2-8.8-3.7c-2.4-2.5-3.6-5.5-3.6-8.9c0-1.9,0.3-3.6,1-5.3c0.7-1.6,1.6-3,2.7-4.1
						c1.1-1.1,2.4-2,3.9-2.6C823.1-2903.3,824.6-2903.6,826.2-2903.6z M820-2890.8c0,2,0.7,3.7,2,4.9c1.3,1.3,2.8,1.9,4.4,1.9
						c1.6,0,3.1-0.6,4.4-1.8c1.3-1.2,1.9-2.9,1.9-4.9c0-2.1-0.7-3.7-2-5c-1.3-1.2-2.8-1.9-4.4-1.9c-1.6,0-3.1,0.6-4.4,1.9
						C820.7-2894.5,820-2892.9,820-2890.8z"/>
				</g>
				<g class="st2">
					<path class="st1" d="M644.2-2903.7c0.2-0.4,0.6-0.7,1-0.8c0.5-0.1,1-0.2,1.7-0.2c0.7,0,1.2,0.1,1.6,0.2
						c0.4,0.1,0.7,0.3,0.9,0.4c0.2,0.2,0.4,0.4,0.4,0.8c0.1,0.4,0.2,1,0.2,1.8l0,19.9c0,0.6,0,1-0.1,1.3c0,0.3-0.1,0.6-0.3,0.9
						c-0.3,0.6-1.3,1-2.8,1c-0.9,0-1.6-0.1-1.9-0.2c-0.4-0.1-0.7-0.4-0.9-0.7c-5.4-7.2-8.9-11.8-10.6-14l0,11.8c0,0.6,0,1-0.1,1.3
						c0,0.3-0.1,0.6-0.3,0.9c-0.3,0.6-1.3,1-2.8,1c-1.5,0-2.4-0.3-2.7-1c-0.2-0.4-0.3-0.7-0.3-1c0-0.3-0.1-0.7-0.1-1.3l0-20
						c0-0.9,0.1-1.6,0.3-2c0.2-0.4,0.6-0.7,1-0.8c0.5-0.1,1-0.2,1.8-0.2c0.7,0,1.3,0.1,1.7,0.2c0.4,0.1,0.7,0.3,0.9,0.4
						c0.1,0.1,0.4,0.4,0.8,0.9c5,6.8,8.4,11.4,10.1,13.6l0-12.1C643.8-2902.6,644-2903.3,644.2-2903.7z"/>
				</g>
				<g class="st2">
					<path class="st1" d="M866.9-2903.6c0.2-0.4,0.6-0.7,1-0.8c0.5-0.1,1-0.2,1.7-0.2c0.7,0,1.2,0.1,1.6,0.2
						c0.4,0.1,0.7,0.3,0.9,0.4c0.2,0.2,0.4,0.4,0.4,0.8c0.1,0.4,0.2,1,0.2,1.8l0,19.9c0,0.6,0,1-0.1,1.3c0,0.3-0.1,0.6-0.3,0.9
						c-0.3,0.6-1.3,1-2.8,1c-0.9,0-1.6-0.1-1.9-0.2c-0.4-0.1-0.7-0.4-0.9-0.7c-5.4-7.2-8.9-11.8-10.6-14v11.8c0,0.6,0,1-0.1,1.3
						c0,0.3-0.1,0.6-0.3,0.9c-0.3,0.6-1.3,1-2.8,1c-1.5,0-2.4-0.3-2.7-1c-0.2-0.4-0.3-0.7-0.3-1c0-0.3-0.1-0.7-0.1-1.3l0-20
						c0-0.9,0.1-1.6,0.3-2c0.2-0.4,0.6-0.7,1-0.8c0.5-0.1,1-0.2,1.8-0.2c0.7,0,1.3,0.1,1.7,0.2c0.4,0.1,0.7,0.3,0.9,0.4
						c0.1,0.1,0.4,0.4,0.8,0.9c5,6.8,8.4,11.4,10.1,13.6l0-12.1C866.5-2902.5,866.6-2903.1,866.9-2903.6z"/>
				</g>
				<g class="st2">
					<path class="st1" d="M662.5-2903.5h18.9c0.7,0,1.3,0.1,1.6,0.3c0.3,0.2,0.6,0.4,0.7,0.8c0.1,0.4,0.2,0.8,0.2,1.4
						c0,0.6-0.1,1.1-0.2,1.4c-0.1,0.4-0.3,0.6-0.6,0.7c-0.4,0.2-1,0.3-1.7,0.3l-6.5,0l0,17.1c0,0.5,0,0.9-0.1,1.2
						c0,0.3-0.1,0.5-0.3,0.9c-0.2,0.3-0.5,0.6-0.9,0.7c-0.4,0.1-1,0.2-1.7,0.2c-0.7,0-1.3-0.1-1.7-0.2c-0.4-0.1-0.7-0.4-0.9-0.7
						c-0.2-0.3-0.3-0.6-0.3-0.9c0-0.3-0.1-0.7-0.1-1.2v-17.1l-6.5,0c-0.7,0-1.3-0.1-1.6-0.3c-0.3-0.2-0.6-0.4-0.7-0.8
						c-0.1-0.4-0.2-0.8-0.2-1.4c0-0.6,0.1-1.1,0.2-1.4c0.1-0.4,0.3-0.6,0.6-0.7C661.2-2903.4,661.8-2903.5,662.5-2903.5z"/>
				</g>
				<g class="st2">
					<path class="st1" d="M746.6-2903.5l18.9,0c0.7,0,1.3,0.1,1.6,0.3c0.3,0.2,0.6,0.4,0.7,0.8c0.1,0.4,0.2,0.8,0.2,1.4
						c0,0.6-0.1,1.1-0.2,1.4c-0.1,0.4-0.3,0.6-0.6,0.7c-0.4,0.2-1,0.3-1.7,0.3l-6.5,0l0,17.1c0,0.5,0,0.9-0.1,1.2
						c0,0.2-0.1,0.5-0.3,0.9c-0.2,0.3-0.5,0.6-0.9,0.7c-0.4,0.1-1,0.2-1.7,0.2c-0.7,0-1.3-0.1-1.7-0.2c-0.4-0.1-0.7-0.4-0.9-0.7
						c-0.2-0.3-0.3-0.6-0.3-0.9c0-0.3-0.1-0.7,0-1.2l0-17.1l-6.5,0c-0.7,0-1.3-0.1-1.6-0.3c-0.3-0.2-0.6-0.4-0.7-0.8
						c-0.1-0.4-0.2-0.8-0.2-1.4c0-0.6,0.1-1.1,0.2-1.4c0.1-0.4,0.3-0.6,0.6-0.7C745.3-2903.4,745.9-2903.5,746.6-2903.5z"/>
				</g>
				<g class="st2">
					<path class="st1" d="M711.1-2902.5c0.2-0.4,0.6-0.6,1-0.7c0.4-0.1,1-0.2,1.6-0.2c0.6,0,1.2,0.1,1.5,0.2
						c0.4,0.1,0.7,0.2,0.9,0.4c0.2,0.2,0.4,0.4,0.4,0.7c0.1,0.4,0.2,1,0.2,1.8l0,10.3c0,3-0.9,5.7-2.8,8.2c-0.9,1.2-2.1,2.1-3.5,2.8
						s-3,1.1-4.7,1.1c-1.7,0-3.3-0.4-4.7-1.1c-1.4-0.7-2.6-1.7-3.5-2.9c-1.8-2.4-2.8-5.1-2.8-8.2l0-10.2c0-0.5,0-0.9,0.1-1.2
						c0-0.3,0.1-0.6,0.3-0.9c0.2-0.3,0.5-0.6,0.9-0.7c0.4-0.1,1-0.2,1.7-0.2c0.7,0,1.3,0.1,1.7,0.2c0.4,0.1,0.7,0.4,0.9,0.7
						c0.3,0.5,0.4,1.2,0.4,2.1v10.2c0,1.4,0.3,2.7,1,3.9c0.3,0.6,0.9,1.1,1.5,1.5c0.7,0.4,1.5,0.6,2.4,0.6c1.7,0,2.9-0.6,3.7-1.8
						c0.8-1.2,1.2-2.6,1.2-4.2l0-10.4C710.7-2901.6,710.9-2902.2,711.1-2902.5z"/>
				</g>
			</g>
		</g>
	</g>
	<g id="Group_149" transform="translate(12329.402 1744.362) rotate(180)">
		<g id="Group_146-2" transform="translate(0 133.268)">
			<g id="Group_135-3">
				<g class="st2">
					<path class="st1" d="M2907,691.8c-0.2,0.3-0.4,0.5-0.8,0.6c-0.4,0.1-0.9,0.2-1.5,0.2c-0.6,0-1.2-0.1-1.5-0.2
						c-0.4-0.1-0.7-0.3-0.8-0.6c-0.2-0.3-0.2-0.6-0.3-0.8c0-0.2,0-0.6,0-1c0-0.5,0-0.8,0-1c0-0.2,0.1-0.5,0.3-0.8
						c0.3-0.5,1.1-0.8,2.4-0.8c1.3,0,2,0.3,2.3,0.8c0.2,0.3,0.3,0.6,0.3,0.8c0,0.2,0,0.6,0,1c0,0.5,0,0.8,0,1
						S2907.1,691.5,2907,691.8z M2902,697.4c0-0.5,0-0.8,0-1c0-0.2,0.1-0.5,0.3-0.8c0.3-0.5,1.1-0.8,2.4-0.8c1,0,1.7,0.2,2.1,0.5
						c0.3,0.3,0.5,0.7,0.5,1.3c0,0.2,0,0.5,0,0.9l0,10.6c0,0.5,0,0.8,0,1s-0.1,0.5-0.3,0.8c-0.3,0.5-1,0.8-2.3,0.8
						c-1.3,0-2.1-0.3-2.3-0.8c-0.1-0.3-0.2-0.6-0.3-0.8c0-0.2,0-0.6,0-1.1L2902,697.4z"/>
				</g>
				<g class="st2">
					<path class="st1" d="M3024.8,691.8c-0.2,0.3-0.4,0.5-0.8,0.6c-0.4,0.1-0.9,0.2-1.5,0.2c-0.6,0-1.2-0.1-1.5-0.2
						c-0.4-0.1-0.7-0.3-0.8-0.6c-0.2-0.3-0.2-0.6-0.3-0.8c0-0.2,0-0.6,0-1c0-0.5,0-0.8,0-1c0-0.2,0.1-0.5,0.3-0.8
						c0.3-0.5,1.1-0.8,2.4-0.8c1.3,0,2,0.3,2.3,0.8c0.2,0.3,0.3,0.6,0.3,0.8c0,0.2,0,0.6,0,1c0,0.5,0,0.8,0,1
						C3025.1,691.2,3025,691.5,3024.8,691.8z M3019.8,697.4c0-0.5,0-0.8,0-1c0-0.2,0.1-0.5,0.3-0.8c0.3-0.5,1.1-0.8,2.4-0.8
						c1,0,1.7,0.2,2.1,0.5c0.3,0.3,0.5,0.7,0.5,1.3c0,0.2,0,0.5,0,0.9l0,10.6c0,0.5,0,0.8,0,1c0,0.2-0.1,0.5-0.3,0.8
						c-0.3,0.5-1,0.8-2.3,0.8c-1.3,0-2.1-0.3-2.3-0.8c-0.1-0.3-0.2-0.6-0.3-0.8c0-0.2,0-0.6,0-1.1L3019.8,697.4z"/>
				</g>
				<g class="st2">
					<path class="st1" d="M3078.8,705.8c-0.5,0-0.8,0-1,0c-0.2,0-0.5-0.1-0.8-0.3c-0.5-0.3-0.8-1.1-0.8-2.4c0-1,0.2-1.7,0.5-2.1
						c0.3-0.3,0.7-0.5,1.3-0.5c0.2,0,0.5,0,0.9,0l10.6,0c0.5,0,0.8,0,1,0c0.2,0,0.5,0.1,0.8,0.3c0.5,0.3,0.8,1,0.8,2.3
						c0,1.3-0.3,2.1-0.8,2.3c-0.3,0.1-0.6,0.2-0.8,0.3c-0.2,0-0.6,0-1.1,0L3078.8,705.8z M3073.1,700.8c0.3,0.2,0.5,0.4,0.6,0.8
						c0.1,0.4,0.2,0.9,0.2,1.5c0,0.6-0.1,1.2-0.2,1.5c-0.1,0.4-0.3,0.7-0.6,0.8c-0.3,0.2-0.6,0.2-0.8,0.3c-0.2,0-0.6,0-1,0
						c-0.5,0-0.8,0-1,0c-0.2,0-0.5-0.1-0.8-0.3c-0.5-0.3-0.8-1.1-0.8-2.4c0-1.3,0.3-2,0.8-2.3c0.3-0.2,0.6-0.3,0.8-0.3
						c0.2,0,0.6,0,1,0c0.5,0,0.8,0,1,0C3072.6,700.5,3072.8,700.6,3073.1,700.8z"/>
				</g>
				<g class="st2">
					<path class="st1" d="M3117.7,689.2c3.4,0,6.3,1.2,8.7,3.6c2.5,2.4,3.7,5.4,3.7,9c0,3.6-1.2,6.7-3.5,9.2
						c-2.4,2.5-5.3,3.8-8.7,3.8c-3.4,0-6.4-1.2-8.8-3.7c-2.4-2.5-3.6-5.5-3.6-8.9c0-1.9,0.3-3.6,1-5.3c0.7-1.6,1.6-3,2.7-4.1
						c1.1-1.1,2.4-2,3.9-2.6C3114.6,689.6,3116.1,689.2,3117.7,689.2z M3111.5,702.1c0,2,0.7,3.7,2,4.9c1.3,1.3,2.8,1.9,4.4,1.9
						c1.6,0,3.1-0.6,4.4-1.8s1.9-2.9,1.9-4.9s-0.7-3.7-2-5s-2.8-1.9-4.4-1.9c-1.6,0-3.1,0.6-4.4,1.9
						C3112.1,698.4,3111.5,700,3111.5,702.1z"/>
				</g>
				<g class="st2">
					<path class="st1" d="M2935.6,689.2c0.2-0.4,0.6-0.7,1-0.8c0.5-0.1,1-0.2,1.7-0.2c0.7,0,1.2,0.1,1.6,0.2
						c0.4,0.1,0.7,0.3,0.9,0.4c0.2,0.2,0.4,0.4,0.4,0.8c0.1,0.4,0.2,1,0.2,1.8l0,19.9c0,0.6,0,1-0.1,1.3c0,0.3-0.2,0.6-0.3,0.9
						c-0.3,0.6-1.3,1-2.8,1c-0.9,0-1.6-0.1-1.9-0.2c-0.4-0.1-0.7-0.4-0.9-0.7c-5.4-7.2-8.9-11.8-10.6-14l0,11.8c0,0.6,0,1-0.1,1.3
						s-0.1,0.6-0.3,0.9c-0.3,0.6-1.3,1-2.8,1c-1.5,0-2.4-0.3-2.7-1c-0.2-0.4-0.3-0.7-0.3-1c0-0.3-0.1-0.7-0.1-1.3l0-20
						c0-0.9,0.1-1.6,0.3-2c0.2-0.4,0.6-0.7,1-0.8c0.5-0.1,1-0.2,1.8-0.2c0.7,0,1.3,0.1,1.7,0.2c0.4,0.1,0.7,0.3,0.9,0.4
						c0.1,0.1,0.4,0.4,0.8,0.9c5,6.8,8.4,11.4,10.1,13.6v-12.1C2935.3,690.3,2935.4,689.6,2935.6,689.2z"/>
				</g>
				<g class="st2">
					<path class="st1" d="M3158.3,689.3c0.2-0.4,0.6-0.7,1-0.8c0.5-0.1,1-0.2,1.7-0.2c0.7,0,1.2,0.1,1.6,0.2
						c0.4,0.1,0.7,0.3,0.9,0.4c0.2,0.2,0.4,0.4,0.4,0.8c0.1,0.4,0.2,1,0.2,1.8l0,19.9c0,0.6,0,1-0.1,1.3c0,0.3-0.1,0.6-0.3,0.9
						c-0.3,0.6-1.3,1-2.8,1c-0.9,0-1.6-0.1-1.9-0.2c-0.4-0.1-0.7-0.4-0.9-0.7c-5.4-7.2-8.9-11.8-10.6-14l0,11.8c0,0.6,0,1-0.1,1.3
						s-0.1,0.6-0.3,0.9c-0.3,0.6-1.3,1-2.8,1c-1.5,0-2.4-0.3-2.7-1c-0.2-0.4-0.3-0.7-0.3-1c0-0.3-0.1-0.7-0.1-1.3v-20
						c0-0.9,0.1-1.6,0.3-2c0.2-0.4,0.6-0.7,1-0.8c0.5-0.1,1-0.2,1.8-0.2c0.7,0,1.3,0.1,1.7,0.2c0.4,0.1,0.7,0.3,0.9,0.4
						c0.1,0.1,0.4,0.4,0.8,0.9c5,6.8,8.4,11.4,10.1,13.6v-12.1C3158,690.4,3158.1,689.7,3158.3,689.3z"/>
				</g>
				<g class="st2">
					<path class="st1" d="M2954,689.4l18.9,0c0.7,0,1.3,0.1,1.6,0.3c0.3,0.2,0.6,0.4,0.7,0.8c0.1,0.4,0.2,0.8,0.2,1.4
						c0,0.6-0.1,1.1-0.2,1.4c-0.1,0.4-0.3,0.6-0.6,0.7c-0.4,0.2-1,0.3-1.7,0.3l-6.5,0l0,17.1c0,0.5,0,0.9-0.1,1.2
						c0,0.2-0.1,0.5-0.3,0.9c-0.2,0.3-0.5,0.6-0.9,0.7c-0.4,0.1-1,0.2-1.7,0.2c-0.7,0-1.3-0.1-1.7-0.2c-0.4-0.1-0.7-0.4-0.9-0.7
						c-0.2-0.3-0.3-0.6-0.3-0.9c0-0.3-0.1-0.7-0.1-1.2v-17.1l-6.5,0c-0.7,0-1.3-0.1-1.6-0.3c-0.3-0.2-0.6-0.4-0.7-0.8
						c-0.1-0.4-0.2-0.8-0.2-1.4c0-0.6,0.1-1.1,0.2-1.4c0.1-0.4,0.3-0.6,0.6-0.7C2952.6,689.5,2953.2,689.4,2954,689.4z"/>
				</g>
				<g class="st2">
					<path class="st1" d="M3038.1,689.4h18.9c0.7,0,1.3,0.1,1.6,0.3c0.3,0.2,0.6,0.4,0.7,0.8c0.1,0.4,0.2,0.8,0.2,1.4
						c0,0.6-0.1,1.1-0.2,1.4c-0.1,0.4-0.3,0.6-0.6,0.7c-0.4,0.2-1,0.3-1.7,0.3l-6.5,0l0,17.1c0,0.5,0,0.9-0.1,1.2
						c0,0.2-0.1,0.5-0.3,0.9c-0.2,0.3-0.5,0.6-0.9,0.7c-0.4,0.1-1,0.2-1.7,0.2c-0.7,0-1.3-0.1-1.7-0.2c-0.4-0.1-0.7-0.4-0.9-0.7
						c-0.2-0.3-0.3-0.6-0.3-0.9c0-0.3-0.1-0.7-0.1-1.2l0-17.1l-6.5,0c-0.7,0-1.3-0.1-1.6-0.3c-0.3-0.2-0.6-0.4-0.7-0.8
						c-0.1-0.4-0.2-0.8-0.2-1.4c0-0.6,0.1-1.1,0.2-1.4c0.1-0.4,0.3-0.6,0.6-0.7C3036.8,689.5,3037.3,689.4,3038.1,689.4z"/>
				</g>
				<g class="st2">
					<path class="st1" d="M3002.5,690.3c0.2-0.4,0.6-0.6,1-0.7c0.4-0.1,1-0.2,1.6-0.2c0.6,0,1.2,0.1,1.5,0.2
						c0.4,0.1,0.7,0.3,0.9,0.4c0.2,0.2,0.4,0.4,0.4,0.7c0.1,0.4,0.2,1,0.2,1.8v10.3c0,3-0.9,5.7-2.8,8.2c-0.9,1.2-2.1,2.1-3.5,2.8
						c-1.4,0.7-3,1.1-4.7,1.1c-1.7,0-3.3-0.4-4.7-1.1c-1.4-0.7-2.6-1.7-3.5-2.9c-1.8-2.4-2.8-5.1-2.8-8.2l0-10.2
						c0-0.5,0-0.9,0.1-1.2c0-0.3,0.1-0.6,0.3-0.9c0.2-0.3,0.5-0.6,0.9-0.7c0.4-0.1,1-0.2,1.7-0.2c0.7,0,1.3,0.1,1.7,0.2
						c0.4,0.1,0.7,0.4,0.9,0.7c0.3,0.5,0.4,1.2,0.4,2.1l0,10.2c0,1.4,0.3,2.7,1,3.9c0.3,0.6,0.8,1.1,1.5,1.5
						c0.7,0.4,1.5,0.6,2.4,0.6c1.7,0,2.9-0.6,3.7-1.8c0.8-1.2,1.2-2.6,1.2-4.2l0-10.4C3002.2,691.3,3002.3,690.7,3002.5,690.3z"/>
				</g>
			</g>
		</g>
		<g id="Group_147-2" transform="translate(90.063 148.182) rotate(-90)">
			<g id="Group_135-4" transform="translate(0 0)">
				<g class="st2">
					<path class="st1" d="M-690.9,2988.9c0-0.5,0-0.8,0-1c0-0.2,0.1-0.5,0.3-0.8c0.3-0.5,1.1-0.8,2.4-0.8c1,0,1.7,0.2,2.1,0.5
						c0.3,0.3,0.5,0.7,0.5,1.3c0,0.2,0,0.5,0,0.9l0,10.6c0,0.5,0,0.8,0,1c0,0.2-0.1,0.5-0.3,0.8c-0.3,0.5-1,0.8-2.3,0.8
						c-1.3,0-2.1-0.3-2.3-0.8c-0.1-0.3-0.2-0.6-0.3-0.8c0-0.2,0-0.6,0-1.1L-690.9,2988.9z M-685.9,2983.2c-0.2,0.3-0.4,0.5-0.8,0.6
						c-0.4,0.1-0.9,0.2-1.5,0.2c-0.6,0-1.2-0.1-1.5-0.2c-0.4-0.1-0.7-0.3-0.8-0.6c-0.2-0.3-0.2-0.6-0.3-0.8c0-0.2,0-0.6,0-1
						c0-0.5,0-0.8,0-1.1c0-0.2,0.1-0.5,0.3-0.8c0.3-0.5,1.1-0.8,2.4-0.8c1.3,0,2,0.3,2.3,0.8c0.2,0.3,0.3,0.6,0.3,0.8
						c0,0.2,0,0.6,0,1.1c0,0.5,0,0.8,0,1C-685.7,2982.7-685.8,2983-685.9,2983.2z"/>
				</g>
				<g class="st2">
					<path class="st1" d="M-573.1,2988.9c0-0.5,0-0.8,0-1c0-0.2,0.1-0.5,0.3-0.8c0.3-0.5,1.1-0.8,2.4-0.8c1,0,1.7,0.2,2.1,0.5
						c0.3,0.3,0.5,0.7,0.5,1.3c0,0.2,0,0.5,0,0.9l0,10.6c0,0.5,0,0.8,0,1c0,0.2-0.1,0.5-0.3,0.8c-0.3,0.5-1,0.8-2.3,0.8
						c-1.3,0-2.1-0.3-2.3-0.8c-0.1-0.3-0.2-0.6-0.3-0.8c0-0.2,0-0.6,0-1.1L-573.1,2988.9z M-568.1,2983.2c-0.2,0.3-0.4,0.5-0.8,0.6
						c-0.4,0.1-0.9,0.2-1.5,0.2c-0.6,0-1.2-0.1-1.5-0.2c-0.4-0.1-0.7-0.3-0.8-0.6c-0.2-0.3-0.2-0.6-0.3-0.8c0-0.2,0-0.6,0-1
						c0-0.5,0-0.8,0-1.1s0.1-0.5,0.3-0.8c0.3-0.5,1.1-0.8,2.4-0.8c1.3,0,2,0.3,2.3,0.8c0.2,0.3,0.3,0.6,0.3,0.8c0,0.2,0,0.6,0,1.1
						c0,0.5,0,0.8,0,1C-567.8,2982.7-567.9,2983-568.1,2983.2z"/>
				</g>
				<g class="st2">
					<path class="st1" d="M-514.1,2997.2c-0.5,0-0.8,0-1,0c-0.2,0-0.5-0.1-0.8-0.3c-0.5-0.3-0.8-1.1-0.8-2.4c0-1,0.2-1.7,0.5-2.1
						c0.3-0.3,0.7-0.5,1.3-0.5c0.2,0,0.5,0,0.9,0h10.6c0.5,0,0.8,0,1,0c0.2,0,0.5,0.1,0.8,0.3c0.5,0.3,0.8,1,0.8,2.3
						c0,1.3-0.3,2.1-0.8,2.3c-0.3,0.1-0.6,0.2-0.8,0.3c-0.2,0-0.6,0-1.1,0H-514.1z M-519.8,2992.2c0.3,0.2,0.5,0.4,0.6,0.8
						c0.1,0.4,0.2,0.9,0.2,1.5s-0.1,1.2-0.2,1.5c-0.1,0.4-0.3,0.7-0.6,0.8c-0.3,0.2-0.6,0.2-0.8,0.3c-0.2,0-0.6,0-1,0
						c-0.5,0-0.8,0-1,0c-0.2,0-0.5-0.1-0.8-0.3c-0.5-0.3-0.8-1.1-0.8-2.4c0-1.3,0.3-2,0.8-2.3c0.3-0.2,0.6-0.3,0.8-0.3
						c0.2,0,0.6,0,1,0c0.5,0,0.8,0,1,0C-520.3,2992-520,2992.1-519.8,2992.2z"/>
				</g>
				<g class="st2">
					<path class="st1" d="M-475.2,2980.7c3.4,0,6.3,1.2,8.7,3.6c2.5,2.4,3.7,5.4,3.7,9c0,3.6-1.2,6.6-3.5,9.2
						c-2.4,2.5-5.3,3.8-8.7,3.8c-3.4,0-6.4-1.2-8.8-3.7c-2.4-2.5-3.6-5.5-3.6-8.9c0-1.9,0.3-3.6,1-5.3c0.7-1.6,1.6-3,2.7-4.1
						c1.1-1.1,2.4-2,3.9-2.6C-478.3,2981-476.8,2980.7-475.2,2980.7z M-481.4,2993.5c0,2,0.7,3.7,2,4.9c1.3,1.3,2.8,1.9,4.4,1.9
						c1.6,0,3.1-0.6,4.4-1.8s1.9-2.9,1.9-4.9c0-2.1-0.7-3.7-2-5c-1.3-1.2-2.8-1.9-4.4-1.9c-1.6,0-3.1,0.6-4.4,1.9
						C-480.8,2989.9-481.4,2991.5-481.4,2993.5z"/>
				</g>
				<g class="st2">
					<path class="st1" d="M-657.3,2980.7c0.2-0.4,0.6-0.7,1-0.8c0.5-0.1,1-0.2,1.7-0.2c0.7,0,1.2,0.1,1.6,0.2
						c0.4,0.1,0.7,0.3,0.9,0.4s0.4,0.4,0.4,0.8c0.1,0.4,0.2,1,0.2,1.8l0,19.9c0,0.6,0,1-0.1,1.3c0,0.3-0.1,0.6-0.3,0.9
						c-0.3,0.6-1.3,1-2.8,1c-0.9,0-1.6-0.1-1.9-0.2c-0.4-0.1-0.7-0.4-0.9-0.7c-5.4-7.2-8.9-11.8-10.6-14l0,11.8c0,0.6,0,1-0.1,1.3
						c0,0.3-0.1,0.6-0.3,0.9c-0.3,0.6-1.3,1-2.8,1c-1.5,0-2.4-0.3-2.7-1c-0.2-0.4-0.3-0.7-0.3-1c0-0.3-0.1-0.7-0.1-1.3l0-20
						c0-0.9,0.1-1.6,0.3-2c0.2-0.4,0.6-0.7,1-0.8c0.5-0.1,1-0.2,1.8-0.2c0.7,0,1.3,0.1,1.7,0.2c0.4,0.1,0.7,0.3,0.9,0.4
						c0.1,0.1,0.4,0.4,0.8,0.9c5,6.8,8.4,11.4,10.1,13.6l0-12.1C-657.6,2981.8-657.5,2981.1-657.3,2980.7z"/>
				</g>
				<g class="st2">
					<path class="st1" d="M-434.6,2980.8c0.2-0.4,0.6-0.7,1-0.8c0.5-0.1,1-0.2,1.7-0.2c0.7,0,1.2,0.1,1.6,0.2
						c0.4,0.1,0.7,0.3,0.9,0.4c0.2,0.2,0.4,0.4,0.4,0.8c0.1,0.4,0.2,1,0.2,1.8l0,19.9c0,0.6,0,1-0.1,1.3c0,0.3-0.1,0.6-0.3,0.9
						c-0.3,0.6-1.3,1-2.8,1c-0.9,0-1.6-0.1-1.9-0.2c-0.4-0.1-0.7-0.4-0.9-0.7c-5.4-7.2-8.9-11.8-10.6-14l0,11.8c0,0.6,0,1-0.1,1.3
						c0,0.3-0.1,0.6-0.3,0.9c-0.3,0.6-1.3,1-2.8,1c-1.5,0-2.4-0.3-2.7-1c-0.2-0.4-0.3-0.7-0.3-1c0-0.3-0.1-0.7-0.1-1.3l0-20
						c0-0.9,0.1-1.6,0.3-2c0.2-0.4,0.6-0.7,1-0.8c0.5-0.1,1-0.2,1.8-0.2c0.7,0,1.3,0.1,1.7,0.2c0.4,0.1,0.7,0.3,0.9,0.4
						c0.1,0.1,0.4,0.4,0.8,0.9c5,6.8,8.4,11.4,10.1,13.6l0-12.1C-434.9,2981.9-434.8,2981.2-434.6,2980.8z"/>
				</g>
				<g class="st2">
					<path class="st1" d="M-638.9,2980.9l18.9,0c0.7,0,1.3,0.1,1.6,0.3c0.3,0.2,0.6,0.4,0.7,0.8c0.1,0.4,0.2,0.8,0.2,1.4
						c0,0.6-0.1,1.1-0.2,1.4c-0.1,0.4-0.3,0.6-0.6,0.7c-0.4,0.2-1,0.3-1.7,0.3h-6.5l0,17.1c0,0.5,0,0.9-0.1,1.2
						c0,0.3-0.1,0.5-0.3,0.9c-0.2,0.3-0.5,0.6-0.9,0.7c-0.4,0.1-1,0.2-1.7,0.2c-0.7,0-1.3-0.1-1.7-0.2c-0.4-0.1-0.7-0.4-0.9-0.7
						c-0.2-0.3-0.3-0.6-0.3-0.9c0-0.3-0.1-0.7-0.1-1.2l0-17.1l-6.5,0c-0.7,0-1.3-0.1-1.6-0.3c-0.3-0.2-0.6-0.4-0.7-0.8
						c-0.1-0.4-0.2-0.8-0.2-1.4c0-0.6,0.1-1.1,0.2-1.4c0.1-0.4,0.3-0.6,0.6-0.7C-640.3,2981-639.7,2980.9-638.9,2980.9z"/>
				</g>
				<g class="st2">
					<path class="st1" d="M-554.8,2980.9l18.9,0c0.7,0,1.3,0.1,1.6,0.3c0.3,0.2,0.6,0.4,0.7,0.8c0.1,0.4,0.2,0.8,0.2,1.4
						c0,0.6-0.1,1.1-0.2,1.4c-0.1,0.4-0.3,0.6-0.6,0.7c-0.4,0.2-1,0.3-1.7,0.3l-6.5,0l0,17.1c0,0.5,0,0.9-0.1,1.2
						c0,0.3-0.1,0.5-0.3,0.9c-0.2,0.3-0.5,0.6-0.9,0.7c-0.4,0.1-1,0.2-1.7,0.2c-0.7,0-1.3-0.1-1.7-0.2c-0.4-0.1-0.7-0.4-0.9-0.7
						c-0.2-0.3-0.3-0.6-0.3-0.9c0-0.3-0.1-0.7-0.1-1.2l0-17.1l-6.5,0c-0.7,0-1.3-0.1-1.6-0.3c-0.3-0.2-0.6-0.4-0.7-0.8
						c-0.1-0.4-0.2-0.8-0.2-1.4c0-0.6,0.1-1.1,0.2-1.4c0.1-0.4,0.3-0.6,0.6-0.7C-556.1,2981-555.6,2980.9-554.8,2980.9z"/>
				</g>
				<g class="st2">
					<path class="st1" d="M-590.3,2981.8c0.2-0.4,0.6-0.6,1-0.7c0.4-0.1,1-0.2,1.6-0.2c0.6,0,1.2,0.1,1.5,0.2
						c0.4,0.1,0.7,0.2,0.9,0.4c0.2,0.2,0.4,0.4,0.4,0.7c0.1,0.4,0.2,1,0.2,1.8l0,10.3c0,3-0.9,5.7-2.8,8.2c-0.9,1.2-2.1,2.1-3.5,2.8
						c-1.4,0.7-3,1.1-4.7,1.1c-1.7,0-3.3-0.4-4.7-1.1c-1.4-0.7-2.6-1.7-3.5-2.9c-1.8-2.4-2.8-5.1-2.8-8.2l0-10.2
						c0-0.5,0-0.9,0.1-1.2c0-0.3,0.1-0.6,0.3-0.9c0.2-0.3,0.5-0.6,0.9-0.7c0.4-0.1,1-0.2,1.7-0.2c0.7,0,1.3,0.1,1.7,0.2
						c0.4,0.1,0.7,0.4,0.9,0.7c0.3,0.5,0.4,1.2,0.4,2.1v10.2c0,1.4,0.3,2.7,1,3.9c0.3,0.6,0.9,1.1,1.5,1.5c0.7,0.4,1.5,0.6,2.4,0.6
						c1.7,0,2.9-0.6,3.7-1.8c0.8-1.2,1.2-2.6,1.2-4.2l0-10.4C-590.7,2982.8-590.6,2982.2-590.3,2981.8z"/>
				</g>
			</g>
		</g>
	</g>
</g>
</svg>
