<?xml version="1.0" encoding="utf-8"?>
<!-- Generator: Adobe Illustrator 25.4.1, SVG Export Plug-In . SVG Version: 6.00 Build 0)  -->
<svg version="1.1" id="Layer_1" xmlns="http://www.w3.org/2000/svg" xmlns:xlink="http://www.w3.org/1999/xlink" x="0px" y="0px"
	 viewBox="0 0 491 487.2" style="enable-background:new 0 0 491 487.2;" xml:space="preserve">
<style type="text/css">
	.st0{fill:#F3F3F3;}
	.st1{fill:#FF8EBB;}
	.st2{enable-background:new    ;}
	.st3{fill:#ECECEC;}
	.st4{fill:#FF8EBB;stroke:#ECECEC;stroke-miterlimit:10;}
</style>
<g transform="matrix(1, 0, 0, 1, 0, 0)">
	<path id="Path_146-2" class="st0" d="M75.7,17.4h337.8c33.5,0,60.6,27.1,60.6,60.6v337.8c0,33.5-27.1,60.6-60.6,60.6H75.7
		c-33.5,0-60.6-27.1-60.6-60.6V78C15.1,44.6,42.2,17.4,75.7,17.4z"/>
</g>
<g id="Group_85" transform="translate(1690.422 894.289) rotate(90)">
	<g id="Group_29-14" transform="translate(-1225 -2941)">
		<g id="Group_20-17" transform="translate(1639 3297.5) rotate(180)">
			<path id="Intersection_4-27" class="st1" d="M1290.9-1030.6v110.2c0,33.5-27.1,60.6-60.6,60.6h-111.1
				c0-94.3,76.4-170.7,170.7-170.7H1290.9z"/>
		</g>
	</g>
	<g id="Group_84" transform="translate(-757.769 57.842) rotate(-45)">
		<g id="ICON_DARK_BLUE" transform="translate(581 627)">
			
				<ellipse id="Ellipse_33-11" transform="matrix(2.535182e-06 1 -1 2.535182e-06 -1268.625 1700.5709)" class="st1" cx="-1484.6" cy="216" rx="30.3" ry="29.4"/>
			<path id="Path_13" class="st1" d="M-1514.2,175.2l15.5,13.7l14.8-13.7l16.3,13.7l12.7-13.7v40.9h-59.2V175.2z"/>
		</g>
		
			<ellipse id="Ellipse_34-16" transform="matrix(2.535182e-06 1 -1 2.535182e-06 -72.5603 1758.5031)" class="st1" cx="-915.5" cy="843" rx="8.3" ry="6.4"/>
		
			<ellipse id="Ellipse_35-6" transform="matrix(2.535182e-06 1 -1 2.535182e-06 -48.6927 1734.6355)" class="st1" cx="-891.7" cy="843" rx="8.3" ry="6.4"/>
		
			<ellipse id="Ellipse_36" transform="matrix(2.535182e-06 1 -1 2.535182e-06 -52.3646 1738.3074)" class="st1" cx="-895.3" cy="843" rx="6.4" ry="4.6"/>
		
			<ellipse id="Ellipse_37-6" transform="matrix(2.535182e-06 1 -1 2.535182e-06 -76.2322 1762.175)" class="st1" cx="-919.2" cy="843" rx="6.4" ry="4.6"/>
		<path id="Path_14" class="st1" d="M-916.3,858.4c4.3-1,8.8-1.5,13.2-1.4c4.7,0,9.3,0.5,13.8,1.4c-1.4,1-2.6,2.2-3.7,3.4
			c-1.5,1.9,0.6,3.9,0.6,3.9s-12.4,2.3-18.8,0.4C-914.7,865.3-917,861.9-916.3,858.4z"/>
	</g>
</g>
<g id="Group_202" transform="translate(1334.421 1308.289) rotate(-90)">
	<g id="Group_29-15" transform="translate(-1225 -2941)">
		<g id="Group_20-18" transform="translate(1639 3297.5) rotate(180)">
			<path id="Intersection_4-28" class="st1" d="M-417.9,1505.1v110.2c0,33.5-27.1,60.6-60.6,60.6h-111.1
				c0-94.3,76.4-170.7,170.7-170.7H-417.9z"/>
		</g>
	</g>
	<g id="Group_84-2" transform="translate(-757.769 57.842) rotate(-45)">
		<g id="ICON_DARK_BLUE-2" transform="translate(581 627)">
			
				<ellipse id="Ellipse_33-12" transform="matrix(-2.535182e-06 -1 1 -2.535182e-06 1885.4642 1147.8805)" class="st1" cx="1516.7" cy="-368.8" rx="30.3" ry="29.4"/>
			<path id="Path_13-2" class="st1" d="M1487.1-409.5l15.5,13.7l14.8-13.7l16.3,13.7l12.7-13.7v40.9h-59.2V-409.5z"/>
		</g>
		
			<ellipse id="Ellipse_34-17" transform="matrix(-2.535182e-06 -1 1 -2.535182e-06 1827.5319 2343.9482)" class="st1" cx="2085.7" cy="258.2" rx="8.3" ry="6.4"/>
		
			<ellipse id="Ellipse_35-7" transform="matrix(-2.535182e-06 -1 1 -2.535182e-06 1851.3995 2367.8159)" class="st1" cx="2109.6" cy="258.2" rx="8.3" ry="6.4"/>
		
			<ellipse id="Ellipse_36-2" transform="matrix(-2.535182e-06 -1 1 -2.535182e-06 1847.7277 2364.1438)" class="st1" cx="2105.9" cy="258.2" rx="6.4" ry="4.6"/>
		
			<ellipse id="Ellipse_37-7" transform="matrix(-2.535182e-06 -1 1 -2.535182e-06 1823.86 2340.2764)" class="st1" cx="2082.1" cy="258.2" rx="6.4" ry="4.6"/>
		<path id="Path_14-2" class="st1" d="M2084.9,273.6c4.3-1,8.8-1.5,13.2-1.4c4.7,0,9.3,0.5,13.8,1.4c-1.4,1-2.6,2.2-3.7,3.4
			c-1.5,1.9,0.6,3.9,0.6,3.9s-12.4,2.3-18.8,0.4C2086.6,280.6,2084.3,277.2,2084.9,273.6z"/>
	</g>
</g>
<g id="Group_200" transform="translate(1305.421 923.289)">
	<g id="Group_29-16" transform="translate(-1225 -2941)">
		<g id="Group_20-19" transform="translate(1639 3297.5) rotate(180)">
			<path id="Intersection_4-29" class="st1" d="M1704.4,1091.6v110.2c0,33.5-27.1,60.6-60.6,60.6h-111.1
				c0-94.3,76.4-170.7,170.7-170.7H1704.4z"/>
		</g>
	</g>
	<g id="Group_201" transform="translate(1639.501 3297) rotate(180)">
		<g id="Group_20-20" transform="translate(1639 3297.5) rotate(180)">
			<path id="Intersection_4-30" class="st1" d="M-830.9-617.1V-507c0,33.5-27.1,60.6-60.6,60.6h-111.1
				c0-94.3,76.4-170.7,170.7-170.7H-830.9z"/>
		</g>
	</g>
	<g id="Group_84-3" transform="translate(-757.769 57.842) rotate(-45)">
		<g id="ICON_DARK_BLUE-3" transform="translate(581 627)">
			
				<ellipse id="Ellipse_33-13" transform="matrix(-1 2.535182e-06 -2.535182e-06 -1 -552.6954 -3154.0884)" class="st1" cx="-276.3" cy="-1577" rx="29.4" ry="30.3"/>
			<path id="Path_13-3" class="st1" d="M-305.9-1617.8l15.5,13.7l14.8-13.7l16.3,13.7l12.7-13.7v40.9h-59.2V-1617.8z"/>
		</g>
		
			<ellipse id="Ellipse_34-18" transform="matrix(-1 2.535182e-06 -2.535182e-06 -1 585.4387 -1900.09)" class="st1" cx="292.7" cy="-950" rx="6.4" ry="8.3"/>
		
			<ellipse id="Ellipse_35-8" transform="matrix(-1 2.535182e-06 -2.535182e-06 -1 633.174 -1900.09)" class="st1" cx="316.6" cy="-950" rx="6.4" ry="8.3"/>
		
			<ellipse id="Ellipse_36-3" transform="matrix(-1 2.535182e-06 -2.535182e-06 -1 625.8301 -1900.09)" class="st1" cx="312.9" cy="-950" rx="4.6" ry="6.4"/>
		
			<ellipse id="Ellipse_37-8" transform="matrix(-1 2.535182e-06 -2.535182e-06 -1 578.0948 -1900.09)" class="st1" cx="289" cy="-950" rx="4.6" ry="6.4"/>
		<path id="Path_14-3" class="st1" d="M291.9-934.6c4.3-1,8.8-1.5,13.2-1.4c4.7,0,9.3,0.5,13.8,1.4c-1.4,1-2.6,2.2-3.7,3.4
			c-1.5,1.9,0.6,3.9,0.6,3.9s-12.4,2.3-18.8,0.4C293.5-927.7,291.3-931.1,291.9-934.6z"/>
	</g>
</g>
<g id="Group_182-4" transform="translate(-3198.336 -10355.285) rotate(60)">
	<g id="Group_148-5" transform="translate(12224.423 1552.942)">
		<g id="Group_146-9" transform="translate(0 133.268)">
			<g id="Group_135-17" transform="translate(0 0)">
				<g class="st2">
					<path class="st1" d="M-1416.6,719.7c0-0.5,0-0.8,0-1.1c0-0.2,0.1-0.5,0.3-0.8c0.3-0.5,1.1-0.8,2.4-0.8c1,0,1.7,0.2,2.1,0.5
						c0.4,0.3,0.5,0.7,0.6,1.3c0,0.2,0,0.5,0,0.9l0,10.9c0,0.5,0,0.8,0,1.1c0,0.2-0.1,0.5-0.3,0.8c-0.3,0.5-1.1,0.8-2.4,0.8
						c-1.3,0-2.1-0.3-2.4-0.8c-0.1-0.3-0.2-0.6-0.3-0.8c0-0.2,0-0.6,0-1.1L-1416.6,719.7z M-1411.5,713.9c-0.2,0.3-0.4,0.5-0.8,0.6
						c-0.4,0.1-0.9,0.2-1.6,0.2c-0.7,0-1.2-0.1-1.6-0.2c-0.4-0.1-0.7-0.3-0.8-0.7c-0.2-0.3-0.3-0.6-0.3-0.8c0-0.2,0-0.6,0-1.1
						c0-0.5,0-0.8,0-1.1c0-0.2,0.1-0.5,0.3-0.8c0.3-0.6,1.1-0.8,2.4-0.8c1.3,0,2.1,0.3,2.4,0.8c0.2,0.3,0.3,0.6,0.3,0.8
						c0,0.2,0,0.6,0,1.1c0,0.5,0,0.8,0,1.1C-1411.2,713.4-1411.3,713.6-1411.5,713.9z"/>
				</g>
				<g class="st2">
					<path class="st1" d="M-1295.7,719.7c0-0.5,0-0.8,0-1.1c0-0.2,0.1-0.5,0.3-0.8c0.3-0.5,1.1-0.8,2.4-0.8c1,0,1.7,0.2,2.1,0.5
						c0.4,0.3,0.5,0.7,0.6,1.3c0,0.2,0,0.5,0,0.9l0,10.9c0,0.5,0,0.8,0,1.1c0,0.2-0.1,0.5-0.3,0.8c-0.3,0.5-1.1,0.8-2.4,0.8
						c-1.3,0-2.1-0.3-2.4-0.8c-0.1-0.3-0.2-0.6-0.3-0.8c0-0.2,0-0.6,0-1.1V719.7z M-1290.5,713.9c-0.2,0.3-0.4,0.5-0.8,0.6
						c-0.4,0.1-0.9,0.2-1.6,0.2c-0.7,0-1.2-0.1-1.6-0.2c-0.4-0.1-0.7-0.3-0.8-0.7c-0.2-0.3-0.2-0.6-0.3-0.8c0-0.2,0-0.6,0-1.1
						c0-0.5,0-0.8,0-1.1c0-0.2,0.1-0.5,0.3-0.8c0.3-0.6,1.1-0.8,2.4-0.8c1.3,0,2.1,0.3,2.4,0.8c0.2,0.3,0.3,0.6,0.3,0.8
						c0,0.2,0,0.6,0,1.1c0,0.5,0,0.8,0,1.1C-1290.3,713.4-1290.4,713.6-1290.5,713.9z"/>
				</g>
				<g class="st2">
					<path class="st1" d="M-1240.9,723.2c0.3,0.2,0.5,0.4,0.6,0.8s0.2,0.9,0.2,1.6c0,0.7-0.1,1.2-0.2,1.6c-0.1,0.4-0.3,0.7-0.7,0.8
						c-0.3,0.2-0.6,0.3-0.8,0.3c-0.2,0-0.6,0-1.1,0c-0.5,0-0.8,0-1.1,0c-0.2,0-0.5-0.1-0.8-0.3c-0.6-0.3-0.8-1.1-0.8-2.4
						c0-1.3,0.3-2.1,0.8-2.4c0.3-0.2,0.6-0.3,0.8-0.3c0.2,0,0.6,0,1.1,0c0.5,0,0.8,0,1.1,0C-1241.5,722.9-1241.2,723-1240.9,723.2z
						 M-1235.2,728.3c-0.5,0-0.8,0-1.1,0c-0.2,0-0.5-0.1-0.8-0.3c-0.5-0.3-0.8-1.1-0.8-2.4c0-1,0.2-1.7,0.5-2.1
						c0.3-0.4,0.7-0.5,1.3-0.6c0.2,0,0.5,0,0.9,0l10.9,0c0.5,0,0.8,0,1.1,0c0.2,0,0.5,0.1,0.8,0.3c0.5,0.3,0.8,1.1,0.8,2.4
						c0,1.3-0.3,2.1-0.8,2.4c-0.3,0.1-0.6,0.2-0.8,0.3c-0.2,0-0.6,0-1.1,0H-1235.2z"/>
				</g>
				<g class="st2">
					<path class="st1" d="M-1193.7,710.5c3.8,0,7.1,1.4,9.9,4.1c2.8,2.8,4.2,6.2,4.2,10.2s-1.3,7.5-4,10.4c-2.7,2.9-6,4.3-9.9,4.3
						c-3.9,0-7.2-1.4-10-4.2c-2.7-2.8-4.1-6.2-4.1-10.1c0-2.1,0.4-4.1,1.2-6c0.8-1.9,1.8-3.4,3.1-4.7c1.3-1.3,2.8-2.2,4.4-3
						C-1197.2,710.8-1195.5,710.5-1193.7,710.5z M-1200.8,725c0,2.3,0.7,4.1,2.2,5.6c1.5,1.4,3.1,2.1,5,2.1c1.8,0,3.5-0.7,4.9-2.1
						c1.5-1.4,2.2-3.3,2.2-5.6c0-2.3-0.7-4.2-2.2-5.6c-1.5-1.4-3.1-2.1-5-2.1c-1.8,0-3.5,0.7-4.9,2.1
						C-1200,720.9-1200.8,722.7-1200.8,725z"/>
				</g>
				<g class="st2">
					<path class="st1" d="M-1382,711.3c0.2-0.4,0.6-0.7,1-0.9c0.5-0.1,1-0.2,1.7-0.2c0.7,0,1.3,0.1,1.7,0.2c0.4,0.1,0.7,0.3,1,0.4
						c0.2,0.2,0.4,0.4,0.5,0.8c0.1,0.4,0.2,1,0.2,1.9l0,20.4c0,0.6,0,1-0.1,1.3c0,0.3-0.2,0.6-0.3,1c-0.3,0.7-1.3,1-2.9,1
						c-1,0-1.6-0.1-2-0.2c-0.4-0.1-0.7-0.4-0.9-0.7c-5.5-7.3-9.1-12.1-10.9-14.4l0,12.1c0,0.6,0,1-0.1,1.3c0,0.3-0.2,0.6-0.3,1
						c-0.3,0.7-1.3,1-2.9,1c-1.5,0-2.4-0.3-2.8-1c-0.2-0.4-0.3-0.7-0.3-1c0-0.3-0.1-0.7-0.1-1.3l0-20.5c0-0.9,0.1-1.6,0.3-2
						c0.2-0.4,0.6-0.7,1-0.9c0.5-0.1,1.1-0.2,1.8-0.2c0.7,0,1.3,0.1,1.7,0.2c0.4,0.1,0.7,0.3,0.9,0.5c0.1,0.1,0.4,0.4,0.8,1
						c5.2,7,8.6,11.7,10.4,13.9l0-12.4C-1382.4,712.4-1382.3,711.7-1382,711.3z"/>
				</g>
				<g class="st2">
					<path class="st1" d="M-1153,711.5c0.2-0.4,0.6-0.7,1-0.9c0.5-0.1,1-0.2,1.7-0.2c0.7,0,1.3,0.1,1.7,0.2c0.4,0.1,0.7,0.3,1,0.4
						c0.2,0.2,0.4,0.4,0.5,0.8c0.1,0.4,0.2,1,0.2,1.9l0,20.4c0,0.6,0,1-0.1,1.3c0,0.3-0.2,0.6-0.3,1c-0.3,0.7-1.3,1-2.9,1
						c-1,0-1.6-0.1-2-0.2c-0.4-0.1-0.7-0.4-0.9-0.7c-5.5-7.3-9.1-12.1-10.9-14.4l0,12.1c0,0.6,0,1-0.1,1.3c0,0.3-0.2,0.6-0.3,1
						c-0.3,0.7-1.3,1-2.9,1c-1.5,0-2.4-0.3-2.8-1c-0.2-0.4-0.3-0.7-0.3-1c0-0.3-0.1-0.7-0.1-1.3l0-20.5c0-0.9,0.1-1.6,0.3-2
						c0.2-0.4,0.6-0.7,1-0.9c0.5-0.1,1.1-0.2,1.8-0.2s1.3,0.1,1.7,0.2c0.4,0.1,0.7,0.3,0.9,0.5c0.1,0.1,0.4,0.4,0.8,1
						c5.2,7,8.6,11.7,10.4,13.9l0-12.4C-1153.3,712.6-1153.2,711.9-1153,711.5z"/>
				</g>
				<g class="st2">
					<path class="st1" d="M-1363.3,711.5l19.4,0c0.7,0,1.3,0.1,1.6,0.3c0.3,0.2,0.6,0.4,0.7,0.8c0.1,0.4,0.2,0.9,0.2,1.5
						c0,0.6-0.1,1.1-0.2,1.4c-0.1,0.4-0.3,0.6-0.6,0.8c-0.4,0.2-1,0.3-1.8,0.3h-6.7v17.5c0,0.5,0,0.9-0.1,1.2c0,0.3-0.1,0.6-0.3,0.9
						c-0.2,0.3-0.5,0.6-0.9,0.7c-0.4,0.1-1,0.2-1.7,0.2c-0.7,0-1.3-0.1-1.7-0.2c-0.4-0.1-0.7-0.4-0.9-0.7c-0.2-0.3-0.3-0.6-0.3-0.9
						c0-0.3-0.1-0.7-0.1-1.2l0-17.5l-6.7,0c-0.7,0-1.3-0.1-1.6-0.3c-0.3-0.2-0.6-0.4-0.7-0.8c-0.1-0.4-0.2-0.9-0.2-1.5
						c0-0.6,0.1-1.1,0.2-1.4c0.1-0.4,0.3-0.6,0.6-0.7C-1364.6,711.6-1364,711.5-1363.3,711.5z"/>
				</g>
				<g class="st2">
					<path class="st1" d="M-1276.9,711.5l19.4,0c0.7,0,1.3,0.1,1.6,0.3c0.3,0.2,0.6,0.4,0.7,0.8c0.1,0.4,0.2,0.9,0.2,1.5
						c0,0.6-0.1,1.1-0.2,1.4c-0.1,0.4-0.3,0.6-0.6,0.7c-0.4,0.2-1,0.3-1.8,0.3h-6.7v17.5c0,0.5,0,0.9-0.1,1.2s-0.1,0.6-0.3,0.9
						c-0.2,0.3-0.5,0.6-0.9,0.7c-0.4,0.1-1,0.2-1.7,0.2s-1.3-0.1-1.7-0.2c-0.4-0.1-0.7-0.4-0.9-0.7c-0.2-0.3-0.3-0.6-0.3-0.9
						c0-0.3-0.1-0.7-0.1-1.2l0-17.5l-6.7,0c-0.7,0-1.3-0.1-1.6-0.3c-0.3-0.2-0.6-0.4-0.7-0.8c-0.1-0.4-0.2-0.9-0.2-1.5
						c0-0.6,0.1-1.1,0.2-1.4c0.1-0.4,0.3-0.6,0.6-0.7C-1278.3,711.6-1277.7,711.5-1276.9,711.5z"/>
				</g>
				<g class="st2">
					<path class="st1" d="M-1313.4,712.5c0.2-0.4,0.6-0.6,1-0.8s1-0.2,1.7-0.2c0.7,0,1.2,0.1,1.6,0.2c0.4,0.1,0.7,0.3,0.9,0.4
						c0.2,0.2,0.4,0.4,0.5,0.7c0.1,0.4,0.2,1,0.2,1.8l0,10.5c0,3.1-1,5.9-2.9,8.4c-0.9,1.2-2.1,2.1-3.6,2.9
						c-1.5,0.7-3.1,1.1-4.9,1.1c-1.8,0-3.4-0.4-4.8-1.1c-1.5-0.7-2.6-1.7-3.5-2.9c-1.9-2.5-2.8-5.3-2.8-8.4l0-10.5
						c0-0.6,0-1,0.1-1.2c0-0.3,0.1-0.6,0.3-0.9c0.2-0.3,0.5-0.6,0.9-0.7c0.4-0.1,1-0.2,1.8-0.2c0.7,0,1.3,0.1,1.8,0.2
						c0.4,0.1,0.7,0.4,0.9,0.7c0.3,0.5,0.4,1.3,0.4,2.2l0,10.5c0,1.4,0.3,2.8,1,4c0.3,0.7,0.9,1.2,1.6,1.6c0.7,0.4,1.5,0.6,2.5,0.6
						c1.7,0,3-0.6,3.8-1.9c0.8-1.3,1.3-2.7,1.3-4.4l0-10.7C-1313.7,713.5-1313.6,712.8-1313.4,712.5z"/>
				</g>
			</g>
		</g>
		<g id="Group_147-9" transform="translate(90.063 148.182) rotate(-90)">
			<g id="Group_135-18" transform="translate(0 0)">
				<g class="st2">
					<path class="st1" d="M-708.3-1330.8c-0.2,0.3-0.4,0.5-0.8,0.6c-0.4,0.1-0.9,0.2-1.6,0.2c-0.7,0-1.2-0.1-1.6-0.2
						c-0.4-0.1-0.7-0.3-0.8-0.7c-0.2-0.3-0.2-0.6-0.3-0.8c0-0.2,0-0.6,0-1.1c0-0.5,0-0.8,0-1.1c0-0.2,0.1-0.5,0.3-0.8
						c0.3-0.6,1.1-0.8,2.4-0.8c1.3,0,2.1,0.3,2.4,0.8c0.2,0.3,0.3,0.6,0.3,0.8c0,0.2,0,0.6,0,1.1c0,0.5,0,0.8,0,1.1
						C-708-1331.4-708.1-1331.1-708.3-1330.8z M-713.4-1325c0-0.5,0-0.8,0-1.1c0-0.2,0.1-0.5,0.3-0.8c0.3-0.5,1.1-0.8,2.4-0.8
						c1,0,1.7,0.2,2.1,0.5c0.4,0.3,0.5,0.7,0.6,1.3c0,0.2,0,0.5,0,0.9l0,10.9c0,0.5,0,0.8,0,1.1c0,0.2-0.1,0.5-0.3,0.8
						c-0.3,0.5-1.1,0.8-2.4,0.8c-1.3,0-2.1-0.3-2.4-0.8c-0.1-0.3-0.2-0.6-0.3-0.8c0-0.2,0-0.6,0-1.1L-713.4-1325z"/>
				</g>
				<g class="st2">
					<path class="st1" d="M-587.4-1330.8c-0.2,0.3-0.4,0.5-0.8,0.6c-0.4,0.1-0.9,0.2-1.6,0.2c-0.7,0-1.2-0.1-1.6-0.2
						c-0.4-0.1-0.7-0.3-0.8-0.7c-0.2-0.3-0.3-0.6-0.3-0.8c0-0.2,0-0.6,0-1.1c0-0.5,0-0.8,0-1.1c0-0.2,0.1-0.5,0.3-0.8
						c0.3-0.6,1.1-0.8,2.4-0.8c1.3,0,2.1,0.3,2.4,0.8c0.2,0.3,0.3,0.6,0.3,0.8c0,0.2,0,0.6,0,1.1s0,0.8,0,1.1
						C-587.1-1331.4-587.2-1331.1-587.4-1330.8z M-592.5-1325c0-0.5,0-0.8,0-1.1c0-0.2,0.1-0.5,0.3-0.8c0.3-0.5,1.1-0.8,2.4-0.8
						c1,0,1.7,0.2,2.1,0.5c0.4,0.3,0.5,0.7,0.6,1.3c0,0.2,0,0.5,0,0.9l0,10.9c0,0.5,0,0.8,0,1.1c0,0.2-0.1,0.5-0.3,0.8
						c-0.3,0.5-1.1,0.8-2.4,0.8c-1.3,0-2.1-0.3-2.4-0.8c-0.1-0.3-0.2-0.6-0.3-0.8c0-0.2,0-0.6,0-1.1V-1325z"/>
				</g>
				<g class="st2">
					<path class="st1" d="M-537.8-1321.6c0.3,0.2,0.5,0.4,0.6,0.8c0.1,0.4,0.2,0.9,0.2,1.6c0,0.7-0.1,1.2-0.2,1.6
						c-0.1,0.4-0.3,0.7-0.7,0.8c-0.3,0.2-0.6,0.3-0.8,0.3c-0.2,0-0.6,0-1.1,0c-0.5,0-0.8,0-1.1,0c-0.2,0-0.5-0.1-0.8-0.3
						c-0.6-0.3-0.8-1.1-0.8-2.4c0-1.3,0.3-2.1,0.8-2.4c0.3-0.2,0.6-0.3,0.8-0.3s0.6,0,1.1,0c0.5,0,0.8,0,1.1,0
						C-538.4-1321.8-538.1-1321.8-537.8-1321.6z M-532-1316.5c-0.5,0-0.8,0-1.1,0c-0.2,0-0.5-0.1-0.8-0.3c-0.5-0.3-0.8-1.1-0.8-2.4
						c0-1,0.2-1.7,0.5-2.1c0.3-0.4,0.7-0.5,1.3-0.6c0.2,0,0.5,0,0.9,0l10.9,0c0.5,0,0.8,0,1.1,0c0.2,0,0.5,0.1,0.8,0.3
						c0.5,0.3,0.8,1.1,0.8,2.4c0,1.3-0.3,2.1-0.8,2.4c-0.3,0.1-0.6,0.2-0.8,0.3c-0.2,0-0.6,0-1.1,0L-532-1316.5z"/>
				</g>
				<g class="st2">
					<path class="st1" d="M-492.1-1333.4c3.4,0,6.4,1.2,9,3.7c2.5,2.5,3.8,5.6,3.8,9.3c0,3.7-1.2,6.8-3.6,9.4
						c-2.4,2.6-5.4,3.9-8.9,3.9c-3.5,0-6.5-1.3-9-3.8c-2.5-2.6-3.7-5.6-3.7-9.1c0-1.9,0.3-3.7,1-5.4c0.7-1.7,1.6-3.1,2.8-4.2
						c1.2-1.1,2.5-2,4-2.7S-493.7-1333.4-492.1-1333.4z M-498.4-1320.3c0,2.1,0.7,3.8,2,5c1.3,1.3,2.8,1.9,4.5,1.9
						c1.7,0,3.1-0.6,4.5-1.9c1.3-1.3,2-2.9,2-5.1c0-2.1-0.7-3.8-2-5.1c-1.3-1.3-2.8-1.9-4.5-1.9c-1.7,0-3.1,0.6-4.5,1.9
						C-497.8-1324-498.4-1322.3-498.4-1320.3z"/>
				</g>
				<g class="st2">
					<path class="st1" d="M-678.9-1333.5c0.2-0.4,0.6-0.7,1-0.9c0.5-0.1,1-0.2,1.7-0.2c0.7,0,1.3,0.1,1.7,0.2c0.4,0.1,0.7,0.3,1,0.4
						c0.2,0.2,0.4,0.4,0.5,0.8c0.1,0.4,0.2,1,0.2,1.9l0,20.4c0,0.6,0,1-0.1,1.3c0,0.3-0.2,0.6-0.3,1c-0.3,0.7-1.3,1-2.9,1
						c-1,0-1.6-0.1-2-0.2c-0.4-0.1-0.7-0.4-0.9-0.7c-5.5-7.3-9.1-12.1-10.9-14.4l0,12.1c0,0.6,0,1-0.1,1.3c0,0.3-0.2,0.6-0.3,1
						c-0.3,0.7-1.3,1-2.9,1c-1.5,0-2.4-0.3-2.8-1c-0.2-0.4-0.3-0.7-0.3-1c0-0.3-0.1-0.7-0.1-1.3v-20.5c0-0.9,0.1-1.6,0.3-2
						c0.2-0.4,0.6-0.7,1-0.9c0.5-0.1,1.1-0.2,1.8-0.2s1.3,0.1,1.7,0.2c0.4,0.1,0.7,0.3,0.9,0.5c0.1,0.1,0.4,0.4,0.8,1
						c5.2,7,8.6,11.7,10.4,13.9l0-12.4C-679.2-1332.3-679.1-1333-678.9-1333.5z"/>
				</g>
				<g class="st2">
					<path class="st1" d="M-450.4-1333.3c0.2-0.4,0.6-0.7,1-0.9c0.5-0.1,1-0.2,1.7-0.2c0.7,0,1.3,0.1,1.7,0.2c0.4,0.1,0.7,0.3,1,0.4
						c0.2,0.2,0.4,0.4,0.5,0.8c0.1,0.4,0.2,1,0.2,1.9l0,20.4c0,0.6,0,1-0.1,1.3c0,0.3-0.2,0.6-0.3,1c-0.3,0.7-1.3,1-2.9,1
						c-1,0-1.6-0.1-2-0.2c-0.4-0.1-0.7-0.4-0.9-0.7c-5.5-7.3-9.1-12.1-10.9-14.4l0,12.1c0,0.6,0,1-0.1,1.3c0,0.3-0.2,0.6-0.3,1
						c-0.3,0.7-1.3,1-2.9,1c-1.5,0-2.4-0.3-2.8-1c-0.2-0.4-0.3-0.7-0.3-1c0-0.3-0.1-0.7-0.1-1.3l0-20.5c0-0.9,0.1-1.6,0.3-2
						c0.2-0.4,0.6-0.7,1-0.9c0.5-0.1,1.1-0.2,1.8-0.2c0.7,0,1.3,0.1,1.7,0.2c0.4,0.1,0.7,0.3,0.9,0.5c0.1,0.1,0.4,0.4,0.8,1
						c5.2,7,8.6,11.7,10.4,13.9l0-12.4C-450.7-1332.2-450.6-1332.9-450.4-1333.3z"/>
				</g>
				<g class="st2">
					<path class="st1" d="M-660.1-1333.3l19.4,0c0.7,0,1.3,0.1,1.6,0.3s0.6,0.4,0.7,0.8c0.1,0.4,0.2,0.9,0.2,1.5
						c0,0.6-0.1,1.1-0.2,1.4c-0.1,0.4-0.3,0.6-0.6,0.8c-0.4,0.2-1,0.3-1.8,0.3l-6.7,0l0,17.5c0,0.5,0,0.9-0.1,1.2
						c0,0.3-0.1,0.6-0.3,0.9c-0.2,0.3-0.5,0.6-0.9,0.7c-0.4,0.1-1,0.2-1.7,0.2c-0.7,0-1.3-0.1-1.7-0.2c-0.4-0.1-0.7-0.4-0.9-0.7
						c-0.2-0.3-0.3-0.6-0.3-0.9c0-0.3-0.1-0.7-0.1-1.2l0-17.5l-6.7,0c-0.7,0-1.3-0.1-1.6-0.3c-0.3-0.2-0.6-0.4-0.7-0.8
						c-0.1-0.4-0.2-0.9-0.2-1.5c0-0.6,0.1-1.1,0.2-1.4c0.1-0.4,0.3-0.6,0.6-0.8C-661.5-1333.2-660.9-1333.3-660.1-1333.3z"/>
				</g>
				<g class="st2">
					<path class="st1" d="M-573.8-1333.3h19.4c0.7,0,1.3,0.1,1.6,0.3c0.3,0.2,0.6,0.4,0.7,0.8c0.1,0.4,0.2,0.9,0.2,1.5
						c0,0.6-0.1,1.1-0.2,1.4s-0.3,0.6-0.6,0.7c-0.4,0.2-1,0.3-1.8,0.3l-6.7,0l0,17.5c0,0.5,0,0.9-0.1,1.2c0,0.3-0.1,0.6-0.3,0.9
						c-0.2,0.3-0.5,0.6-0.9,0.7c-0.4,0.1-1,0.2-1.7,0.2c-0.7,0-1.3-0.1-1.7-0.2c-0.4-0.1-0.7-0.4-0.9-0.7c-0.2-0.3-0.3-0.6-0.3-0.9
						c0-0.3-0.1-0.7-0.1-1.2l0-17.5l-6.7,0c-0.7,0-1.3-0.1-1.6-0.3c-0.3-0.2-0.6-0.4-0.7-0.8c-0.1-0.4-0.2-0.9-0.2-1.5
						c0-0.6,0.1-1.1,0.2-1.4c0.1-0.4,0.3-0.6,0.6-0.7C-575.1-1333.2-574.5-1333.3-573.8-1333.3z"/>
				</g>
				<g class="st2">
					<path class="st1" d="M-610.2-1332.3c0.2-0.4,0.6-0.6,1-0.8c0.4-0.1,1-0.2,1.7-0.2c0.7,0,1.2,0.1,1.6,0.2
						c0.4,0.1,0.7,0.3,0.9,0.4c0.2,0.2,0.4,0.4,0.5,0.7c0.1,0.4,0.2,1,0.2,1.8l0,10.5c0,3.1-1,5.9-2.9,8.4c-0.9,1.2-2.1,2.1-3.6,2.9
						c-1.5,0.7-3.1,1.1-4.9,1.1c-1.8,0-3.4-0.4-4.8-1.1c-1.5-0.7-2.6-1.7-3.5-2.9c-1.9-2.5-2.8-5.3-2.8-8.4l0-10.5
						c0-0.6,0-1,0.1-1.2c0-0.3,0.1-0.6,0.3-0.9c0.2-0.3,0.5-0.6,0.9-0.7c0.4-0.1,1-0.2,1.8-0.2c0.7,0,1.3,0.1,1.8,0.2
						c0.4,0.1,0.7,0.4,0.9,0.7c0.3,0.5,0.4,1.3,0.4,2.2l0,10.5c0,1.4,0.3,2.8,1,4c0.3,0.7,0.9,1.2,1.6,1.6c0.7,0.4,1.5,0.6,2.5,0.6
						c1.7,0,3-0.6,3.8-1.9c0.8-1.3,1.3-2.7,1.3-4.4l0-10.7C-610.6-1331.3-610.5-1331.9-610.2-1332.3z"/>
				</g>
			</g>
		</g>
	</g>
	<g id="Group_149-5" transform="translate(12329.402 1744.362) rotate(180)">
		<g id="Group_146-10" transform="translate(0 133.268)">
			<g id="Group_135-19">
				<g class="st2">
					<path class="st1" d="M1336.5-627.7c-0.2,0.3-0.4,0.5-0.8,0.6c-0.4,0.1-0.9,0.2-1.6,0.2c-0.7,0-1.2-0.1-1.6-0.2
						c-0.4-0.1-0.7-0.3-0.8-0.7c-0.2-0.3-0.3-0.6-0.3-0.8c0-0.2,0-0.6,0-1.1c0-0.5,0-0.8,0-1.1c0-0.2,0.1-0.5,0.3-0.8
						c0.3-0.6,1.1-0.8,2.4-0.8c1.3,0,2.1,0.3,2.4,0.8c0.2,0.3,0.3,0.6,0.3,0.8c0,0.2,0,0.6,0,1.1c0,0.5,0,0.8,0,1.1
						C1336.7-628.3,1336.6-628,1336.5-627.7z M1331.3-621.9c0-0.5,0-0.8,0-1.1c0-0.2,0.1-0.5,0.3-0.8c0.3-0.5,1.1-0.8,2.4-0.8
						c1,0,1.7,0.2,2.1,0.5c0.4,0.3,0.5,0.7,0.6,1.3c0,0.2,0,0.5,0,0.9l0,10.9c0,0.5,0,0.8,0,1.1s-0.1,0.5-0.3,0.8
						c-0.3,0.5-1.1,0.8-2.4,0.8c-1.3,0-2.1-0.3-2.4-0.8c-0.1-0.3-0.2-0.6-0.3-0.8c0-0.2,0-0.6,0-1.1L1331.3-621.9z"/>
				</g>
				<g class="st2">
					<path class="st1" d="M1457.4-627.7c-0.2,0.3-0.4,0.5-0.8,0.6c-0.4,0.1-0.9,0.2-1.6,0.2s-1.2-0.1-1.6-0.2
						c-0.4-0.1-0.7-0.3-0.8-0.7c-0.2-0.3-0.3-0.6-0.3-0.8c0-0.2,0-0.6,0-1.1c0-0.5,0-0.8,0-1.1c0-0.2,0.1-0.5,0.3-0.8
						c0.3-0.6,1.1-0.8,2.4-0.8c1.3,0,2.1,0.3,2.4,0.8c0.2,0.3,0.3,0.6,0.3,0.8c0,0.2,0,0.6,0,1.1c0,0.5,0,0.8,0,1.1
						C1457.6-628.3,1457.5-628,1457.4-627.7z M1452.2-621.9c0-0.5,0-0.8,0-1.1c0-0.2,0.1-0.5,0.3-0.8c0.3-0.5,1.1-0.8,2.4-0.8
						c1,0,1.7,0.2,2.1,0.5c0.4,0.3,0.5,0.7,0.6,1.3c0,0.2,0,0.5,0,0.9l0,10.9c0,0.5,0,0.8,0,1.1c0,0.2-0.1,0.5-0.3,0.8
						c-0.3,0.5-1.1,0.8-2.4,0.8c-1.3,0-2.1-0.3-2.4-0.8c-0.1-0.3-0.2-0.6-0.3-0.8c0-0.2,0-0.6,0-1.1L1452.2-621.9z"/>
				</g>
				<g class="st2">
					<path class="st1" d="M1512.8-613.3c-0.5,0-0.8,0-1.1,0c-0.2,0-0.5-0.1-0.8-0.3c-0.5-0.3-0.8-1.1-0.8-2.4c0-1,0.2-1.7,0.5-2.1
						c0.3-0.4,0.7-0.5,1.3-0.6c0.2,0,0.5,0,0.9,0l10.9,0c0.5,0,0.8,0,1.1,0c0.2,0,0.5,0.1,0.8,0.3c0.5,0.3,0.8,1.1,0.8,2.4
						c0,1.3-0.3,2.1-0.8,2.4c-0.3,0.1-0.6,0.2-0.8,0.3c-0.2,0-0.6,0-1.1,0L1512.8-613.3z M1507-618.5c0.3,0.2,0.5,0.4,0.6,0.8
						c0.1,0.4,0.2,0.9,0.2,1.6c0,0.7-0.1,1.2-0.2,1.6c-0.1,0.4-0.3,0.7-0.7,0.8c-0.3,0.2-0.6,0.2-0.8,0.3c-0.2,0-0.6,0-1.1,0
						c-0.5,0-0.8,0-1.1,0c-0.2,0-0.5-0.1-0.8-0.3c-0.6-0.3-0.8-1.1-0.8-2.4c0-1.3,0.3-2.1,0.8-2.4c0.3-0.2,0.6-0.3,0.8-0.3
						c0.2,0,0.6,0,1.1,0c0.5,0,0.8,0,1.1,0C1506.4-618.7,1506.7-618.6,1507-618.5z"/>
				</g>
				<g class="st2">
					<path class="st1" d="M1552.7-630.3c3.4,0,6.4,1.2,9,3.7c2.5,2.5,3.8,5.6,3.8,9.3c0,3.7-1.2,6.8-3.6,9.4
						c-2.4,2.6-5.4,3.9-8.9,3.9s-6.5-1.3-9-3.8c-2.5-2.6-3.7-5.6-3.7-9.1c0-1.9,0.3-3.7,1-5.4c0.7-1.7,1.6-3.1,2.8-4.2
						c1.2-1.1,2.5-2,4-2.7C1549.5-630,1551-630.3,1552.7-630.3z M1546.3-617.1c0,2.1,0.7,3.8,2,5c1.3,1.3,2.8,1.9,4.5,1.9
						c1.7,0,3.1-0.6,4.5-1.9c1.3-1.3,2-2.9,2-5.1c0-2.1-0.7-3.8-2-5.1c-1.3-1.3-2.8-1.9-4.5-1.9c-1.7,0-3.1,0.6-4.5,1.9
						C1547-620.9,1546.3-619.2,1546.3-617.1z"/>
				</g>
				<g class="st2">
					<path class="st1" d="M1365.9-630.3c0.2-0.4,0.6-0.7,1-0.9c0.5-0.1,1-0.2,1.7-0.2c0.7,0,1.3,0.1,1.7,0.2c0.4,0.1,0.7,0.3,1,0.4
						c0.2,0.2,0.4,0.4,0.5,0.8c0.1,0.4,0.2,1,0.2,1.9l0,20.4c0,0.6,0,1-0.1,1.3c0,0.3-0.2,0.6-0.3,1c-0.3,0.7-1.3,1-2.9,1
						c-1,0-1.6-0.1-2-0.2c-0.4-0.1-0.7-0.4-0.9-0.7c-5.5-7.3-9.1-12.1-10.9-14.4l0,12.1c0,0.6,0,1-0.1,1.3c0,0.3-0.2,0.6-0.3,1
						c-0.3,0.7-1.3,1-2.9,1c-1.5,0-2.4-0.3-2.8-1c-0.2-0.4-0.3-0.7-0.3-1c0-0.3-0.1-0.7-0.1-1.3l0-20.5c0-0.9,0.1-1.6,0.3-2
						c0.2-0.4,0.6-0.7,1-0.9c0.5-0.1,1.1-0.2,1.8-0.2c0.7,0,1.3,0.1,1.7,0.2c0.4,0.1,0.7,0.3,0.9,0.5c0.1,0.1,0.4,0.4,0.8,1
						c5.2,7,8.6,11.7,10.4,13.9l0-12.4C1365.5-629.2,1365.6-629.9,1365.9-630.3z"/>
				</g>
				<g class="st2">
					<path class="st1" d="M1594.4-630.2c0.2-0.4,0.6-0.7,1-0.9c0.5-0.1,1-0.2,1.7-0.2c0.7,0,1.3,0.1,1.7,0.2c0.4,0.1,0.7,0.3,1,0.4
						c0.2,0.2,0.4,0.4,0.5,0.8c0.1,0.4,0.2,1,0.2,1.9v20.4c0,0.6,0,1-0.1,1.3c0,0.3-0.2,0.6-0.3,1c-0.3,0.7-1.3,1-2.9,1
						c-1,0-1.6-0.1-2-0.2c-0.4-0.1-0.7-0.4-0.9-0.7c-5.5-7.3-9.1-12.1-10.9-14.4l0,12.1c0,0.6,0,1-0.1,1.3c0,0.3-0.2,0.6-0.3,1
						c-0.3,0.7-1.3,1-2.9,1c-1.5,0-2.4-0.3-2.8-1c-0.2-0.4-0.3-0.7-0.3-1c0-0.3-0.1-0.7-0.1-1.3v-20.5c0-0.9,0.1-1.6,0.3-2
						c0.2-0.4,0.6-0.7,1-0.9c0.5-0.1,1.1-0.2,1.8-0.2c0.7,0,1.3,0.1,1.7,0.2c0.4,0.1,0.7,0.3,0.9,0.5c0.1,0.1,0.4,0.4,0.8,1
						c5.2,7,8.6,11.7,10.4,13.9l0-12.4C1594-629.1,1594.2-629.8,1594.4-630.2z"/>
				</g>
				<g class="st2">
					<path class="st1" d="M1384.7-630.1l19.4,0c0.7,0,1.3,0.1,1.6,0.3c0.3,0.2,0.6,0.4,0.7,0.8c0.1,0.4,0.2,0.9,0.2,1.5
						c0,0.6-0.1,1.1-0.2,1.4c-0.1,0.4-0.3,0.6-0.6,0.7c-0.4,0.2-1,0.3-1.8,0.3l-6.7,0l0,17.5c0,0.5,0,0.9-0.1,1.2
						c0,0.3-0.1,0.6-0.3,0.9c-0.2,0.3-0.5,0.6-0.9,0.7c-0.4,0.1-1,0.2-1.7,0.2c-0.7,0-1.3-0.1-1.7-0.2c-0.4-0.1-0.7-0.4-0.9-0.7
						c-0.2-0.3-0.3-0.6-0.3-0.9c0-0.3-0.1-0.7-0.1-1.2l0-17.5l-6.7,0c-0.7,0-1.3-0.1-1.6-0.3c-0.3-0.2-0.6-0.4-0.7-0.8
						c-0.1-0.4-0.2-0.9-0.2-1.5c0-0.6,0.1-1.1,0.2-1.4c0.1-0.4,0.3-0.6,0.6-0.7C1383.3-630,1383.9-630.1,1384.7-630.1z"/>
				</g>
				<g class="st2">
					<path class="st1" d="M1471-630.1l19.4,0c0.7,0,1.3,0.1,1.6,0.3c0.3,0.2,0.6,0.4,0.7,0.8c0.1,0.4,0.2,0.9,0.2,1.5
						c0,0.6-0.1,1.1-0.2,1.4c-0.1,0.4-0.3,0.6-0.6,0.7c-0.4,0.2-1,0.3-1.8,0.3h-6.7l0,17.5c0,0.5,0,0.9-0.1,1.2
						c0,0.3-0.1,0.6-0.3,0.9c-0.2,0.3-0.5,0.6-0.9,0.7c-0.4,0.1-1,0.2-1.7,0.2c-0.7,0-1.3-0.1-1.7-0.2c-0.4-0.1-0.7-0.4-0.9-0.7
						c-0.2-0.3-0.3-0.6-0.3-0.9c0-0.3-0.1-0.7-0.1-1.2l0-17.5l-6.7,0c-0.7,0-1.3-0.1-1.6-0.3c-0.3-0.2-0.6-0.4-0.7-0.8
						s-0.2-0.9-0.2-1.5s0.1-1.1,0.2-1.4c0.1-0.4,0.3-0.6,0.6-0.8C1469.6-630,1470.2-630.1,1471-630.1z"/>
				</g>
				<g class="st2">
					<path class="st1" d="M1434.5-629.2c0.2-0.4,0.6-0.6,1-0.8c0.4-0.1,1-0.2,1.7-0.2c0.7,0,1.2,0.1,1.6,0.2
						c0.4,0.1,0.7,0.3,0.9,0.4c0.2,0.2,0.4,0.4,0.5,0.7c0.1,0.4,0.2,1,0.2,1.8l0,10.5c0,3.1-1,5.9-2.9,8.4c-0.9,1.2-2.1,2.1-3.6,2.9
						c-1.5,0.7-3.1,1.1-4.9,1.1c-1.8,0-3.4-0.4-4.8-1.1c-1.5-0.7-2.6-1.7-3.5-2.9c-1.9-2.5-2.8-5.3-2.8-8.4l0-10.5
						c0-0.6,0-1,0.1-1.2c0-0.3,0.1-0.6,0.3-0.9c0.2-0.3,0.5-0.6,0.9-0.7c0.4-0.1,1-0.2,1.8-0.2c0.7,0,1.3,0.1,1.8,0.2
						c0.4,0.1,0.7,0.4,0.9,0.7c0.3,0.5,0.4,1.3,0.4,2.2l0,10.5c0,1.4,0.3,2.8,1,4c0.3,0.7,0.9,1.2,1.6,1.6c0.7,0.4,1.5,0.6,2.5,0.6
						c1.7,0,3-0.6,3.8-1.9c0.8-1.3,1.3-2.7,1.3-4.4l0-10.7C1434.2-628.2,1434.3-628.8,1434.5-629.2z"/>
				</g>
			</g>
		</g>
		<g id="Group_147-10" transform="translate(90.063 148.182) rotate(-90)">
			<g id="Group_135-20" transform="translate(0 0)">
				<g class="st2">
					<path class="st1" d="M628.2,1422.9c0-0.5,0-0.8,0-1.1c0-0.2,0.1-0.5,0.3-0.8c0.3-0.5,1.1-0.8,2.4-0.8c1,0,1.7,0.2,2.1,0.5
						c0.4,0.3,0.5,0.7,0.6,1.3c0,0.2,0,0.5,0,0.9l0,10.9c0,0.5,0,0.8,0,1.1c0,0.2-0.1,0.5-0.3,0.8c-0.3,0.5-1.1,0.8-2.4,0.8
						c-1.3,0-2.1-0.3-2.4-0.8c-0.1-0.3-0.2-0.6-0.3-0.8c0-0.2,0-0.6,0-1.1V1422.9z M633.3,1417.1c-0.2,0.3-0.4,0.5-0.8,0.6
						c-0.4,0.1-0.9,0.2-1.6,0.2c-0.7,0-1.2-0.1-1.6-0.2c-0.4-0.1-0.7-0.3-0.8-0.7c-0.2-0.3-0.3-0.6-0.3-0.8c0-0.2,0-0.6,0-1.1
						c0-0.5,0-0.8,0-1.1c0-0.2,0.1-0.5,0.3-0.8c0.3-0.6,1.1-0.8,2.4-0.8c1.3,0,2.1,0.3,2.4,0.8c0.2,0.3,0.3,0.6,0.3,0.8
						c0,0.2,0,0.6,0,1.1c0,0.5,0,0.8,0,1.1C633.6,1416.5,633.5,1416.8,633.3,1417.1z"/>
				</g>
				<g class="st2">
					<path class="st1" d="M749.1,1422.9c0-0.5,0-0.8,0-1.1c0-0.2,0.1-0.5,0.3-0.8c0.3-0.5,1.1-0.8,2.4-0.8c1,0,1.7,0.2,2.1,0.5
						c0.4,0.3,0.5,0.7,0.6,1.3c0,0.2,0,0.5,0,0.9l0,10.9c0,0.5,0,0.8,0,1.1c0,0.2-0.1,0.5-0.3,0.8c-0.3,0.5-1.1,0.8-2.4,0.8
						c-1.3,0-2.1-0.3-2.4-0.8c-0.1-0.3-0.2-0.6-0.3-0.8c0-0.2,0-0.6,0-1.1L749.1,1422.9z M754.2,1417.1c-0.2,0.3-0.4,0.5-0.8,0.6
						c-0.4,0.1-0.9,0.2-1.6,0.2c-0.7,0-1.2-0.1-1.6-0.2c-0.4-0.1-0.7-0.3-0.8-0.7c-0.2-0.3-0.2-0.6-0.3-0.8c0-0.2,0-0.6,0-1.1
						c0-0.5,0-0.8,0-1.1c0-0.2,0.1-0.5,0.3-0.8c0.3-0.6,1.1-0.8,2.4-0.8c1.3,0,2.1,0.3,2.4,0.8c0.2,0.3,0.3,0.6,0.3,0.8
						c0,0.2,0,0.6,0,1.1c0,0.5,0,0.8,0,1.1C754.5,1416.5,754.4,1416.8,754.2,1417.1z"/>
				</g>
				<g class="st2">
					<path class="st1" d="M809.6,1431.4c-0.5,0-0.8,0-1.1,0c-0.2,0-0.5-0.1-0.8-0.3c-0.5-0.3-0.8-1.1-0.8-2.4c0-1,0.2-1.7,0.5-2.1
						c0.3-0.4,0.7-0.5,1.3-0.6c0.2,0,0.5,0,0.9,0l10.9,0c0.5,0,0.8,0,1.1,0c0.2,0,0.5,0.1,0.8,0.3c0.5,0.3,0.8,1.1,0.8,2.4
						c0,1.3-0.3,2.1-0.8,2.4c-0.3,0.1-0.6,0.2-0.8,0.3c-0.2,0-0.6,0-1.1,0L809.6,1431.4z M803.8,1426.3c0.3,0.2,0.5,0.4,0.6,0.8
						c0.1,0.4,0.2,0.9,0.2,1.6c0,0.7-0.1,1.2-0.2,1.6c-0.1,0.4-0.3,0.7-0.7,0.8c-0.3,0.2-0.6,0.2-0.8,0.3c-0.2,0-0.6,0-1.1,0
						c-0.5,0-0.8,0-1.1,0c-0.2,0-0.5-0.1-0.8-0.3c-0.6-0.3-0.8-1.1-0.8-2.4c0-1.3,0.3-2.1,0.8-2.4c0.3-0.2,0.6-0.3,0.8-0.3
						c0.2,0,0.6,0,1.1,0c0.5,0,0.8,0,1.1,0C803.3,1426.1,803.5,1426.2,803.8,1426.3z"/>
				</g>
				<g class="st2">
					<path class="st1" d="M849.5,1414.5c3.4,0,6.4,1.2,9,3.7c2.5,2.5,3.8,5.6,3.8,9.3c0,3.7-1.2,6.8-3.6,9.4
						c-2.4,2.6-5.4,3.9-8.9,3.9c-3.5,0-6.5-1.3-9-3.8c-2.5-2.6-3.7-5.6-3.7-9.1c0-1.9,0.3-3.7,1-5.4c0.7-1.7,1.6-3.1,2.8-4.2
						c1.2-1.1,2.5-2,4-2.7C846.4,1414.8,847.9,1414.5,849.5,1414.5z M843.2,1427.6c0,2.1,0.7,3.8,2,5c1.3,1.3,2.8,1.9,4.5,1.9
						c1.7,0,3.1-0.6,4.5-1.9c1.3-1.3,2-2.9,2-5.1c0-2.1-0.7-3.8-2-5.1c-1.3-1.3-2.8-1.9-4.5-1.9c-1.7,0-3.1,0.6-4.5,1.9
						C843.8,1423.9,843.2,1425.6,843.2,1427.6z"/>
				</g>
				<g class="st2">
					<path class="st1" d="M662.7,1414.4c0.2-0.4,0.6-0.7,1-0.9c0.5-0.1,1-0.2,1.7-0.2c0.7,0,1.3,0.1,1.7,0.2c0.4,0.1,0.7,0.3,1,0.4
						c0.2,0.2,0.4,0.4,0.5,0.8c0.1,0.4,0.2,1,0.2,1.9l0,20.4c0,0.6,0,1-0.1,1.3c0,0.3-0.2,0.6-0.3,1c-0.3,0.7-1.3,1-2.9,1
						c-1,0-1.6-0.1-2-0.2c-0.4-0.1-0.7-0.4-0.9-0.7c-5.5-7.3-9.1-12.1-10.9-14.4l0,12.1c0,0.6,0,1-0.1,1.3c0,0.3-0.2,0.6-0.3,1
						c-0.3,0.7-1.3,1-2.9,1c-1.5,0-2.4-0.3-2.8-1c-0.2-0.4-0.3-0.7-0.3-1c0-0.3-0.1-0.7-0.1-1.3l0-20.5c0-0.9,0.1-1.6,0.3-2
						c0.2-0.4,0.6-0.7,1-0.9c0.5-0.1,1.1-0.2,1.8-0.2c0.7,0,1.3,0.1,1.7,0.2c0.4,0.1,0.7,0.3,0.9,0.5c0.1,0.1,0.4,0.4,0.8,1
						c5.2,7,8.6,11.7,10.4,13.9l0-12.4C662.4,1415.6,662.5,1414.9,662.7,1414.4z"/>
				</g>
				<g class="st2">
					<path class="st1" d="M891.3,1414.6c0.2-0.4,0.6-0.7,1-0.9c0.5-0.1,1-0.2,1.7-0.2c0.7,0,1.3,0.1,1.7,0.2c0.4,0.1,0.7,0.3,1,0.4
						c0.2,0.2,0.4,0.4,0.5,0.8c0.1,0.4,0.2,1,0.2,1.9l0,20.4c0,0.6,0,1-0.1,1.3c0,0.3-0.2,0.6-0.3,1c-0.3,0.7-1.3,1-2.9,1
						c-1,0-1.6-0.1-2-0.2c-0.4-0.1-0.7-0.4-0.9-0.7c-5.5-7.3-9.1-12.1-10.9-14.4l0,12.1c0,0.6,0,1-0.1,1.3c0,0.3-0.2,0.6-0.3,1
						c-0.3,0.7-1.3,1-2.9,1c-1.5,0-2.4-0.3-2.8-1c-0.2-0.4-0.3-0.7-0.3-1c0-0.3-0.1-0.7-0.1-1.3l0-20.5c0-0.9,0.1-1.6,0.3-2
						c0.2-0.4,0.6-0.7,1-0.9c0.5-0.1,1.1-0.2,1.8-0.2c0.7,0,1.3,0.1,1.7,0.2c0.4,0.1,0.7,0.3,0.9,0.5c0.1,0.1,0.4,0.4,0.8,1
						c5.2,7,8.6,11.7,10.4,13.9l0-12.4C890.9,1415.7,891,1415,891.3,1414.6z"/>
				</g>
				<g class="st2">
					<path class="st1" d="M681.5,1414.6l19.4,0c0.7,0,1.3,0.1,1.6,0.3c0.3,0.2,0.6,0.4,0.7,0.8c0.1,0.4,0.2,0.9,0.2,1.5
						c0,0.6-0.1,1.1-0.2,1.4c-0.1,0.4-0.3,0.6-0.6,0.7c-0.4,0.2-1,0.3-1.8,0.3l-6.7,0l0,17.5c0,0.5,0,0.9-0.1,1.2
						c0,0.3-0.1,0.6-0.3,0.9c-0.2,0.3-0.5,0.6-0.9,0.7c-0.4,0.1-1,0.2-1.7,0.2c-0.7,0-1.3-0.1-1.7-0.2c-0.4-0.1-0.7-0.4-0.9-0.7
						c-0.2-0.3-0.3-0.6-0.3-0.9c0-0.3-0.1-0.7-0.1-1.2l0-17.5l-6.7,0c-0.7,0-1.3-0.1-1.6-0.3c-0.3-0.2-0.6-0.4-0.7-0.8
						c-0.1-0.4-0.2-0.9-0.2-1.5c0-0.6,0.1-1.1,0.2-1.4c0.1-0.4,0.3-0.6,0.6-0.7C680.2,1414.7,680.8,1414.6,681.5,1414.6z"/>
				</g>
				<g class="st2">
					<path class="st1" d="M767.9,1414.6l19.4,0c0.7,0,1.3,0.1,1.6,0.3c0.3,0.2,0.6,0.4,0.7,0.8c0.1,0.4,0.2,0.9,0.2,1.5
						c0,0.6-0.1,1.1-0.2,1.4c-0.1,0.4-0.3,0.6-0.6,0.8c-0.4,0.2-1,0.3-1.8,0.3l-6.7,0l0,17.5c0,0.5,0,0.9-0.1,1.2
						c0,0.3-0.1,0.6-0.3,0.9c-0.2,0.3-0.5,0.6-0.9,0.7c-0.4,0.1-1,0.2-1.7,0.2c-0.7,0-1.3-0.1-1.7-0.2c-0.4-0.1-0.7-0.4-0.9-0.7
						c-0.2-0.3-0.3-0.6-0.3-0.9c0-0.3-0.1-0.7-0.1-1.2l0-17.5l-6.7,0c-0.7,0-1.3-0.1-1.6-0.3c-0.3-0.2-0.6-0.4-0.7-0.8
						c-0.1-0.4-0.2-0.9-0.2-1.5c0-0.6,0.1-1.1,0.2-1.4c0.1-0.4,0.3-0.6,0.6-0.7C766.5,1414.7,767.1,1414.6,767.9,1414.6z"/>
				</g>
				<g class="st2">
					<path class="st1" d="M731.4,1415.6c0.2-0.4,0.6-0.6,1-0.8c0.4-0.1,1-0.2,1.7-0.2c0.7,0,1.2,0.1,1.6,0.2
						c0.4,0.1,0.7,0.3,0.9,0.4c0.2,0.2,0.4,0.4,0.5,0.7c0.1,0.4,0.2,1,0.2,1.8l0,10.5c0,3.1-1,5.9-2.9,8.4c-0.9,1.2-2.1,2.1-3.6,2.9
						c-1.5,0.7-3.1,1.1-4.9,1.1c-1.8,0-3.4-0.4-4.8-1.1c-1.5-0.7-2.6-1.7-3.5-2.9c-1.9-2.5-2.8-5.3-2.8-8.4l0-10.5
						c0-0.6,0-1,0.1-1.2c0-0.3,0.1-0.6,0.3-0.9c0.2-0.3,0.5-0.6,0.9-0.7c0.4-0.1,1-0.2,1.8-0.2c0.7,0,1.3,0.1,1.8,0.2
						c0.4,0.1,0.7,0.4,0.9,0.7c0.3,0.5,0.4,1.3,0.4,2.2l0,10.5c0,1.4,0.3,2.8,1,4c0.3,0.7,0.9,1.2,1.6,1.6c0.7,0.4,1.5,0.6,2.5,0.6
						c1.7,0,3-0.6,3.8-1.9c0.8-1.3,1.3-2.7,1.3-4.4l0-10.7C731,1416.6,731.2,1416,731.4,1415.6z"/>
				</g>
			</g>
		</g>
	</g>
</g>
<g id="Group_183-2" transform="translate(1406.46 719.483) rotate(45)">
	
		<ellipse id="Ellipse_24-7" transform="matrix(0.1569 0.9876 -0.9876 0.1569 -708.1071 1368.6592)" class="st3" cx="-1155.7" cy="269.6" rx="37.3" ry="36.6"/>
	<path id="Path_85-2" class="st4" d="M-1176.3,256.3l57.3-8.8l1.4,12.9c-0.4,2.5-2.3,4.5-4.9,4.9c0,0-16.8,3.2-18.7,3
		c-1.8-0.2-2.8-4.4-5.2-4c-2.4,0.4-1.6,4.6-4.3,5.6c-2.7,1-17.5,2.8-17.5,2.8c-2.1,0.3-4.2-0.7-5.3-2.5L-1176.3,256.3z"/>
	<path id="Path_94-2" class="st1" d="M-1168.4,289.7c0.8,1.7,5.9,6.8,15.3,6.6c6.3,0,12.5-1,18.4-3.1c0.8-0.2,1.6-0.7,2.2-1.2
		c0.4-0.5,0.7-1,0.9-1.5c1.2-2.9,2-6,2.4-9.2c-2.5,0.9-5.1,1.5-7.8,2.2c-10.1,2.5-17.8,4.8-25.4,4.1S-1169.2,288-1168.4,289.7z"/>
	<path id="Path_97-2" class="st3" d="M-1162.9,207l1.1,2.3l5.2-3.3l0.8,2.3l4.9-3c-0.8,5.5-0.8,11.2,0,16.7c1.1,5.5,3,10.7,5.7,15.7
		l-13.3,2.3c0,0-20.9,26.2-25.7,8.8C-1188.9,231.4-1162.9,207-1162.9,207z"/>
</g>
<g id="Group_208" transform="translate(1892.227 992.97) rotate(135)">
	
		<ellipse id="Ellipse_24-8" transform="matrix(0.9876 -0.1569 0.1569 0.9876 -224.44 118.3299)" class="st3" cx="637.1" cy="1480.4" rx="36.6" ry="37.3"/>
	<path id="Path_85-3" class="st4" d="M616.5,1467.1l57.3-8.8l1.4,12.9c-0.4,2.5-2.3,4.5-4.9,4.9c0,0-16.8,3.2-18.7,3
		c-1.8-0.2-2.8-4.4-5.2-4c-2.4,0.4-1.6,4.6-4.3,5.6s-17.5,2.8-17.5,2.8c-2.1,0.3-4.2-0.7-5.3-2.5L616.5,1467.1z"/>
	<path id="Path_94-3" class="st1" d="M624.4,1500.5c0.8,1.7,5.9,6.8,15.3,6.6c6.3,0,12.5-1,18.4-3.1c0.8-0.2,1.6-0.7,2.2-1.2
		c0.4-0.5,0.7-1,0.9-1.5c1.2-2.9,2-6,2.4-9.2c-2.5,0.9-5.1,1.5-7.8,2.2c-10.1,2.5-17.8,4.8-25.4,4.1
		C622.8,1497.5,623.6,1498.8,624.4,1500.5z"/>
	<path id="Path_97-3" class="st3" d="M629.9,1417.8l1.1,2.3l5.2-3.3l0.8,2.3l4.9-3c-0.8,5.5-0.8,11.2,0,16.7
		c1.1,5.5,3,10.7,5.7,15.7l-13.3,2.3c0,0-20.9,26.2-25.7,8.8C603.9,1442.3,629.9,1417.8,629.9,1417.8z"/>
</g>
<g id="Group_204" transform="translate(1131.778 1204.251) rotate(-45)">
	
		<ellipse id="Ellipse_24-9" transform="matrix(-0.9876 0.1569 -0.1569 -0.9876 -129.9435 -3038.8013)" class="st3" cx="55" cy="-1524.5" rx="36.6" ry="37.3"/>
	<path id="Path_85-4" class="st4" d="M34.4-1537.8l57.3-8.8l1.4,12.9c-0.4,2.5-2.3,4.5-4.9,4.9c0,0-16.8,3.2-18.7,3
		c-1.8-0.2-2.8-4.4-5.2-4c-2.4,0.4-1.6,4.6-4.3,5.6c-2.7,1-17.5,2.8-17.5,2.8c-2.1,0.3-4.2-0.7-5.3-2.5L34.4-1537.8z"/>
	<path id="Path_94-4" class="st1" d="M42.3-1504.4c0.8,1.7,5.9,6.8,15.3,6.6c6.3,0,12.5-1,18.4-3.1c0.8-0.2,1.6-0.7,2.2-1.2
		c0.4-0.5,0.7-1,0.9-1.5c1.2-2.9,2-6,2.4-9.2c-2.5,0.9-5.1,1.5-7.8,2.2c-10.1,2.5-17.8,4.8-25.4,4.1
		C40.7-1507.4,41.5-1506.1,42.3-1504.4z"/>
	<path id="Path_97-4" class="st3" d="M47.8-1587.1l1.1,2.3l5.2-3.3l0.8,2.3l4.9-3c-0.8,5.5-0.8,11.2,0,16.7c1.1,5.5,3,10.7,5.7,15.7
		l-13.3,2.3c0,0-20.9,26.2-25.7,8.8S47.8-1587.1,47.8-1587.1z"/>
</g>
<g id="Group_205" transform="translate(1537.032 1527.979) rotate(-120)">
	
		<ellipse id="Ellipse_24-10" transform="matrix(-0.1569 -0.9876 0.9876 -0.1569 2635.3086 867.4081)" class="st3" cx="1687.9" cy="-691.1" rx="37.3" ry="36.6"/>
	<path id="Path_85-5" class="st4" d="M1667.2-704.4l57.3-8.8l1.4,12.9c-0.4,2.5-2.3,4.5-4.9,4.9c0,0-16.8,3.2-18.7,3
		c-1.8-0.2-2.8-4.4-5.2-4c-2.4,0.4-1.6,4.6-4.3,5.6c-2.7,1-17.5,2.8-17.5,2.8c-2.1,0.3-4.2-0.7-5.3-2.5L1667.2-704.4z"/>
	<path id="Path_94-5" class="st1" d="M1675.2-671c0.8,1.7,5.9,6.8,15.3,6.6c6.3,0,12.5-1,18.4-3.1c0.8-0.2,1.6-0.7,2.2-1.2
		c0.4-0.5,0.7-1,0.9-1.5c1.2-2.9,2-6,2.4-9.2c-2.5,0.9-5.1,1.5-7.8,2.2c-10.1,2.5-17.8,4.8-25.4,4.1
		C1673.6-674,1674.4-672.7,1675.2-671z"/>
	<path id="Path_97-5" class="st3" d="M1680.7-753.7l1.1,2.3l5.2-3.3l0.8,2.3l4.9-3c-0.8,5.5-0.8,11.2,0,16.7
		c1.1,5.5,3,10.7,5.7,15.7l-13.3,2.3c0,0-20.9,26.2-25.7,8.8C1654.6-729.2,1680.7-753.7,1680.7-753.7z"/>
</g>
</svg>
