<?xml version="1.0" encoding="utf-8"?>
<!-- Generator: Adobe Illustrator 25.4.1, SVG Export Plug-In . SVG Version: 6.00 Build 0)  -->
<svg version="1.1" id="Layer_1" xmlns="http://www.w3.org/2000/svg" xmlns:xlink="http://www.w3.org/1999/xlink" x="0px" y="0px"
	 viewBox="0 0 491 487.2" style="enable-background:new 0 0 491 487.2;" xml:space="preserve">
<style type="text/css">
	.st0{enable-background:new    ;}
	.st1{fill:#FFFFFF;}
	.st2{fill:#F3F3F3;}
	.st3{fill:#E64C4C;}
	.st4{fill:#ECECEC;}
</style>
<g class="st0">
	<path class="st1" d="M427.6,80.2l-26.4,26.4l-6.1-6.1L416.6,79l-5.3-5.3l4.9-4.9L427.6,80.2z"/>
</g>
<g class="st0">
	<path class="st1" d="M388.5,400.4l-5-5l19.9-19.9l4,4l-0.6,19.8c-0.1,4.6,0.8,6.3,2.1,7.6c2.1,2.1,4.7,1.8,7.5-0.9
		c2.3-2.3,3.3-5,2.8-8.1l7.3-1.6c0.9,5-0.8,10.6-5.6,15.4c-5.9,5.9-12.8,6.8-17.6,2c-2.6-2.6-4.2-5.6-3.9-12.7l0.3-11.8L388.5,400.4
		z"/>
</g>
<g id="Concept_art_Back_3-7" transform="translate(632.5 1689)">
	<g id="Concept_art_2-17" transform="translate(315.5 1252)">
		<g transform="matrix(1, 0, 0, 1, 75.85, -602.32)">
			<path id="Rectangle_1-35" class="st2" d="M-942.8-2319.2h330.3c32.7,0,59.2,26.5,59.2,59.2v330.3c0,32.7-26.5,59.2-59.2,59.2
				h-330.3c-32.7,0-59.2-26.5-59.2-59.2V-2260C-1002-2292.7-975.5-2319.2-942.8-2319.2z"/>
		</g>
		<g id="Group_22" transform="translate(414 356.5) rotate(180)">
			<path id="Intersection_4-39" class="st3" d="M1340.1,3111.1v107.7c0,32.7-26.5,59.2-59.2,59.2h-108.6
				c0-92.2,74.7-166.9,166.9-166.9H1340.1z"/>
			<g id="ICON_RED-2" transform="translate(311.358 261.856) rotate(135)">
				<path id="Path_121-2" class="st4" d="M1434.3-2746.3c0,15-12.1,27.1-27.1,27.1c-15,0-27.1-12.1-27.1-27.1
					c0-8.2,4.7-11.8,4.7-11.8s33.9-11,37.7-10.2C1429.8-2766.2,1434.3-2755,1434.3-2746.3z"/>
				
					<ellipse id="Ellipse_6-2" transform="matrix(-1 2.535182e-06 -2.535182e-06 -1 2794.9302 -5498.4268)" class="st3" cx="1397.5" cy="-2749.2" rx="5.6" ry="8.4"/>
				<path id="Subtraction_5-2" class="st3" d="M1417.1-2740.8c-1.7-0.1-3.1-1-4-2.5c-1.1-1.8-1.7-3.8-1.6-5.9c0-0.7,0.1-1.4,0.2-2.1
					c0.6-0.1,1.2-0.1,1.8-0.1c3.1,0.2,6.2,0.6,9.2,1.3c0,0.3,0,0.6,0,0.9c0,2.1-0.5,4.2-1.6,5.9
					C1420.2-2741.8,1418.7-2740.9,1417.1-2740.8z"/>
				<path id="Path_1-3" class="st3" d="M1395.4-2735.2c3.8,0.7,7.7,1.1,11.6,1.1c4.1-0.1,8.2-0.4,12.3-1.1c0,4.1-2.3,9.1-6.4,9.1
					c-2.1-0.6-4.2-1-6.3-1.2c-2.3-0.3-4.6-0.4-7-0.4c0.1-1.3-0.2-2.5-0.8-3.6C1397.7-2732.8,1396.6-2734.1,1395.4-2735.2z"/>
				<path id="Path_27-2" class="st4" d="M1372.6-2760.5l57-16.4l1,3.6l-57,16.4L1372.6-2760.5z"/>
				<path id="Path_28-2" class="st4" d="M1371.1-2789.5l48.5-12.3l1.3,27.9l-37,11.1L1371.1-2789.5z"/>
				
					<ellipse id="Ellipse_27-2" transform="matrix(-1 2.535182e-06 -2.535182e-06 -1 2794.9338 -5498.4268)" class="st4" cx="1397.5" cy="-2749.2" rx="3.1" ry="4.7"/>
				
					<ellipse id="Ellipse_28-2" transform="matrix(-1 2.535182e-06 -2.535182e-06 -1 2834.1406 -5498.4268)" class="st4" cx="1417.1" cy="-2749.2" rx="3.1" ry="4.7"/>
			</g>
		</g>
		<g id="Group_214" transform="translate(0 -0.5)">
			<path id="Intersection_4-40" class="st3" d="M-477.4-2639.2v107.7c0,32.7-26.5,59.2-59.2,59.2h-108.6
				c0-92.2,74.7-166.9,166.9-166.9H-477.4z"/>
			<g id="ICON_RED-3" transform="translate(311.358 261.856) rotate(135)">
				<path id="Path_121-3" class="st4" d="M-1346.5,2604.9c0,15-12.1,27.1-27.1,27.1s-27.1-12.1-27.1-27.1c0-8.2,4.7-11.8,4.7-11.8
					s33.9-11,37.7-10.2C-1351,2585.1-1346.5,2596.3-1346.5,2604.9z"/>
				<ellipse id="Ellipse_6-3" class="st3" cx="-1383.4" cy="2602.1" rx="5.6" ry="8.4"/>
				<path id="Subtraction_5-3" class="st3" d="M-1363.8,2610.5c-1.7-0.1-3.1-1-4-2.5c-1.1-1.8-1.7-3.8-1.6-5.9
					c0-0.7,0.1-1.4,0.2-2.1c0.6-0.1,1.2-0.1,1.8-0.1c3.1,0.2,6.2,0.6,9.2,1.3c0,0.3,0,0.6,0,0.9c0,2.1-0.5,4.2-1.6,5.9
					C-1360.6,2609.4-1362.1,2610.4-1363.8,2610.5z"/>
				<path id="Path_1-4" class="st3" d="M-1385.5,2616.1c3.8,0.7,7.7,1.1,11.6,1.1c4.1-0.1,8.2-0.4,12.3-1.1c0,4.1-2.3,9.1-6.4,9.1
					c-2.1-0.6-4.2-1-6.3-1.2c-2.3-0.3-4.6-0.4-7-0.4c0.1-1.3-0.2-2.5-0.8-3.6C-1383.1,2618.5-1384.2,2617.2-1385.5,2616.1z"/>
				<path id="Path_27-3" class="st4" d="M-1408.2,2590.8l57-16.4l1,3.6l-57,16.4L-1408.2,2590.8z"/>
				<path id="Path_28-3" class="st4" d="M-1409.7,2561.8l48.5-12.3l1.3,27.9l-37,11.1L-1409.7,2561.8z"/>
				<ellipse id="Ellipse_27-3" class="st4" cx="-1383.4" cy="2602.1" rx="3.1" ry="4.7"/>
				<ellipse id="Ellipse_28-3" class="st4" cx="-1363.8" cy="2602.1" rx="3.1" ry="4.7"/>
			</g>
		</g>
		<g id="Group_212" transform="translate(28.5 384.501) rotate(-90)">
			<path id="Intersection_4-41" class="st3" d="M3306.9-672.8v107.7c0,32.7-26.5,59.2-59.2,59.2h-108.6
				c0-92.2,74.7-166.9,166.9-166.9H3306.9z"/>
			<g id="ICON_RED-4" transform="translate(311.358 261.856) rotate(135)">
				<path id="Path_121-4" class="st4" d="M-2632-1461.4c0,15-12.1,27.1-27.1,27.1c-15,0-27.1-12.1-27.1-27.1
					c0-8.2,4.7-11.8,4.7-11.8s33.9-11,37.7-10.2C-2636.5-1481.3-2632-1470.1-2632-1461.4z"/>
				
					<ellipse id="Ellipse_6-4" transform="matrix(2.535182e-06 1 -1 2.535182e-06 -4133.1616 1204.6001)" class="st3" cx="-2668.9" cy="-1464.3" rx="8.4" ry="5.6"/>
				<path id="Subtraction_5-4" class="st3" d="M-2649.3-1455.9c-1.7-0.1-3.1-1-4-2.5c-1.1-1.8-1.7-3.8-1.6-5.9
					c0-0.7,0.1-1.4,0.2-2.1c0.6-0.1,1.2-0.1,1.8-0.1c3.1,0.2,6.2,0.6,9.2,1.3c0,0.3,0,0.6,0,0.9c0,2.1-0.5,4.2-1.6,5.9
					C-2646.1-1456.9-2647.6-1456-2649.3-1455.9z"/>
				<path id="Path_1-5" class="st3" d="M-2671-1450.3c3.8,0.7,7.7,1.1,11.6,1.1c4.1-0.1,8.2-0.4,12.3-1.1c0,4.1-2.3,9.1-6.4,9.1
					c-2.1-0.6-4.2-1-6.3-1.2c-2.3-0.3-4.6-0.4-7-0.4c0.1-1.3-0.2-2.5-0.8-3.6C-2668.6-1447.9-2669.7-1449.2-2671-1450.3z"/>
				<path id="Path_27-4" class="st4" d="M-2693.7-1475.6l57-16.4l1,3.6l-57,16.4L-2693.7-1475.6z"/>
				<path id="Path_28-4" class="st4" d="M-2695.2-1504.6l48.5-12.3l1.3,27.9l-37,11.1L-2695.2-1504.6z"/>
				
					<ellipse id="Ellipse_27-4" transform="matrix(2.535182e-06 1 -1 2.535182e-06 -4133.1597 1204.5983)" class="st4" cx="-2668.9" cy="-1464.3" rx="4.7" ry="3.1"/>
				
					<ellipse id="Ellipse_28-4" transform="matrix(2.535182e-06 1 -1 2.535182e-06 -4113.5562 1184.9949)" class="st4" cx="-2649.3" cy="-1464.3" rx="4.7" ry="3.1"/>
			</g>
		</g>
		<g id="Group_213" transform="translate(385.5 -29) rotate(90)">
			<path id="Intersection_4-42" class="st3" d="M-2443.8,1144.7v107.7c0,32.7-26.5,59.2-59.2,59.2h-108.6
				c0-92.2,74.7-166.9,166.9-166.9H-2443.8z"/>
			<g id="ICON_RED-5" transform="translate(311.358 261.856) rotate(135)">
				<path id="Path_121-5" class="st4" d="M2719.5,1319.7c0,15-12.1,27.1-27.1,27.1c-15,0-27.1-12.1-27.1-27.1
					c0-8.2,4.7-11.8,4.7-11.8s33.9-11,37.7-10.2C2715,1299.9,2719.5,1311.1,2719.5,1319.7z"/>
				
					<ellipse id="Ellipse_6-5" transform="matrix(-2.535182e-06 -1 1 -2.535182e-06 1365.8229 3999.5369)" class="st3" cx="2682.7" cy="1316.9" rx="8.4" ry="5.6"/>
				<path id="Subtraction_5-5" class="st3" d="M2702.3,1325.3c-1.7-0.1-3.1-1-4-2.5c-1.1-1.8-1.7-3.8-1.6-5.9c0-0.7,0.1-1.4,0.2-2.1
					c0.6-0.1,1.2-0.1,1.8-0.1c3.1,0.2,6.2,0.6,9.2,1.3c0,0.3,0,0.6,0,0.9c0,2.1-0.5,4.2-1.6,5.9
					C2705.4,1324.2,2703.9,1325.2,2702.3,1325.3z"/>
				<path id="Path_1-6" class="st3" d="M2680.6,1330.9c3.8,0.7,7.7,1.1,11.6,1.1c4.1-0.1,8.2-0.4,12.3-1.1c0,4.1-2.3,9.1-6.4,9.1
					c-2.1-0.6-4.2-1-6.3-1.2c-2.3-0.3-4.6-0.4-7-0.4c0.1-1.3-0.2-2.5-0.8-3.6C2682.9,1333.3,2681.8,1332,2680.6,1330.9z"/>
				<path id="Path_27-5" class="st4" d="M2657.8,1305.6l57-16.4l1,3.6l-57,16.4L2657.8,1305.6z"/>
				<path id="Path_28-5" class="st4" d="M2656.4,1276.6l48.5-12.3l1.3,27.9l-37,11.1L2656.4,1276.6z"/>
				
					<ellipse id="Ellipse_27-5" transform="matrix(-2.535182e-06 -1 1 -2.535182e-06 1365.8246 3999.5386)" class="st4" cx="2682.7" cy="1316.9" rx="4.7" ry="3.1"/>
				
					<ellipse id="Ellipse_28-5" transform="matrix(-2.535182e-06 -1 1 -2.535182e-06 1385.4281 4019.1421)" class="st4" cx="2702.3" cy="1316.9" rx="4.7" ry="3.1"/>
			</g>
		</g>
	</g>
</g>
<g id="Group_176" transform="translate(-3555.757 -8337.574) rotate(60)">
	<g id="Group_148-8" transform="translate(12224.423 1552.942)">
		<g id="Group_146-15" transform="translate(0 133.268)">
			<g id="Group_135-29" transform="translate(0 0)">
				<g class="st0">
					<path class="st3" d="M-2985-603.6c0-0.5,0-0.8,0-1.1c0-0.2,0.1-0.5,0.3-0.8c0.3-0.5,1.1-0.8,2.4-0.8c1,0,1.7,0.2,2.1,0.5
						c0.3,0.3,0.5,0.7,0.5,1.3c0,0.2,0,0.5,0,0.9l0,10.7c0,0.5,0,0.8,0,1.1c0,0.2-0.1,0.5-0.3,0.8c-0.3,0.5-1,0.8-2.4,0.8
						c-1.3,0-2.1-0.3-2.3-0.8c-0.1-0.3-0.2-0.6-0.3-0.8c0-0.2,0-0.6,0-1.1L-2985-603.6z M-2979.9-609.2c-0.2,0.3-0.4,0.5-0.8,0.6
						c-0.4,0.1-0.9,0.2-1.5,0.2c-0.6,0-1.2-0.1-1.5-0.2c-0.4-0.1-0.7-0.3-0.8-0.6c-0.2-0.3-0.2-0.6-0.3-0.8c0-0.2,0-0.6,0-1.1
						c0-0.5,0-0.8,0-1.1c0-0.2,0.1-0.5,0.3-0.8c0.3-0.5,1.1-0.8,2.4-0.8c1.3,0,2.1,0.3,2.3,0.8c0.2,0.3,0.3,0.6,0.3,0.8
						c0,0.2,0,0.6,0,1.1c0,0.5,0,0.8,0,1.1C-2979.7-609.8-2979.8-609.5-2979.9-609.2z"/>
				</g>
				<g class="st0">
					<path class="st3" d="M-2866.8-603.6c0-0.5,0-0.8,0-1.1c0-0.2,0.1-0.5,0.3-0.8c0.3-0.5,1.1-0.8,2.4-0.8c1,0,1.7,0.2,2.1,0.5
						c0.3,0.3,0.5,0.7,0.5,1.3c0,0.2,0,0.5,0,0.9l0,10.7c0,0.5,0,0.8,0,1.1c0,0.2-0.1,0.5-0.3,0.8c-0.3,0.5-1,0.8-2.3,0.8
						c-1.3,0-2.1-0.3-2.4-0.8c-0.1-0.3-0.2-0.6-0.3-0.8c0-0.2,0-0.6,0-1.1L-2866.8-603.6z M-2861.7-609.2c-0.2,0.3-0.4,0.5-0.8,0.6
						c-0.4,0.1-0.9,0.2-1.5,0.2c-0.6,0-1.2-0.1-1.5-0.2c-0.4-0.1-0.7-0.3-0.8-0.6c-0.2-0.3-0.2-0.6-0.3-0.8c0-0.2,0-0.6,0-1.1
						c0-0.5,0-0.8,0-1.1c0-0.2,0.1-0.5,0.3-0.8c0.3-0.5,1.1-0.8,2.4-0.8c1.3,0,2.1,0.3,2.3,0.8c0.2,0.3,0.3,0.6,0.3,0.8
						c0,0.2,0,0.6,0,1.1c0,0.5,0,0.8,0,1.1C-2861.5-609.8-2861.6-609.5-2861.7-609.2z"/>
				</g>
				<g class="st0">
					<path class="st3" d="M-2813.2-600.2c0.3,0.2,0.5,0.4,0.6,0.8c0.1,0.4,0.2,0.9,0.2,1.5c0,0.6-0.1,1.2-0.2,1.5
						c-0.1,0.4-0.3,0.7-0.6,0.8c-0.3,0.2-0.6,0.2-0.8,0.3c-0.2,0-0.6,0-1.1,0c-0.5,0-0.8,0-1.1,0c-0.2,0-0.5-0.1-0.8-0.3
						c-0.5-0.3-0.8-1.1-0.8-2.4c0-1.3,0.3-2.1,0.8-2.3c0.3-0.2,0.6-0.3,0.8-0.3c0.2,0,0.6,0,1.1,0c0.5,0,0.8,0,1.1,0
						C-2813.8-600.5-2813.5-600.4-2813.2-600.2z M-2807.6-595.2c-0.5,0-0.8,0-1.1,0c-0.2,0-0.5-0.1-0.8-0.3
						c-0.5-0.3-0.8-1.1-0.8-2.4c0-1,0.2-1.7,0.5-2.1c0.3-0.3,0.7-0.5,1.3-0.5c0.2,0,0.5,0,0.9,0l10.7,0c0.5,0,0.8,0,1.1,0
						c0.2,0,0.5,0.1,0.8,0.3c0.5,0.3,0.8,1,0.8,2.3c0,1.3-0.3,2.1-0.8,2.3c-0.3,0.1-0.6,0.2-0.8,0.3c-0.2,0-0.6,0-1.1,0
						L-2807.6-595.2z"/>
				</g>
				<g class="st0">
					<path class="st3" d="M-2767.1-612.6c3.7,0,6.9,1.3,9.7,4c2.7,2.7,4.1,6,4.1,10c0,4-1.3,7.4-3.9,10.2c-2.6,2.8-5.8,4.2-9.6,4.2
						c-3.8,0-7.1-1.4-9.7-4.1c-2.7-2.8-4-6.1-4-9.9c0-2.1,0.4-4,1.1-5.9c0.8-1.8,1.8-3.3,3-4.6c1.3-1.2,2.7-2.2,4.3-2.9
						C-2770.5-612.3-2768.8-612.6-2767.1-612.6z M-2774-598.4c0,2.2,0.7,4.1,2.2,5.4c1.4,1.4,3.1,2.1,4.8,2.1c1.8,0,3.4-0.7,4.8-2
						c1.4-1.4,2.1-3.2,2.1-5.5c0-2.3-0.7-4.1-2.2-5.5s-3.1-2.1-4.8-2.1c-1.8,0-3.4,0.7-4.8,2.1C-2773.2-602.5-2774-600.6-2774-598.4
						z"/>
				</g>
				<g class="st0">
					<path class="st3" d="M-2951.2-611.8c0.2-0.4,0.6-0.7,1-0.8c0.5-0.1,1-0.2,1.7-0.2c0.7,0,1.2,0.1,1.7,0.2
						c0.4,0.1,0.7,0.3,0.9,0.4c0.2,0.2,0.4,0.4,0.4,0.8c0.1,0.4,0.2,1,0.2,1.8v19.9c0,0.6,0,1-0.1,1.3c0,0.3-0.2,0.6-0.3,0.9
						c-0.3,0.6-1.3,1-2.8,1c-0.9,0-1.6-0.1-1.9-0.2c-0.4-0.1-0.7-0.4-0.9-0.7c-5.4-7.2-8.9-11.9-10.6-14.1l0,11.8c0,0.6,0,1-0.1,1.3
						c0,0.3-0.2,0.6-0.3,0.9c-0.3,0.6-1.3,1-2.8,1c-1.5,0-2.4-0.3-2.7-1c-0.2-0.4-0.3-0.7-0.3-1c0-0.3-0.1-0.7-0.1-1.3v-20
						c0-0.9,0.1-1.6,0.3-2c0.2-0.4,0.6-0.7,1-0.8c0.5-0.1,1-0.2,1.8-0.2c0.7,0,1.3,0.1,1.7,0.2c0.4,0.1,0.7,0.3,0.9,0.4
						c0.1,0.1,0.4,0.4,0.8,0.9c5,6.9,8.4,11.4,10.1,13.6v-12.1C-2951.5-610.7-2951.4-611.4-2951.2-611.8z"/>
				</g>
				<g class="st0">
					<path class="st3" d="M-2727.2-611.7c0.2-0.4,0.6-0.7,1-0.8c0.5-0.1,1-0.2,1.7-0.2c0.7,0,1.2,0.1,1.7,0.2
						c0.4,0.1,0.7,0.3,0.9,0.4c0.2,0.2,0.4,0.4,0.4,0.8c0.1,0.4,0.2,1,0.2,1.8l0,19.9c0,0.6,0,1-0.1,1.3c0,0.3-0.2,0.6-0.3,0.9
						c-0.3,0.6-1.3,1-2.8,1c-0.9,0-1.6-0.1-1.9-0.2c-0.4-0.1-0.7-0.4-0.9-0.7c-5.4-7.2-8.9-11.9-10.6-14.1l0,11.8c0,0.6,0,1-0.1,1.3
						c0,0.3-0.2,0.6-0.3,0.9c-0.3,0.6-1.3,1-2.8,1c-1.5,0-2.4-0.3-2.7-1c-0.2-0.4-0.3-0.7-0.3-1c0-0.3-0.1-0.7-0.1-1.3l0-20
						c0-0.9,0.1-1.6,0.3-2c0.2-0.4,0.6-0.7,1-0.8c0.5-0.1,1-0.2,1.8-0.2c0.7,0,1.3,0.1,1.7,0.2s0.7,0.3,0.9,0.4
						c0.1,0.1,0.4,0.4,0.8,0.9c5,6.9,8.4,11.4,10.1,13.6l0-12.1C-2727.6-610.6-2727.5-611.2-2727.2-611.7z"/>
				</g>
				<g class="st0">
					<path class="st3" d="M-2932.8-611.6l19,0c0.7,0,1.3,0.1,1.6,0.3c0.3,0.2,0.6,0.4,0.7,0.8c0.1,0.4,0.2,0.8,0.2,1.4
						c0,0.6-0.1,1.1-0.2,1.4c-0.1,0.4-0.3,0.6-0.6,0.7c-0.4,0.2-1,0.3-1.7,0.3l-6.5,0l0,17.2c0,0.5,0,0.9-0.1,1.2
						c0,0.2-0.1,0.5-0.3,0.9c-0.2,0.3-0.5,0.6-0.9,0.7c-0.4,0.1-1,0.2-1.7,0.2c-0.7,0-1.3-0.1-1.7-0.2c-0.4-0.1-0.7-0.4-0.9-0.7
						c-0.2-0.3-0.3-0.6-0.3-0.9c0-0.3-0.1-0.7-0.1-1.2v-17.1l-6.5,0c-0.7,0-1.3-0.1-1.6-0.3c-0.3-0.2-0.6-0.4-0.7-0.8
						c-0.1-0.4-0.2-0.8-0.2-1.4c0-0.6,0.1-1.1,0.2-1.4c0.1-0.4,0.3-0.6,0.6-0.7C-2934.2-611.5-2933.6-611.6-2932.8-611.6z"/>
				</g>
				<g class="st0">
					<path class="st3" d="M-2848.4-611.6l19,0c0.7,0,1.3,0.1,1.6,0.3c0.3,0.2,0.6,0.4,0.7,0.8c0.1,0.4,0.2,0.8,0.2,1.4
						s-0.1,1.1-0.2,1.4c-0.1,0.4-0.3,0.6-0.6,0.7c-0.4,0.2-1,0.3-1.7,0.3l-6.5,0v17.2c0,0.5,0,0.9-0.1,1.2c0,0.3-0.1,0.5-0.3,0.9
						c-0.2,0.3-0.5,0.6-0.9,0.7c-0.4,0.1-1,0.2-1.7,0.2c-0.7,0-1.3-0.1-1.7-0.2c-0.4-0.1-0.7-0.4-0.9-0.7c-0.2-0.3-0.3-0.6-0.3-0.9
						c0-0.3-0.1-0.7-0.1-1.2l0-17.1l-6.5,0c-0.7,0-1.3-0.1-1.6-0.3c-0.3-0.2-0.6-0.4-0.7-0.8c-0.1-0.4-0.2-0.8-0.2-1.4
						c0-0.6,0.1-1.1,0.2-1.4c0.1-0.4,0.3-0.6,0.6-0.7C-2849.7-611.5-2849.2-611.6-2848.4-611.6z"/>
				</g>
				<g class="st0">
					<path class="st3" d="M-2884.1-610.7c0.2-0.4,0.6-0.6,1-0.8c0.4-0.1,1-0.2,1.6-0.2c0.6,0,1.2,0.1,1.6,0.2
						c0.4,0.1,0.7,0.3,0.9,0.4c0.2,0.2,0.4,0.4,0.4,0.7c0.1,0.4,0.2,1,0.2,1.8v10.3c0,3-0.9,5.7-2.8,8.2c-0.9,1.2-2.1,2.1-3.5,2.8
						c-1.4,0.7-3,1.1-4.8,1.1c-1.7,0-3.3-0.4-4.7-1.1s-2.6-1.7-3.5-2.9c-1.8-2.4-2.8-5.1-2.8-8.2v-10.3c0-0.5,0-0.9,0.1-1.2
						c0-0.3,0.1-0.6,0.3-0.9c0.2-0.3,0.5-0.6,0.9-0.7c0.4-0.1,1-0.2,1.7-0.2c0.7,0,1.3,0.1,1.7,0.2c0.4,0.1,0.7,0.4,0.9,0.7
						c0.3,0.5,0.4,1.2,0.4,2.1v10.2c0,1.4,0.3,2.7,1,4c0.3,0.6,0.9,1.1,1.5,1.5c0.7,0.4,1.5,0.6,2.4,0.6c1.7,0,2.9-0.6,3.7-1.8
						c0.8-1.2,1.2-2.6,1.2-4.3v-10.4C-2884.4-609.7-2884.3-610.3-2884.1-610.7z"/>
				</g>
			</g>
		</g>
		<g id="Group_147-15" transform="translate(90.063 148.182) rotate(-90)">
			<g id="Group_135-30" transform="translate(0 0)">
				<g class="st0">
					<path class="st3" d="M615.1-2903.1c-0.2,0.3-0.4,0.5-0.8,0.6s-0.9,0.2-1.5,0.2c-0.6,0-1.2-0.1-1.5-0.2
						c-0.4-0.1-0.7-0.3-0.8-0.6c-0.2-0.3-0.2-0.6-0.3-0.8c0-0.2,0-0.6,0-1.1c0-0.5,0-0.8,0-1.1c0-0.2,0.1-0.5,0.3-0.8
						c0.3-0.5,1.1-0.8,2.4-0.8c1.3,0,2.1,0.3,2.3,0.8c0.2,0.3,0.3,0.6,0.3,0.8c0,0.2,0,0.6,0,1.1c0,0.5,0,0.8,0,1.1
						C615.3-2903.7,615.2-2903.4,615.1-2903.1z M610.1-2897.5c0-0.5,0-0.8,0-1.1c0-0.2,0.1-0.5,0.3-0.8c0.3-0.5,1.1-0.8,2.4-0.8
						c1,0,1.7,0.2,2.1,0.5c0.3,0.3,0.5,0.7,0.5,1.3c0,0.2,0,0.5,0,0.9l0,10.7c0,0.5,0,0.8,0,1.1c0,0.2-0.1,0.5-0.3,0.8
						c-0.3,0.5-1,0.8-2.3,0.8c-1.3,0-2.1-0.3-2.3-0.8c-0.1-0.3-0.2-0.6-0.3-0.8c0-0.2,0-0.6,0-1.1L610.1-2897.5z"/>
				</g>
				<g class="st0">
					<path class="st3" d="M733.3-2903.1c-0.2,0.3-0.4,0.5-0.8,0.6c-0.4,0.1-0.9,0.2-1.5,0.2c-0.6,0-1.2-0.1-1.5-0.2
						c-0.4-0.1-0.7-0.3-0.8-0.6c-0.2-0.3-0.2-0.6-0.3-0.8c0-0.2,0-0.6,0-1.1c0-0.5,0-0.8,0-1.1c0-0.2,0.1-0.5,0.3-0.8
						c0.3-0.5,1.1-0.8,2.4-0.8c1.3,0,2.1,0.3,2.3,0.8c0.2,0.3,0.3,0.6,0.3,0.8c0,0.2,0,0.6,0,1.1c0,0.5,0,0.8,0,1.1
						C733.5-2903.7,733.4-2903.4,733.3-2903.1z M728.3-2897.5c0-0.5,0-0.8,0-1.1c0-0.2,0.1-0.5,0.3-0.8c0.3-0.5,1.1-0.8,2.4-0.8
						c1,0,1.7,0.2,2.1,0.5c0.3,0.3,0.5,0.7,0.5,1.3c0,0.2,0,0.5,0,0.9l0,10.7c0,0.5,0,0.8,0,1.1c0,0.2-0.1,0.5-0.3,0.8
						c-0.3,0.5-1,0.8-2.3,0.8c-1.3,0-2.1-0.3-2.3-0.8c-0.1-0.3-0.2-0.6-0.3-0.8c0-0.2,0-0.6,0-1.1L728.3-2897.5z"/>
				</g>
				<g class="st0">
					<path class="st3" d="M781.8-2894.1c0.3,0.2,0.5,0.4,0.6,0.8c0.1,0.4,0.2,0.9,0.2,1.5c0,0.6-0.1,1.2-0.2,1.5
						c-0.1,0.4-0.3,0.7-0.6,0.8c-0.3,0.2-0.6,0.2-0.8,0.3c-0.2,0-0.6,0-1.1,0c-0.5,0-0.8,0-1.1,0c-0.2,0-0.5-0.1-0.8-0.3
						c-0.5-0.3-0.8-1.1-0.8-2.4c0-1.3,0.3-2.1,0.8-2.3c0.3-0.2,0.6-0.3,0.8-0.3c0.2,0,0.6,0,1.1,0c0.5,0,0.8,0,1.1,0
						C781.2-2894.4,781.5-2894.3,781.8-2894.1z M787.4-2889.1c-0.5,0-0.8,0-1.1,0c-0.2,0-0.5-0.1-0.8-0.3c-0.5-0.3-0.8-1.1-0.8-2.4
						c0-1,0.2-1.7,0.5-2.1c0.3-0.3,0.7-0.5,1.3-0.5c0.2,0,0.5,0,0.9,0h10.7c0.5,0,0.8,0,1.1,0c0.2,0,0.5,0.1,0.8,0.3
						c0.5,0.3,0.8,1,0.8,2.4c0,1.3-0.3,2.1-0.8,2.3c-0.3,0.1-0.6,0.2-0.8,0.3c-0.2,0-0.6,0-1.1,0L787.4-2889.1z"/>
				</g>
				<g class="st0">
					<path class="st3" d="M826.4-2905.7c3.4,0,6.3,1.2,8.8,3.6c2.5,2.4,3.7,5.5,3.7,9.1c0,3.6-1.2,6.7-3.5,9.2
						c-2.4,2.5-5.3,3.8-8.7,3.8c-3.5,0-6.4-1.3-8.8-3.8c-2.4-2.5-3.6-5.5-3.6-8.9c0-1.9,0.3-3.7,1-5.3c0.7-1.6,1.6-3,2.7-4.1
						c1.1-1.1,2.4-2,3.9-2.6C823.3-2905.4,824.9-2905.7,826.4-2905.7z M820.2-2892.8c0,2,0.7,3.7,2,4.9c1.3,1.3,2.8,1.9,4.4,1.9
						c1.6,0,3.1-0.6,4.4-1.8c1.3-1.2,1.9-2.9,1.9-4.9c0-2.1-0.7-3.7-2-5c-1.3-1.2-2.8-1.9-4.4-1.9c-1.6,0-3.1,0.6-4.4,1.9
						C820.9-2896.5,820.2-2894.8,820.2-2892.8z"/>
				</g>
				<g class="st0">
					<path class="st3" d="M643.8-2905.7c0.2-0.4,0.6-0.7,1-0.8c0.5-0.1,1-0.2,1.7-0.2s1.2,0.1,1.7,0.2c0.4,0.1,0.7,0.3,0.9,0.4
						s0.4,0.4,0.4,0.8c0.1,0.4,0.2,1,0.2,1.8l0,19.9c0,0.6,0,1-0.1,1.3c0,0.3-0.2,0.6-0.3,0.9c-0.3,0.6-1.3,1-2.8,1
						c-0.9,0-1.6-0.1-1.9-0.2c-0.4-0.1-0.7-0.4-0.9-0.7c-5.4-7.2-8.9-11.9-10.6-14.1l0,11.8c0,0.6,0,1-0.1,1.3
						c0,0.3-0.2,0.6-0.3,0.9c-0.3,0.6-1.3,1-2.8,1c-1.5,0-2.4-0.3-2.7-1c-0.2-0.4-0.3-0.7-0.3-1c0-0.3-0.1-0.7-0.1-1.3l0-20
						c0-0.9,0.1-1.6,0.3-2c0.2-0.4,0.6-0.7,1-0.8c0.5-0.1,1-0.2,1.8-0.2c0.7,0,1.3,0.1,1.7,0.2c0.4,0.1,0.7,0.3,0.9,0.4
						c0.1,0.1,0.4,0.4,0.8,0.9c5,6.9,8.4,11.4,10.1,13.6l0-12.1C643.5-2904.6,643.6-2905.3,643.8-2905.7z"/>
				</g>
				<g class="st0">
					<path class="st3" d="M867.2-2905.6c0.2-0.4,0.6-0.7,1-0.8c0.5-0.1,1-0.2,1.7-0.2c0.7,0,1.2,0.1,1.7,0.2
						c0.4,0.1,0.7,0.3,0.9,0.4c0.2,0.2,0.4,0.4,0.4,0.8c0.1,0.4,0.2,1,0.2,1.8l0,19.9c0,0.6,0,1-0.1,1.3c0,0.3-0.1,0.6-0.3,0.9
						c-0.3,0.6-1.3,1-2.8,1c-0.9,0-1.6-0.1-1.9-0.2c-0.4-0.1-0.7-0.4-0.9-0.7c-5.4-7.2-8.9-11.9-10.6-14.1l0,11.8c0,0.6,0,1-0.1,1.3
						c0,0.3-0.2,0.6-0.3,0.9c-0.3,0.6-1.3,1-2.8,1c-1.5,0-2.4-0.3-2.7-1c-0.2-0.4-0.3-0.7-0.3-1c0-0.3-0.1-0.7-0.1-1.3l0-20
						c0-0.9,0.1-1.6,0.3-2c0.2-0.4,0.6-0.7,1-0.8c0.5-0.1,1-0.2,1.8-0.2c0.7,0,1.3,0.1,1.7,0.2c0.4,0.1,0.7,0.3,0.9,0.4
						c0.1,0.1,0.4,0.4,0.8,0.9c5,6.9,8.4,11.4,10.1,13.6l0-12.1C866.9-2904.5,867-2905.2,867.2-2905.6z"/>
				</g>
				<g class="st0">
					<path class="st3" d="M662.2-2905.5l19,0c0.7,0,1.3,0.1,1.6,0.3c0.3,0.2,0.6,0.4,0.7,0.8c0.1,0.4,0.2,0.8,0.2,1.4
						c0,0.6-0.1,1.1-0.2,1.4c-0.1,0.4-0.3,0.6-0.6,0.7c-0.4,0.2-1,0.3-1.7,0.3l-6.5,0l0,17.2c0,0.5,0,0.9-0.1,1.2
						c0,0.2-0.1,0.5-0.3,0.9c-0.2,0.3-0.5,0.6-0.9,0.7c-0.4,0.1-1,0.2-1.7,0.2c-0.7,0-1.3-0.1-1.7-0.2c-0.4-0.1-0.7-0.4-0.9-0.7
						c-0.2-0.3-0.3-0.6-0.3-0.9c0-0.3-0.1-0.7-0.1-1.2l0-17.1l-6.5,0c-0.7,0-1.3-0.1-1.6-0.3c-0.3-0.2-0.6-0.4-0.7-0.8
						c-0.1-0.4-0.2-0.8-0.2-1.4c0-0.6,0.1-1.1,0.2-1.4c0.1-0.4,0.3-0.6,0.6-0.7C660.9-2905.4,661.4-2905.5,662.2-2905.5z"/>
				</g>
				<g class="st0">
					<path class="st3" d="M746.6-2905.5h19c0.7,0,1.3,0.1,1.6,0.3c0.3,0.2,0.6,0.4,0.7,0.8c0.1,0.4,0.2,0.8,0.2,1.4
						c0,0.6-0.1,1.1-0.2,1.4c-0.1,0.4-0.3,0.6-0.6,0.7c-0.4,0.2-1,0.3-1.7,0.3H759l0,17.2c0,0.5,0,0.9-0.1,1.2
						c0,0.3-0.1,0.5-0.3,0.9c-0.2,0.3-0.5,0.6-0.9,0.7c-0.4,0.1-1,0.2-1.7,0.2c-0.7,0-1.3-0.1-1.7-0.2c-0.4-0.1-0.7-0.4-0.9-0.7
						c-0.2-0.3-0.3-0.6-0.3-0.9s-0.1-0.7-0.1-1.2l0-17.1l-6.5,0c-0.7,0-1.3-0.1-1.6-0.3c-0.3-0.2-0.6-0.4-0.7-0.8
						c-0.1-0.4-0.2-0.8-0.2-1.4c0-0.6,0.1-1.1,0.2-1.4c0.1-0.4,0.3-0.6,0.6-0.7C745.3-2905.4,745.8-2905.5,746.6-2905.5z"/>
				</g>
				<g class="st0">
					<path class="st3" d="M710.9-2904.6c0.2-0.4,0.6-0.6,1-0.7c0.4-0.1,1-0.2,1.6-0.2c0.6,0,1.2,0.1,1.6,0.2
						c0.4,0.1,0.7,0.2,0.9,0.4c0.2,0.2,0.4,0.4,0.4,0.7c0.1,0.4,0.2,1,0.2,1.8l0,10.3c0,3-0.9,5.7-2.8,8.2c-0.9,1.2-2.1,2.1-3.5,2.8
						c-1.4,0.7-3,1.1-4.8,1.1c-1.7,0-3.3-0.4-4.7-1.1c-1.4-0.7-2.6-1.7-3.5-2.9c-1.8-2.4-2.8-5.1-2.8-8.2l0-10.3c0-0.5,0-1,0.1-1.2
						c0-0.3,0.1-0.6,0.3-0.9c0.2-0.3,0.5-0.6,0.9-0.7c0.4-0.1,1-0.2,1.7-0.2c0.7,0,1.3,0.1,1.7,0.2c0.4,0.1,0.7,0.4,0.9,0.7
						c0.3,0.5,0.4,1.2,0.4,2.1l0,10.2c0,1.4,0.3,2.7,1,4c0.3,0.6,0.9,1.1,1.5,1.5c0.7,0.4,1.5,0.6,2.4,0.6c1.7,0,2.9-0.6,3.7-1.8
						s1.2-2.6,1.2-4.3l0-10.4C710.6-2903.6,710.7-2904.2,710.9-2904.6z"/>
				</g>
			</g>
		</g>
	</g>
	<g id="Group_149-8" transform="translate(12329.402 1744.362) rotate(180)">
		<g id="Group_146-16" transform="translate(0 133.268)">
			<g id="Group_135-31">
				<g class="st0">
					<path class="st3" d="M2909,691.9c-0.2,0.3-0.4,0.5-0.8,0.6c-0.4,0.1-0.9,0.2-1.5,0.2c-0.6,0-1.2-0.1-1.5-0.2
						c-0.4-0.1-0.7-0.3-0.8-0.6c-0.2-0.3-0.2-0.6-0.3-0.8c0-0.2,0-0.6,0-1.1c0-0.5,0-0.8,0-1.1c0-0.2,0.1-0.5,0.3-0.8
						c0.3-0.5,1.1-0.8,2.4-0.8c1.3,0,2.1,0.3,2.3,0.8c0.2,0.3,0.3,0.6,0.3,0.8c0,0.2,0,0.6,0,1.1c0,0.5,0,0.8,0,1.1
						C2909.2,691.3,2909.1,691.6,2909,691.9z M2904,697.5c0-0.5,0-0.8,0-1.1c0-0.2,0.1-0.5,0.3-0.8c0.3-0.5,1.1-0.8,2.4-0.8
						c1,0,1.7,0.2,2.1,0.5c0.3,0.3,0.5,0.7,0.5,1.3c0,0.2,0,0.5,0,0.9v10.7c0,0.5,0,0.8,0,1.1c0,0.2-0.1,0.5-0.3,0.8
						c-0.3,0.5-1,0.8-2.3,0.8c-1.3,0-2.1-0.3-2.3-0.8c-0.1-0.3-0.2-0.6-0.3-0.8c0-0.2,0-0.6,0-1.1L2904,697.5z"/>
				</g>
				<g class="st0">
					<path class="st3" d="M3027.2,691.9c-0.2,0.3-0.4,0.5-0.8,0.6c-0.4,0.1-0.9,0.2-1.5,0.2c-0.6,0-1.2-0.1-1.5-0.2
						c-0.4-0.1-0.7-0.3-0.8-0.6c-0.2-0.3-0.2-0.6-0.3-0.8c0-0.2,0-0.6,0-1.1c0-0.5,0-0.8,0-1.1c0-0.2,0.1-0.5,0.3-0.8
						c0.3-0.5,1.1-0.8,2.4-0.8c1.3,0,2.1,0.3,2.3,0.8c0.2,0.3,0.3,0.6,0.3,0.8c0,0.2,0,0.6,0,1.1c0,0.5,0,0.8,0,1.1
						C3027.4,691.3,3027.3,691.6,3027.2,691.9z M3022.2,697.5c0-0.5,0-0.8,0-1.1c0-0.2,0.1-0.5,0.3-0.8c0.3-0.5,1.1-0.8,2.4-0.8
						c1,0,1.7,0.2,2.1,0.5c0.3,0.3,0.5,0.7,0.5,1.3c0,0.2,0,0.5,0,0.9l0,10.7c0,0.5,0,0.8,0,1.1c0,0.2-0.1,0.5-0.3,0.8
						c-0.3,0.5-1,0.8-2.3,0.8c-1.3,0-2.1-0.3-2.3-0.8c-0.1-0.3-0.2-0.6-0.3-0.8c0-0.2,0-0.6,0-1.1L3022.2,697.5z"/>
				</g>
				<g class="st0">
					<path class="st3" d="M3081.3,705.9c-0.5,0-0.8,0-1.1,0c-0.2,0-0.5-0.1-0.8-0.3c-0.5-0.3-0.8-1.1-0.8-2.4c0-1,0.2-1.7,0.5-2.1
						c0.3-0.3,0.7-0.5,1.3-0.5c0.2,0,0.5,0,0.9,0l10.7,0c0.5,0,0.8,0,1.1,0c0.2,0,0.5,0.1,0.8,0.3c0.5,0.3,0.8,1,0.8,2.3
						c0,1.3-0.3,2.1-0.8,2.3c-0.3,0.1-0.6,0.2-0.8,0.3s-0.6,0-1.1,0L3081.3,705.9z M3075.7,700.9c0.3,0.2,0.5,0.4,0.6,0.8
						c0.1,0.4,0.2,0.9,0.2,1.5c0,0.6-0.1,1.2-0.2,1.5c-0.1,0.4-0.3,0.7-0.6,0.8c-0.3,0.2-0.6,0.2-0.8,0.3c-0.2,0-0.6,0-1.1,0
						c-0.5,0-0.8,0-1.1,0c-0.2,0-0.5-0.1-0.8-0.3c-0.5-0.3-0.8-1.1-0.8-2.4c0-1.3,0.3-2.1,0.8-2.3c0.3-0.2,0.6-0.3,0.8-0.3
						c0.2,0,0.6,0,1.1,0c0.5,0,0.8,0,1.1,0C3075.1,700.6,3075.4,700.7,3075.7,700.9z"/>
				</g>
				<g class="st0">
					<path class="st3" d="M3120.3,689.3c3.4,0,6.3,1.2,8.8,3.6c2.5,2.4,3.7,5.5,3.7,9.1c0,3.6-1.2,6.7-3.5,9.2
						c-2.4,2.5-5.3,3.8-8.7,3.8c-3.5,0-6.4-1.3-8.8-3.8c-2.4-2.5-3.6-5.5-3.6-8.9c0-1.9,0.3-3.7,1-5.3s1.6-3,2.7-4.1
						c1.1-1.1,2.4-2,3.9-2.6C3117.2,689.6,3118.8,689.3,3120.3,689.3z M3114.1,702.2c0,2,0.7,3.7,2,4.9c1.3,1.3,2.8,1.9,4.4,1.9
						c1.6,0,3.1-0.6,4.4-1.8c1.3-1.2,1.9-2.9,1.9-4.9c0-2.1-0.7-3.7-2-5c-1.3-1.3-2.8-1.9-4.4-1.9c-1.6,0-3.1,0.6-4.4,1.9
						C3114.8,698.5,3114.1,700.1,3114.1,702.2z"/>
				</g>
				<g class="st0">
					<path class="st3" d="M2937.7,689.3c0.2-0.4,0.6-0.7,1-0.8c0.5-0.1,1-0.2,1.7-0.2c0.7,0,1.2,0.1,1.7,0.2
						c0.4,0.1,0.7,0.3,0.9,0.4c0.2,0.2,0.4,0.4,0.4,0.8c0.1,0.4,0.2,1,0.2,1.8l0,19.9c0,0.6,0,1-0.1,1.3c0,0.3-0.2,0.6-0.3,0.9
						c-0.3,0.6-1.3,1-2.8,1c-0.9,0-1.6-0.1-1.9-0.2c-0.4-0.1-0.7-0.4-0.9-0.7c-5.4-7.2-8.9-11.9-10.6-14.1l0,11.8c0,0.6,0,1-0.1,1.3
						c0,0.3-0.2,0.6-0.3,0.9c-0.3,0.6-1.3,1-2.8,1c-1.5,0-2.4-0.3-2.7-1c-0.2-0.4-0.3-0.7-0.3-1c0-0.3-0.1-0.7-0.1-1.3v-20
						c0-0.9,0.1-1.6,0.3-2c0.2-0.4,0.6-0.7,1-0.8c0.5-0.1,1-0.2,1.8-0.2c0.7,0,1.3,0.1,1.7,0.2c0.4,0.1,0.7,0.3,0.9,0.4
						c0.1,0.1,0.4,0.4,0.8,0.9c5,6.9,8.4,11.4,10.1,13.6l0-12.1C2937.4,690.4,2937.5,689.7,2937.7,689.3z"/>
				</g>
				<g class="st0">
					<path class="st3" d="M3161.1,689.4c0.2-0.4,0.6-0.7,1-0.8c0.5-0.1,1-0.2,1.7-0.2c0.7,0,1.2,0.1,1.7,0.2
						c0.4,0.1,0.7,0.3,0.9,0.4c0.2,0.2,0.4,0.4,0.4,0.8c0.1,0.4,0.2,1,0.2,1.8l0,19.9c0,0.6,0,1-0.1,1.3c0,0.3-0.1,0.6-0.3,0.9
						c-0.3,0.6-1.3,1-2.8,1c-0.9,0-1.6-0.1-1.9-0.2c-0.4-0.1-0.7-0.4-0.9-0.7c-5.4-7.2-8.9-11.9-10.6-14.1l0,11.8c0,0.6,0,1-0.1,1.3
						c0,0.3-0.2,0.6-0.3,0.9c-0.3,0.6-1.3,1-2.8,1c-1.5,0-2.4-0.3-2.7-1c-0.2-0.4-0.3-0.7-0.3-1c0-0.3-0.1-0.7-0.1-1.3l0-20
						c0-0.9,0.1-1.6,0.3-2c0.2-0.4,0.6-0.7,1-0.8c0.5-0.1,1-0.2,1.8-0.2c0.7,0,1.3,0.1,1.7,0.2c0.4,0.1,0.7,0.3,0.9,0.4
						c0.1,0.1,0.4,0.4,0.8,0.9c5.1,6.9,8.4,11.4,10.1,13.6v-12.1C3160.8,690.5,3160.9,689.8,3161.1,689.4z"/>
				</g>
				<g class="st0">
					<path class="st3" d="M2956.1,689.5l19,0c0.7,0,1.3,0.1,1.6,0.3c0.3,0.2,0.6,0.4,0.7,0.8c0.1,0.4,0.2,0.8,0.2,1.4
						c0,0.6-0.1,1.1-0.2,1.4c-0.1,0.4-0.3,0.6-0.6,0.7c-0.4,0.2-1,0.3-1.7,0.3l-6.5,0l0,17.2c0,0.5,0,0.9-0.1,1.2
						c0,0.3-0.1,0.5-0.3,0.9c-0.2,0.3-0.5,0.6-0.9,0.7c-0.4,0.1-1,0.2-1.7,0.2c-0.7,0-1.3-0.1-1.7-0.2c-0.4-0.1-0.7-0.4-0.9-0.7
						c-0.2-0.3-0.3-0.6-0.3-0.9c0-0.3-0.1-0.7-0.1-1.2l0-17.1l-6.5,0c-0.7,0-1.3-0.1-1.6-0.3c-0.3-0.2-0.6-0.4-0.7-0.8
						c-0.1-0.4-0.2-0.8-0.2-1.4c0-0.6,0.1-1.1,0.2-1.4c0.1-0.4,0.3-0.6,0.6-0.7C2954.8,689.6,2955.3,689.5,2956.1,689.5z"/>
				</g>
				<g class="st0">
					<path class="st3" d="M3040.5,689.5l19,0c0.7,0,1.3,0.1,1.6,0.3c0.3,0.2,0.6,0.4,0.7,0.8c0.1,0.4,0.2,0.8,0.2,1.4
						s-0.1,1.1-0.2,1.4c-0.1,0.4-0.3,0.6-0.6,0.7c-0.4,0.2-1,0.3-1.7,0.3l-6.5,0l0,17.2c0,0.5,0,0.9-0.1,1.2c0,0.2-0.1,0.5-0.3,0.9
						c-0.2,0.3-0.5,0.6-0.9,0.7c-0.4,0.1-1,0.2-1.7,0.2c-0.7,0-1.3-0.1-1.7-0.2c-0.4-0.1-0.7-0.4-0.9-0.7c-0.2-0.3-0.3-0.6-0.3-0.9
						c0-0.3-0.1-0.7-0.1-1.2l0-17.1l-6.5,0c-0.7,0-1.3-0.1-1.6-0.3c-0.3-0.2-0.6-0.4-0.7-0.8c-0.1-0.4-0.2-0.8-0.2-1.4
						c0-0.6,0.1-1.1,0.2-1.4c0.1-0.4,0.3-0.6,0.6-0.7C3039.2,689.6,3039.7,689.5,3040.5,689.5z"/>
				</g>
				<g class="st0">
					<path class="st3" d="M3004.8,690.4c0.2-0.4,0.6-0.6,1-0.8c0.4-0.1,1-0.2,1.6-0.2c0.6,0,1.2,0.1,1.6,0.2
						c0.4,0.1,0.7,0.3,0.9,0.4c0.2,0.2,0.4,0.4,0.4,0.7c0.1,0.4,0.2,1,0.2,1.8v10.3c0,3-0.9,5.7-2.8,8.2c-0.9,1.2-2.1,2.1-3.5,2.8
						c-1.4,0.7-3,1.1-4.8,1.1c-1.7,0-3.3-0.4-4.7-1.1c-1.4-0.7-2.6-1.7-3.5-2.9c-1.8-2.4-2.8-5.1-2.8-8.2l0-10.3
						c0-0.5,0-0.9,0.1-1.2c0-0.3,0.1-0.6,0.3-0.9c0.2-0.3,0.5-0.6,0.9-0.7c0.4-0.1,1-0.2,1.7-0.2c0.7,0,1.3,0.1,1.7,0.2
						c0.4,0.1,0.7,0.4,0.9,0.7c0.3,0.5,0.4,1.2,0.4,2.1l0,10.2c0,1.4,0.3,2.7,1,4c0.3,0.6,0.9,1.1,1.5,1.5c0.7,0.4,1.5,0.6,2.4,0.6
						c1.7,0,2.9-0.6,3.7-1.8c0.8-1.2,1.2-2.6,1.2-4.3l0-10.4C3004.5,691.4,3004.6,690.8,3004.8,690.4z"/>
				</g>
			</g>
		</g>
		<g id="Group_147-16" transform="translate(90.063 148.182) rotate(-90)">
			<g id="Group_135-32" transform="translate(0 0)">
				<g class="st0">
					<path class="st3" d="M-691,2991.4c0-0.5,0-0.8,0-1.1c0-0.2,0.1-0.5,0.3-0.8c0.3-0.5,1.1-0.8,2.4-0.8c1,0,1.7,0.2,2.1,0.5
						c0.3,0.3,0.5,0.7,0.5,1.3c0,0.2,0,0.5,0,0.9l0,10.7c0,0.5,0,0.8,0,1.1c0,0.2-0.1,0.5-0.3,0.8c-0.3,0.5-1,0.8-2.4,0.8
						c-1.3,0-2.1-0.3-2.3-0.8c-0.1-0.3-0.2-0.6-0.3-0.8c0-0.2,0-0.6,0-1.1L-691,2991.4z M-686,2985.8c-0.2,0.3-0.4,0.5-0.8,0.6
						c-0.4,0.1-0.9,0.2-1.5,0.2c-0.6,0-1.2-0.1-1.5-0.2c-0.4-0.1-0.7-0.3-0.8-0.6c-0.2-0.3-0.2-0.6-0.3-0.8c0-0.2,0-0.6,0-1.1
						c0-0.5,0-0.8,0-1.1c0-0.2,0.1-0.5,0.3-0.8c0.3-0.5,1.1-0.8,2.4-0.8c1.3,0,2.1,0.3,2.3,0.8c0.2,0.3,0.3,0.6,0.3,0.8
						c0,0.2,0,0.6,0,1.1c0,0.5,0,0.8,0,1.1C-685.8,2985.2-685.9,2985.5-686,2985.8z"/>
				</g>
				<g class="st0">
					<path class="st3" d="M-572.8,2991.4c0-0.5,0-0.8,0-1.1c0-0.2,0.1-0.5,0.3-0.8c0.3-0.5,1.1-0.8,2.4-0.8c1,0,1.7,0.2,2.1,0.5
						c0.3,0.3,0.5,0.7,0.5,1.3c0,0.2,0,0.5,0,0.9l0,10.7c0,0.5,0,0.8,0,1.1c0,0.2-0.1,0.5-0.3,0.8c-0.3,0.5-1,0.8-2.3,0.8
						c-1.3,0-2.1-0.3-2.3-0.8c-0.1-0.3-0.2-0.6-0.3-0.8c0-0.2,0-0.6,0-1.1L-572.8,2991.4z M-567.8,2985.8c-0.2,0.3-0.4,0.5-0.8,0.6
						c-0.4,0.1-0.9,0.2-1.5,0.2c-0.6,0-1.2-0.1-1.5-0.2c-0.4-0.1-0.7-0.3-0.8-0.6c-0.2-0.3-0.2-0.6-0.3-0.8c0-0.2,0-0.6,0-1.1
						c0-0.5,0-0.8,0-1.1c0-0.2,0.1-0.5,0.3-0.8c0.3-0.5,1.1-0.8,2.4-0.8c1.3,0,2.1,0.3,2.3,0.8c0.2,0.3,0.3,0.6,0.3,0.8
						c0,0.2,0,0.6,0,1.1c0,0.5,0,0.8,0,1.1C-567.6,2985.2-567.7,2985.5-567.8,2985.8z"/>
				</g>
				<g class="st0">
					<path class="st3" d="M-513.7,2999.8c-0.5,0-0.8,0-1.1,0c-0.2,0-0.5-0.1-0.8-0.3c-0.5-0.3-0.8-1.1-0.8-2.4c0-1,0.2-1.7,0.5-2.1
						c0.3-0.3,0.7-0.5,1.3-0.5c0.2,0,0.5,0,0.9,0h10.7c0.5,0,0.8,0,1.1,0c0.2,0,0.5,0.1,0.8,0.3c0.5,0.3,0.8,1,0.8,2.4
						c0,1.3-0.3,2.1-0.8,2.3c-0.3,0.1-0.6,0.2-0.8,0.3c-0.2,0-0.6,0-1.1,0L-513.7,2999.8z M-519.3,2994.8c0.3,0.2,0.5,0.4,0.6,0.8
						c0.1,0.4,0.2,0.9,0.2,1.5c0,0.6-0.1,1.2-0.2,1.5c-0.1,0.4-0.3,0.7-0.6,0.8c-0.3,0.2-0.6,0.2-0.8,0.3c-0.2,0-0.6,0-1.1,0
						c-0.5,0-0.8,0-1.1,0c-0.2,0-0.5-0.1-0.8-0.3c-0.5-0.3-0.8-1.1-0.8-2.4c0-1.3,0.3-2.1,0.8-2.3c0.3-0.2,0.6-0.3,0.8-0.3
						c0.2,0,0.6,0,1.1,0c0.5,0,0.8,0,1.1,0C-519.9,2994.6-519.6,2994.6-519.3,2994.8z"/>
				</g>
				<g class="st0">
					<path class="st3" d="M-474.7,2983.2c3.4,0,6.3,1.2,8.8,3.6c2.5,2.4,3.7,5.5,3.7,9.1c0,3.6-1.2,6.7-3.5,9.2
						c-2.4,2.5-5.3,3.8-8.7,3.8c-3.5,0-6.4-1.3-8.8-3.8c-2.4-2.5-3.6-5.5-3.6-8.9c0-1.9,0.3-3.7,1-5.3c0.7-1.6,1.6-3,2.7-4.1
						c1.1-1.1,2.4-2,3.9-2.6C-477.8,2983.6-476.2,2983.2-474.7,2983.2z M-480.9,2996.1c0,2,0.7,3.7,2,4.9c1.3,1.3,2.8,1.9,4.4,1.9
						c1.6,0,3.1-0.6,4.4-1.8c1.3-1.2,1.9-2.9,1.9-4.9c0-2.1-0.7-3.7-2-5c-1.3-1.2-2.8-1.9-4.4-1.9c-1.6,0-3.1,0.6-4.4,1.9
						C-480.2,2992.4-480.9,2994.1-480.9,2996.1z"/>
				</g>
				<g class="st0">
					<path class="st3" d="M-657.3,2983.2c0.2-0.4,0.6-0.7,1-0.8c0.5-0.1,1-0.2,1.7-0.2c0.7,0,1.2,0.1,1.7,0.2
						c0.4,0.1,0.7,0.3,0.9,0.4c0.2,0.2,0.4,0.4,0.4,0.8c0.1,0.4,0.2,1,0.2,1.8l0,19.9c0,0.6,0,1-0.1,1.3c0,0.3-0.1,0.6-0.3,0.9
						c-0.3,0.6-1.3,1-2.8,1c-0.9,0-1.6-0.1-1.9-0.2c-0.4-0.1-0.7-0.4-0.9-0.7c-5.4-7.2-8.9-11.9-10.6-14.1l0,11.8c0,0.6,0,1-0.1,1.3
						c0,0.3-0.2,0.6-0.3,0.9c-0.3,0.6-1.3,1-2.8,1c-1.5,0-2.4-0.3-2.7-1c-0.2-0.4-0.3-0.7-0.3-1c0-0.3-0.1-0.7-0.1-1.3l0-20
						c0-0.9,0.1-1.6,0.3-2c0.2-0.4,0.6-0.7,1-0.8c0.5-0.1,1-0.2,1.8-0.2c0.7,0,1.3,0.1,1.7,0.2c0.4,0.1,0.7,0.3,0.9,0.4
						c0.1,0.1,0.4,0.4,0.8,0.9c5,6.9,8.4,11.4,10.1,13.6l0-12.1C-657.6,2984.3-657.5,2983.6-657.3,2983.2z"/>
				</g>
				<g class="st0">
					<path class="st3" d="M-433.9,2983.3c0.2-0.4,0.6-0.7,1-0.8c0.5-0.1,1-0.2,1.7-0.2c0.7,0,1.2,0.1,1.7,0.2
						c0.4,0.1,0.7,0.3,0.9,0.4c0.2,0.2,0.4,0.4,0.4,0.8c0.1,0.4,0.2,1,0.2,1.8l0,19.9c0,0.6,0,1-0.1,1.3c0,0.3-0.1,0.6-0.3,0.9
						c-0.3,0.6-1.3,1-2.8,1c-0.9,0-1.6-0.1-1.9-0.2c-0.4-0.1-0.7-0.4-0.9-0.7c-5.4-7.2-8.9-11.9-10.6-14.1l0,11.8c0,0.6,0,1-0.1,1.3
						c0,0.3-0.1,0.6-0.3,0.9c-0.3,0.6-1.3,1-2.8,1c-1.5,0-2.4-0.3-2.7-1c-0.2-0.4-0.3-0.7-0.3-1c0-0.3-0.1-0.7-0.1-1.3v-20
						c0-0.9,0.1-1.6,0.3-2c0.2-0.4,0.6-0.7,1-0.8c0.5-0.1,1-0.2,1.8-0.2s1.3,0.1,1.7,0.2c0.4,0.1,0.7,0.3,0.9,0.4
						c0.1,0.1,0.4,0.4,0.8,0.9c5,6.9,8.4,11.4,10.1,13.6l0-12.1C-434.2,2984.4-434.1,2983.7-433.9,2983.3z"/>
				</g>
				<g class="st0">
					<path class="st3" d="M-638.9,2983.4h19c0.7,0,1.3,0.1,1.6,0.3c0.3,0.2,0.6,0.4,0.7,0.8c0.1,0.4,0.2,0.8,0.2,1.4
						c0,0.6-0.1,1.1-0.2,1.4c-0.1,0.4-0.3,0.6-0.6,0.7c-0.4,0.2-1,0.3-1.7,0.3l-6.5,0l0,17.2c0,0.5,0,0.9-0.1,1.2
						c0,0.3-0.1,0.5-0.3,0.9c-0.2,0.3-0.5,0.6-0.9,0.7c-0.4,0.1-1,0.2-1.7,0.2c-0.7,0-1.3-0.1-1.7-0.2c-0.4-0.1-0.7-0.4-0.9-0.7
						c-0.2-0.3-0.3-0.6-0.3-0.9c0-0.3-0.1-0.7-0.1-1.2l0-17.1h-6.5c-0.7,0-1.3-0.1-1.6-0.3c-0.3-0.2-0.6-0.4-0.7-0.8
						c-0.1-0.4-0.2-0.8-0.2-1.4c0-0.6,0.1-1.1,0.2-1.4c0.1-0.4,0.3-0.6,0.6-0.7C-640.2,2983.5-639.7,2983.4-638.9,2983.4z"/>
				</g>
				<g class="st0">
					<path class="st3" d="M-554.5,2983.4l19,0c0.7,0,1.3,0.1,1.6,0.3c0.3,0.2,0.6,0.4,0.7,0.8c0.1,0.4,0.2,0.8,0.2,1.4
						c0,0.6-0.1,1.1-0.2,1.4c-0.1,0.4-0.3,0.6-0.6,0.7c-0.4,0.2-1,0.3-1.7,0.3l-6.5,0l0,17.2c0,0.5,0,0.9-0.1,1.2
						c0,0.3-0.1,0.5-0.3,0.9c-0.2,0.3-0.5,0.6-0.9,0.7c-0.4,0.1-1,0.2-1.7,0.2c-0.7,0-1.3-0.1-1.7-0.2c-0.4-0.1-0.7-0.4-0.9-0.7
						c-0.2-0.3-0.3-0.6-0.3-0.9c0-0.3-0.1-0.7-0.1-1.2l0-17.1l-6.5,0c-0.7,0-1.3-0.1-1.6-0.3c-0.3-0.2-0.6-0.4-0.7-0.8
						c-0.1-0.4-0.2-0.8-0.2-1.4c0-0.6,0.1-1.1,0.2-1.4c0.1-0.4,0.3-0.6,0.6-0.7C-555.8,2983.5-555.2,2983.4-554.5,2983.4z"/>
				</g>
				<g class="st0">
					<path class="st3" d="M-590.2,2984.3c0.2-0.4,0.6-0.6,1-0.8c0.4-0.1,1-0.2,1.6-0.2c0.6,0,1.2,0.1,1.6,0.2
						c0.4,0.1,0.7,0.2,0.9,0.4c0.2,0.2,0.4,0.4,0.4,0.7c0.1,0.4,0.2,1,0.2,1.8l0,10.3c0,3-0.9,5.7-2.8,8.2c-0.9,1.2-2.1,2.1-3.5,2.8
						c-1.4,0.7-3,1.1-4.8,1.1c-1.7,0-3.3-0.4-4.7-1.1c-1.4-0.7-2.6-1.7-3.5-2.9c-1.8-2.4-2.8-5.1-2.8-8.2l0-10.3
						c0-0.5,0-0.9,0.1-1.2c0-0.3,0.1-0.6,0.3-0.9c0.2-0.3,0.5-0.6,0.9-0.7c0.4-0.1,1-0.2,1.7-0.2c0.7,0,1.3,0.1,1.7,0.2
						c0.4,0.1,0.7,0.4,0.9,0.7c0.3,0.5,0.4,1.2,0.4,2.1l0,10.2c0,1.4,0.3,2.7,1,4c0.3,0.6,0.9,1.1,1.5,1.5c0.7,0.4,1.5,0.6,2.4,0.6
						c1.7,0,2.9-0.6,3.7-1.8c0.8-1.2,1.2-2.6,1.2-4.3l0-10.4C-590.5,2985.3-590.4,2984.7-590.2,2984.3z"/>
				</g>
			</g>
		</g>
	</g>
</g>
</svg>
