<?xml version="1.0" encoding="utf-8"?>
<!-- Generator: Adobe Illustrator 25.4.1, SVG Export Plug-In . SVG Version: 6.00 Build 0)  -->
<svg version="1.1" id="Layer_1" xmlns="http://www.w3.org/2000/svg" xmlns:xlink="http://www.w3.org/1999/xlink" x="0px" y="0px"
	 viewBox="0 0 491 487.2" style="enable-background:new 0 0 491 487.2;" xml:space="preserve">
<style type="text/css">
	.st0{fill:#F3F3F3;}
	.st1{fill:#E64C4C;}
	.st2{fill:#58CCBE;}
	.st3{fill:#58CC6F;}
	.st4{fill:#F5C858;}
	.st5{enable-background:new    ;}
	.st6{fill:#FFFFFF;}
	.st7{fill:#ED9247;}
</style>
<g transform="matrix(1, 0, 0, 1, 76, 47)">
	<path id="Rectangle_1-19" class="st0" d="M9.9-24.9h326.8c32.4,0,58.6,26.2,58.6,58.6v326.8c0,32.4-26.2,58.6-58.6,58.6H9.9
		c-32.4,0-58.6-26.2-58.6-58.6V33.7C-48.7,1.4-22.5-24.9,9.9-24.9z"/>
</g>
<path id="Intersection_1" class="st1" d="M25.5,187.3V80.7c0-32.4,26.2-58.6,58.6-58.6h107.5c0,91.2-74,165.2-165.2,165.2H25.5z"/>
<path id="Intersection_4" class="st2" d="M471.3,301.9v106.6c0,32.4-26.2,58.6-58.6,58.6H305.3c0-91.2,74-165.2,165.2-165.2H471.3z"
	/>
<path id="Intersection_2" class="st3" d="M306.1,22.1h106.6c32.4,0,58.6,26.2,58.6,58.6v107.5c-91.2,0-165.2-74-165.2-165.2V22.1z"
	/>
<path id="Intersection_3" class="st4" d="M190.7,467H84.1c-32.4,0-58.6-26.2-58.6-58.6V301c91.2,0,165.2,74,165.2,165.2V467z"/>
<g class="st5">
	<path class="st6" d="M427.6,80.2l-26.4,26.4l-6.1-6.1L416.6,79l-5.3-5.3l4.9-4.9L427.6,80.2z"/>
</g>
<g class="st5">
	<path class="st6" d="M388.5,400.4l-5-5l19.9-19.9l4,4l-0.6,19.8c-0.1,4.6,0.8,6.3,2.1,7.6c2.1,2.1,4.7,1.8,7.5-0.9
		c2.3-2.3,3.3-5,2.8-8.1l7.3-1.6c0.9,5-0.8,10.6-5.6,15.4c-5.9,5.9-12.8,6.8-17.6,2c-2.6-2.6-4.2-5.6-3.9-12.7l0.3-11.8L388.5,400.4
		z"/>
</g>
<g class="st5">
	<path class="st6" d="M110.4,90.2l-4.3,4.3l5.5,5.5l-6,6l-5.5-5.5L86,114.6l-4.1-4.1l-4.3-29.2l6.4-6.4l4.3,27.4l7.1-7.1l-4.9-4.9
		l5.8-5.8l4.9,4.9l4.3-4.3L110.4,90.2z"/>
</g>
<g class="st5">
	<path class="st6" d="M87.7,384c4.4-4.4,11.9-5.1,19.4,2.4c3.7,3.7,6.5,8.5,7.2,12.9l-7,2.3c-0.5-3.5-2.4-7.2-5.2-9.9
		c-3.1-3.1-6.2-3.7-8.3-1.5c-2,2-1.8,4.7,1.7,8.2l2.8,2.8l-4,4l-11.6,0.7L94,417.1l-4.9,4.9l-18.5-18.5l4-4l12.7-0.8
		C83.3,393.2,83.8,387.9,87.7,384z"/>
</g>
<g id="ICON_ORANGE" transform="translate(304.134 750.038)">
	<path id="Subtraction_12" class="st7" d="M19.7-462.5L19.7-462.5c7.7-5.6,11.1-18.9,8.9-34.6c-2.1-15.4-8.7-26.3-17.6-29.4
		c0.4-0.1,0.8-0.2,1.2-0.2c0.9-0.1,1.7-0.2,2.6-0.2c6.5,0.2,12.6,3.2,16.8,8.2c5.1,5.8,8.3,13,9.3,20.6c0.6,4.2,0.6,8.5-0.1,12.7
		c-0.6,3.8-1.9,7.5-3.7,10.9c-1.7,3.1-3.9,5.8-6.7,7.9c-2.6,2-5.8,3.4-9.1,3.8C20.7-462.6,20.2-462.5,19.7-462.5L19.7-462.5z"/>
	<path id="Subtraction_11" class="st7" d="M-53.1-414.4c-26.9,0-51.6-14.6-64.6-38.2c5.9-2.3,10.7-7.7,13.4-15
		c2.7-8,3.1-16.7,1.1-24.9c-2.6-11.2-8.9-20.9-17-25.9c16.7-37.1,60.4-53.6,97.5-36.9s53.6,60.4,36.9,97.5
		C2.2-431.4-24.1-414.4-53.1-414.4z"/>
	<g id="ICON_ORANGE-2" transform="translate(197.574 672.452)">
		<path id="Path_8" class="st0" d="M-294.5-1164.8c0,0,2.5-6.3,15-8.9c5.6-1.1,15.7-1.4,23.9,3.2s8.5,10.9,11,13.9
			c-8.1-4.7-17.2-7.5-26.6-8.3c-15-1-23.3,4.5-23.3,4.5s7.3-9,17.7-8C-266.4-1167.4-294.5-1164.8-294.5-1164.8z"/>
		<path id="Path_9" class="st0" d="M-207.2-1187.6c8.5,0,15.5,11.9,15.5,26.5c0,14.6-6.9,9-15.5,9s-15.5,5.7-15.5-9
			C-222.6-1175.8-215.7-1187.6-207.2-1187.6z"/>
		<path id="Path_11" class="st7" d="M-214-1185.8c6,0,10.8,8.3,10.8,18.6c0,10.3-4.9,14.3-10.8,14.3s-10.8-4-10.8-14.3
			S-220-1185.8-214-1185.8z"/>
		<path id="Path_10" class="st0" d="M-257.9-1141.3c18.9-3,29.6-2.2,43.2,2.2c13.6,4.4,0,7,0,17.7v14.4c0,0-33.5,12.4-54.4,1.7
			c-10.7-5.5-19.6-30.2-19.6-30.2S-268.6-1139.6-257.9-1141.3z"/>
	</g>
	<path id="Path_12" class="st7" d="M41.6-582.9c-4.5,5.3-9.3,10.2-14.5,14.7c-6.8,5.5,11.7-1.9,11.7-1.9s-0.3,22.3-23.2,25.4
		s5,3.5,5,3.5s-4.5,10-22.5,10c-30.6,6.8-85.3,11.9-110.1,1.6c8.4-11.7,9-13.8,28.4-28.5S41.6-582.9,41.6-582.9z"/>
	
		<ellipse id="Ellipse_71" transform="matrix(0.9703 -0.2419 0.2419 0.9703 113.8313 -46.3409)" class="st7" cx="-131.8" cy="-486.7" rx="24.4" ry="32.4"/>
	<path id="Path_136" class="st7" d="M-146.7-543.9c7.1-15.1,26.9-26.4,47.4-30.9c3-0.7,20.6-5.3,34.2-5.8c12-0.6,23.9,1,35.4,4.5
		l-17.6,3.1c-13.9-0.1-27.7,2.1-40.9,6.4c-19.9,7-28.4,8.6-38.7,21.5c-10.3,12.9,0,33.8,0,33.8l-17.6,3.4
		C-144.6-507.9-153.8-528.8-146.7-543.9z"/>
</g>
</svg>
