<?xml version="1.0" encoding="utf-8"?>
<!-- Generator: Adobe Illustrator 25.4.1, SVG Export Plug-In . SVG Version: 6.00 Build 0)  -->
<svg version="1.1" id="Layer_1" xmlns="http://www.w3.org/2000/svg" xmlns:xlink="http://www.w3.org/1999/xlink" x="0px" y="0px"
	 viewBox="0 0 491 487.2" style="enable-background:new 0 0 491 487.2;" xml:space="preserve">
<style type="text/css">
	.st0{fill:#F3F3F3;}
	.st1{fill:#E64C4C;}
	.st2{fill:#58CCBE;}
	.st3{fill:#58CC6F;}
	.st4{fill:#F5C858;}
	.st5{enable-background:new    ;}
	.st6{fill:#FFFFFF;}
	.st7{fill:#F0F0F0;}
</style>
<g transform="matrix(1, 0, 0, 1, 76, 47)">
	<path id="Rectangle_1-19" class="st0" d="M9.9-24.9h326.8c32.4,0,58.6,26.2,58.6,58.6v326.8c0,32.4-26.2,58.6-58.6,58.6H9.9
		c-32.4,0-58.6-26.2-58.6-58.6V33.7C-48.7,1.4-22.5-24.9,9.9-24.9z"/>
</g>
<path id="Intersection_1" class="st1" d="M25.5,187.3V80.7c0-32.4,26.2-58.6,58.6-58.6h107.5c0,91.2-74,165.2-165.2,165.2H25.5z"/>
<path id="Intersection_4" class="st2" d="M471.3,301.9v106.6c0,32.4-26.2,58.6-58.6,58.6H305.3c0-91.2,74-165.2,165.2-165.2H471.3z"
	/>
<path id="Intersection_2" class="st3" d="M306.1,22.1h106.6c32.4,0,58.6,26.2,58.6,58.6v107.5c-91.2,0-165.2-74-165.2-165.2V22.1z"
	/>
<path id="Intersection_3" class="st4" d="M190.7,467H84.1c-32.4,0-58.6-26.2-58.6-58.6V301c91.2,0,165.2,74,165.2,165.2V467z"/>
<g class="st5">
	<path class="st6" d="M427.6,80.2l-26.4,26.4l-6.1-6.1L416.6,79l-5.3-5.3l4.9-4.9L427.6,80.2z"/>
</g>
<g class="st5">
	<path class="st6" d="M388.5,400.4l-5-5l19.9-19.9l4,4l-0.6,19.8c-0.1,4.6,0.8,6.3,2.1,7.6c2.1,2.1,4.7,1.8,7.5-0.9
		c2.3-2.3,3.3-5,2.8-8.1l7.3-1.6c0.9,5-0.8,10.6-5.6,15.4c-5.9,5.9-12.8,6.8-17.6,2c-2.6-2.6-4.2-5.6-3.9-12.7l0.3-11.8L388.5,400.4
		z"/>
</g>
<g class="st5">
	<path class="st6" d="M110.4,90.2l-4.3,4.3l5.5,5.5l-6,6l-5.5-5.5L86,114.6l-4.1-4.1l-4.3-29.2l6.4-6.4l4.3,27.4l7.1-7.1l-4.9-4.9
		l5.8-5.8l4.9,4.9l4.3-4.3L110.4,90.2z"/>
</g>
<g class="st5">
	<path class="st6" d="M87.7,384c4.4-4.4,11.9-5.1,19.4,2.4c3.7,3.7,6.5,8.5,7.2,12.9l-7,2.3c-0.5-3.5-2.4-7.2-5.2-9.9
		c-3.1-3.1-6.2-3.7-8.3-1.5c-2,2-1.8,4.7,1.7,8.2l2.8,2.8l-4,4l-11.6,0.7L94,417.1l-4.9,4.9l-18.5-18.5l4-4l12.7-0.8
		C83.3,393.2,83.8,387.9,87.7,384z"/>
</g>
<g id="Group_174_00000008827296443297903030000009863816697521842563_" transform="translate(-1451.881 583.264)">
	<g id="Group_165_00000142884354223001225270000007167015938568180620_" transform="translate(1913 798)">
		<path id="Path_130_00000163765891945276016520000017923737219707827370_" class="st3" d="M-106.3-1195.6
			c-4.9-4.4-17.7,1.8-30.1,13.9c-5,5.1-9.5,10.6-13.5,16.5l-1.7-1.3c2.3-3.7,4.9-7.3,7.6-10.7c-14.8-36.6-40.6-59.9-71.3-59.9
			c-30.8,0-57.4,23.5-72.2,60.6c2.7,2.3,5.2,4.7,7.5,7.4l-0.7,2.9c-6.5-7.6-14.2-14.1-22.7-19.4l0,0c-10.4-6.2-19.4-8.2-22.8-4.4
			c-4.9,5.6,3.6,21.3,19.2,35.2c0.5,0.5,1,0.9,1.6,1.3c5.5,4.4,14.6,10.8,22,11.5v2.4c-4.1-0.4-10.9-3.5-15.1-6
			c-2.1,11.5,0.8,31.8,0.8,44c0,56.8-2,45.7,45,37.2c10.8,9.9,24.7-2.8,40.5-2.8s30.6,12.7,41.4,2.8c46.8,8.4,41.8,19.5,41.8-37.2
			c-0.4-14.1-2-28.2-4.6-42.1c-3.8,2.4-8.1,3.9-12.6,4.4v-2c4.3-0.6,8.4-2.3,11.9-4.8v0c4.7-3.7,9.1-7.7,13-12.2
			C-107.5-1174-100.8-1190.6-106.3-1195.6z"/>
		<path id="Path_131_00000078024517494993320310000011896529858608009601_" class="st7" d="M-251.5-1120.7
			c0,9.4,22.7,28.3,40.9,28.3s25-18.9,25-28.3s-15,5.1-33.2,5.1S-251.5-1130.1-251.5-1120.7z"/>
		<path id="Subtraction_7_00000087379517337206479120000005166636184583082902_" class="st7" d="M-241-1176.3
			c-17.1,0-16.7,15.5-16.7,2.2c0-13.3,7.2-24.1,16-24.1c8.9,0,16,10.8,16,24.1S-223.9-1176.3-241-1176.3z"/>
		<path id="Subtraction_8_00000012433989992548263770000005037482034690826633_" class="st7" d="M-193.2-1176.2
			c-17.1,0-16.1,15.3-16.1,2c0-13.3,7.2-24.1,16-24.1c8.9,0,16,10.8,16,24.1C-177.2-1161-176.1-1176.2-193.2-1176.2z"/>
		<path id="Path_132_00000039134662876088978990000002096273787055095947_" class="st3" d="M-214.9-1119c0,0,3.1,13.9-1.6,13.1
			c-4.7-0.8-9.3,0.3-5.2-13"/>
		<path id="Path_133_00000154415965218466864460000008088960460447592340_" class="st3" d="M-212.6-1116.2c0,0-0.9,12.5,4.6,9.5
			c5.5-3,4.9-6.8,0.2-13"/>
	</g>
</g>
</svg>
