<?xml version="1.0" encoding="utf-8"?>
<!-- Generator: Adobe Illustrator 25.4.1, SVG Export Plug-In . SVG Version: 6.00 Build 0)  -->
<svg version="1.1" id="Layer_1" xmlns="http://www.w3.org/2000/svg" xmlns:xlink="http://www.w3.org/1999/xlink" x="0px" y="0px"
	 viewBox="0 0 491 487.2" style="enable-background:new 0 0 491 487.2;" xml:space="preserve">
<style type="text/css">
	.st0{fill:#F3F3F3;}
	.st1{fill:#ED9247;}
	.st2{enable-background:new    ;}
	.st3{fill:#ECECEC;}
</style>
<path id="Rectangle_1-36" class="st0" d="M81.7,18.6h334.4c33.1,0,60,26.9,60,60v334.4c0,33.1-26.9,60-60,60H81.7
	c-33.1,0-60-26.9-60-60V78.5C21.7,45.4,48.6,18.6,81.7,18.6z"/>
<g id="Group_29-22" transform="translate(3383.152 -90.933) rotate(90)">
	<g id="Group_20-36" transform="translate(1639 3297.5) rotate(180)">
		<path id="Intersection_4-50" class="st1" d="M1529.5,221.4v109c0,33.1-26.9,60-60,60h-110c0-93.3,75.7-169,169-169H1529.5z"/>
	</g>
</g>
<g id="Group_231" transform="translate(-2854.349 2773.068) rotate(-90)">
	<g id="Group_20-37" transform="translate(1639 3297.5) rotate(180)">
		<path id="Intersection_4-51" class="st1" d="M-661.2,251.5v109c0,33.1-26.9,60-60,60h-110c0-93.3,75.7-169,169-169H-661.2z"/>
	</g>
</g>
<g id="Group_232" transform="translate(1696.152 4460.067) rotate(180)">
	<g id="Group_20-38" transform="translate(1639 3297.5) rotate(180)">
		<path id="Intersection_4-52" class="st1" d="M418.9-858.7v109c0,33.1-26.9,60-60,60H249c0-93.3,75.7-169,169-169H418.9z"/>
	</g>
</g>
<g id="Group_233" transform="translate(-1167.849 -1777.932)">
	<g id="Group_20-39" transform="translate(1639 3297.5) rotate(180)">
		<path id="Intersection_4-53" class="st1" d="M449.4,1332v109c0,33.1-26.9,60-60,60h-110c0-93.3,75.7-169,169-169H449.4z"/>
	</g>
</g>
<g id="Group_181" transform="translate(-4446.604 -10115.507) rotate(60)">
	<g id="Group_148-10" transform="translate(12224.423 1552.942)">
		<g id="Group_146-19" transform="translate(0 133.268)">
			<g id="Group_135-37" transform="translate(0 0)">
				<g class="st2">
					<path class="st1" d="M-998-486.4c0-0.5,0-0.8,0-1.1c0-0.2,0.1-0.5,0.3-0.8c0.3-0.5,1.1-0.8,2.4-0.8c1,0,1.7,0.2,2.1,0.5
						c0.3,0.3,0.5,0.7,0.6,1.3c0,0.2,0,0.5,0,0.9l0,10.8c0,0.5,0,0.8,0,1.1c0,0.2-0.1,0.5-0.3,0.8c-0.3,0.5-1.1,0.8-2.4,0.8
						c-1.3,0-2.1-0.3-2.4-0.8c-0.1-0.3-0.2-0.6-0.3-0.8c0-0.2,0-0.6,0-1.1L-998-486.4z M-992.9-492.1c-0.2,0.3-0.4,0.5-0.8,0.6
						c-0.4,0.1-0.9,0.2-1.6,0.2c-0.6,0-1.2-0.1-1.6-0.2c-0.4-0.1-0.7-0.3-0.8-0.6c-0.2-0.3-0.2-0.6-0.3-0.8c0-0.2,0-0.6,0-1.1
						c0-0.5,0-0.8,0-1.1c0-0.2,0.1-0.5,0.3-0.8c0.3-0.6,1.1-0.8,2.4-0.8c1.3,0,2.1,0.3,2.3,0.8c0.2,0.3,0.3,0.6,0.3,0.8
						c0,0.2,0,0.6,0,1.1c0,0.5,0,0.8,0,1.1C-992.7-492.7-992.8-492.4-992.9-492.1z"/>
				</g>
				<g class="st2">
					<path class="st1" d="M-878.3-486.4c0-0.5,0-0.8,0-1.1c0-0.2,0.1-0.5,0.3-0.8c0.3-0.5,1.1-0.8,2.4-0.8c1,0,1.7,0.2,2.1,0.5
						c0.3,0.3,0.5,0.7,0.6,1.3c0,0.2,0,0.5,0,0.9l0,10.8c0,0.5,0,0.8,0,1.1c0,0.2-0.1,0.5-0.3,0.8c-0.3,0.5-1.1,0.8-2.4,0.8
						c-1.3,0-2.1-0.3-2.4-0.8c-0.1-0.3-0.2-0.6-0.3-0.8c0-0.2,0-0.6,0-1.1L-878.3-486.4z M-873.2-492.1c-0.2,0.3-0.4,0.5-0.8,0.6
						c-0.4,0.1-0.9,0.2-1.6,0.2c-0.6,0-1.2-0.1-1.6-0.2c-0.4-0.1-0.7-0.3-0.8-0.6c-0.2-0.3-0.2-0.6-0.3-0.8c0-0.2,0-0.6,0-1.1
						c0-0.5,0-0.8,0-1.1c0-0.2,0.1-0.5,0.3-0.8c0.3-0.6,1.1-0.8,2.4-0.8c1.3,0,2.1,0.3,2.3,0.8c0.2,0.3,0.3,0.6,0.3,0.8
						c0,0.2,0,0.6,0,1.1c0,0.5,0,0.8,0,1.1C-873-492.7-873.1-492.4-873.2-492.1z"/>
				</g>
				<g class="st2">
					<path class="st1" d="M-824.2-483c0.3,0.2,0.5,0.4,0.6,0.8c0.1,0.4,0.2,0.9,0.2,1.6c0,0.6-0.1,1.2-0.2,1.6
						c-0.1,0.4-0.3,0.7-0.6,0.8c-0.3,0.2-0.6,0.2-0.8,0.3c-0.2,0-0.6,0-1.1,0c-0.5,0-0.8,0-1.1,0c-0.2,0-0.5-0.1-0.8-0.3
						c-0.6-0.3-0.8-1.1-0.8-2.4c0-1.3,0.3-2.1,0.8-2.3c0.3-0.2,0.6-0.3,0.8-0.3c0.2,0,0.6,0,1.1,0c0.5,0,0.8,0,1.1,0
						C-824.7-483.3-824.5-483.2-824.2-483z M-818.4-477.9c-0.5,0-0.8,0-1.1,0c-0.2,0-0.5-0.1-0.8-0.3c-0.5-0.3-0.8-1.1-0.8-2.4
						c0-1,0.2-1.7,0.5-2.1c0.3-0.3,0.7-0.5,1.3-0.6c0.2,0,0.5,0,0.9,0l10.8,0c0.5,0,0.8,0,1.1,0c0.2,0,0.5,0.1,0.8,0.3
						c0.5,0.3,0.8,1.1,0.8,2.4c0,1.3-0.3,2.1-0.8,2.4c-0.3,0.1-0.6,0.2-0.8,0.3c-0.2,0-0.6,0-1.1,0L-818.4-477.9z"/>
				</g>
				<g class="st2">
					<path class="st1" d="M-777.4-495.6c3.8,0,7,1.4,9.8,4.1c2.8,2.7,4.2,6.1,4.2,10.1c0,4-1.3,7.5-4,10.3c-2.6,2.8-5.9,4.3-9.8,4.3
						c-3.9,0-7.2-1.4-9.9-4.2c-2.7-2.8-4.1-6.1-4.1-10c0-2.1,0.4-4.1,1.1-5.9c0.8-1.8,1.8-3.4,3.1-4.6c1.3-1.2,2.7-2.2,4.4-2.9
						C-780.9-495.2-779.2-495.6-777.4-495.6z M-784.4-481.2c0,2.3,0.7,4.1,2.2,5.5c1.5,1.4,3.1,2.1,4.9,2.1c1.8,0,3.4-0.7,4.9-2.1
						c1.5-1.4,2.2-3.2,2.2-5.5c0-2.3-0.7-4.2-2.2-5.6c-1.5-1.4-3.1-2.1-4.9-2.1c-1.8,0-3.4,0.7-4.9,2.1
						C-783.6-485.3-784.4-483.4-784.4-481.2z"/>
				</g>
				<g class="st2">
					<path class="st1" d="M-963.8-494.7c0.2-0.4,0.6-0.7,1-0.9c0.5-0.1,1-0.2,1.7-0.2c0.7,0,1.2,0.1,1.7,0.2
						c0.4,0.1,0.7,0.3,0.9,0.4c0.2,0.2,0.4,0.4,0.5,0.8c0.1,0.4,0.2,1,0.2,1.9l0,20.2c0,0.6,0,1-0.1,1.3c0,0.3-0.2,0.6-0.3,0.9
						c-0.3,0.7-1.3,1-2.8,1c-0.9,0-1.6-0.1-2-0.2c-0.4-0.1-0.7-0.4-0.9-0.7c-5.5-7.3-9-12-10.8-14.2l0,12c0,0.6,0,1-0.1,1.3
						c0,0.3-0.2,0.6-0.3,0.9c-0.3,0.7-1.3,1-2.8,1c-1.5,0-2.4-0.3-2.8-1c-0.2-0.4-0.3-0.7-0.3-1c0-0.3-0.1-0.7-0.1-1.3v-20.3
						c0-0.9,0.1-1.6,0.3-2c0.2-0.4,0.6-0.7,1-0.9c0.5-0.1,1.1-0.2,1.8-0.2c0.7,0,1.3,0.1,1.7,0.2c0.4,0.1,0.7,0.3,0.9,0.5
						c0.1,0.1,0.4,0.4,0.8,0.9c5.1,7,8.5,11.5,10.3,13.8l0-12.3C-964.2-493.7-964.1-494.3-963.8-494.7z"/>
				</g>
				<g class="st2">
					<path class="st1" d="M-737.1-494.6c0.2-0.4,0.6-0.7,1-0.9c0.5-0.1,1-0.2,1.7-0.2c0.7,0,1.2,0.1,1.7,0.2
						c0.4,0.1,0.7,0.3,0.9,0.4c0.2,0.2,0.4,0.4,0.5,0.8c0.1,0.4,0.2,1,0.2,1.9l0,20.2c0,0.6,0,1-0.1,1.3c0,0.3-0.2,0.6-0.3,0.9
						c-0.3,0.7-1.3,1-2.8,1c-0.9,0-1.6-0.1-2-0.2c-0.4-0.1-0.7-0.4-0.9-0.7c-5.5-7.3-9-12-10.8-14.2l0,12c0,0.6,0,1-0.1,1.3
						c0,0.3-0.2,0.6-0.3,0.9c-0.3,0.7-1.3,1-2.8,1c-1.5,0-2.4-0.3-2.8-1c-0.2-0.4-0.3-0.7-0.3-1s-0.1-0.7-0.1-1.3l0-20.3
						c0-0.9,0.1-1.6,0.3-2c0.2-0.4,0.6-0.7,1-0.9c0.5-0.1,1.1-0.2,1.8-0.2c0.7,0,1.3,0.1,1.7,0.2c0.4,0.1,0.7,0.3,0.9,0.5
						c0.1,0.1,0.4,0.4,0.8,0.9c5.1,7,8.5,11.5,10.3,13.8l0-12.3C-737.4-493.5-737.3-494.2-737.1-494.6z"/>
				</g>
				<g class="st2">
					<path class="st1" d="M-945.2-494.6h19.2c0.7,0,1.3,0.1,1.6,0.3c0.3,0.2,0.6,0.4,0.7,0.8c0.1,0.4,0.2,0.9,0.2,1.5
						c0,0.6-0.1,1.1-0.2,1.4c-0.1,0.4-0.3,0.6-0.6,0.7c-0.4,0.2-1,0.3-1.8,0.3l-6.6,0l0,17.4c0,0.5,0,0.9-0.1,1.2
						c0,0.3-0.1,0.5-0.3,0.9c-0.2,0.3-0.5,0.6-0.9,0.7c-0.4,0.1-1,0.2-1.7,0.2c-0.7,0-1.3-0.1-1.7-0.2c-0.4-0.1-0.7-0.4-0.9-0.7
						c-0.2-0.3-0.3-0.6-0.3-0.9c0-0.3-0.1-0.7-0.1-1.2l0-17.3l-6.6,0c-0.7,0-1.3-0.1-1.6-0.3c-0.3-0.2-0.6-0.4-0.7-0.8
						c-0.1-0.4-0.2-0.9-0.2-1.5c0-0.6,0.1-1.1,0.2-1.4c0.1-0.4,0.3-0.6,0.6-0.7C-946.6-494.5-946-494.6-945.2-494.6z"/>
				</g>
				<g class="st2">
					<path class="st1" d="M-859.8-494.6h19.2c0.7,0,1.3,0.1,1.6,0.3c0.3,0.2,0.6,0.4,0.7,0.8c0.1,0.4,0.2,0.9,0.2,1.5
						c0,0.6-0.1,1.1-0.2,1.4c-0.1,0.4-0.3,0.6-0.6,0.7c-0.4,0.2-1,0.3-1.8,0.3l-6.6,0l0,17.4c0,0.5,0,0.9-0.1,1.2
						c0,0.3-0.1,0.5-0.3,0.9c-0.2,0.3-0.5,0.6-0.9,0.7c-0.4,0.1-1,0.2-1.7,0.2c-0.7,0-1.3-0.1-1.7-0.2c-0.4-0.1-0.7-0.4-0.9-0.7
						c-0.2-0.3-0.3-0.6-0.3-0.9c0-0.3-0.1-0.7-0.1-1.2l0-17.3l-6.6,0c-0.7,0-1.3-0.1-1.6-0.3c-0.3-0.2-0.6-0.4-0.7-0.8
						c-0.1-0.4-0.2-0.9-0.2-1.5c0-0.6,0.1-1.1,0.2-1.4c0.1-0.4,0.3-0.6,0.6-0.7C-861.1-494.5-860.5-494.6-859.8-494.6z"/>
				</g>
				<g class="st2">
					<path class="st1" d="M-895.9-493.6c0.2-0.4,0.6-0.6,1-0.8c0.4-0.1,1-0.2,1.6-0.2c0.7,0,1.2,0.1,1.6,0.2
						c0.4,0.1,0.7,0.3,0.9,0.4c0.2,0.2,0.4,0.4,0.4,0.7c0.1,0.4,0.2,1,0.2,1.8l0,10.4c0,3-0.9,5.8-2.8,8.3c-0.9,1.2-2.1,2.1-3.6,2.8
						c-1.5,0.7-3.1,1.1-4.8,1.1s-3.4-0.4-4.8-1.1c-1.4-0.7-2.6-1.7-3.5-2.9c-1.9-2.4-2.8-5.2-2.8-8.3l0-10.4c0-0.6,0-1,0.1-1.2
						c0-0.3,0.1-0.6,0.3-0.9c0.2-0.3,0.5-0.6,0.9-0.7c0.4-0.1,1-0.2,1.8-0.2c0.7,0,1.3,0.1,1.8,0.2c0.4,0.1,0.7,0.4,0.9,0.7
						c0.3,0.5,0.4,1.3,0.4,2.2l0,10.4c0,1.4,0.3,2.7,1,4c0.3,0.6,0.9,1.2,1.6,1.6c0.7,0.4,1.5,0.6,2.5,0.6c1.7,0,2.9-0.6,3.8-1.9
						c0.8-1.2,1.2-2.7,1.2-4.3l0-10.6C-896.2-492.6-896.1-493.2-895.9-493.6z"/>
				</g>
			</g>
		</g>
		<g id="Group_147-19" transform="translate(90.063 148.182) rotate(-90)">
			<g id="Group_135-38" transform="translate(0 0)">
				<g class="st2">
					<path class="st1" d="M497.9-914c-0.2,0.3-0.4,0.5-0.8,0.6c-0.4,0.1-0.9,0.2-1.6,0.2c-0.6,0-1.2-0.1-1.6-0.2
						c-0.4-0.1-0.7-0.3-0.8-0.6c-0.2-0.3-0.2-0.6-0.3-0.8c0-0.2,0-0.6,0-1.1c0-0.5,0-0.8,0-1.1c0-0.2,0.1-0.5,0.3-0.8
						c0.3-0.6,1.1-0.8,2.4-0.8c1.3,0,2.1,0.3,2.3,0.8c0.2,0.3,0.3,0.6,0.3,0.8c0,0.2,0,0.6,0,1.1c0,0.5,0,0.8,0,1.1
						C498.1-914.6,498-914.3,497.9-914z M492.8-908.3c0-0.5,0-0.8,0-1.1c0-0.2,0.1-0.5,0.3-0.8c0.3-0.5,1.1-0.8,2.4-0.8
						c1,0,1.7,0.2,2.1,0.5c0.4,0.3,0.5,0.7,0.6,1.3c0,0.2,0,0.5,0,0.9l0,10.8c0,0.5,0,0.8,0,1.1c0,0.2-0.1,0.5-0.3,0.8
						c-0.3,0.5-1.1,0.8-2.4,0.8c-1.3,0-2.1-0.3-2.4-0.8c-0.1-0.3-0.2-0.6-0.3-0.8c0-0.2,0-0.6,0-1.1L492.8-908.3z"/>
				</g>
				<g class="st2">
					<path class="st1" d="M617.6-914c-0.2,0.3-0.4,0.5-0.8,0.6c-0.4,0.1-0.9,0.2-1.6,0.2c-0.6,0-1.2-0.1-1.6-0.2
						c-0.4-0.1-0.7-0.3-0.8-0.6c-0.2-0.3-0.2-0.6-0.3-0.8c0-0.2,0-0.6,0-1.1s0-0.8,0-1.1c0-0.2,0.1-0.5,0.3-0.8
						c0.3-0.6,1.1-0.8,2.4-0.8c1.3,0,2.1,0.3,2.3,0.8c0.2,0.3,0.3,0.6,0.3,0.8c0,0.2,0,0.6,0,1.1c0,0.5,0,0.8,0,1.1
						C617.8-914.6,617.7-914.3,617.6-914z M612.5-908.3c0-0.5,0-0.8,0-1.1c0-0.2,0.1-0.5,0.3-0.8c0.3-0.5,1.1-0.8,2.4-0.8
						c1,0,1.7,0.2,2.1,0.5c0.3,0.3,0.5,0.7,0.6,1.3c0,0.2,0,0.5,0,0.9l0,10.8c0,0.5,0,0.8,0,1.1c0,0.2-0.1,0.5-0.3,0.8
						c-0.3,0.5-1.1,0.8-2.4,0.8c-1.3,0-2.1-0.3-2.4-0.8c-0.1-0.3-0.2-0.6-0.3-0.8c0-0.2,0-0.6,0-1.1L612.5-908.3z"/>
				</g>
				<g class="st2">
					<path class="st1" d="M666.7-904.9c0.3,0.2,0.5,0.4,0.6,0.8c0.1,0.4,0.2,0.9,0.2,1.6c0,0.6-0.1,1.2-0.2,1.6
						c-0.1,0.4-0.3,0.7-0.6,0.8c-0.3,0.2-0.6,0.2-0.8,0.3c-0.2,0-0.6,0-1.1,0c-0.5,0-0.8,0-1.1,0c-0.2,0-0.5-0.1-0.8-0.3
						c-0.6-0.3-0.8-1.1-0.8-2.4c0-1.3,0.3-2.1,0.8-2.3c0.3-0.2,0.6-0.3,0.8-0.3c0.2,0,0.6,0,1.1,0c0.5,0,0.8,0,1.1,0
						C666.1-905.1,666.4-905.1,666.7-904.9z M672.4-899.8c-0.5,0-0.8,0-1.1,0c-0.2,0-0.5-0.1-0.8-0.3c-0.5-0.3-0.8-1.1-0.8-2.4
						c0-1,0.2-1.7,0.5-2.1c0.3-0.3,0.7-0.5,1.3-0.6c0.2,0,0.5,0,0.9,0l10.8,0c0.5,0,0.8,0,1.1,0c0.2,0,0.5,0.1,0.8,0.3
						c0.5,0.3,0.8,1.1,0.8,2.4c0,1.3-0.3,2.1-0.8,2.4c-0.3,0.1-0.6,0.2-0.8,0.3c-0.2,0-0.6,0-1.1,0L672.4-899.8z"/>
				</g>
				<g class="st2">
					<path class="st1" d="M711.9-916.6c3.4,0,6.4,1.2,8.9,3.7c2.5,2.5,3.8,5.5,3.8,9.2c0,3.6-1.2,6.8-3.6,9.3
						c-2.4,2.6-5.3,3.8-8.8,3.8c-3.5,0-6.5-1.3-8.9-3.8c-2.5-2.5-3.7-5.5-3.7-9c0-1.9,0.3-3.7,1-5.4c0.7-1.7,1.6-3.1,2.8-4.2
						c1.2-1.1,2.5-2,4-2.7C708.8-916.3,710.3-916.6,711.9-916.6z M705.6-903.6c0,2,0.7,3.7,2,5c1.3,1.3,2.8,1.9,4.4,1.9
						c1.6,0,3.1-0.6,4.4-1.9c1.3-1.2,2-2.9,2-5c0-2.1-0.7-3.8-2-5c-1.3-1.3-2.8-1.9-4.4-1.9c-1.6,0-3.1,0.6-4.4,1.9
						C706.3-907.3,705.6-905.6,705.6-903.6z"/>
				</g>
				<g class="st2">
					<path class="st1" d="M527-916.6c0.2-0.4,0.6-0.7,1-0.9c0.5-0.1,1-0.2,1.7-0.2c0.7,0,1.2,0.1,1.7,0.2c0.4,0.1,0.7,0.3,0.9,0.4
						c0.2,0.2,0.4,0.4,0.5,0.8c0.1,0.4,0.2,1,0.2,1.9l0,20.2c0,0.6,0,1-0.1,1.3c0,0.3-0.2,0.6-0.3,0.9c-0.3,0.7-1.3,1-2.8,1
						c-0.9,0-1.6-0.1-2-0.2c-0.4-0.1-0.7-0.4-0.9-0.7c-5.5-7.3-9-12-10.8-14.2l0,12c0,0.6,0,1-0.1,1.3c0,0.3-0.2,0.6-0.3,0.9
						c-0.3,0.7-1.3,1-2.8,1c-1.5,0-2.4-0.3-2.8-1c-0.2-0.4-0.3-0.7-0.3-1c0-0.3-0.1-0.7-0.1-1.3l0-20.3c0-0.9,0.1-1.6,0.3-2
						c0.2-0.4,0.6-0.7,1-0.9c0.5-0.1,1.1-0.2,1.8-0.2c0.7,0,1.3,0.1,1.7,0.2c0.4,0.1,0.7,0.3,0.9,0.5c0.1,0.1,0.4,0.4,0.8,0.9
						c5.1,7,8.5,11.5,10.2,13.8l0-12.3C526.6-915.5,526.7-916.2,527-916.6z"/>
				</g>
				<g class="st2">
					<path class="st1" d="M753.2-916.5c0.2-0.4,0.6-0.7,1-0.9c0.5-0.1,1-0.2,1.7-0.2c0.7,0,1.2,0.1,1.7,0.2c0.4,0.1,0.7,0.3,0.9,0.4
						c0.2,0.2,0.4,0.4,0.5,0.8c0.1,0.4,0.2,1,0.2,1.9l0,20.2c0,0.6,0,1-0.1,1.3c0,0.3-0.2,0.6-0.3,0.9c-0.3,0.7-1.3,1-2.8,1
						c-0.9,0-1.6-0.1-2-0.2c-0.4-0.1-0.7-0.4-0.9-0.7c-5.5-7.3-9-12-10.8-14.2l0,12c0,0.6,0,1-0.1,1.3c0,0.3-0.2,0.6-0.3,0.9
						c-0.3,0.7-1.3,1-2.8,1c-1.5,0-2.4-0.3-2.8-1c-0.2-0.4-0.3-0.7-0.3-1c0-0.3-0.1-0.7-0.1-1.3l0-20.3c0-0.9,0.1-1.6,0.3-2
						c0.2-0.4,0.6-0.7,1-0.9c0.5-0.1,1.1-0.2,1.8-0.2c0.7,0,1.3,0.1,1.7,0.2c0.4,0.1,0.7,0.3,0.9,0.5c0.1,0.1,0.4,0.4,0.8,0.9
						c5.1,7,8.5,11.5,10.2,13.8l0-12.3C752.9-915.4,753-916.1,753.2-916.5z"/>
				</g>
				<g class="st2">
					<path class="st1" d="M545.6-916.5h19.2c0.7,0,1.3,0.1,1.6,0.3c0.3,0.2,0.6,0.4,0.7,0.8c0.1,0.4,0.2,0.9,0.2,1.5
						c0,0.6-0.1,1.1-0.2,1.4c-0.1,0.4-0.3,0.6-0.6,0.7c-0.4,0.2-1,0.3-1.8,0.3l-6.6,0l0,17.4c0,0.5,0,0.9-0.1,1.2
						c0,0.3-0.1,0.5-0.3,0.9c-0.2,0.3-0.5,0.6-0.9,0.7c-0.4,0.1-1,0.2-1.7,0.2c-0.7,0-1.3-0.1-1.7-0.2c-0.4-0.1-0.7-0.4-0.9-0.7
						c-0.2-0.3-0.3-0.6-0.3-0.9c0-0.3-0.1-0.7-0.1-1.2l0-17.3l-6.6,0c-0.7,0-1.3-0.1-1.6-0.3c-0.3-0.2-0.6-0.4-0.7-0.8
						c-0.1-0.4-0.2-0.9-0.2-1.5c0-0.6,0.1-1.1,0.2-1.4c0.1-0.4,0.3-0.6,0.6-0.7C544.2-916.3,544.8-916.5,545.6-916.5z"/>
				</g>
				<g class="st2">
					<path class="st1" d="M631-916.5l19.2,0c0.7,0,1.3,0.1,1.6,0.3c0.3,0.2,0.6,0.4,0.7,0.8c0.1,0.4,0.2,0.9,0.2,1.5
						c0,0.6-0.1,1.1-0.2,1.4c-0.1,0.4-0.3,0.6-0.6,0.7c-0.4,0.2-1,0.3-1.8,0.3l-6.6,0l0,17.4c0,0.5,0,0.9-0.1,1.2
						c0,0.3-0.1,0.5-0.3,0.9c-0.2,0.3-0.5,0.6-0.9,0.7c-0.4,0.1-1,0.2-1.7,0.2c-0.7,0-1.3-0.1-1.7-0.2c-0.4-0.1-0.7-0.4-0.9-0.7
						c-0.2-0.3-0.3-0.6-0.3-0.9c0-0.3-0.1-0.7-0.1-1.2l0-17.3l-6.6,0c-0.7,0-1.3-0.1-1.6-0.3c-0.3-0.2-0.6-0.4-0.7-0.8
						c-0.1-0.4-0.2-0.9-0.2-1.5c0-0.6,0.1-1.1,0.2-1.4c0.1-0.4,0.3-0.6,0.6-0.7C629.7-916.3,630.3-916.5,631-916.5z"/>
				</g>
				<g class="st2">
					<path class="st1" d="M594.9-915.5c0.2-0.4,0.6-0.6,1-0.8c0.4-0.1,1-0.2,1.6-0.2c0.7,0,1.2,0.1,1.6,0.2c0.4,0.1,0.7,0.3,0.9,0.4
						s0.4,0.4,0.4,0.7c0.1,0.4,0.2,1,0.2,1.8l0,10.4c0,3-0.9,5.8-2.8,8.3c-0.9,1.2-2.1,2.1-3.6,2.8s-3.1,1.1-4.8,1.1
						c-1.8,0-3.4-0.4-4.8-1.1c-1.4-0.7-2.6-1.7-3.5-2.9c-1.9-2.4-2.8-5.2-2.8-8.3l0-10.4c0-0.6,0-1,0.1-1.2c0-0.3,0.1-0.6,0.3-0.9
						c0.2-0.3,0.5-0.6,0.9-0.7c0.4-0.1,1-0.2,1.8-0.2c0.7,0,1.3,0.1,1.8,0.2c0.4,0.1,0.7,0.4,0.9,0.7c0.3,0.5,0.4,1.3,0.4,2.2
						l0,10.4c0,1.4,0.3,2.7,1,4c0.3,0.6,0.9,1.2,1.6,1.6c0.7,0.4,1.5,0.6,2.5,0.6c1.7,0,2.9-0.6,3.8-1.9c0.8-1.2,1.2-2.7,1.2-4.3
						l0-10.6C594.6-914.5,594.7-915.1,594.9-915.5z"/>
				</g>
			</g>
		</g>
	</g>
	<g id="Group_149-10" transform="translate(12329.402 1744.362) rotate(180)">
		<g id="Group_146-20" transform="translate(0 133.268)">
			<g id="Group_135-39">
				<g class="st2">
					<path class="st1" d="M919.8,576.7c-0.2,0.3-0.4,0.5-0.8,0.6c-0.4,0.1-0.9,0.2-1.6,0.2c-0.6,0-1.2-0.1-1.6-0.2s-0.7-0.3-0.8-0.6
						c-0.2-0.3-0.2-0.6-0.3-0.8c0-0.2,0-0.6,0-1.1c0-0.5,0-0.8,0-1.1c0-0.2,0.1-0.5,0.3-0.8c0.3-0.6,1.1-0.8,2.4-0.8
						c1.3,0,2.1,0.3,2.3,0.8c0.2,0.3,0.3,0.6,0.3,0.8c0,0.2,0,0.6,0,1.1c0,0.5,0,0.8,0,1.1C920,576.2,919.9,576.4,919.8,576.7z
						 M914.7,582.5c0-0.5,0-0.8,0-1.1c0-0.2,0.1-0.5,0.3-0.8c0.3-0.5,1.1-0.8,2.4-0.8c1,0,1.7,0.2,2.1,0.5c0.3,0.3,0.5,0.7,0.6,1.3
						c0,0.2,0,0.5,0,0.9l0,10.8c0,0.5,0,0.8,0,1.1c0,0.2-0.1,0.5-0.3,0.8c-0.3,0.5-1.1,0.8-2.4,0.8c-1.3,0-2.1-0.3-2.4-0.8
						c-0.1-0.3-0.2-0.6-0.3-0.8c0-0.2,0-0.6,0-1.1L914.7,582.5z"/>
				</g>
				<g class="st2">
					<path class="st1" d="M1039.5,576.7c-0.2,0.3-0.4,0.5-0.8,0.6c-0.4,0.1-0.9,0.2-1.6,0.2c-0.6,0-1.2-0.1-1.6-0.2
						c-0.4-0.1-0.7-0.3-0.8-0.6c-0.2-0.3-0.2-0.6-0.3-0.8c0-0.2,0-0.6,0-1.1c0-0.5,0-0.8,0-1.1c0-0.2,0.1-0.5,0.3-0.8
						c0.3-0.6,1.1-0.8,2.4-0.8c1.3,0,2.1,0.3,2.3,0.8c0.2,0.3,0.3,0.6,0.3,0.8c0,0.2,0,0.6,0,1.1c0,0.5,0,0.8,0,1.1
						C1039.7,576.2,1039.6,576.4,1039.5,576.7z M1034.4,582.5c0-0.5,0-0.8,0-1.1c0-0.2,0.1-0.5,0.3-0.8c0.3-0.5,1.1-0.8,2.4-0.8
						c1,0,1.7,0.2,2.1,0.5c0.3,0.3,0.5,0.7,0.6,1.3c0,0.2,0,0.5,0,0.9l0,10.8c0,0.5,0,0.8,0,1.1c0,0.2-0.1,0.5-0.3,0.8
						c-0.3,0.5-1.1,0.8-2.4,0.8c-1.3,0-2.1-0.3-2.4-0.8c-0.1-0.3-0.2-0.6-0.3-0.8c0-0.2,0-0.6,0-1.1L1034.4,582.5z"/>
				</g>
				<g class="st2">
					<path class="st1" d="M1094.3,591c-0.5,0-0.8,0-1.1,0c-0.2,0-0.5-0.1-0.8-0.3c-0.5-0.3-0.8-1.1-0.8-2.4c0-1,0.2-1.7,0.5-2.1
						c0.3-0.3,0.7-0.5,1.3-0.6c0.2,0,0.5,0,0.9,0l10.8,0c0.5,0,0.8,0,1.1,0c0.2,0,0.5,0.1,0.8,0.3c0.5,0.3,0.8,1.1,0.8,2.4
						c0,1.3-0.3,2.1-0.8,2.4c-0.3,0.1-0.6,0.2-0.8,0.3c-0.2,0-0.6,0-1.1,0H1094.3z M1088.5,585.9c0.3,0.2,0.5,0.4,0.6,0.8
						c0.1,0.4,0.2,0.9,0.2,1.6c0,0.6-0.1,1.2-0.2,1.6c-0.1,0.4-0.3,0.7-0.6,0.8c-0.3,0.2-0.6,0.2-0.8,0.3c-0.2,0-0.6,0-1.1,0
						c-0.5,0-0.8,0-1.1,0c-0.2,0-0.5-0.1-0.8-0.3c-0.6-0.3-0.8-1.1-0.8-2.4c0-1.3,0.3-2.1,0.8-2.3c0.3-0.2,0.6-0.3,0.8-0.3
						c0.2,0,0.6,0,1.1,0c0.5,0,0.8,0,1.1,0C1088,585.6,1088.3,585.7,1088.5,585.9z"/>
				</g>
				<g class="st2">
					<path class="st1" d="M1133.8,574.2c3.4,0,6.4,1.2,8.9,3.7c2.5,2.5,3.8,5.5,3.8,9.2c0,3.6-1.2,6.8-3.6,9.3
						c-2.4,2.6-5.3,3.9-8.8,3.8c-3.5,0-6.5-1.3-8.9-3.8c-2.5-2.5-3.7-5.5-3.7-9c0-1.9,0.3-3.7,1-5.4c0.7-1.7,1.6-3.1,2.8-4.2
						c1.2-1.1,2.5-2,4-2.7C1130.6,574.5,1132.2,574.2,1133.8,574.2z M1127.5,587.2c0,2,0.7,3.7,2,5c1.3,1.3,2.8,1.9,4.4,1.9
						c1.6,0,3.1-0.6,4.4-1.9c1.3-1.2,2-2.9,2-5c0-2.1-0.7-3.8-2-5c-1.3-1.3-2.8-1.9-4.4-1.9c-1.6,0-3.1,0.6-4.4,1.9
						C1128.1,583.5,1127.5,585.1,1127.5,587.2z"/>
				</g>
				<g class="st2">
					<path class="st1" d="M948.9,574.1c0.2-0.4,0.6-0.7,1-0.9c0.5-0.1,1-0.2,1.7-0.2c0.7,0,1.2,0.1,1.7,0.2c0.4,0.1,0.7,0.3,0.9,0.4
						c0.2,0.2,0.4,0.4,0.5,0.8c0.1,0.4,0.2,1,0.2,1.9l0,20.2c0,0.6,0,1-0.1,1.3c0,0.3-0.2,0.6-0.3,0.9c-0.3,0.7-1.3,1-2.8,1
						c-0.9,0-1.6-0.1-2-0.2c-0.4-0.1-0.7-0.4-0.9-0.7c-5.5-7.3-9-12-10.8-14.2l0,12c0,0.6,0,1-0.1,1.3c0,0.3-0.2,0.6-0.3,0.9
						c-0.3,0.7-1.3,1-2.8,1c-1.5,0-2.4-0.3-2.8-1c-0.2-0.4-0.3-0.7-0.3-1c0-0.3-0.1-0.7-0.1-1.3l0-20.3c0-0.9,0.1-1.6,0.3-2
						s0.6-0.7,1-0.9c0.5-0.1,1.1-0.2,1.8-0.2c0.7,0,1.3,0.1,1.7,0.2c0.4,0.1,0.7,0.3,0.9,0.5c0.1,0.1,0.4,0.4,0.8,0.9
						c5.1,7,8.5,11.5,10.3,13.8l0-12.3C948.5,575.2,948.6,574.6,948.9,574.1z"/>
				</g>
				<g class="st2">
					<path class="st1" d="M1175.1,574.3c0.2-0.4,0.6-0.7,1-0.9c0.5-0.1,1-0.2,1.7-0.2c0.7,0,1.2,0.1,1.7,0.2
						c0.4,0.1,0.7,0.3,0.9,0.4c0.2,0.2,0.4,0.4,0.5,0.8c0.1,0.4,0.2,1,0.2,1.9l0,20.2c0,0.6,0,1-0.1,1.3c0,0.3-0.2,0.6-0.3,0.9
						c-0.3,0.7-1.3,1-2.8,1c-0.9,0-1.6-0.1-2-0.2c-0.4-0.1-0.7-0.4-0.9-0.7c-5.5-7.3-9-12-10.8-14.2l0,12c0,0.6,0,1-0.1,1.3
						c0,0.3-0.2,0.6-0.3,0.9c-0.3,0.7-1.3,1-2.8,1c-1.5,0-2.4-0.3-2.8-1c-0.2-0.4-0.3-0.7-0.3-1c0-0.3-0.1-0.7-0.1-1.3l0-20.3
						c0-0.9,0.1-1.6,0.3-2c0.2-0.4,0.6-0.7,1-0.9c0.5-0.1,1.1-0.2,1.8-0.2c0.7,0,1.3,0.1,1.7,0.2c0.4,0.1,0.7,0.3,0.9,0.5
						c0.1,0.1,0.4,0.4,0.8,0.9c5.1,7,8.5,11.5,10.3,13.8l0-12.3C1174.7,575.4,1174.9,574.7,1175.1,574.3z"/>
				</g>
				<g class="st2">
					<path class="st1" d="M967.5,574.3l19.2,0c0.7,0,1.3,0.1,1.6,0.3c0.3,0.2,0.6,0.4,0.7,0.8c0.1,0.4,0.2,0.9,0.2,1.5
						c0,0.6-0.1,1.1-0.2,1.4c-0.1,0.4-0.3,0.6-0.6,0.7c-0.4,0.2-1,0.3-1.8,0.3l-6.6,0l0,17.4c0,0.5,0,0.9-0.1,1.2
						c0,0.3-0.1,0.5-0.3,0.9s-0.5,0.6-0.9,0.7c-0.4,0.1-1,0.2-1.7,0.2s-1.3-0.1-1.7-0.2c-0.4-0.1-0.7-0.4-0.9-0.7
						c-0.2-0.3-0.3-0.6-0.3-0.9c0-0.3-0.1-0.7-0.1-1.2l0-17.3l-6.6,0c-0.7,0-1.3-0.1-1.6-0.3c-0.3-0.2-0.6-0.4-0.7-0.8
						c-0.1-0.4-0.2-0.9-0.2-1.5c0-0.6,0.1-1.1,0.2-1.4c0.1-0.4,0.3-0.6,0.6-0.7C966.1,574.4,966.7,574.3,967.5,574.3z"/>
				</g>
				<g class="st2">
					<path class="st1" d="M1052.9,574.3l19.2,0c0.7,0,1.3,0.1,1.6,0.3c0.3,0.2,0.6,0.4,0.7,0.8c0.1,0.4,0.2,0.9,0.2,1.5
						c0,0.6-0.1,1.1-0.2,1.4c-0.1,0.4-0.3,0.6-0.6,0.7c-0.4,0.2-1,0.3-1.8,0.3l-6.6,0l0,17.4c0,0.5,0,0.9-0.1,1.2
						c0,0.3-0.1,0.5-0.3,0.9c-0.2,0.3-0.5,0.6-0.9,0.7c-0.4,0.1-1,0.2-1.7,0.2c-0.7,0-1.3-0.1-1.7-0.2c-0.4-0.1-0.7-0.4-0.9-0.7
						c-0.2-0.3-0.3-0.6-0.3-0.9c0-0.3-0.1-0.7-0.1-1.2l0-17.3l-6.6,0c-0.7,0-1.3-0.1-1.6-0.3c-0.3-0.2-0.6-0.4-0.7-0.8
						c-0.1-0.4-0.2-0.9-0.2-1.4c0-0.6,0.1-1.1,0.2-1.4c0.1-0.4,0.3-0.6,0.6-0.7C1051.6,574.4,1052.2,574.3,1052.9,574.3z"/>
				</g>
				<g class="st2">
					<path class="st1" d="M1016.8,575.3c0.2-0.4,0.6-0.6,1-0.8c0.4-0.1,1-0.2,1.6-0.2c0.7,0,1.2,0.1,1.6,0.2
						c0.4,0.1,0.7,0.3,0.9,0.4c0.2,0.2,0.4,0.4,0.4,0.7c0.1,0.4,0.2,1,0.2,1.8l0,10.4c0,3-0.9,5.8-2.8,8.3c-0.9,1.2-2.1,2.1-3.6,2.8
						c-1.5,0.7-3.1,1.1-4.8,1.1c-1.8,0-3.4-0.4-4.8-1.1c-1.4-0.7-2.6-1.7-3.5-2.9c-1.9-2.4-2.8-5.2-2.8-8.3l0-10.4
						c0-0.6,0-1,0.1-1.2c0-0.3,0.1-0.6,0.3-0.9c0.2-0.3,0.5-0.6,0.9-0.7c0.4-0.1,1-0.2,1.8-0.2c0.7,0,1.3,0.1,1.8,0.2
						c0.4,0.1,0.7,0.4,0.9,0.7c0.3,0.5,0.4,1.3,0.4,2.2l0,10.4c0,1.4,0.3,2.7,1,4c0.3,0.6,0.9,1.2,1.6,1.6c0.7,0.4,1.5,0.6,2.5,0.6
						c1.7,0,2.9-0.6,3.8-1.9c0.8-1.2,1.2-2.7,1.2-4.3l0-10.6C1016.5,576.3,1016.6,575.7,1016.8,575.3z"/>
				</g>
			</g>
		</g>
		<g id="Group_147-20" transform="translate(90.063 148.182) rotate(-90)">
			<g id="Group_135-40" transform="translate(0 0)">
				<g class="st2">
					<path class="st1" d="M-576.1,1004.4c0-0.5,0-0.8,0-1.1c0-0.2,0.1-0.5,0.3-0.8c0.3-0.5,1.1-0.8,2.4-0.8c1,0,1.7,0.2,2.1,0.5
						c0.3,0.3,0.5,0.7,0.6,1.3c0,0.2,0,0.5,0,0.9l0,10.8c0,0.5,0,0.8,0,1.1c0,0.2-0.1,0.5-0.3,0.8c-0.3,0.5-1.1,0.8-2.4,0.8
						c-1.3,0-2.1-0.3-2.4-0.8c-0.1-0.3-0.2-0.6-0.3-0.8c0-0.2,0-0.6,0-1.1L-576.1,1004.4z M-571,998.7c-0.2,0.3-0.4,0.5-0.8,0.6
						c-0.4,0.1-0.9,0.2-1.6,0.2c-0.6,0-1.2-0.1-1.6-0.2c-0.4-0.1-0.7-0.3-0.8-0.6c-0.2-0.3-0.2-0.6-0.3-0.8c0-0.2,0-0.6,0-1.1
						c0-0.5,0-0.8,0-1.1c0-0.2,0.1-0.5,0.3-0.8c0.3-0.6,1.1-0.8,2.4-0.8c1.3,0,2.1,0.3,2.3,0.8c0.2,0.3,0.3,0.6,0.3,0.8
						c0,0.2,0,0.6,0,1.1c0,0.5,0,0.8,0,1.1C-570.8,998.1-570.9,998.4-571,998.7z"/>
				</g>
				<g class="st2">
					<path class="st1" d="M-456.4,1004.4c0-0.5,0-0.8,0-1.1c0-0.2,0.1-0.5,0.3-0.8c0.3-0.5,1.1-0.8,2.4-0.8c1,0,1.7,0.2,2.1,0.5
						c0.3,0.3,0.5,0.7,0.6,1.3c0,0.2,0,0.5,0,0.9l0,10.8c0,0.5,0,0.8,0,1.1c0,0.2-0.1,0.5-0.3,0.8c-0.3,0.5-1.1,0.8-2.4,0.8
						c-1.3,0-2.1-0.3-2.4-0.8c-0.1-0.3-0.2-0.6-0.3-0.8c0-0.2,0-0.6,0-1.1L-456.4,1004.4z M-451.3,998.7c-0.2,0.3-0.4,0.5-0.8,0.6
						c-0.4,0.1-0.9,0.2-1.6,0.2c-0.6,0-1.2-0.1-1.6-0.2c-0.4-0.1-0.7-0.3-0.8-0.6c-0.2-0.3-0.2-0.6-0.3-0.8c0-0.2,0-0.6,0-1.1
						c0-0.5,0-0.8,0-1.1c0-0.2,0.1-0.5,0.3-0.8c0.3-0.6,1.1-0.8,2.4-0.8c1.3,0,2.1,0.3,2.3,0.8c0.2,0.3,0.3,0.6,0.3,0.8
						c0,0.2,0,0.6,0,1.1c0,0.5,0,0.8,0,1.1C-451.1,998.1-451.2,998.4-451.3,998.7z"/>
				</g>
				<g class="st2">
					<path class="st1" d="M-396.5,1012.9c-0.5,0-0.8,0-1.1,0c-0.2,0-0.5-0.1-0.8-0.3c-0.5-0.3-0.8-1.1-0.8-2.4c0-1,0.2-1.7,0.5-2.1
						c0.3-0.4,0.7-0.5,1.3-0.6c0.2,0,0.5,0,0.9,0l10.8,0c0.5,0,0.8,0,1.1,0c0.2,0,0.5,0.1,0.8,0.3c0.5,0.3,0.8,1.1,0.8,2.4
						c0,1.3-0.3,2.1-0.8,2.4c-0.3,0.1-0.6,0.2-0.8,0.3c-0.2,0-0.6,0-1.1,0L-396.5,1012.9z M-402.2,1007.8c0.3,0.2,0.5,0.4,0.6,0.8
						c0.1,0.4,0.2,0.9,0.2,1.6c0,0.6-0.1,1.2-0.2,1.6c-0.1,0.4-0.3,0.7-0.6,0.8c-0.3,0.2-0.6,0.2-0.8,0.3c-0.2,0-0.6,0-1.1,0
						c-0.5,0-0.8,0-1.1,0c-0.2,0-0.5-0.1-0.8-0.3c-0.6-0.3-0.8-1.1-0.8-2.4c0-1.3,0.3-2.1,0.8-2.3c0.3-0.2,0.6-0.3,0.8-0.3
						c0.2,0,0.6,0,1.1,0c0.5,0,0.8,0,1.1,0C-402.8,1007.5-402.5,1007.6-402.2,1007.8z"/>
				</g>
				<g class="st2">
					<path class="st1" d="M-357,996.1c3.4,0,6.4,1.2,8.9,3.7c2.5,2.5,3.8,5.5,3.8,9.2c0,3.6-1.2,6.8-3.6,9.3
						c-2.4,2.6-5.3,3.8-8.8,3.8c-3.5,0-6.5-1.3-8.9-3.8c-2.5-2.5-3.7-5.5-3.7-9c0-1.9,0.3-3.7,1-5.4c0.7-1.7,1.6-3.1,2.8-4.2
						c1.2-1.1,2.5-2,4-2.7C-360.1,996.4-358.6,996.1-357,996.1z M-363.3,1009.1c0,2,0.7,3.7,2,5c1.3,1.3,2.8,1.9,4.4,1.9
						c1.6,0,3.1-0.6,4.4-1.9c1.3-1.2,2-2.9,2-5c0-2.1-0.7-3.8-2-5c-1.3-1.3-2.8-1.9-4.4-1.9c-1.6,0-3.1,0.6-4.4,1.9
						C-362.6,1005.4-363.3,1007.1-363.3,1009.1z"/>
				</g>
				<g class="st2">
					<path class="st1" d="M-541.9,996.1c0.2-0.4,0.6-0.7,1-0.9c0.5-0.1,1-0.2,1.7-0.2c0.7,0,1.2,0.1,1.7,0.2
						c0.4,0.1,0.7,0.3,0.9,0.4c0.2,0.2,0.4,0.4,0.5,0.8c0.1,0.4,0.2,1,0.2,1.9l0,20.2c0,0.6,0,1-0.1,1.3c0,0.3-0.2,0.6-0.3,0.9
						c-0.3,0.7-1.3,1-2.8,1c-0.9,0-1.6-0.1-2-0.2c-0.4-0.1-0.7-0.4-0.9-0.7c-5.5-7.3-9-12-10.8-14.2l0,12c0,0.6,0,1-0.1,1.3
						c0,0.3-0.2,0.6-0.3,0.9c-0.3,0.7-1.3,1-2.8,1c-1.5,0-2.4-0.3-2.8-1c-0.2-0.4-0.3-0.7-0.3-1c0-0.3-0.1-0.7-0.1-1.3l0-20.3
						c0-0.9,0.1-1.6,0.3-2c0.2-0.4,0.6-0.7,1-0.9c0.5-0.1,1.1-0.2,1.8-0.2s1.3,0.1,1.7,0.2c0.4,0.1,0.7,0.3,0.9,0.5
						c0.1,0.1,0.4,0.4,0.8,0.9c5.1,7,8.5,11.5,10.3,13.8l0-12.3C-542.3,997.2-542.1,996.5-541.9,996.1z"/>
				</g>
				<g class="st2">
					<path class="st1" d="M-315.7,996.2c0.2-0.4,0.6-0.7,1-0.9c0.5-0.1,1-0.2,1.7-0.2c0.7,0,1.2,0.1,1.7,0.2
						c0.4,0.1,0.7,0.3,0.9,0.4c0.2,0.2,0.4,0.4,0.5,0.8c0.1,0.4,0.2,1,0.2,1.9l0,20.2c0,0.6,0,1-0.1,1.3c0,0.3-0.2,0.6-0.3,0.9
						c-0.3,0.7-1.3,1-2.8,1c-0.9,0-1.6-0.1-2-0.2c-0.4-0.1-0.7-0.4-0.9-0.7c-5.5-7.3-9-12-10.8-14.2l0,12c0,0.6,0,1-0.1,1.3
						c0,0.3-0.2,0.6-0.3,0.9c-0.3,0.7-1.3,1-2.8,1c-1.5,0-2.4-0.3-2.8-1c-0.2-0.4-0.3-0.7-0.3-1c0-0.3-0.1-0.7-0.1-1.3l0-20.3
						c0-0.9,0.1-1.6,0.3-2c0.2-0.4,0.6-0.7,1-0.9c0.5-0.1,1.1-0.2,1.8-0.2c0.7,0,1.3,0.1,1.7,0.2c0.4,0.1,0.7,0.3,0.9,0.5
						c0.1,0.1,0.4,0.4,0.8,0.9c5.1,7,8.5,11.5,10.3,13.8l0-12.3C-316,997.3-315.9,996.6-315.7,996.2z"/>
				</g>
				<g class="st2">
					<path class="st1" d="M-523.3,996.3h19.2c0.7,0,1.3,0.1,1.6,0.3c0.3,0.2,0.6,0.4,0.7,0.8c0.1,0.4,0.2,0.9,0.2,1.5
						c0,0.6-0.1,1.1-0.2,1.4c-0.1,0.4-0.3,0.6-0.6,0.7c-0.4,0.2-1,0.3-1.8,0.3l-6.6,0l0,17.4c0,0.5,0,0.9-0.1,1.2
						c0,0.3-0.1,0.5-0.3,0.9c-0.2,0.3-0.5,0.6-0.9,0.7c-0.4,0.1-1,0.2-1.7,0.2c-0.7,0-1.3-0.1-1.7-0.2c-0.4-0.1-0.7-0.4-0.9-0.7
						c-0.2-0.3-0.3-0.6-0.3-0.9c0-0.3-0.1-0.7-0.1-1.2l0-17.3l-6.6,0c-0.7,0-1.3-0.1-1.6-0.3c-0.3-0.2-0.6-0.4-0.7-0.8
						c-0.1-0.4-0.2-0.9-0.2-1.5c0-0.6,0.1-1.1,0.2-1.4c0.1-0.4,0.3-0.6,0.6-0.7C-524.7,996.4-524.1,996.3-523.3,996.3z"/>
				</g>
				<g class="st2">
					<path class="st1" d="M-437.8,996.3l19.2,0c0.7,0,1.3,0.1,1.6,0.3c0.3,0.2,0.6,0.4,0.7,0.8c0.1,0.4,0.2,0.9,0.2,1.5
						c0,0.6-0.1,1.1-0.2,1.4c-0.1,0.4-0.3,0.6-0.6,0.7c-0.4,0.2-1,0.3-1.8,0.3l-6.6,0l0,17.4c0,0.5,0,0.9-0.1,1.2
						c0,0.3-0.1,0.5-0.3,0.9c-0.2,0.3-0.5,0.6-0.9,0.7c-0.4,0.1-1,0.2-1.7,0.2c-0.7,0-1.3-0.1-1.7-0.2c-0.4-0.1-0.7-0.4-0.9-0.7
						c-0.2-0.3-0.3-0.6-0.3-0.9c0-0.3-0.1-0.7-0.1-1.2l0-17.3l-6.6,0c-0.7,0-1.3-0.1-1.6-0.3c-0.3-0.2-0.6-0.4-0.7-0.8
						c-0.1-0.4-0.2-0.9-0.2-1.5c0-0.6,0.1-1.1,0.2-1.4c0.1-0.4,0.3-0.6,0.6-0.7C-439.2,996.4-438.6,996.3-437.8,996.3z"/>
				</g>
				<g class="st2">
					<path class="st1" d="M-474,997.2c0.2-0.4,0.6-0.6,1-0.8c0.4-0.1,1-0.2,1.6-0.2c0.7,0,1.2,0.1,1.6,0.2c0.4,0.1,0.7,0.3,0.9,0.4
						c0.2,0.2,0.4,0.4,0.4,0.7c0.1,0.4,0.2,1,0.2,1.8l0,10.4c0,3-0.9,5.8-2.8,8.3c-0.9,1.2-2.1,2.1-3.6,2.8
						c-1.4,0.7-3.1,1.1-4.8,1.1c-1.8,0-3.4-0.4-4.8-1.1c-1.4-0.7-2.6-1.7-3.5-2.9c-1.9-2.4-2.8-5.2-2.8-8.3l0-10.4
						c0-0.6,0-1,0.1-1.2c0-0.3,0.1-0.6,0.3-0.9c0.2-0.3,0.5-0.6,0.9-0.7c0.4-0.1,1-0.2,1.8-0.2c0.7,0,1.3,0.1,1.8,0.2
						c0.4,0.1,0.7,0.4,0.9,0.7c0.3,0.5,0.4,1.3,0.4,2.2l0,10.4c0,1.4,0.3,2.7,1,4c0.3,0.6,0.9,1.2,1.6,1.6c0.7,0.4,1.5,0.6,2.5,0.6
						c1.7,0,2.9-0.6,3.8-1.9c0.8-1.2,1.2-2.7,1.2-4.3l0-10.6C-474.3,998.2-474.2,997.6-474,997.2z"/>
				</g>
			</g>
		</g>
	</g>
</g>
<g id="ICON_ORANGE-3" transform="translate(758.457 715.32) rotate(53)">
	<path id="Subtraction_12-2" class="st3" d="M-683.9-79.1L-683.9-79.1c3.1-2.3,4.5-7.6,3.6-14c-0.9-6.2-3.5-10.7-7.1-11.9
		c0.2,0,0.3-0.1,0.5-0.1c0.3,0,0.7-0.1,1.1-0.1c2.6,0.1,5.1,1.3,6.8,3.3c2,2.3,3.4,5.3,3.7,8.3c0.2,1.7,0.2,3.4-0.1,5.2
		c-0.3,1.5-0.8,3-1.5,4.4c-0.7,1.2-1.6,2.3-2.7,3.2c-1.1,0.8-2.3,1.4-3.7,1.6C-683.5-79.1-683.7-79.1-683.9-79.1L-683.9-79.1z"/>
	<path id="Subtraction_11-2" class="st3" d="M-713.4-59.7c-10.9,0-20.9-5.9-26.1-15.4c2.6-1.2,4.6-3.4,5.4-6.1
		c1.1-3.2,1.3-6.7,0.4-10.1c-0.9-4.3-3.3-8-6.9-10.5c6.8-15,24.4-21.7,39.4-14.9c15,6.8,21.7,24.4,14.9,39.4
		C-691-66.5-701.6-59.7-713.4-59.7z"/>
	<g id="ICON_ORANGE-4" transform="translate(175.091 647.674)">
		<path id="Path_8-2" class="st1" d="M-906.2-738.8c0,0,1-2.6,6.1-3.6c3.3-0.7,6.7-0.2,9.7,1.3c3.3,1.9,3.4,4.4,4.4,5.6
			c-3.3-1.9-7-3-10.7-3.3c-3.3-0.4-6.5,0.3-9.4,1.8c1.8-2.1,4.4-3.3,7.2-3.3C-894.8-739.9-906.2-738.8-906.2-738.8z"/>
		<path id="Path_9-2" class="st1" d="M-870.8-748.1c3.5,0,6.3,4.8,6.3,10.7s-2.8,3.6-6.3,3.6c-3.5,0-6.3,2.3-6.3-3.6
			S-874.3-748.1-870.8-748.1z"/>
		<path id="Path_11-2" class="st3" d="M-873.6-747.3c2.4,0,4.4,3.4,4.4,7.5s-2,5.8-4.4,5.8c-2.4,0-4.4-1.6-4.4-5.8
			S-876-747.3-873.6-747.3z"/>
		<path id="Path_10-2" class="st1" d="M-891.4-729.4c7.7-1.2,12-0.9,17.5,0.9c5.5,1.8,0,2.8,0,7.2v5.8c0,0-13.6,5-22,0.7
			c-4.3-2.2-7.9-12.2-7.9-12.2S-895.7-728.7-891.4-729.4z"/>
	</g>
	<path id="Path_12-2" class="st3" d="M-675-127.8c-1.8,2.1-3.8,4.1-5.9,5.9c-2.8,2.2,4.7-0.8,4.7-0.8c-0.1,5.3-4.2,9.7-9.4,10.3
		c-9.3,1.3,2,1.4,2,1.4s-1.8,4-9.1,4c-12.4,2.7-34.5,4.8-44.5,0.6c3.4-4.7,3.6-5.6,11.5-11.5C-717.9-123.8-675-127.8-675-127.8z"/>
	
		<ellipse id="Ellipse_71-2" transform="matrix(0.2419 0.9703 -0.9703 0.2419 -651.1769 655.6462)" class="st3" cx="-745.2" cy="-88.9" rx="13.1" ry="9.9"/>
	<path id="Path_136-2" class="st3" d="M-751.2-112c2.9-6.1,10.9-10.7,19.2-12.5c4.5-1.2,9.2-2,13.8-2.3c4.8-0.2,9.7,0.4,14.3,1.8
		l-7.1,1.3c-5.6,0-11.2,0.8-16.6,2.6c-8.1,2.8-11.5,3.5-15.7,8.7c-4.2,5.2,0,13.7,0,13.7l-7.1,1.4
		C-750.4-97.5-754.1-105.9-751.2-112z"/>
</g>
<g id="ICON_ORANGE-5" transform="translate(-229.653 1966.815) rotate(-127)">
	<path id="Subtraction_12-3" class="st3" d="M1083.8,1215.2L1083.8,1215.2c3.1-2.3,4.5-7.6,3.6-14c-0.9-6.2-3.5-10.7-7.1-11.9
		c0.2,0,0.3-0.1,0.5-0.1c0.3,0,0.7-0.1,1.1-0.1c2.6,0.1,5.1,1.3,6.8,3.3c2,2.3,3.4,5.3,3.7,8.3c0.2,1.7,0.2,3.4-0.1,5.2
		c-0.3,1.5-0.8,3-1.5,4.4c-0.7,1.2-1.6,2.3-2.7,3.2c-1.1,0.8-2.3,1.4-3.7,1.6C1084.2,1215.2,1084,1215.2,1083.8,1215.2
		L1083.8,1215.2z"/>
	<path id="Subtraction_11-3" class="st3" d="M1054.3,1234.7c-10.9,0-20.9-5.9-26.1-15.4c2.6-1.2,4.6-3.4,5.4-6.1
		c1.1-3.2,1.3-6.7,0.4-10.1c-0.9-4.3-3.3-8-6.9-10.5c6.8-15,24.4-21.7,39.4-14.9s21.7,24.4,14.9,39.4
		C1076.7,1227.8,1066.1,1234.7,1054.3,1234.7z"/>
	<g id="ICON_ORANGE-6" transform="translate(175.091 647.674)">
		<path id="Path_8-3" class="st1" d="M861.5,555.5c0,0,1-2.6,6.1-3.6c3.3-0.7,6.7-0.2,9.7,1.3c3.3,1.9,3.4,4.4,4.4,5.6
			c-3.3-1.9-7-3-10.7-3.3c-3.3-0.4-6.5,0.3-9.4,1.8c1.8-2.1,4.4-3.3,7.2-3.3C872.9,554.4,861.5,555.5,861.5,555.5z"/>
		<path id="Path_9-3" class="st1" d="M896.9,546.2c3.5,0,6.3,4.8,6.3,10.7s-2.8,3.6-6.3,3.6c-3.5,0-6.3,2.3-6.3-3.6
			S893.4,546.2,896.9,546.2z"/>
		<path id="Path_11-3" class="st3" d="M894.1,547c2.4,0,4.4,3.4,4.4,7.5s-2,5.8-4.4,5.8c-2.4,0-4.4-1.6-4.4-5.8S891.7,547,894.1,547
			z"/>
		<path id="Path_10-3" class="st1" d="M876.3,565c7.7-1.2,12-0.9,17.5,0.9c5.5,1.8,0,2.8,0,7.2v5.8c0,0-13.6,5-22,0.7
			c-4.3-2.2-7.9-12.2-7.9-12.2S872,565.6,876.3,565z"/>
	</g>
	<path id="Path_12-3" class="st3" d="M1092.7,1166.5c-1.8,2.1-3.8,4.1-5.9,5.9c-2.8,2.2,4.7-0.8,4.7-0.8c-0.1,5.3-4.2,9.7-9.4,10.3
		c-9.3,1.3,2,1.4,2,1.4s-1.8,4-9.1,4c-12.4,2.7-34.5,4.8-44.5,0.6c3.4-4.7,3.6-5.6,11.5-11.5
		C1049.8,1170.5,1092.7,1166.5,1092.7,1166.5z"/>
	
		<ellipse id="Ellipse_71-3" transform="matrix(-0.2419 -0.9703 0.9703 -0.2419 100.2763 2489.1697)" class="st3" cx="1022.5" cy="1205.4" rx="13.1" ry="9.9"/>
	<path id="Path_136-3" class="st3" d="M1016.5,1182.3c2.9-6.1,10.9-10.7,19.2-12.5c4.5-1.2,9.2-2,13.8-2.3c4.8-0.2,9.7,0.4,14.3,1.8
		l-7.1,1.3c-5.6,0-11.2,0.8-16.6,2.6c-8.1,2.8-11.5,3.5-15.7,8.7c-4.2,5.2,0,13.7,0,13.7l-7.1,1.4
		C1017.3,1196.8,1013.6,1188.4,1016.5,1182.3z"/>
</g>
<g id="ICON_ORANGE-7" transform="translate(889.9 1835.372) rotate(143)">
	<path id="Subtraction_12-4" class="st3" d="M-446.9,1451.9L-446.9,1451.9c3.1-2.3,4.5-7.6,3.6-14c-0.9-6.2-3.5-10.7-7.1-11.9
		c0.2,0,0.3-0.1,0.5-0.1c0.3,0,0.7-0.1,1.1-0.1c2.6,0.1,5.1,1.3,6.8,3.3c2,2.3,3.4,5.3,3.7,8.3c0.2,1.7,0.2,3.4-0.1,5.2
		c-0.3,1.5-0.8,3-1.5,4.4c-0.7,1.2-1.6,2.3-2.7,3.2c-1.1,0.8-2.3,1.4-3.7,1.6C-446.5,1451.8-446.7,1451.8-446.9,1451.9
		L-446.9,1451.9z"/>
	<path id="Subtraction_11-4" class="st3" d="M-476.4,1471.3c-10.9,0-20.9-5.9-26.1-15.4c2.6-1.2,4.6-3.4,5.4-6.1
		c1.1-3.2,1.3-6.7,0.4-10.1c-0.9-4.3-3.3-8-6.9-10.5c6.8-15,24.4-21.7,39.4-14.9s21.7,24.4,14.9,39.4
		C-454,1464.4-464.6,1471.3-476.4,1471.3z"/>
	<g id="ICON_ORANGE-8" transform="translate(175.091 647.674)">
		<path id="Path_8-4" class="st1" d="M-669.2,792.1c0,0,1-2.6,6.1-3.6c3.3-0.7,6.7-0.2,9.7,1.3c3.3,1.9,3.4,4.4,4.4,5.6
			c-3.3-1.9-7-3-10.7-3.3c-3.3-0.4-6.5,0.3-9.4,1.8c1.8-2.1,4.4-3.3,7.2-3.3C-657.8,791.1-669.2,792.1-669.2,792.1z"/>
		<path id="Path_9-4" class="st1" d="M-633.9,782.9c3.5,0,6.3,4.8,6.3,10.7c0,5.9-2.8,3.6-6.3,3.6c-3.5,0-6.3,2.3-6.3-3.6
			S-637.3,782.9-633.9,782.9z"/>
		<path id="Path_11-4" class="st3" d="M-636.6,783.6c2.4,0,4.4,3.4,4.4,7.5s-2,5.8-4.4,5.8c-2.4,0-4.4-1.6-4.4-5.8
			S-639.1,783.6-636.6,783.6z"/>
		<path id="Path_10-4" class="st1" d="M-654.4,801.6c7.7-1.2,12-0.9,17.5,0.9s0,2.8,0,7.2v5.8c0,0-13.6,5-22,0.7
			c-4.3-2.2-7.9-12.2-7.9-12.2S-658.7,802.3-654.4,801.6z"/>
	</g>
	<path id="Path_12-4" class="st3" d="M-438.1,1403.1c-1.8,2.1-3.8,4.1-5.9,5.9c-2.8,2.2,4.7-0.8,4.7-0.8c-0.1,5.3-4.2,9.7-9.4,10.3
		c-9.3,1.3,2,1.4,2,1.4s-1.8,4-9.1,4c-12.4,2.7-34.5,4.8-44.5,0.6c3.4-4.7,3.6-5.6,11.5-11.5S-438.1,1403.1-438.1,1403.1z"/>
	
		<ellipse id="Ellipse_71-4" transform="matrix(0.9703 -0.2419 0.2419 0.9703 -363.965 -80.1128)" class="st3" cx="-508.2" cy="1442.1" rx="9.9" ry="13.1"/>
	<path id="Path_136-4" class="st3" d="M-514.3,1418.9c2.9-6.1,10.9-10.7,19.2-12.5c4.5-1.2,9.2-2,13.8-2.3c4.8-0.2,9.7,0.4,14.3,1.8
		l-7.1,1.3c-5.6,0-11.2,0.8-16.6,2.6c-8.1,2.8-11.5,3.5-15.7,8.7c-4.2,5.2,0,13.7,0,13.7l-7.1,1.4
		C-513.4,1433.5-517.1,1425-514.3,1418.9z"/>
</g>
<g id="ICON_ORANGE-9" transform="translate(-361.595 846.763) rotate(-37)">
	<path id="Subtraction_12-5" class="st3" d="M847.1-316.1L847.1-316.1c3.1-2.3,4.5-7.6,3.6-14c-0.9-6.2-3.5-10.7-7.1-11.9
		c0.2,0,0.3-0.1,0.5-0.1c0.3,0,0.7-0.1,1.1-0.1c2.6,0.1,5.1,1.3,6.8,3.3c2,2.3,3.4,5.3,3.7,8.3c0.2,1.7,0.2,3.4-0.1,5.2
		c-0.3,1.5-0.8,3-1.5,4.4c-0.7,1.2-1.6,2.3-2.7,3.2c-1.1,0.8-2.3,1.4-3.7,1.6C847.5-316.1,847.3-316.1,847.1-316.1L847.1-316.1z"/>
	<path id="Subtraction_11-5" class="st3" d="M817.6-296.6c-10.9,0-20.9-5.9-26.1-15.4c2.6-1.2,4.6-3.4,5.4-6.1
		c1.1-3.2,1.3-6.7,0.4-10.1c-0.9-4.3-3.3-8-6.9-10.5c6.8-15,24.4-21.7,39.4-14.9s21.7,24.4,14.9,39.4
		C840-303.5,829.4-296.6,817.6-296.6z"/>
	<g id="ICON_ORANGE-10" transform="translate(175.091 647.674)">
		<path id="Path_8-5" class="st1" d="M624.8-975.8c0,0,1-2.6,6.1-3.6c3.3-0.7,6.7-0.2,9.7,1.3c3.3,1.9,3.4,4.4,4.4,5.6
			c-3.3-1.9-7-3-10.7-3.3c-3.3-0.4-6.5,0.3-9.4,1.8c1.8-2.1,4.4-3.3,7.2-3.3C636.2-976.9,624.8-975.8,624.8-975.8z"/>
		<path id="Path_9-5" class="st1" d="M660.1-985.1c3.5,0,6.3,4.8,6.3,10.7c0,5.9-2.8,3.6-6.3,3.6c-3.5,0-6.3,2.3-6.3-3.6
			S656.7-985.1,660.1-985.1z"/>
		<path id="Path_11-5" class="st3" d="M657.4-984.3c2.4,0,4.4,3.4,4.4,7.5c0,4.2-2,5.8-4.4,5.8c-2.4,0-4.4-1.6-4.4-5.8
			S654.9-984.3,657.4-984.3z"/>
		<path id="Path_10-5" class="st1" d="M639.6-966.3c7.7-1.2,12-0.9,17.5,0.9c5.5,1.8,0,2.8,0,7.2v5.8c0,0-13.6,5-22,0.7
			c-4.3-2.2-7.9-12.2-7.9-12.2S635.3-965.6,639.6-966.3z"/>
	</g>
	<path id="Path_12-5" class="st3" d="M855.9-364.8c-1.8,2.1-3.8,4.1-5.9,5.9c-2.8,2.2,4.7-0.8,4.7-0.8c-0.1,5.3-4.2,9.7-9.4,10.3
		c-9.3,1.3,2,1.4,2,1.4s-1.8,4-9.1,4c-12.4,2.7-34.5,4.8-44.5,0.6c3.4-4.7,3.6-5.6,11.5-11.5C813.1-360.8,855.9-364.8,855.9-364.8z"
		/>
	
		<ellipse id="Ellipse_71-5" transform="matrix(-0.9703 0.2419 -0.2419 -0.9703 1469.392 -832.1869)" class="st3" cx="785.8" cy="-325.9" rx="9.9" ry="13.1"/>
	<path id="Path_136-5" class="st3" d="M779.7-349c2.9-6.1,10.9-10.7,19.2-12.5c4.5-1.2,9.2-2,13.8-2.3c4.8-0.2,9.7,0.4,14.3,1.8
		l-7.1,1.3c-5.6,0-11.2,0.8-16.6,2.6c-8.1,2.8-11.5,3.5-15.7,8.7c-4.2,5.2,0,13.7,0,13.7l-7.1,1.4
		C780.6-334.5,776.9-342.9,779.7-349z"/>
</g>
</svg>
