<?xml version="1.0" encoding="utf-8"?>
<!-- Generator: Adobe Illustrator 25.4.1, SVG Export Plug-In . SVG Version: 6.00 Build 0)  -->
<svg version="1.1" id="Layer_1" xmlns="http://www.w3.org/2000/svg" xmlns:xlink="http://www.w3.org/1999/xlink" x="0px" y="0px"
	 viewBox="0 0 491 487.2" style="enable-background:new 0 0 491 487.2;" xml:space="preserve">
<style type="text/css">
	.st0{fill:#F3F3F3;}
	.st1{fill:#E64C4C;}
	.st2{fill:#58CCBE;}
	.st3{fill:#58CC6F;}
	.st4{fill:#F5C858;}
	.st5{enable-background:new    ;}
	.st6{fill:#FFFFFF;}
</style>
<g transform="matrix(1, 0, 0, 1, 76, 47)">
	<path id="Rectangle_1-19" class="st0" d="M9.9-24.9h326.8c32.4,0,58.6,26.2,58.6,58.6v326.8c0,32.4-26.2,58.6-58.6,58.6H9.9
		c-32.4,0-58.6-26.2-58.6-58.6V33.7C-48.7,1.4-22.5-24.9,9.9-24.9z"/>
</g>
<path id="Intersection_1" class="st1" d="M25.5,187.3V80.7c0-32.4,26.2-58.6,58.6-58.6h107.5c0,91.2-74,165.2-165.2,165.2H25.5z"/>
<path id="Intersection_4" class="st2" d="M471.3,301.9v106.6c0,32.4-26.2,58.6-58.6,58.6H305.3c0-91.2,74-165.2,165.2-165.2H471.3z"
	/>
<path id="Intersection_2" class="st3" d="M306.1,22.1h106.6c32.4,0,58.6,26.2,58.6,58.6v107.5c-91.2,0-165.2-74-165.2-165.2V22.1z"
	/>
<path id="Intersection_3" class="st4" d="M190.7,467H84.1c-32.4,0-58.6-26.2-58.6-58.6V301c91.2,0,165.2,74,165.2,165.2V467z"/>
<g class="st5">
	<path class="st6" d="M427.6,80.2l-26.4,26.4l-6.1-6.1L416.6,79l-5.3-5.3l4.9-4.9L427.6,80.2z"/>
</g>
<g class="st5">
	<path class="st6" d="M388.5,400.4l-5-5l19.9-19.9l4,4l-0.6,19.8c-0.1,4.6,0.8,6.3,2.1,7.6c2.1,2.1,4.7,1.8,7.5-0.9
		c2.3-2.3,3.3-5,2.8-8.1l7.3-1.6c0.9,5-0.8,10.6-5.6,15.4c-5.9,5.9-12.8,6.8-17.6,2c-2.6-2.6-4.2-5.6-3.9-12.7l0.3-11.8L388.5,400.4
		z"/>
</g>
<g class="st5">
	<path class="st6" d="M110.4,90.2l-4.3,4.3l5.5,5.5l-6,6l-5.5-5.5L86,114.6l-4.1-4.1l-4.3-29.2l6.4-6.4l4.3,27.4l7.1-7.1l-4.9-4.9
		l5.8-5.8l4.9,4.9l4.3-4.3L110.4,90.2z"/>
</g>
<g class="st5">
	<path class="st6" d="M87.7,384c4.4-4.4,11.9-5.1,19.4,2.4c3.7,3.7,6.5,8.5,7.2,12.9l-7,2.3c-0.5-3.5-2.4-7.2-5.2-9.9
		c-3.1-3.1-6.2-3.7-8.3-1.5c-2,2-1.8,4.7,1.7,8.2l2.8,2.8l-4,4l-11.6,0.7L94,417.1l-4.9,4.9l-18.5-18.5l4-4l12.7-0.8
		C83.3,393.2,83.8,387.9,87.7,384z"/>
</g>
<g id="ICON_RED" transform="translate(479.063 1379.955)">
	<path id="Path_121" class="st1" d="M-147-1095.8c0,39.6-32.1,71.7-71.7,71.7s-71.7-32.1-71.7-71.7c0-21.6,12.4-31.1,12.4-31.1
		s89.8-29,99.8-27.1C-158.9-1148.4-147-1118.7-147-1095.8z"/>
	<ellipse id="Ellipse_6" class="st0" cx="-244.6" cy="-1103.4" rx="14.8" ry="22.2"/>
	<path id="Subtraction_5" class="st0" d="M-192.7-1081.2c-4,0-7.7-2.3-10.5-6.5c-2.9-4.7-4.5-10.2-4.3-15.7c0-1.8,0.1-3.7,0.5-5.5
		c1.6-0.3,3.1-0.4,4.7-0.4c6.7,0,17,1.9,24.4,3.5c0.1,0.8,0.1,1.6,0.1,2.3c0.1,5.6-1.4,11-4.3,15.7
		C-185-1083.5-188.7-1081.2-192.7-1081.2z"/>
	<path id="Path_1" class="st0" d="M-250.2-1066.4c10.1,1.9,20.4,2.8,30.6,2.9c10.9-0.2,21.7-1.1,32.5-2.9c0,10.9-6,24.1-16.9,24.1
		c-5.5-1.5-11.1-2.6-16.8-3.3c-6.1-0.7-12.3-1-18.5-1c0.2-3.4-0.6-6.7-2.2-9.6C-243.9-1060-246.9-1063.4-250.2-1066.4z"/>
	<path id="Path_27" class="st1" d="M-310.4-1133.3l151-43.3l2.7,9.5l-151,43.3L-310.4-1133.3z"/>
	<path id="Path_28" class="st1" d="M-314.3-1210.1l128.5-32.5l3.6,73.9l-98,29.4L-314.3-1210.1z"/>
	<ellipse id="Ellipse_27" class="st1" cx="-244.6" cy="-1103.4" rx="8.2" ry="12.4"/>
	<ellipse id="Ellipse_28" class="st1" cx="-192.7" cy="-1103.4" rx="8.2" ry="12.4"/>
</g>
</svg>
