<?xml version="1.0" encoding="utf-8"?>
<!-- Generator: Adobe Illustrator 25.4.1, SVG Export Plug-In . SVG Version: 6.00 Build 0)  -->
<svg version="1.1" id="Layer_1" xmlns="http://www.w3.org/2000/svg" xmlns:xlink="http://www.w3.org/1999/xlink" x="0px" y="0px"
	 viewBox="0 0 491 487.2" style="enable-background:new 0 0 491 487.2;" xml:space="preserve">
<style type="text/css">
	.st0{fill:#F3F3F3;}
	.st1{fill:#E64C4C;}
	.st2{fill:#58CCBE;}
	.st3{fill:#58CC6F;}
	.st4{fill:#F5C858;}
	.st5{enable-background:new    ;}
	.st6{fill:#FFFFFF;}
</style>
<g transform="matrix(1, 0, 0, 1, 76, 47)">
	<path id="Rectangle_1-19" class="st0" d="M9.9-24.9h326.8c32.4,0,58.6,26.2,58.6,58.6v326.8c0,32.4-26.2,58.6-58.6,58.6H9.9
		c-32.4,0-58.6-26.2-58.6-58.6V33.7C-48.7,1.4-22.5-24.9,9.9-24.9z"/>
</g>
<path id="Intersection_1" class="st1" d="M25.5,187.3V80.7c0-32.4,26.2-58.6,58.6-58.6h107.5c0,91.2-74,165.2-165.2,165.2
	L25.5,187.3L25.5,187.3z"/>
<path id="Intersection_4" class="st2" d="M471.3,301.9v106.6c0,32.4-26.2,58.6-58.6,58.6H305.3c0-91.2,74-165.2,165.2-165.2
	L471.3,301.9L471.3,301.9z"/>
<path id="Intersection_2" class="st3" d="M306.1,22.1h106.6c32.4,0,58.6,26.2,58.6,58.6v107.5c-91.2,0-165.2-74-165.2-165.2
	L306.1,22.1L306.1,22.1z"/>
<path id="Intersection_3" class="st4" d="M190.7,467H84.1c-32.4,0-58.6-26.2-58.6-58.6V301c91.2,0,165.2,74,165.2,165.2V467z"/>
<g class="st5">
	<path class="st6" d="M427.6,80.2l-26.4,26.4l-6.1-6.1L416.6,79l-5.3-5.3l4.9-4.9L427.6,80.2z"/>
</g>
<g class="st5">
	<path class="st6" d="M388.5,400.4l-5-5l19.9-19.9l4,4l-0.6,19.8c-0.1,4.6,0.8,6.3,2.1,7.6c2.1,2.1,4.7,1.8,7.5-0.9
		c2.3-2.3,3.3-5,2.8-8.1l7.3-1.6c0.9,5-0.8,10.6-5.6,15.4c-5.9,5.9-12.8,6.8-17.6,2c-2.6-2.6-4.2-5.6-3.9-12.7l0.3-11.8L388.5,400.4
		z"/>
</g>
<g class="st5">
	<path class="st6" d="M110.4,90.2l-4.3,4.3l5.5,5.5l-6,6l-5.5-5.5L86,114.6l-4.1-4.1l-4.3-29.2l6.4-6.4l4.3,27.4l7.1-7.1l-4.9-4.9
		l5.8-5.8l4.9,4.9l4.3-4.3L110.4,90.2z"/>
</g>
<g class="st5">
	<path class="st6" d="M87.7,384c4.4-4.4,11.9-5.1,19.4,2.4c3.7,3.7,6.5,8.5,7.2,12.9l-7,2.3c-0.5-3.5-2.4-7.2-5.2-9.9
		c-3.1-3.1-6.2-3.7-8.3-1.5c-2,2-1.8,4.7,1.7,8.2l2.8,2.8l-4,4l-11.6,0.7L94,417.1l-4.9,4.9l-18.5-18.5l4-4l12.7-0.8
		C83.3,393.2,83.8,387.9,87.7,384z"/>
</g>
</svg>
