<?xml version="1.0" encoding="utf-8"?>
<!-- Generator: Adobe Illustrator 25.4.1, SVG Export Plug-In . SVG Version: 6.00 Build 0)  -->
<svg version="1.1" id="Layer_1" xmlns="http://www.w3.org/2000/svg" xmlns:xlink="http://www.w3.org/1999/xlink" x="0px" y="0px"
	 viewBox="0 0 491 487.2" style="enable-background:new 0 0 491 487.2;" xml:space="preserve">
<style type="text/css">
	.st0{fill:#F3F3F3;}
	.st1{fill:#8E8AFF;}
	.st2{enable-background:new    ;}
</style>
<g id="Concept_art_Back_3-3" transform="translate(632.5 1689)">
	<g id="Concept_art_2-13" transform="translate(315.5 1252)">
		<g transform="matrix(1, 0, 0, 1, -614.15, -923.29)">
			<path id="Rectangle_1-31" class="st0" d="M-255.6-1997.8H80.8c33.3,0,60.3,27,60.3,60.3v336.4c0,33.3-27,60.3-60.3,60.3h-336.4
				c-33.3,0-60.3-27-60.3-60.3v-336.4C-315.9-1970.8-288.9-1997.8-255.6-1997.8z"/>
		</g>
		<g id="Group_76-2">
			<g id="Group_29-6" transform="translate(-1225 -2941)">
				<g id="Group_20-9" transform="translate(1639 3297.5) rotate(180)">
					<path id="Intersection_4-19" class="st1" d="M1344.1,3107.6v109.7c0,33.3-27,60.3-60.3,60.3h-110.6c0-93.9,76.1-170,170-170
						H1344.1z"/>
				</g>
			</g>
			<g id="Group_195" transform="translate(-3886.492 90.448) rotate(-45)">
				<path id="Ellipse_33-7" class="st0" d="M4219,17.8c22.7,0,41.2,18.4,41.2,41.2s-18.4,41.2-41.2,41.2
					c-22.7,0-41.2-18.4-41.2-41.2S4196.2,17.8,4219,17.8C4219,17.8,4219,17.8,4219,17.8z"/>
				<path id="Ellipse_34-8" class="st1" d="M4203.1,63c-10.3,0.2-10.5,0-10.5-8.7s0.1-19.5,10.5-22.9c10.3-3.4,10.5,14.1,10.5,22.9
					S4213.4,62.8,4203.1,63z"/>
				<path id="Ellipse_34-9" class="st1" d="M4234.8,63c10.3,0.2,10.5,0,10.5-8.7s0.7-19.6-9.6-23s-11.3,14.3-11.3,23
					S4224.5,62.8,4234.8,63z"/>
				<path id="Path_103-2" class="st1" d="M4203.3,71.4c19.2,2.8,31.3-6,39.4-4.4s4.2,9.6,0.3,13.1c-6.9,5.4-15.3,8.5-24,8.8
					c-9.7,0-13.9,2-17.3-1.8C4198.3,83.3,4193.6,71.4,4203.3,71.4z"/>
				<circle id="Ellipse_57-2" class="st0" cx="4197.4" cy="40.4" r="6.5"/>
				<circle id="Ellipse_58-2" class="st0" cx="4226.2" cy="44.7" r="6.5"/>
				<g id="Path_104-2" transform="translate(2822.357 2847.865)">
					<path class="st1" d="M1416-2741.8c-4.1,0-5.8-1.3-6.8-2.3c-1.4-1.5-2.2-3.7-3.1-6c-0.9-2.4-1.8-4.9-3.6-7.2
						c-2.1-2.8-5.4-2.8-7.4-2.8l-0.3,0l-0.2,0c-0.2,0-0.5,0-0.9,0c0.7-1,2.3-2.6,4.8-4.2c2.1-1.4,6.3-3.8,10.9-4.1
						c0.7,0,1.5-0.1,2.2-0.1c4,0,7.3,0.7,9.9,2c2.7,1.4,4.5,3.6,5.4,6.5c0.8,2.5,1.5,5.1,1.7,7.6c0.2,2.7-0.1,4.7-1.2,6.3
						c-1.5,2.2-4.4,3.6-8.8,4.1C1417.7-2741.9,1416.8-2741.8,1416-2741.8z"/>
					<path class="st0" d="M1411.6-2766.6c-0.7,0-1.4,0-2.1,0.1c-2.9,0.2-6.3,1.4-9.5,3.5c-0.7,0.5-1.4,0.9-1.9,1.4
						c2,0.3,4.2,1.1,5.9,3.3c1.9,2.5,2.9,5.2,3.8,7.6c0.8,2.2,1.6,4.2,2.7,5.4c0.8,0.8,2.1,1.7,5.4,1.7c0.8,0,1.6,0,2.5-0.1
						c3.8-0.4,6.3-1.5,7.4-3.3c1.8-2.8,0.7-7.6-0.8-12.3c-0.8-2.4-2.2-4.2-4.5-5.4C1418.4-2766,1415.3-2766.6,1411.6-2766.6
						 M1411.6-2770.3c8.2,0,14.8,2.7,17,9.8c2.4,7.7,5.1,18.7-9.7,20.3c-14.9,1.6-12.4-9-17.8-16c-1.6-2.2-4.3-2.1-6.5-2.1
						c-1.6,0-2.9-0.1-3.1-1.2c-0.3-1.9,8.6-10.2,17.8-10.7C1410.1-2770.3,1410.9-2770.3,1411.6-2770.3z"/>
				</g>
			</g>
		</g>
		<g id="Group_207" transform="translate(414.001 356) rotate(180)">
			<g id="Group_29-7" transform="translate(-1225 -2941)">
				<g id="Group_20-10" transform="translate(1639 3297.5) rotate(180)">
					<path id="Intersection_4-20" class="st1" d="M-473-2633.6v109.7c0,33.3-27,60.3-60.3,60.3H-644c0-93.9,76.1-170,170-170H-473z"
						/>
				</g>
			</g>
			<g id="Group_195-2" transform="translate(-3886.492 90.448) rotate(-45)">
				<path id="Ellipse_33-8" class="st0" d="M1444.3,5362.2c22.7,0,41.2,18.4,41.2,41.2c0,22.7-18.4,41.2-41.2,41.2
					s-41.2-18.4-41.2-41.2C1403.1,5380.7,1421.5,5362.2,1444.3,5362.2C1444.3,5362.2,1444.3,5362.2,1444.3,5362.2z"/>
				<path id="Ellipse_34-10" class="st1" d="M1428.4,5407.5c-10.3,0.2-10.5,0-10.5-8.7c0-8.8,0.1-19.5,10.5-22.9
					c10.3-3.4,10.5,14.1,10.5,22.9S1438.7,5407.3,1428.4,5407.5z"/>
				<path id="Ellipse_34-11" class="st1" d="M1460.1,5407.5c10.3,0.2,10.5,0,10.5-8.7s0.7-19.6-9.6-23c-10.3-3.4-11.3,14.3-11.3,23
					S1449.8,5407.3,1460.1,5407.5z"/>
				<path id="Path_103-3" class="st1" d="M1428.6,5415.9c19.2,2.8,31.3-6,39.4-4.4s4.2,9.6,0.3,13.1c-6.9,5.4-15.3,8.5-24,8.8
					c-9.7,0-13.9,2-17.3-1.8C1423.6,5427.8,1418.9,5415.9,1428.6,5415.9z"/>
				<circle id="Ellipse_57-3" class="st0" cx="1422.7" cy="5384.9" r="6.5"/>
				<circle id="Ellipse_58-3" class="st0" cx="1451.5" cy="5389.2" r="6.5"/>
				<g id="Path_104-3" transform="translate(2822.357 2847.865)">
					<path class="st1" d="M-1358.7,2602.6c-4.1,0-5.8-1.3-6.8-2.3c-1.4-1.5-2.2-3.7-3.1-6c-0.9-2.4-1.8-4.9-3.6-7.2
						c-2.1-2.8-5.4-2.8-7.4-2.8l-0.3,0l-0.2,0c-0.2,0-0.5,0-0.9,0c0.7-1,2.3-2.6,4.8-4.2c2.1-1.4,6.3-3.8,10.9-4.1
						c0.7,0,1.5-0.1,2.2-0.1c4,0,7.3,0.7,9.9,2c2.7,1.4,4.5,3.6,5.4,6.5c0.8,2.5,1.5,5.1,1.7,7.6c0.2,2.7-0.1,4.7-1.2,6.3
						c-1.5,2.2-4.4,3.6-8.8,4.1C-1357,2602.6-1357.9,2602.6-1358.7,2602.6z"/>
					<path class="st0" d="M-1363.1,2577.8c-0.7,0-1.4,0-2.1,0.1c-2.9,0.2-6.3,1.4-9.5,3.5c-0.7,0.5-1.4,0.9-1.9,1.4
						c2,0.3,4.2,1.1,5.9,3.3c1.9,2.5,2.9,5.2,3.8,7.6c0.8,2.2,1.6,4.2,2.7,5.4c0.8,0.8,2.1,1.7,5.4,1.7c0.8,0,1.6,0,2.5-0.1
						c3.8-0.4,6.3-1.5,7.4-3.3c1.8-2.8,0.7-7.6-0.8-12.3c-0.8-2.4-2.2-4.2-4.5-5.4C-1356.3,2578.5-1359.4,2577.8-1363.1,2577.8
						 M-1363.1,2574.2c8.2,0,14.8,2.7,17,9.8c2.4,7.7,5.1,18.7-9.7,20.3c-14.9,1.6-12.4-9-17.8-16c-1.6-2.2-4.3-2.1-6.5-2.1
						c-1.6,0-2.9-0.1-3.1-1.2c-0.3-1.9,8.6-10.2,17.8-10.7C-1364.6,2574.2-1363.8,2574.2-1363.1,2574.2z"/>
				</g>
			</g>
		</g>
		<g id="Group_203" transform="translate(385 -29) rotate(90)">
			<g id="Group_29-8" transform="translate(-1225 -2941)">
				<g id="Group_20-11" transform="translate(1639 3297.5) rotate(180)">
					<path id="Intersection_4-21" class="st1" d="M3306.1-671.5v109.7c0,33.3-27,60.3-60.3,60.3h-110.6c0-93.9,76.1-170,170-170
						H3306.1z"/>
				</g>
			</g>
			<g id="Group_195-3" transform="translate(-3886.492 90.448) rotate(-45)">
				<path id="Ellipse_33-9" class="st0" d="M159.4,1302.7c22.7,0,41.2,18.4,41.2,41.2s-18.4,41.2-41.2,41.2s-41.2-18.4-41.2-41.2
					S136.6,1302.7,159.4,1302.7C159.4,1302.7,159.4,1302.7,159.4,1302.7z"/>
				<path id="Ellipse_34-12" class="st1" d="M143.5,1347.9c-10.3,0.2-10.5,0-10.5-8.7s0.1-19.5,10.5-22.9
					c10.3-3.4,10.5,14.1,10.5,22.9C154,1347.9,153.9,1347.7,143.5,1347.9z"/>
				<path id="Ellipse_34-13" class="st1" d="M175.2,1347.9c10.3,0.2,10.5,0,10.5-8.7s0.7-19.6-9.6-23c-10.3-3.4-11.3,14.3-11.3,23
					S164.9,1347.7,175.2,1347.9z"/>
				<path id="Path_103-4" class="st1" d="M143.7,1356.3c19.2,2.8,31.3-6,39.4-4.4c8.1,1.6,4.2,9.6,0.3,13.1
					c-6.9,5.4-15.3,8.5-24,8.8c-9.7,0-13.9,2-17.3-1.8C138.8,1368.2,134,1356.3,143.7,1356.3z"/>
				<circle id="Ellipse_57-4" class="st0" cx="137.8" cy="1325.3" r="6.5"/>
				<circle id="Ellipse_58-4" class="st0" cx="166.6" cy="1329.6" r="6.5"/>
				<g id="Path_104-4" transform="translate(2822.357 2847.865)">
					<path class="st1" d="M-2643.6-1456.9c-4.1,0-5.8-1.3-6.8-2.3c-1.4-1.5-2.2-3.7-3.1-6c-0.9-2.4-1.8-4.9-3.6-7.2
						c-2.1-2.8-5.4-2.8-7.4-2.8l-0.3,0l-0.2,0c-0.2,0-0.5,0-0.9,0c0.7-1,2.3-2.6,4.8-4.2c2.1-1.4,6.3-3.8,10.9-4.1
						c0.7,0,1.5-0.1,2.2-0.1c4,0,7.3,0.7,9.9,2c2.7,1.4,4.5,3.6,5.4,6.5c0.8,2.5,1.5,5.1,1.7,7.6c0.2,2.7-0.1,4.7-1.2,6.3
						c-1.5,2.2-4.4,3.6-8.8,4.1C-2641.9-1457-2642.8-1456.9-2643.6-1456.9z"/>
					<path class="st0" d="M-2648-1481.7c-0.7,0-1.4,0-2.1,0.1c-2.9,0.2-6.3,1.4-9.5,3.5c-0.7,0.5-1.4,0.9-1.9,1.4
						c2,0.3,4.2,1.1,5.9,3.3c1.9,2.5,2.9,5.2,3.8,7.6c0.8,2.2,1.6,4.2,2.7,5.4c0.8,0.8,2.1,1.7,5.4,1.7c0.8,0,1.6,0,2.5-0.1
						c3.8-0.4,6.3-1.5,7.4-3.3c1.8-2.8,0.7-7.6-0.8-12.3c-0.8-2.4-2.2-4.2-4.5-5.4C-2641.2-1481.1-2644.3-1481.7-2648-1481.7
						 M-2648-1485.4c8.2,0,14.8,2.7,17,9.8c2.4,7.7,5.1,18.7-9.7,20.3c-14.9,1.6-12.4-9-17.8-16c-1.6-2.2-4.3-2.1-6.5-2.1
						c-1.6,0-2.9-0.1-3.1-1.2c-0.3-1.9,8.6-10.2,17.8-10.7C-2649.5-1485.4-2648.7-1485.4-2648-1485.4z"/>
				</g>
			</g>
		</g>
		<g id="Group_206" transform="translate(29 385) rotate(-90)">
			<g id="Group_29-9" transform="translate(-1225 -2941)">
				<g id="Group_20-12" transform="translate(1639 3297.5) rotate(180)">
					<path id="Intersection_4-22" class="st1" d="M-2435,1145.6v109.7c0,33.3-27,60.3-60.3,60.3H-2606c0-93.9,76.1-170,170-170
						H-2435z"/>
				</g>
			</g>
			<g id="Group_195-4" transform="translate(-3886.492 90.448) rotate(-45)">
				<path id="Ellipse_33-10" class="st0" d="M5503.8,4077.4c22.7,0,41.2,18.4,41.2,41.2c0,22.7-18.4,41.2-41.2,41.2
					c-22.7,0-41.2-18.4-41.2-41.2C5462.7,4095.8,5481.1,4077.4,5503.8,4077.4C5503.8,4077.4,5503.8,4077.4,5503.8,4077.4z"/>
				<path id="Ellipse_34-14" class="st1" d="M5488,4122.6c-10.3,0.2-10.5,0-10.5-8.7c0-8.8,0.1-19.5,10.5-22.9s10.5,14.1,10.5,22.9
					S5498.3,4122.4,5488,4122.6z"/>
				<path id="Ellipse_34-15" class="st1" d="M5519.7,4122.6c10.3,0.2,10.5,0,10.5-8.7s0.7-19.6-9.6-23s-11.3,14.3-11.3,23
					S5509.4,4122.4,5519.7,4122.6z"/>
				<path id="Path_103-5" class="st1" d="M5488.2,4131c19.2,2.8,31.3-6,39.4-4.4c8.1,1.6,4.2,9.6,0.3,13.1c-6.9,5.4-15.3,8.5-24,8.8
					c-9.7,0-13.9,2-17.3-1.8S5478.5,4131,5488.2,4131z"/>
				<circle id="Ellipse_57-5" class="st0" cx="5482.3" cy="4100" r="6.5"/>
				<circle id="Ellipse_58-5" class="st0" cx="5511.1" cy="4104.3" r="6.5"/>
				<g id="Path_104-5" transform="translate(2822.357 2847.865)">
					<path class="st1" d="M2700.9,1317.7c-4.1,0-5.8-1.3-6.8-2.3c-1.4-1.5-2.2-3.7-3.1-6c-0.9-2.4-1.8-4.9-3.6-7.2
						c-2.1-2.8-5.4-2.8-7.4-2.8l-0.3,0l-0.2,0c-0.2,0-0.5,0-0.9,0c0.7-1,2.3-2.6,4.8-4.2c2.1-1.4,6.3-3.8,10.9-4.1
						c0.7,0,1.5-0.1,2.2-0.1c4,0,7.3,0.7,9.9,2c2.7,1.4,4.5,3.6,5.4,6.5c0.8,2.5,1.5,5.1,1.7,7.6c0.2,2.7-0.1,4.7-1.2,6.3
						c-1.5,2.2-4.4,3.6-8.8,4.1C2702.6,1317.7,2701.7,1317.7,2700.9,1317.7z"/>
					<path class="st0" d="M2696.5,1292.9c-0.7,0-1.4,0-2.1,0.1c-2.9,0.2-6.3,1.4-9.5,3.5c-0.7,0.5-1.4,0.9-1.9,1.4
						c2,0.3,4.2,1.1,5.9,3.3c1.9,2.5,2.9,5.2,3.8,7.6c0.8,2.2,1.6,4.2,2.7,5.4c0.8,0.8,2.1,1.7,5.4,1.7c0.8,0,1.6,0,2.5-0.1
						c3.8-0.4,6.3-1.5,7.4-3.3c1.8-2.8,0.7-7.6-0.8-12.3c-0.8-2.4-2.2-4.2-4.5-5.4C2703.2,1293.6,2700.2,1292.9,2696.5,1292.9
						 M2696.5,1289.3c8.2,0,14.8,2.7,17,9.8c2.4,7.7,5.1,18.7-9.7,20.3c-14.9,1.6-12.4-9-17.8-16c-1.6-2.2-4.3-2.1-6.5-2.1
						c-1.6,0-2.9-0.1-3.1-1.2c-0.3-1.9,8.6-10.2,17.8-10.7C2695,1289.3,2695.8,1289.3,2696.5,1289.3z"/>
				</g>
			</g>
		</g>
	</g>
</g>
<g id="Group_182-2" transform="translate(-3555.757 -8337.574) rotate(60)">
	<g id="Group_148-3" transform="translate(12224.423 1552.942)">
		<g id="Group_146-5" transform="translate(0 133.268)">
			<g id="Group_135-9" transform="translate(0 0)">
				<g class="st2">
					<path class="st1" d="M-2982.6-599.9c0-0.5,0-0.8,0-1.1c0-0.2,0.1-0.5,0.3-0.8c0.3-0.5,1.1-0.8,2.4-0.8c1,0,1.7,0.2,2.1,0.5
						c0.4,0.3,0.5,0.7,0.6,1.3c0,0.2,0,0.5,0,0.9l0,10.9c0,0.5,0,0.8,0,1.1c0,0.2-0.1,0.5-0.3,0.8c-0.3,0.5-1.1,0.8-2.4,0.8
						c-1.3,0-2.1-0.3-2.4-0.8c-0.1-0.3-0.2-0.6-0.3-0.8c0-0.2,0-0.6,0-1.1L-2982.6-599.9z M-2977.5-605.7c-0.2,0.3-0.4,0.5-0.8,0.6
						c-0.4,0.1-0.9,0.2-1.6,0.2c-0.7,0-1.2-0.1-1.6-0.2c-0.4-0.1-0.7-0.3-0.8-0.7c-0.2-0.3-0.2-0.6-0.3-0.8c0-0.2,0-0.6,0-1.1
						c0-0.5,0-0.8,0-1.1c0-0.2,0.1-0.5,0.3-0.8c0.3-0.6,1.1-0.8,2.4-0.8c1.3,0,2.1,0.3,2.4,0.8c0.2,0.3,0.3,0.6,0.3,0.8
						c0,0.2,0,0.6,0,1.1c0,0.5,0,0.8,0,1.1C-2977.2-606.2-2977.3-606-2977.5-605.7z"/>
				</g>
				<g class="st2">
					<path class="st1" d="M-2862.2-599.9c0-0.5,0-0.8,0-1.1c0-0.2,0.1-0.5,0.3-0.8c0.3-0.5,1.1-0.8,2.4-0.8c1,0,1.7,0.2,2.1,0.5
						c0.4,0.3,0.5,0.7,0.6,1.3c0,0.2,0,0.5,0,0.9l0,10.9c0,0.5,0,0.8,0,1.1c0,0.2-0.1,0.5-0.3,0.8c-0.3,0.5-1.1,0.8-2.4,0.8
						c-1.3,0-2.1-0.3-2.4-0.8c-0.1-0.3-0.2-0.6-0.3-0.8c0-0.2,0-0.6,0-1.1L-2862.2-599.9z M-2857.1-605.7c-0.2,0.3-0.4,0.5-0.8,0.6
						c-0.4,0.1-0.9,0.2-1.6,0.2c-0.7,0-1.2-0.1-1.6-0.2c-0.4-0.1-0.7-0.3-0.8-0.7c-0.2-0.3-0.2-0.6-0.3-0.8c0-0.2,0-0.6,0-1.1
						c0-0.5,0-0.8,0-1.1c0-0.2,0.1-0.5,0.3-0.8c0.3-0.6,1.1-0.8,2.4-0.8c1.3,0,2.1,0.3,2.4,0.8c0.2,0.3,0.3,0.6,0.3,0.8
						c0,0.2,0,0.6,0,1.1c0,0.5,0,0.8,0,1.1C-2856.8-606.2-2856.9-606-2857.1-605.7z"/>
				</g>
				<g class="st2">
					<path class="st1" d="M-2807.7-596.5c0.3,0.2,0.5,0.4,0.6,0.8c0.1,0.4,0.2,0.9,0.2,1.6s-0.1,1.2-0.2,1.6
						c-0.1,0.4-0.3,0.7-0.7,0.8c-0.3,0.2-0.6,0.2-0.8,0.3c-0.2,0-0.6,0-1.1,0c-0.5,0-0.8,0-1.1,0c-0.2,0-0.5-0.1-0.8-0.3
						c-0.6-0.3-0.8-1.1-0.8-2.4c0-1.3,0.3-2.1,0.8-2.4c0.3-0.2,0.6-0.3,0.8-0.3c0.2,0,0.6,0,1.1,0c0.5,0,0.8,0,1.1,0
						C-2808.3-596.7-2808-596.6-2807.7-596.5z M-2801.9-591.4c-0.5,0-0.8,0-1.1,0c-0.2,0-0.5-0.1-0.8-0.3c-0.5-0.3-0.8-1.1-0.8-2.4
						c0-1,0.2-1.7,0.5-2.1c0.3-0.4,0.7-0.5,1.3-0.6c0.2,0,0.5,0,0.9,0l10.9,0c0.5,0,0.8,0,1.1,0c0.2,0,0.5,0.1,0.8,0.3
						c0.5,0.3,0.8,1.1,0.8,2.4c0,1.3-0.3,2.1-0.8,2.4c-0.3,0.1-0.6,0.2-0.8,0.3c-0.2,0-0.6,0-1.1,0L-2801.9-591.4z"/>
				</g>
				<g class="st2">
					<path class="st1" d="M-2760.7-609.1c3.8,0,7.1,1.4,9.9,4.1c2.8,2.7,4.2,6.1,4.2,10.2c0,4.1-1.3,7.5-4,10.4
						c-2.7,2.9-5.9,4.3-9.8,4.3c-3.9,0-7.2-1.4-9.9-4.2c-2.7-2.8-4.1-6.2-4.1-10.1c0-2.1,0.4-4.1,1.2-6c0.8-1.9,1.8-3.4,3.1-4.7
						c1.3-1.3,2.8-2.2,4.4-3C-2764.2-608.8-2762.5-609.1-2760.7-609.1z M-2767.7-594.6c0,2.3,0.7,4.1,2.2,5.5
						c1.5,1.4,3.1,2.1,4.9,2.1c1.8,0,3.5-0.7,4.9-2.1c1.5-1.4,2.2-3.2,2.2-5.6c0-2.3-0.7-4.2-2.2-5.6c-1.5-1.4-3.1-2.1-4.9-2.1
						c-1.8,0-3.5,0.7-4.9,2.1C-2767-598.8-2767.7-596.9-2767.7-594.6z"/>
				</g>
				<g class="st2">
					<path class="st1" d="M-2948.2-608.3c0.2-0.4,0.6-0.7,1-0.9c0.5-0.1,1-0.2,1.7-0.2s1.3,0.1,1.7,0.2c0.4,0.1,0.7,0.3,1,0.4
						c0.2,0.2,0.4,0.4,0.5,0.8c0.1,0.4,0.2,1,0.2,1.9v20.3c0,0.6,0,1-0.1,1.3c0,0.3-0.2,0.6-0.3,1c-0.3,0.7-1.3,1-2.9,1
						c-1,0-1.6-0.1-2-0.2c-0.4-0.1-0.7-0.4-0.9-0.7c-5.5-7.3-9.1-12.1-10.8-14.3l0,12c0,0.6,0,1-0.1,1.3c0,0.3-0.2,0.6-0.3,1
						c-0.3,0.7-1.3,1-2.9,1c-1.5,0-2.4-0.3-2.8-1c-0.2-0.4-0.3-0.7-0.3-1c0-0.3-0.1-0.7-0.1-1.3v-20.4c0-0.9,0.1-1.6,0.3-2
						c0.2-0.4,0.6-0.7,1-0.9c0.5-0.1,1.1-0.2,1.8-0.2c0.7,0,1.3,0.1,1.7,0.2c0.4,0.1,0.7,0.3,0.9,0.5c0.1,0.1,0.4,0.4,0.8,1
						c5.1,7,8.6,11.6,10.3,13.9l0-12.4C-2948.6-607.2-2948.5-607.9-2948.2-608.3z"/>
				</g>
				<g class="st2">
					<path class="st1" d="M-2720.1-608.1c0.2-0.4,0.6-0.7,1-0.9c0.5-0.1,1-0.2,1.7-0.2c0.7,0,1.3,0.1,1.7,0.2c0.4,0.1,0.7,0.3,1,0.4
						c0.2,0.2,0.4,0.4,0.5,0.8c0.1,0.4,0.2,1,0.2,1.9l0,20.3c0,0.6,0,1-0.1,1.3c0,0.3-0.2,0.6-0.3,1c-0.3,0.7-1.3,1-2.9,1
						c-1,0-1.6-0.1-2-0.2c-0.4-0.1-0.7-0.4-0.9-0.7c-5.5-7.3-9.1-12.1-10.8-14.3v12c0,0.6,0,1-0.1,1.3c0,0.3-0.2,0.6-0.3,1
						c-0.3,0.7-1.3,1-2.9,1c-1.5,0-2.4-0.3-2.8-1c-0.2-0.4-0.3-0.7-0.3-1c0-0.3-0.1-0.7-0.1-1.3l0-20.4c0-0.9,0.1-1.6,0.3-2
						s0.6-0.7,1-0.9c0.5-0.1,1.1-0.2,1.8-0.2c0.7,0,1.3,0.1,1.7,0.2c0.4,0.1,0.7,0.3,0.9,0.5c0.1,0.1,0.4,0.4,0.8,1
						c5.1,7,8.6,11.6,10.3,13.9v-12.4C-2720.4-607-2720.3-607.7-2720.1-608.1z"/>
				</g>
				<g class="st2">
					<path class="st1" d="M-2929.5-608.1l19.3,0c0.7,0,1.3,0.1,1.6,0.3c0.3,0.2,0.6,0.4,0.7,0.8c0.1,0.4,0.2,0.9,0.2,1.5
						c0,0.6-0.1,1.1-0.2,1.4c-0.1,0.4-0.3,0.6-0.6,0.7c-0.4,0.2-1,0.3-1.8,0.3l-6.6,0l0,17.5c0,0.5,0,0.9-0.1,1.2
						c0,0.3-0.1,0.6-0.3,0.9c-0.2,0.3-0.5,0.6-0.9,0.7c-0.4,0.1-1,0.2-1.7,0.2c-0.7,0-1.3-0.1-1.7-0.2c-0.4-0.1-0.7-0.4-0.9-0.7
						c-0.2-0.3-0.3-0.6-0.3-0.9c0-0.3-0.1-0.7-0.1-1.2v-17.4h-6.7c-0.7,0-1.3-0.1-1.6-0.3c-0.3-0.2-0.6-0.4-0.7-0.8
						c-0.1-0.4-0.2-0.9-0.2-1.5c0-0.6,0.1-1.1,0.2-1.4c0.1-0.4,0.3-0.6,0.6-0.7C-2930.9-608-2930.3-608.1-2929.5-608.1z"/>
				</g>
				<g class="st2">
					<path class="st1" d="M-2843.5-608.1l19.3,0c0.7,0,1.3,0.1,1.6,0.3c0.3,0.2,0.6,0.4,0.7,0.8c0.1,0.4,0.2,0.9,0.2,1.5
						c0,0.6-0.1,1.1-0.2,1.4c-0.1,0.4-0.3,0.6-0.6,0.7c-0.4,0.2-1,0.3-1.8,0.3l-6.6,0v17.5c0,0.5,0,0.9-0.1,1.2s-0.1,0.6-0.3,0.9
						c-0.2,0.3-0.5,0.6-0.9,0.7c-0.4,0.1-1,0.2-1.7,0.2c-0.7,0-1.3-0.1-1.7-0.2c-0.4-0.1-0.7-0.4-0.9-0.7c-0.2-0.3-0.3-0.6-0.3-0.9
						c0-0.3-0.1-0.7-0.1-1.2l0-17.4l-6.7,0c-0.7,0-1.3-0.1-1.6-0.3c-0.3-0.2-0.6-0.4-0.7-0.8c-0.1-0.4-0.2-0.9-0.2-1.5
						c0-0.6,0.1-1.1,0.2-1.4c0.1-0.4,0.3-0.6,0.6-0.7C-2844.9-608-2844.3-608.1-2843.5-608.1z"/>
				</g>
				<g class="st2">
					<path class="st1" d="M-2879.9-607.1c0.2-0.4,0.6-0.6,1-0.8c0.4-0.1,1-0.2,1.6-0.2c0.7,0,1.2,0.1,1.6,0.2
						c0.4,0.1,0.7,0.3,0.9,0.4c0.2,0.2,0.4,0.4,0.5,0.7c0.1,0.4,0.2,1,0.2,1.8v10.5c0,3.1-1,5.8-2.8,8.3c-0.9,1.2-2.1,2.1-3.6,2.9
						c-1.5,0.7-3.1,1.1-4.8,1.1s-3.4-0.4-4.8-1.1c-1.4-0.7-2.6-1.7-3.5-2.9c-1.9-2.5-2.8-5.2-2.8-8.3l0-10.5c0-0.6,0-1,0.1-1.2
						c0-0.3,0.1-0.6,0.3-0.9c0.2-0.3,0.5-0.6,0.9-0.7c0.4-0.1,1-0.2,1.8-0.2c0.7,0,1.3,0.1,1.8,0.2c0.4,0.1,0.7,0.4,0.9,0.7
						c0.3,0.5,0.4,1.3,0.4,2.2l0,10.4c0,1.4,0.3,2.8,1,4c0.3,0.6,0.9,1.2,1.6,1.6c0.7,0.4,1.5,0.6,2.5,0.6c1.7,0,3-0.6,3.8-1.9
						c0.8-1.3,1.3-2.7,1.3-4.3v-10.6C-2880.2-606.1-2880.1-606.8-2879.9-607.1z"/>
				</g>
			</g>
		</g>
		<g id="Group_147-5" transform="translate(90.063 148.182) rotate(-90)">
			<g id="Group_135-10" transform="translate(0 0)">
				<g class="st2">
					<path class="st1" d="M611.3-2897.6c-0.2,0.3-0.4,0.5-0.8,0.6c-0.4,0.1-0.9,0.2-1.6,0.2c-0.7,0-1.2-0.1-1.6-0.2
						c-0.4-0.1-0.7-0.3-0.8-0.7c-0.2-0.3-0.2-0.6-0.3-0.8c0-0.2,0-0.6,0-1.1c0-0.5,0-0.8,0-1.1c0-0.2,0.1-0.5,0.3-0.8
						c0.3-0.6,1.1-0.8,2.4-0.8c1.3,0,2.1,0.3,2.4,0.8c0.2,0.3,0.3,0.6,0.3,0.8c0,0.2,0,0.6,0,1.1c0,0.5,0,0.8,0,1.1
						C611.6-2898.2,611.5-2897.9,611.3-2897.6z M606.2-2891.8c0-0.5,0-0.8,0-1.1c0-0.2,0.1-0.5,0.3-0.8c0.3-0.5,1.1-0.8,2.4-0.8
						c1,0,1.7,0.2,2.1,0.5c0.4,0.3,0.5,0.7,0.6,1.3c0,0.2,0,0.5,0,0.9l0,10.9c0,0.5,0,0.8,0,1.1c0,0.2-0.1,0.5-0.3,0.8
						c-0.3,0.5-1.1,0.8-2.4,0.8c-1.3,0-2.1-0.3-2.4-0.8c-0.1-0.3-0.2-0.6-0.3-0.8c0-0.2,0-0.6,0-1.1L606.2-2891.8z"/>
				</g>
				<g class="st2">
					<path class="st1" d="M731.8-2897.6c-0.2,0.3-0.4,0.5-0.8,0.6c-0.4,0.1-0.9,0.2-1.6,0.2c-0.7,0-1.2-0.1-1.6-0.2
						c-0.4-0.1-0.7-0.3-0.8-0.7c-0.2-0.3-0.2-0.6-0.3-0.8c0-0.2,0-0.6,0-1.1c0-0.5,0-0.8,0-1.1c0-0.2,0.1-0.5,0.3-0.8
						c0.3-0.6,1.1-0.8,2.4-0.8c1.3,0,2.1,0.3,2.4,0.8c0.2,0.3,0.3,0.6,0.3,0.8c0,0.2,0,0.6,0,1.1c0,0.5,0,0.8,0,1.1
						C732-2898.2,731.9-2897.9,731.8-2897.6z M726.6-2891.8c0-0.5,0-0.8,0-1.1c0-0.2,0.1-0.5,0.3-0.8c0.3-0.5,1.1-0.8,2.4-0.8
						c1,0,1.7,0.2,2.1,0.5c0.4,0.3,0.5,0.7,0.6,1.3c0,0.2,0,0.5,0,0.9l0,10.9c0,0.5,0,0.8,0,1.1c0,0.2-0.1,0.5-0.3,0.8
						c-0.3,0.5-1.1,0.8-2.4,0.8c-1.3,0-2.1-0.3-2.4-0.8c-0.1-0.3-0.2-0.6-0.3-0.8c0-0.2,0-0.6,0-1.1L726.6-2891.8z"/>
				</g>
				<g class="st2">
					<path class="st1" d="M781.1-2888.4c0.3,0.2,0.5,0.4,0.6,0.8c0.1,0.4,0.2,0.9,0.2,1.6c0,0.7-0.1,1.2-0.2,1.6
						c-0.1,0.4-0.3,0.7-0.7,0.8c-0.3,0.2-0.6,0.2-0.8,0.3c-0.2,0-0.6,0-1.1,0c-0.5,0-0.8,0-1.1,0c-0.2,0-0.5-0.1-0.8-0.3
						c-0.6-0.3-0.8-1.1-0.8-2.4c0-1.3,0.3-2.1,0.8-2.4c0.3-0.2,0.6-0.3,0.8-0.3c0.2,0,0.6,0,1.1,0c0.5,0,0.8,0,1.1,0
						C780.6-2888.7,780.8-2888.6,781.1-2888.4z M786.9-2883.3c-0.5,0-0.8,0-1.1,0c-0.2,0-0.5-0.1-0.8-0.3c-0.5-0.3-0.8-1.1-0.8-2.4
						c0-1,0.2-1.7,0.5-2.1c0.3-0.4,0.7-0.5,1.3-0.6c0.2,0,0.5,0,0.9,0l10.9,0c0.5,0,0.8,0,1.1,0c0.2,0,0.5,0.1,0.8,0.3
						c0.5,0.3,0.8,1.1,0.8,2.4c0,1.3-0.3,2.1-0.8,2.4c-0.3,0.1-0.6,0.2-0.8,0.3c-0.2,0-0.6,0-1.1,0L786.9-2883.3z"/>
				</g>
				<g class="st2">
					<path class="st1" d="M826.6-2900.2c3.4,0,6.4,1.2,8.9,3.7c2.5,2.5,3.8,5.6,3.8,9.2c0,3.7-1.2,6.8-3.6,9.4
						c-2.4,2.6-5.4,3.9-8.9,3.9c-3.5,0-6.5-1.3-9-3.8c-2.5-2.5-3.7-5.6-3.7-9.1c0-1.9,0.3-3.7,1-5.4c0.7-1.7,1.6-3.1,2.8-4.2
						c1.2-1.1,2.5-2,4-2.7C823.5-2899.8,825-2900.2,826.6-2900.2z M820.3-2887.1c0,2.1,0.7,3.7,2,5c1.3,1.3,2.8,1.9,4.5,1.9
						c1.6,0,3.1-0.6,4.4-1.9c1.3-1.3,2-2.9,2-5c0-2.1-0.7-3.8-2-5.1c-1.3-1.3-2.8-1.9-4.5-1.9c-1.6,0-3.1,0.6-4.4,1.9
						C821-2890.8,820.3-2889.1,820.3-2887.1z"/>
				</g>
				<g class="st2">
					<path class="st1" d="M640.6-2900.2c0.2-0.4,0.6-0.7,1-0.9c0.5-0.1,1-0.2,1.7-0.2c0.7,0,1.3,0.1,1.7,0.2c0.4,0.1,0.7,0.3,1,0.4
						c0.2,0.2,0.4,0.4,0.5,0.8c0.1,0.4,0.2,1,0.2,1.9l0,20.3c0,0.6,0,1-0.1,1.3c0,0.3-0.2,0.6-0.3,0.9c-0.3,0.7-1.3,1-2.9,1
						c-1,0-1.6-0.1-2-0.2c-0.4-0.1-0.7-0.4-0.9-0.7c-5.5-7.3-9.1-12.1-10.8-14.3l0,12c0,0.6,0,1-0.1,1.3c0,0.3-0.2,0.6-0.3,0.9
						c-0.3,0.7-1.3,1-2.9,1c-1.5,0-2.4-0.3-2.8-1c-0.2-0.4-0.3-0.7-0.3-1c0-0.3-0.1-0.7-0.1-1.3l0-20.4c0-0.9,0.1-1.6,0.3-2
						c0.2-0.4,0.6-0.7,1-0.9c0.5-0.1,1.1-0.2,1.8-0.2c0.7,0,1.3,0.1,1.7,0.2c0.4,0.1,0.7,0.3,0.9,0.5c0.1,0.1,0.4,0.4,0.8,0.9
						c5.1,7,8.6,11.6,10.3,13.9l0-12.4C640.3-2899.1,640.4-2899.8,640.6-2900.2z"/>
				</g>
				<g class="st2">
					<path class="st1" d="M868.2-2900.1c0.2-0.4,0.6-0.7,1-0.9c0.5-0.1,1-0.2,1.7-0.2c0.7,0,1.3,0.1,1.7,0.2c0.4,0.1,0.7,0.3,1,0.4
						c0.2,0.2,0.4,0.4,0.5,0.8c0.1,0.4,0.2,1,0.2,1.9l0,20.3c0,0.6,0,1-0.1,1.3c0,0.3-0.2,0.6-0.3,1c-0.3,0.7-1.3,1-2.9,1
						c-1,0-1.6-0.1-2-0.2c-0.4-0.1-0.7-0.4-0.9-0.7c-5.5-7.3-9.1-12.1-10.8-14.3l0,12c0,0.6,0,1-0.1,1.3c0,0.3-0.2,0.6-0.3,0.9
						c-0.3,0.7-1.3,1-2.9,1c-1.5,0-2.4-0.3-2.8-1c-0.2-0.4-0.3-0.7-0.3-1c0-0.3-0.1-0.7-0.1-1.3l0-20.4c0-0.9,0.1-1.6,0.3-2
						c0.2-0.4,0.6-0.7,1-0.9c0.5-0.1,1.1-0.2,1.8-0.2c0.7,0,1.3,0.1,1.7,0.2c0.4,0.1,0.7,0.3,0.9,0.5c0.1,0.1,0.4,0.4,0.8,0.9
						c5.1,7,8.6,11.6,10.3,13.9l0-12.4C867.8-2899,868-2899.7,868.2-2900.1z"/>
				</g>
				<g class="st2">
					<path class="st1" d="M659.3-2900l19.3,0c0.7,0,1.3,0.1,1.6,0.3c0.3,0.2,0.6,0.4,0.7,0.8c0.1,0.4,0.2,0.9,0.2,1.5
						c0,0.6-0.1,1.1-0.2,1.4c-0.1,0.4-0.3,0.6-0.6,0.7c-0.4,0.2-1,0.3-1.8,0.3H672v17.5c0,0.5,0,0.9-0.1,1.2c0,0.3-0.1,0.6-0.3,0.9
						c-0.2,0.3-0.5,0.6-0.9,0.7c-0.4,0.1-1,0.2-1.7,0.2c-0.7,0-1.3-0.1-1.7-0.2c-0.4-0.1-0.7-0.4-0.9-0.7c-0.2-0.3-0.3-0.6-0.3-0.9
						c0-0.3-0.1-0.7-0.1-1.2l0-17.4h-6.7c-0.7,0-1.3-0.1-1.6-0.3c-0.3-0.2-0.6-0.4-0.7-0.8c-0.1-0.4-0.2-0.9-0.2-1.5
						c0-0.6,0.1-1.1,0.2-1.4c0.1-0.4,0.3-0.6,0.6-0.7C658-2899.9,658.6-2900,659.3-2900z"/>
				</g>
				<g class="st2">
					<path class="st1" d="M745.3-2900h19.3c0.7,0,1.3,0.1,1.6,0.3s0.6,0.4,0.7,0.8c0.1,0.4,0.2,0.9,0.2,1.5c0,0.6-0.1,1.1-0.2,1.4
						c-0.1,0.4-0.3,0.6-0.6,0.7c-0.4,0.2-1,0.3-1.8,0.3H758l0,17.5c0,0.5,0,0.9-0.1,1.2c0,0.3-0.1,0.6-0.3,0.9
						c-0.2,0.3-0.5,0.6-0.9,0.7c-0.4,0.1-1,0.2-1.7,0.2c-0.7,0-1.3-0.1-1.7-0.2c-0.4-0.1-0.7-0.4-0.9-0.7c-0.2-0.3-0.3-0.6-0.3-0.9
						c0-0.3-0.1-0.7-0.1-1.2l0-17.4l-6.7,0c-0.7,0-1.3-0.1-1.6-0.3c-0.3-0.2-0.6-0.4-0.7-0.8c-0.1-0.4-0.2-0.9-0.2-1.5
						c0-0.6,0.1-1.1,0.2-1.4c0.1-0.4,0.3-0.6,0.6-0.7C744-2899.9,744.5-2900,745.3-2900z"/>
				</g>
				<g class="st2">
					<path class="st1" d="M709-2899c0.2-0.4,0.6-0.6,1-0.8c0.4-0.1,1-0.2,1.7-0.2c0.7,0,1.2,0.1,1.6,0.2c0.4,0.1,0.7,0.3,0.9,0.4
						c0.2,0.2,0.4,0.4,0.5,0.7c0.1,0.4,0.2,1,0.2,1.8l0,10.5c0,3.1-0.9,5.8-2.8,8.3c-0.9,1.2-2.1,2.1-3.6,2.9s-3.1,1.1-4.8,1.1
						c-1.8,0-3.4-0.4-4.8-1.1c-1.4-0.7-2.6-1.7-3.5-2.9c-1.9-2.5-2.8-5.2-2.8-8.3l0-10.5c0-0.6,0-1,0.1-1.2c0-0.3,0.1-0.6,0.3-0.9
						c0.2-0.3,0.5-0.6,0.9-0.7c0.4-0.1,1-0.2,1.8-0.2c0.7,0,1.3,0.1,1.8,0.2c0.4,0.1,0.7,0.4,0.9,0.7c0.3,0.5,0.4,1.3,0.4,2.2
						l0,10.4c0,1.4,0.3,2.8,1,4c0.3,0.6,0.9,1.2,1.6,1.6c0.7,0.4,1.5,0.6,2.5,0.6c1.7,0,3-0.6,3.8-1.9c0.8-1.2,1.3-2.7,1.3-4.3
						l0-10.6C708.6-2898,708.8-2898.7,709-2899z"/>
				</g>
			</g>
		</g>
	</g>
	<g id="Group_149-3" transform="translate(12329.402 1744.362) rotate(180)">
		<g id="Group_146-6" transform="translate(0 133.268)">
			<g id="Group_135-11">
				<g class="st2">
					<path class="st1" d="M2903.3,691.2c-0.2,0.3-0.4,0.5-0.8,0.6c-0.4,0.1-0.9,0.2-1.6,0.2c-0.7,0-1.2-0.1-1.6-0.2
						c-0.4-0.1-0.7-0.3-0.8-0.7c-0.2-0.3-0.2-0.6-0.3-0.8c0-0.2,0-0.6,0-1.1c0-0.5,0-0.8,0-1.1c0-0.2,0.1-0.5,0.3-0.8
						c0.3-0.6,1.1-0.8,2.4-0.8c1.3,0,2.1,0.3,2.4,0.8c0.2,0.3,0.3,0.6,0.3,0.8c0,0.2,0,0.6,0,1.1c0,0.5,0,0.8,0,1.1
						C2903.5,690.7,2903.4,690.9,2903.3,691.2z M2898.1,697c0-0.5,0-0.8,0-1.1c0-0.2,0.1-0.5,0.3-0.8c0.3-0.5,1.1-0.8,2.4-0.8
						c1,0,1.7,0.2,2.1,0.5c0.4,0.3,0.5,0.7,0.6,1.3c0,0.2,0,0.5,0,0.9v10.9c0,0.5,0,0.8,0,1.1c0,0.2-0.1,0.5-0.3,0.8
						c-0.3,0.5-1.1,0.8-2.4,0.8c-1.3,0-2.1-0.3-2.4-0.8c-0.1-0.3-0.2-0.6-0.3-0.8c0-0.2,0-0.6,0-1.1L2898.1,697z"/>
				</g>
				<g class="st2">
					<path class="st1" d="M3023.7,691.2c-0.2,0.3-0.4,0.5-0.8,0.6s-0.9,0.2-1.6,0.2c-0.7,0-1.2-0.1-1.6-0.2
						c-0.4-0.1-0.7-0.3-0.8-0.7c-0.2-0.3-0.2-0.6-0.3-0.8c0-0.2,0-0.6,0-1.1c0-0.5,0-0.8,0-1.1c0-0.2,0.1-0.5,0.3-0.8
						c0.3-0.6,1.1-0.8,2.4-0.8c1.3,0,2.1,0.3,2.4,0.8c0.2,0.3,0.3,0.6,0.3,0.8c0,0.2,0,0.6,0,1.1c0,0.5,0,0.8,0,1.1
						C3023.9,690.7,3023.8,690.9,3023.7,691.2z M3018.6,697c0-0.5,0-0.8,0-1.1c0-0.2,0.1-0.5,0.3-0.8c0.3-0.5,1.1-0.8,2.4-0.8
						c1,0,1.7,0.2,2.1,0.5c0.4,0.3,0.5,0.7,0.6,1.3c0,0.2,0,0.5,0,0.9l0,10.9c0,0.5,0,0.8,0,1.1c0,0.2-0.1,0.5-0.3,0.8
						c-0.3,0.5-1.1,0.8-2.4,0.8c-1.3,0-2.1-0.3-2.4-0.8c-0.1-0.3-0.2-0.6-0.3-0.8c0-0.2,0-0.6,0-1.1V697z"/>
				</g>
				<g class="st2">
					<path class="st1" d="M3078.8,705.5c-0.5,0-0.8,0-1.1,0c-0.2,0-0.5-0.1-0.8-0.3c-0.5-0.3-0.8-1.1-0.8-2.4c0-1,0.2-1.7,0.5-2.1
						c0.3-0.4,0.7-0.5,1.3-0.6c0.2,0,0.5,0,0.9,0l10.9,0c0.5,0,0.8,0,1.1,0c0.2,0,0.5,0.1,0.8,0.3c0.5,0.3,0.8,1.1,0.8,2.4
						c0,1.3-0.3,2.1-0.8,2.4c-0.3,0.1-0.6,0.2-0.8,0.3c-0.2,0-0.6,0-1.1,0L3078.8,705.5z M3073,700.4c0.3,0.2,0.5,0.4,0.6,0.8
						c0.1,0.4,0.2,0.9,0.2,1.6c0,0.7-0.1,1.2-0.2,1.6c-0.1,0.4-0.3,0.7-0.7,0.8c-0.3,0.2-0.6,0.2-0.8,0.3c-0.2,0-0.6,0-1.1,0
						c-0.5,0-0.8,0-1.1,0c-0.2,0-0.5-0.1-0.8-0.3c-0.6-0.3-0.8-1.1-0.8-2.4c0-1.3,0.3-2.1,0.8-2.4c0.3-0.2,0.6-0.3,0.8-0.3
						c0.2,0,0.6,0,1.1,0c0.5,0,0.8,0,1.1,0C3072.5,700.2,3072.7,700.3,3073,700.4z"/>
				</g>
				<g class="st2">
					<path class="st1" d="M3118.5,688.6c3.4,0,6.4,1.2,8.9,3.7c2.5,2.5,3.8,5.6,3.8,9.2c0,3.7-1.2,6.8-3.6,9.4
						c-2.4,2.6-5.4,3.9-8.9,3.9c-3.5,0-6.5-1.3-9-3.8c-2.5-2.5-3.7-5.6-3.7-9.1c0-1.9,0.3-3.7,1-5.4c0.7-1.7,1.6-3.1,2.8-4.2
						c1.2-1.1,2.5-2,4-2.7C3115.4,689,3116.9,688.6,3118.5,688.6z M3112.2,701.7c0,2.1,0.7,3.7,2,5c1.3,1.3,2.8,1.9,4.5,1.9
						c1.6,0,3.1-0.6,4.4-1.9c1.3-1.3,2-2.9,2-5c0-2.1-0.7-3.8-2-5.1c-1.3-1.3-2.8-1.9-4.5-1.9c-1.6,0-3.1,0.6-4.4,1.9
						C3112.9,698,3112.2,699.7,3112.2,701.7z"/>
				</g>
				<g class="st2">
					<path class="st1" d="M2932.5,688.6c0.2-0.4,0.6-0.7,1-0.9c0.5-0.1,1-0.2,1.7-0.2c0.7,0,1.3,0.1,1.7,0.2c0.4,0.1,0.7,0.3,1,0.4
						c0.2,0.2,0.4,0.4,0.5,0.8c0.1,0.4,0.2,1,0.2,1.9v20.3c0,0.6,0,1-0.1,1.3c0,0.3-0.2,0.6-0.3,1c-0.3,0.7-1.3,1-2.9,1
						c-1,0-1.6-0.1-2-0.2c-0.4-0.1-0.7-0.4-0.9-0.7c-5.5-7.3-9.1-12.1-10.8-14.3l0,12c0,0.6,0,1-0.1,1.3c0,0.3-0.2,0.6-0.3,1
						c-0.3,0.7-1.3,1-2.9,1c-1.5,0-2.4-0.3-2.8-1c-0.2-0.4-0.3-0.7-0.3-1c0-0.3-0.1-0.7-0.1-1.3v-20.4c0-0.9,0.1-1.6,0.3-2
						c0.2-0.4,0.6-0.7,1-0.9c0.5-0.1,1.1-0.2,1.8-0.2c0.7,0,1.3,0.1,1.7,0.2c0.4,0.1,0.7,0.3,0.9,0.5c0.1,0.1,0.4,0.4,0.8,1
						c5.1,7,8.6,11.6,10.3,13.9l0-12.4C2932.2,689.7,2932.3,689,2932.5,688.6z"/>
				</g>
				<g class="st2">
					<path class="st1" d="M3160.1,688.7c0.2-0.4,0.6-0.7,1-0.9c0.5-0.1,1-0.2,1.7-0.2c0.7,0,1.3,0.1,1.7,0.2c0.4,0.1,0.7,0.3,1,0.4
						c0.2,0.2,0.4,0.4,0.5,0.8c0.1,0.4,0.2,1,0.2,1.9v20.3c0,0.6,0,1-0.1,1.3c0,0.3-0.2,0.6-0.3,1c-0.3,0.7-1.3,1-2.9,1
						c-1,0-1.6-0.1-2-0.2c-0.4-0.1-0.7-0.4-0.9-0.7c-5.5-7.3-9.1-12.1-10.8-14.3v12c0,0.6,0,1-0.1,1.3c0,0.3-0.2,0.6-0.3,1
						c-0.3,0.7-1.3,1-2.9,1c-1.5,0-2.4-0.3-2.8-1c-0.2-0.4-0.3-0.7-0.3-1c0-0.3-0.1-0.7-0.1-1.3v-20.4c0-0.9,0.1-1.6,0.3-2
						c0.2-0.4,0.6-0.7,1-0.9c0.5-0.1,1.1-0.2,1.8-0.2c0.7,0,1.3,0.1,1.7,0.2c0.4,0.1,0.7,0.3,0.9,0.5c0.1,0.1,0.4,0.4,0.8,1
						c5.1,7,8.6,11.6,10.3,13.9l0-12.4C3159.8,689.8,3159.9,689.2,3160.1,688.7z"/>
				</g>
				<g class="st2">
					<path class="st1" d="M2951.3,688.8l19.3,0c0.7,0,1.3,0.1,1.6,0.3c0.3,0.2,0.6,0.4,0.7,0.8c0.1,0.4,0.2,0.9,0.2,1.5
						c0,0.6-0.1,1.1-0.2,1.4c-0.1,0.4-0.3,0.6-0.6,0.7c-0.4,0.2-1,0.3-1.8,0.3l-6.6,0l0,17.5c0,0.5,0,0.9-0.1,1.2
						c0,0.3-0.1,0.6-0.3,0.9c-0.2,0.3-0.5,0.6-0.9,0.7c-0.4,0.1-1,0.2-1.7,0.2c-0.7,0-1.3-0.1-1.7-0.2c-0.4-0.1-0.7-0.4-0.9-0.7
						c-0.2-0.3-0.3-0.6-0.3-0.9c0-0.3-0.1-0.7-0.1-1.2l0-17.4l-6.7,0c-0.7,0-1.3-0.1-1.6-0.3c-0.3-0.2-0.6-0.4-0.7-0.8
						c-0.1-0.4-0.2-0.9-0.2-1.5c0-0.6,0.1-1.1,0.2-1.4c0.1-0.4,0.3-0.6,0.6-0.7C2949.9,688.9,2950.5,688.8,2951.3,688.8z"/>
				</g>
				<g class="st2">
					<path class="st1" d="M3037.2,688.8l19.3,0c0.7,0,1.3,0.1,1.6,0.3c0.3,0.2,0.6,0.4,0.7,0.8c0.1,0.4,0.2,0.9,0.2,1.5
						c0,0.6-0.1,1.1-0.2,1.4c-0.1,0.4-0.3,0.6-0.6,0.7c-0.4,0.2-1,0.3-1.8,0.3l-6.6,0v17.5c0,0.5,0,0.9-0.1,1.2
						c0,0.3-0.1,0.6-0.3,0.9c-0.2,0.3-0.5,0.6-0.9,0.7c-0.4,0.1-1,0.2-1.7,0.2c-0.7,0-1.3-0.1-1.7-0.2c-0.4-0.1-0.7-0.4-0.9-0.7
						c-0.2-0.3-0.3-0.6-0.3-0.9c0-0.3-0.1-0.7-0.1-1.2v-17.4l-6.7,0c-0.7,0-1.3-0.1-1.6-0.3c-0.3-0.2-0.6-0.4-0.7-0.8
						c-0.1-0.4-0.2-0.9-0.2-1.5c0-0.6,0.1-1.1,0.2-1.4c0.1-0.4,0.3-0.6,0.6-0.7C3035.9,688.9,3036.5,688.8,3037.2,688.8z"/>
				</g>
				<g class="st2">
					<path class="st1" d="M3000.9,689.8c0.2-0.4,0.6-0.6,1-0.8c0.4-0.1,1-0.2,1.7-0.2c0.7,0,1.2,0.1,1.6,0.2
						c0.4,0.1,0.7,0.3,0.9,0.4c0.2,0.2,0.4,0.4,0.5,0.7c0.1,0.4,0.2,1,0.2,1.8l0,10.5c0,3.1-0.9,5.8-2.8,8.3
						c-0.9,1.2-2.1,2.1-3.6,2.9c-1.5,0.7-3.1,1.1-4.8,1.1c-1.8,0-3.4-0.4-4.8-1.1c-1.4-0.7-2.6-1.7-3.5-2.9
						c-1.9-2.5-2.8-5.2-2.8-8.3l0-10.5c0-0.6,0-1,0.1-1.2c0-0.3,0.1-0.6,0.3-0.9c0.2-0.3,0.5-0.6,0.9-0.7c0.4-0.1,1-0.2,1.8-0.2
						c0.7,0,1.3,0.1,1.8,0.2c0.4,0.1,0.7,0.4,0.9,0.7c0.3,0.5,0.4,1.3,0.4,2.2l0,10.4c0,1.4,0.3,2.8,1,4c0.3,0.6,0.9,1.2,1.6,1.6
						c0.7,0.4,1.5,0.6,2.5,0.6c1.7,0,3-0.6,3.8-1.9c0.8-1.3,1.3-2.7,1.3-4.3l0-10.6C3000.6,690.8,3000.7,690.1,3000.9,689.8z"/>
				</g>
			</g>
		</g>
		<g id="Group_147-6" transform="translate(90.063 148.182) rotate(-90)">
			<g id="Group_135-12" transform="translate(0 0)">
				<g class="st2">
					<path class="st1" d="M-690.7,2988.9c0-0.5,0-0.8,0-1.1c0-0.2,0.1-0.5,0.3-0.8c0.3-0.5,1.1-0.8,2.4-0.8c1,0,1.7,0.2,2.1,0.5
						c0.4,0.3,0.5,0.7,0.6,1.3c0,0.2,0,0.5,0,0.9l0,10.9c0,0.5,0,0.8,0,1.1c0,0.2-0.1,0.5-0.3,0.8c-0.3,0.5-1.1,0.8-2.4,0.8
						c-1.3,0-2.1-0.3-2.4-0.8c-0.1-0.3-0.2-0.6-0.3-0.8c0-0.2,0-0.6,0-1.1L-690.7,2988.9z M-685.6,2983.2c-0.2,0.3-0.4,0.5-0.8,0.6
						c-0.4,0.1-0.9,0.2-1.6,0.2c-0.7,0-1.2-0.1-1.6-0.2c-0.4-0.1-0.7-0.3-0.8-0.7c-0.2-0.3-0.2-0.6-0.3-0.8c0-0.2,0-0.6,0-1.1
						c0-0.5,0-0.8,0-1.1c0-0.2,0.1-0.5,0.3-0.8c0.3-0.6,1.1-0.8,2.4-0.8c1.3,0,2.1,0.3,2.4,0.8c0.2,0.3,0.3,0.6,0.3,0.8
						c0,0.2,0,0.6,0,1.1c0,0.5,0,0.8,0,1.1C-685.3,2982.6-685.4,2982.9-685.6,2983.2z"/>
				</g>
				<g class="st2">
					<path class="st1" d="M-570.3,2988.9c0-0.5,0-0.8,0-1.1c0-0.2,0.1-0.5,0.3-0.8c0.3-0.5,1.1-0.8,2.4-0.8c1,0,1.7,0.2,2.1,0.5
						c0.4,0.3,0.5,0.7,0.6,1.3c0,0.2,0,0.5,0,0.9l0,10.9c0,0.5,0,0.8,0,1.1c0,0.2-0.1,0.5-0.3,0.8c-0.3,0.5-1.1,0.8-2.4,0.8
						c-1.3,0-2.1-0.3-2.4-0.8c-0.1-0.3-0.2-0.6-0.3-0.8c0-0.2,0-0.6,0-1.1L-570.3,2988.9z M-565.1,2983.2c-0.2,0.3-0.4,0.5-0.8,0.6
						c-0.4,0.1-0.9,0.2-1.6,0.2c-0.7,0-1.2-0.1-1.6-0.2c-0.4-0.1-0.7-0.3-0.8-0.7c-0.2-0.3-0.2-0.6-0.3-0.8c0-0.2,0-0.6,0-1.1
						c0-0.5,0-0.8,0-1.1c0-0.2,0.1-0.5,0.3-0.8c0.3-0.6,1.1-0.8,2.4-0.8c1.3,0,2.1,0.3,2.4,0.8c0.2,0.3,0.3,0.6,0.3,0.8
						c0,0.2,0,0.6,0,1.1c0,0.5,0,0.8,0,1.1C-564.9,2982.6-565,2982.9-565.1,2983.2z"/>
				</g>
				<g class="st2">
					<path class="st1" d="M-510,2997.5c-0.5,0-0.8,0-1.1,0c-0.2,0-0.5-0.1-0.8-0.3c-0.5-0.3-0.8-1.1-0.8-2.4c0-1,0.2-1.7,0.5-2.1
						c0.3-0.4,0.7-0.5,1.3-0.6c0.2,0,0.5,0,0.9,0l10.9,0c0.5,0,0.8,0,1.1,0c0.2,0,0.5,0.1,0.8,0.3c0.5,0.3,0.8,1.1,0.8,2.4
						c0,1.3-0.3,2.1-0.8,2.4c-0.3,0.1-0.6,0.2-0.8,0.3c-0.2,0-0.6,0-1.1,0H-510z M-515.8,2992.4c0.3,0.2,0.5,0.4,0.6,0.8
						c0.1,0.4,0.2,0.9,0.2,1.6c0,0.7-0.1,1.2-0.2,1.6c-0.1,0.4-0.3,0.7-0.7,0.8c-0.3,0.2-0.6,0.2-0.8,0.3c-0.2,0-0.6,0-1.1,0
						c-0.5,0-0.8,0-1.1,0c-0.2,0-0.5-0.1-0.8-0.3c-0.6-0.3-0.8-1.1-0.8-2.4c0-1.3,0.3-2.1,0.8-2.4c0.3-0.2,0.6-0.3,0.8-0.3
						c0.2,0,0.6,0,1.1,0c0.5,0,0.8,0,1.1,0C-516.3,2992.1-516.1,2992.2-515.8,2992.4z"/>
				</g>
				<g class="st2">
					<path class="st1" d="M-470.3,2980.6c3.4,0,6.4,1.2,8.9,3.7c2.5,2.5,3.8,5.6,3.8,9.2c0,3.7-1.2,6.8-3.6,9.4
						c-2.4,2.6-5.4,3.9-8.9,3.9c-3.5,0-6.5-1.3-9-3.8c-2.5-2.5-3.7-5.6-3.7-9.1c0-1.9,0.3-3.7,1-5.4c0.7-1.7,1.6-3.1,2.8-4.2
						s2.5-2,4-2.7C-473.4,2980.9-471.9,2980.6-470.3,2980.6z M-476.6,2993.7c0,2.1,0.7,3.7,2,5c1.3,1.3,2.8,1.9,4.5,1.9
						c1.6,0,3.1-0.6,4.4-1.9c1.3-1.3,2-2.9,2-5c0-2.1-0.7-3.8-2-5.1c-1.3-1.3-2.8-1.9-4.5-1.9c-1.6,0-3.1,0.6-4.4,1.9
						C-475.9,2989.9-476.6,2991.6-476.6,2993.7z"/>
				</g>
				<g class="st2">
					<path class="st1" d="M-656.3,2980.5c0.2-0.4,0.6-0.7,1-0.9c0.5-0.1,1-0.2,1.7-0.2c0.7,0,1.3,0.1,1.7,0.2c0.4,0.1,0.7,0.3,1,0.4
						c0.2,0.2,0.4,0.4,0.5,0.8c0.1,0.4,0.2,1,0.2,1.9l0,20.3c0,0.6,0,1-0.1,1.3c0,0.3-0.2,0.6-0.3,1c-0.3,0.7-1.3,1-2.9,1
						c-1,0-1.6-0.1-2-0.2c-0.4-0.1-0.7-0.4-0.9-0.7c-5.5-7.3-9.1-12.1-10.8-14.3l0,12c0,0.6,0,1-0.1,1.3c0,0.3-0.2,0.6-0.3,1
						c-0.3,0.7-1.3,1-2.9,1c-1.5,0-2.4-0.3-2.8-1c-0.2-0.4-0.3-0.7-0.3-1c0-0.3-0.1-0.7-0.1-1.3l0-20.4c0-0.9,0.1-1.6,0.3-2
						c0.2-0.4,0.6-0.7,1-0.9c0.5-0.1,1.1-0.2,1.8-0.2c0.7,0,1.3,0.1,1.7,0.2c0.4,0.1,0.7,0.3,0.9,0.5c0.1,0.1,0.4,0.4,0.8,1
						c5.1,7,8.6,11.6,10.3,13.9l0-12.4C-656.6,2981.6-656.5,2981-656.3,2980.5z"/>
				</g>
				<g class="st2">
					<path class="st1" d="M-428.7,2980.7c0.2-0.4,0.6-0.7,1-0.9c0.5-0.1,1-0.2,1.7-0.2c0.7,0,1.3,0.1,1.7,0.2c0.4,0.1,0.7,0.3,1,0.4
						c0.2,0.2,0.4,0.4,0.5,0.8c0.1,0.4,0.2,1,0.2,1.9l0,20.3c0,0.6,0,1-0.1,1.3c0,0.3-0.2,0.6-0.3,1c-0.3,0.7-1.3,1-2.9,1
						c-1,0-1.6-0.1-2-0.2c-0.4-0.1-0.7-0.4-0.9-0.7c-5.5-7.3-9.1-12.1-10.8-14.3l0,12c0,0.6,0,1-0.1,1.3c0,0.3-0.2,0.6-0.3,0.9
						c-0.3,0.7-1.3,1-2.9,1c-1.5,0-2.4-0.3-2.8-1c-0.2-0.4-0.3-0.7-0.3-1c0-0.3-0.1-0.7-0.1-1.3l0-20.4c0-0.9,0.1-1.6,0.3-2
						c0.2-0.4,0.6-0.7,1-0.9c0.5-0.1,1.1-0.2,1.8-0.2c0.7,0,1.3,0.1,1.7,0.2c0.4,0.1,0.7,0.3,0.9,0.5c0.1,0.1,0.4,0.4,0.8,1
						c5.1,7,8.6,11.6,10.3,13.9l0-12.4C-429.1,2981.8-428.9,2981.1-428.7,2980.7z"/>
				</g>
				<g class="st2">
					<path class="st1" d="M-637.6,2980.7l19.3,0c0.7,0,1.3,0.1,1.6,0.3c0.3,0.2,0.6,0.4,0.7,0.8c0.1,0.4,0.2,0.9,0.2,1.5
						c0,0.6-0.1,1.1-0.2,1.4c-0.1,0.4-0.3,0.6-0.6,0.7c-0.4,0.2-1,0.3-1.8,0.3l-6.6,0v17.5c0,0.5,0,0.9-0.1,1.2
						c0,0.3-0.1,0.6-0.3,0.9c-0.2,0.3-0.5,0.6-0.9,0.7c-0.4,0.1-1,0.2-1.7,0.2c-0.7,0-1.3-0.1-1.7-0.2c-0.4-0.1-0.7-0.4-0.9-0.7
						c-0.2-0.3-0.3-0.6-0.3-0.9c0-0.3-0.1-0.7-0.1-1.2l0-17.4l-6.7,0c-0.7,0-1.3-0.1-1.6-0.3c-0.3-0.2-0.6-0.4-0.7-0.8
						c-0.1-0.4-0.2-0.9-0.2-1.5c0-0.6,0.1-1.1,0.2-1.4c0.1-0.4,0.3-0.6,0.6-0.7C-638.9,2980.8-638.3,2980.7-637.6,2980.7z"/>
				</g>
				<g class="st2">
					<path class="st1" d="M-551.6,2980.7l19.3,0c0.7,0,1.3,0.1,1.6,0.3s0.6,0.4,0.7,0.8c0.1,0.4,0.2,0.9,0.2,1.5
						c0,0.6-0.1,1.1-0.2,1.4c-0.1,0.4-0.3,0.6-0.6,0.7c-0.4,0.2-1,0.3-1.8,0.3h-6.6l0,17.5c0,0.5,0,0.9-0.1,1.2
						c0,0.3-0.1,0.5-0.3,0.9c-0.2,0.3-0.5,0.6-0.9,0.7c-0.4,0.1-1,0.2-1.7,0.2c-0.7,0-1.3-0.1-1.7-0.2c-0.4-0.1-0.7-0.4-0.9-0.7
						c-0.2-0.3-0.3-0.6-0.3-0.9c0-0.3-0.1-0.7-0.1-1.2l0-17.4h-6.7c-0.7,0-1.3-0.1-1.6-0.3c-0.3-0.2-0.6-0.4-0.7-0.8
						c-0.1-0.4-0.2-0.9-0.2-1.5c0-0.6,0.1-1.1,0.2-1.4c0.1-0.4,0.3-0.6,0.6-0.7C-552.9,2980.8-552.3,2980.7-551.6,2980.7z"/>
				</g>
				<g class="st2">
					<path class="st1" d="M-587.9,2981.7c0.2-0.4,0.6-0.6,1-0.8c0.4-0.1,1-0.2,1.7-0.2s1.2,0.1,1.6,0.2c0.4,0.1,0.7,0.3,0.9,0.4
						c0.2,0.2,0.4,0.4,0.5,0.7c0.1,0.4,0.2,1,0.2,1.8l0,10.5c0,3.1-1,5.8-2.8,8.3c-0.9,1.2-2.1,2.1-3.6,2.9
						c-1.5,0.7-3.1,1.1-4.8,1.1s-3.4-0.4-4.8-1.1c-1.4-0.7-2.6-1.7-3.5-2.9c-1.9-2.5-2.8-5.2-2.8-8.3l0-10.5c0-0.6,0-1,0.1-1.2
						c0-0.3,0.1-0.6,0.3-0.9c0.2-0.3,0.5-0.6,0.9-0.7c0.4-0.1,1-0.2,1.8-0.2c0.7,0,1.3,0.1,1.8,0.2c0.4,0.1,0.7,0.4,0.9,0.7
						c0.3,0.5,0.4,1.3,0.4,2.2l0,10.4c0,1.4,0.3,2.8,1,4c0.3,0.6,0.9,1.2,1.6,1.6c0.7,0.4,1.5,0.6,2.5,0.6c1.7,0,3-0.6,3.8-1.9
						c0.8-1.2,1.3-2.7,1.3-4.3l0-10.6C-588.3,2982.7-588.1,2982.1-587.9,2981.7z"/>
				</g>
			</g>
		</g>
	</g>
</g>
</svg>
