<?xml version="1.0" encoding="utf-8"?>
<!-- Generator: Adobe Illustrator 25.4.1, SVG Export Plug-In . SVG Version: 6.00 Build 0)  -->
<svg version="1.1" id="Layer_1" xmlns="http://www.w3.org/2000/svg" xmlns:xlink="http://www.w3.org/1999/xlink" x="0px" y="0px"
	 viewBox="0 0 491 487.2" style="enable-background:new 0 0 491 487.2;" xml:space="preserve">
<style type="text/css">
	.st0{fill:#F3F3F3;}
	.st1{fill:#E64C4C;}
	.st2{fill:#58CCBE;}
	.st3{fill:#58CC6F;}
	.st4{fill:#F5C858;}
	.st5{enable-background:new    ;}
	.st6{fill:#FFFFFF;}
	.st7{fill:#3B87EB;}
	.st8{fill:#F0F0F0;}
	.st9{fill:none;stroke:#36665A;stroke-width:2.126;stroke-miterlimit:10;}
	.st10{fill:none;stroke:#F0F0F0;stroke-width:3;stroke-miterlimit:10;}
</style>
<g transform="matrix(1, 0, 0, 1, 76, 47)">
	<path id="Rectangle_1-19" class="st0" d="M9.9-24.9h326.8c32.4,0,58.6,26.2,58.6,58.6v326.8c0,32.4-26.2,58.6-58.6,58.6H9.9
		c-32.4,0-58.6-26.2-58.6-58.6V33.7C-48.7,1.4-22.5-24.9,9.9-24.9z"/>
</g>
<path id="Intersection_1" class="st1" d="M25.5,187.3V80.7c0-32.4,26.2-58.6,58.6-58.6h107.5c0,91.2-74,165.2-165.2,165.2H25.5z"/>
<path id="Intersection_4" class="st2" d="M471.3,301.9v106.6c0,32.4-26.2,58.6-58.6,58.6H305.3c0-91.2,74-165.2,165.2-165.2H471.3z"
	/>
<path id="Intersection_2" class="st3" d="M306.1,22.1h106.6c32.4,0,58.6,26.2,58.6,58.6v107.5c-91.2,0-165.2-74-165.2-165.2V22.1z"
	/>
<path id="Intersection_3" class="st4" d="M190.7,467H84.1c-32.4,0-58.6-26.2-58.6-58.6V301c91.2,0,165.2,74,165.2,165.2V467z"/>
<g class="st5">
	<path class="st6" d="M427.6,80.2l-26.4,26.4l-6.1-6.1L416.6,79l-5.3-5.3l4.9-4.9L427.6,80.2z"/>
</g>
<g class="st5">
	<path class="st6" d="M388.5,400.4l-5-5l19.9-19.9l4,4l-0.6,19.8c-0.1,4.6,0.8,6.3,2.1,7.6c2.1,2.1,4.7,1.8,7.5-0.9
		c2.3-2.3,3.3-5,2.8-8.1l7.3-1.6c0.9,5-0.8,10.6-5.6,15.4c-5.9,5.9-12.8,6.8-17.6,2c-2.6-2.6-4.2-5.6-3.9-12.7l0.3-11.8L388.5,400.4
		z"/>
</g>
<g class="st5">
	<path class="st6" d="M110.4,90.2l-4.3,4.3l5.5,5.5l-6,6l-5.5-5.5L86,114.6l-4.1-4.1l-4.3-29.2l6.4-6.4l4.3,27.4l7.1-7.1l-4.9-4.9
		l5.8-5.8l4.9,4.9l4.3-4.3L110.4,90.2z"/>
</g>
<g class="st5">
	<path class="st6" d="M87.7,384c4.4-4.4,11.9-5.1,19.4,2.4c3.7,3.7,6.5,8.5,7.2,12.9l-7,2.3c-0.5-3.5-2.4-7.2-5.2-9.9
		c-3.1-3.1-6.2-3.7-8.3-1.5c-2,2-1.8,4.7,1.7,8.2l2.8,2.8l-4,4l-11.6,0.7L94,417.1l-4.9,4.9l-18.5-18.5l4-4l12.7-0.8
		C83.3,393.2,83.8,387.9,87.7,384z"/>
</g>
<g id="Group_172" transform="translate(-2327.853 -1367.255)">
	<path id="Ellipse_33" class="st7" d="M2577.5,1572.5c52.8-0.3,81.1,20,81.1,64.8c0,44.8-36.3,81.1-81.1,81.1
		c-44.8,0-81.1-36.3-81.1-81.1c0,0,0,0,0,0C2496.4,1592.5,2524.7,1572.8,2577.5,1572.5z"/>
	<ellipse id="Ellipse_34" class="st8" cx="2544.2" cy="1633.4" rx="18.7" ry="19"/>
	
		<ellipse id="Ellipse_35" transform="matrix(0.9751 -0.2218 0.2218 0.9751 -297.1074 620.0875)" class="st8" cx="2612.1" cy="1632.8" rx="20.1" ry="19"/>
	<ellipse id="Ellipse_37" class="st7" cx="2544.3" cy="1631.2" rx="9" ry="8.4"/>
	<path id="Path_108" class="st9" d="M2637.1,1558.7"/>
	<g id="Group_158" transform="translate(2807.004 2731.279)">
		<path id="Path_105" class="st7" d="M-299.1-1197.1l9.9,47.9c0,0,21.6-16.2,59.9-14.9c21.1-0.5,42,4.7,60.5,14.9
			c0,0,10.2-43,11-53.6l-20.9,18.3l-3.5-35.8l-24.4,26.2l-22.7-47.5l-22.2,46.7l-23.6-23.1l-6.5,32.7L-299.1-1197.1z"/>
		<circle id="Ellipse_59" class="st7" cx="-300.6" cy="-1200.4" r="5"/>
		<circle id="Ellipse_60" class="st7" cx="-275.3" cy="-1218.7" r="5.9"/>
		<circle id="Ellipse_61" class="st7" cx="-158.4" cy="-1200" r="5"/>
		<circle id="Ellipse_62" class="st7" cx="-183.7" cy="-1218.3" r="5.9"/>
		<circle id="Ellipse_63" class="st7" cx="-228.8" cy="-1240.3" r="7.9"/>
		<ellipse id="Ellipse_64" class="st8" cx="-229.6" cy="-1185.2" rx="6.3" ry="12.2"/>
		
			<ellipse id="Ellipse_65" transform="matrix(0.9764 -0.2161 0.2161 0.9764 249.0511 -85.0741)" class="st8" cx="-264.5" cy="-1181.5" rx="5.4" ry="8.1"/>
		
			<ellipse id="Ellipse_66" transform="matrix(0.2611 -0.9653 0.9653 0.2611 997.57 -1059.7507)" class="st8" cx="-193.4" cy="-1181.5" rx="8.1" ry="5.4"/>
	</g>
	<path id="Path_110" class="st10" d="M2616.9,1634.9c3.6,2.4,7.3,5.1,8.9,9.1c1.2,3.2,0.9,6.9,2.8,9.7c1.6,2.2,4,3.7,6.6,4.1
		c2.6,0.4,5.3,0.5,8,0.2"/>
	<path id="Path_111" class="st8" d="M2545.8,1669.2c-0.3-0.1-0.6-0.3-0.9-0.5c-1.2-1.1-3-1.1-4.1,0.1c-1.7,1.2-2.4,3.4-2,5.4
		c0.3,1.1,1.3,2,2.4,2.2c2.5,0.7,5.1,0.3,7.2-1.2c2.5-1.6,5-3.4,7.4-5c2.2-1.6,4.6-2.8,7.1-3.6c2.9-0.9,6.1-1,9-0.2
		c2.2,0.6,4.4,1.5,6.4,2.7c0.2,0.1,0.5,0.1,0.7,0c2.4-1.4,5.1-2.4,7.8-3c1.8-0.3,3.7-0.3,5.6,0c3.9,0.9,7.5,2.6,10.6,5.1
		c2.2,1.7,4.5,3.2,7,4.6c2.1,1.2,4.7,1.3,6.9,0.4c1.4-0.5,2.2-2,1.9-3.5c-0.2-1.6-1-3-2.3-4c-1.1-1-2.7-1-3.8,0
		c-0.3,0.2-0.7,0.5-1,0.7l-0.1-0.1c0.1-0.2,0.2-0.3,0.3-0.5c1.6-2.3,4.7-2.9,7-1.4c3.2,1.7,5.1,5.1,4.8,8.7
		c-0.2,3.7-2.4,7.1-5.7,8.7c-2.4,1.3-5,2.2-7.8,2.5c-2.4,0.4-4.8,0.5-7.3,0.4c-2.6-0.1-5.3-0.4-7.9-1c-2.7-0.6-5.3-1.4-7.8-2.4
		c-2.6-1.1-5.1-2.6-7.2-4.5c-1.1-0.9-1.1-0.9-2.3,0c-1.9,1.6-3.9,2.9-6.1,4c-2.1,1-4.3,1.8-6.6,2.3c-2,0.5-4.1,0.9-6.2,1.2
		c-2.8,0.5-5.7,0.5-8.6,0.2c-1.9-0.2-3.8-0.5-5.6-0.9c-3.6-0.6-6.8-2.7-8.9-5.6c-3-4.3-2-10.1,2.3-13.1c0.3-0.2,0.5-0.3,0.8-0.5
		c1.9-1.3,4.5-1.1,6.3,0.4c0.4,0.4,0.8,0.8,1.1,1.3L2545.8,1669.2z"/>
</g>
</svg>
