<?xml version="1.0" encoding="utf-8"?>
<!-- Generator: Adobe Illustrator 25.4.1, SVG Export Plug-In . SVG Version: 6.00 Build 0)  -->
<svg version="1.1" id="Layer_1" xmlns="http://www.w3.org/2000/svg" xmlns:xlink="http://www.w3.org/1999/xlink" x="0px" y="0px"
	 viewBox="0 0 491 487.2" style="enable-background:new 0 0 491 487.2;" xml:space="preserve">
<style type="text/css">
	.st0{fill:#F3F3F3;}
	.st1{fill:#E64C4C;}
	.st2{fill:#58CCBE;}
	.st3{fill:#58CC6F;}
	.st4{fill:#F5C858;}
	.st5{enable-background:new    ;}
	.st6{fill:#FFFFFF;}
</style>
<g transform="matrix(1, 0, 0, 1, 76, 47)">
	<path id="Rectangle_1-19" class="st0" d="M9.9-24.9h326.8c32.4,0,58.6,26.2,58.6,58.6v326.8c0,32.4-26.2,58.6-58.6,58.6H9.9
		c-32.4,0-58.6-26.2-58.6-58.6V33.7C-48.7,1.4-22.5-24.9,9.9-24.9z"/>
</g>
<path id="Intersection_1" class="st1" d="M25.5,187.3V80.7c0-32.4,26.2-58.6,58.6-58.6h107.5c0,91.2-74,165.2-165.2,165.2H25.5z"/>
<path id="Intersection_4" class="st2" d="M471.3,301.9v106.6c0,32.4-26.2,58.6-58.6,58.6H305.3c0-91.2,74-165.2,165.2-165.2H471.3z"
	/>
<path id="Intersection_2" class="st3" d="M306.1,22.1h106.6c32.4,0,58.6,26.2,58.6,58.6v107.5c-91.2,0-165.2-74-165.2-165.2V22.1z"
	/>
<path id="Intersection_3" class="st4" d="M190.7,467H84.1c-32.4,0-58.6-26.2-58.6-58.6V301c91.2,0,165.2,74,165.2,165.2V467z"/>
<g class="st5">
	<path class="st6" d="M427.6,80.2l-26.4,26.4l-6.1-6.1L416.6,79l-5.3-5.3l4.9-4.9L427.6,80.2z"/>
</g>
<g class="st5">
	<path class="st6" d="M388.5,400.4l-5-5l19.9-19.9l4,4l-0.6,19.8c-0.1,4.6,0.8,6.3,2.1,7.6c2.1,2.1,4.7,1.8,7.5-0.9
		c2.3-2.3,3.3-5,2.8-8.1l7.3-1.6c0.9,5-0.8,10.6-5.6,15.4c-5.9,5.9-12.8,6.8-17.6,2c-2.6-2.6-4.2-5.6-3.9-12.7l0.3-11.8L388.5,400.4
		z"/>
</g>
<g class="st5">
	<path class="st6" d="M110.4,90.2l-4.3,4.3l5.5,5.5l-6,6l-5.5-5.5L86,114.6l-4.1-4.1l-4.3-29.2l6.4-6.4l4.3,27.4l7.1-7.1l-4.9-4.9
		l5.8-5.8l4.9,4.9l4.3-4.3L110.4,90.2z"/>
</g>
<g class="st5">
	<path class="st6" d="M87.7,384c4.4-4.4,11.9-5.1,19.4,2.4c3.7,3.7,6.5,8.5,7.2,12.9l-7,2.3c-0.5-3.5-2.4-7.2-5.2-9.9
		c-3.1-3.1-6.2-3.7-8.3-1.5c-2,2-1.8,4.7,1.7,8.2l2.8,2.8l-4,4l-11.6,0.7L94,417.1l-4.9,4.9l-18.5-18.5l4-4l12.7-0.8
		C83.3,393.2,83.8,387.9,87.7,384z"/>
</g>
<g id="Group_173" transform="translate(-2263.886 472.943)">
	<g id="ICON_BLUE" transform="translate(2742.999 911.319)">
		<g id="Group_7" transform="translate(0 0)">
			<path id="Path_115" class="st2" d="M-233-1234.5c42.1,0,76.2,34.1,76.2,76.2c0,0,0,0,0,0c0,42.1-34.1,53.6-76.2,53.6
				s-76.2-11.5-76.2-53.6C-309.3-1200.4-275.1-1234.5-233-1234.5C-233-1234.5-233-1234.5-233-1234.5z"/>
		</g>
		<path id="Path_2" class="st2" d="M-296.2-1116.8c0,0,5.6,19.3,63.8,19.5s63-19.5,63-19.5s6,36.7,0,44.2s-10.3,12.3-63,11.8
			c-52.8-0.5-52.5-5.2-58.8-11.8C-297.6-1079.1-296.2-1116.8-296.2-1116.8z"/>
		<rect id="Rectangle_11" x="-207.1" y="-1091.8" class="st2" width="31.5" height="49.9"/>
	</g>
	<path id="Path_116" class="st0" d="M2484.7-297.4c10,0,18,6.5,18,27s-8.1,21.7-18,21.7s-18-1.2-18-21.7S2474.7-297.4,2484.7-297.4z
		"/>
	<path id="Path_118" class="st0" d="M2509.6-200.3c-8.6-0.2-20.1-4.5-20.1-18.6c0-14.1-1.2-10.6,20.1-15c21.3-4.4,20.8,0.9,20.8,15
		S2518.2-200.1,2509.6-200.3z"/>
	<path id="Path_117" class="st0" d="M2535.2-297.4c10,0,18,6.5,18,27s-8.1,21.7-18,21.7s-18-1.2-18-21.7S2525.3-297.4,2535.2-297.4z
		"/>
	<path id="Path_119" class="st2" d="M2499.8-348.9c3.4,3.4,3.6,2.6,4.5,6.8c2.1-3,2.5-6.9,1.1-10.3c6.6,2.7,4.4,7.7,5.3,10.3
		c2.7-3.7,2-5.7,1.3-9.4c12.9,5.4,20.7,23.3,12.8,31.2s-34.6,0-34.6,0s4.1-1.2,7.2-12.3C2498.8-337.3,2500.5-342.7,2499.8-348.9z"/>
	<g id="Group_161" transform="translate(2764.478 931.503)">
		<path id="Polygon_5" class="st2" d="M-279.9-1218.8l3.6,8.1h-7.2L-279.9-1218.8z"/>
		<path id="Polygon_8" class="st2" d="M-272.4-1196.8l-7.5-4.7l6-4L-272.4-1196.8z"/>
		<path id="Polygon_10" class="st2" d="M-291.2-1210.6l8.9-0.3l-2.7,6.7L-291.2-1210.6z"/>
		<path id="Polygon_11" class="st2" d="M-268.3-1210.6l-6.2,6.4l-2.7-6.7L-268.3-1210.6z"/>
		<path id="Polygon_12" class="st2" d="M-286.9-1196.8l1.5-8.8l6,4L-286.9-1196.8z"/>
		<path id="Path_120" class="st2" d="M-283-1210.8l6.2-0.2l2.4,6.2l-5.3,3.2l-5.4-3.2L-283-1210.8z"/>
	</g>
	<g id="Group_162" transform="translate(2792.907 931.503)">
		<path id="Polygon_5-2" class="st2" d="M-257.8-1218.8l3.6,8.1h-7.2L-257.8-1218.8z"/>
		<path id="Polygon_8-2" class="st2" d="M-250.3-1196.8l-7.5-4.7l6-4L-250.3-1196.8z"/>
		<path id="Polygon_10-2" class="st2" d="M-269.1-1210.6l8.9-0.3l-2.7,6.7L-269.1-1210.6z"/>
		<path id="Polygon_11-2" class="st2" d="M-246.2-1210.6l-6.2,6.4l-2.7-6.7L-246.2-1210.6z"/>
		<path id="Polygon_12-2" class="st2" d="M-264.8-1196.8l1.5-8.8l6,4L-264.8-1196.8z"/>
		<path id="Path_120-2" class="st2" d="M-260.9-1210.8l6.2-0.2l2.4,6.2l-5.3,3.2l-5.4-3.2L-260.9-1210.8z"/>
	</g>
</g>
</svg>
