<?xml version="1.0" encoding="utf-8"?>
<!-- Generator: Adobe Illustrator 25.4.1, SVG Export Plug-In . SVG Version: 6.00 Build 0)  -->
<svg version="1.1" id="Layer_1" xmlns="http://www.w3.org/2000/svg" xmlns:xlink="http://www.w3.org/1999/xlink" x="0px" y="0px"
	 viewBox="0 0 98.8 94.9" style="enable-background:new 0 0 98.8 94.9;" xml:space="preserve">
<style type="text/css">
	.st0{fill:#36557D;}
	.st1{fill:#3D5E89;}
</style>
<g id="Concept_art_3" transform="translate(667.784 -1005.333) rotate(45)">
	<g id="Concept_art_2" transform="translate(279.237 1142.046)">
		<path id="Rectangle_1" class="st0" d="M4.1,3.1h46.4c7.4,0,13.4,6,13.4,13.4v46.4c0,7.4-6,13.4-13.4,13.4H4.1
			c-7.4,0-13.4-6-13.4-13.4V16.4C-9.3,9.1-3.3,3.1,4.1,3.1z"/>
	</g>
</g>
<g>
	<path id="Path_121" class="st1" d="M71.3,58.8c0,11.4-9.2,20.6-20.6,20.6c-11.4,0-20.6-9.2-20.6-20.6c0,0,0,0,0,0
		c0-6.2,3.6-8.9,3.6-8.9s25.7-8.3,28.6-7.8C67.9,43.7,71.3,52.2,71.3,58.8z"/>
	<ellipse id="Ellipse_6" class="st0" cx="43.3" cy="56.6" rx="4.3" ry="6.4"/>
	<path id="Subtraction_5" class="st0" d="M58.2,63c-1.3-0.1-2.4-0.8-3-1.9c-0.8-1.4-1.3-2.9-1.2-4.5c0-0.5,0-1.1,0.1-1.6
		c0.4-0.1,0.9-0.1,1.3-0.1c2.4,0.1,4.7,0.5,7,1c0,0.2,0,0.4,0,0.7c0,1.6-0.4,3.2-1.2,4.5C60.6,62.2,59.4,62.9,58.2,63z"/>
	<path id="Path_1" class="st0" d="M41.7,67.2c2.9,0.5,5.8,0.8,8.8,0.8c3.1,0,6.2-0.3,9.3-0.8c0,3.1-1.7,6.9-4.9,6.9
		c-1.6-0.4-3.2-0.7-4.8-0.9c-1.8-0.2-3.5-0.3-5.3-0.3c0-1-0.2-1.9-0.6-2.8C43.5,69.1,42.6,68.1,41.7,67.2z"/>
	<path id="Path_27" class="st1" d="M24.4,48l43.3-12.4l0.8,2.7L25.2,50.8L24.4,48z"/>
	<path id="Path_28" class="st1" d="M23.3,26l36.8-9.3l1,21.2l-28.1,8.4L23.3,26z"/>
	<ellipse id="Ellipse_27" class="st1" cx="43.3" cy="56.6" rx="2.4" ry="3.5"/>
	<ellipse id="Ellipse_28" class="st1" cx="58.2" cy="56.6" rx="2.4" ry="3.5"/>
</g>
</svg>
