<?xml version="1.0" encoding="utf-8"?>
<!-- Generator: Adobe Illustrator 25.4.1, SVG Export Plug-In . SVG Version: 6.00 Build 0)  -->
<svg version="1.1" id="Layer_1" xmlns="http://www.w3.org/2000/svg" xmlns:xlink="http://www.w3.org/1999/xlink" x="0px" y="0px"
	 viewBox="0 0 98.8 94.9" style="enable-background:new 0 0 98.8 94.9;" xml:space="preserve">
<style type="text/css">
	.st0{fill:#36557D;}
	.st1{fill:#3D5E89;}
</style>
<path id="Path_121" class="st0" d="M78.9,61.1C78.9,76,66.9,88.1,52,88.1S25,76,25,61.1c0,0,0,0,0,0c0-8.1,4.7-11.7,4.7-11.7
	s33.7-10.9,37.5-10.2C74.4,41.4,78.9,52.5,78.9,61.1z"/>
<ellipse id="Ellipse_6" class="st1" cx="42.2" cy="58.2" rx="5.6" ry="8.4"/>
<path id="Subtraction_5" class="st1" d="M61.7,66.6c-1.6-0.1-3.1-1-3.9-2.4c-1.1-1.8-1.7-3.8-1.6-5.9c0-0.7,0.1-1.4,0.2-2.1
	c0.6-0.1,1.2-0.1,1.8-0.1c3.1,0.2,6.2,0.6,9.2,1.3c0,0.3,0,0.6,0,0.9c0,2.1-0.5,4.1-1.6,5.9C64.9,65.6,63.4,66.5,61.7,66.6z"/>
<path id="Path_1" class="st1" d="M40.1,72.2c3.8,0.7,7.6,1.1,11.5,1.1c4.1-0.1,8.2-0.4,12.2-1.1c0,4.1-2.3,9.1-6.4,9.1
	c-2.1-0.5-4.2-1-6.3-1.2c-2.3-0.3-4.6-0.4-6.9-0.4c0.1-1.3-0.2-2.5-0.8-3.6C42.5,74.6,41.4,73.3,40.1,72.2z"/>
<path id="Path_27" class="st0" d="M17.5,47l56.8-16.3l1,3.6L18.5,50.6L17.5,47z"/>
<path id="Path_28" class="st0" d="M16,18.1L64.3,5.9l1.3,27.8l-36.8,11L16,18.1z"/>
<ellipse id="Ellipse_27" class="st0" cx="42.2" cy="58.2" rx="3.1" ry="4.6"/>
<ellipse id="Ellipse_28" class="st0" cx="61.7" cy="58.2" rx="3.1" ry="4.6"/>
</svg>
