<?xml version="1.0" encoding="utf-8"?>
<!-- Generator: Adobe Illustrator 25.4.1, SVG Export Plug-In . SVG Version: 6.00 Build 0)  -->
<svg version="1.1" id="Layer_1" xmlns="http://www.w3.org/2000/svg" xmlns:xlink="http://www.w3.org/1999/xlink" x="0px" y="0px"
	 viewBox="0 0 98.8 94.9" style="enable-background:new 0 0 98.8 94.9;" xml:space="preserve">
<style type="text/css">
	.st0{fill:#36557D;}
	.st1{fill:#3D5E89;}
</style>
<g id="Group_165" transform="translate(0 0)">
	<path id="Path_130" class="st0" d="M87.2,28.9c-1.7-1.6-6.3,0.6-10.7,4.9c-1.8,1.8-3.4,3.8-4.8,5.9l-0.6-0.5
		c0.8-1.3,1.7-2.6,2.7-3.8c-5.2-13-14.4-21.3-25.3-21.3c-11,0-20.4,8.4-25.6,21.5c1,0.8,1.9,1.7,2.7,2.6l-0.2,1
		c-2.3-2.7-5-5-8.1-6.9l0,0c-3.7-2.2-6.9-2.9-8.1-1.6c-1.8,2,1.3,7.6,6.8,12.5c0.2,0.2,0.4,0.3,0.6,0.5c1.9,1.6,5.2,3.8,7.8,4.1v0.8
		c-1.9-0.4-3.7-1.1-5.4-2.1c-0.8,4.1,0.3,11.3,0.3,15.6c0,20.2-0.7,16.2,16,13.2c3.8,3.5,8.8-1,14.4-1s10.9,4.5,14.7,1
		c16.6,3,14.8,6.9,14.8-13.2c-0.2-5-0.7-10-1.6-15c-1.3,0.9-2.9,1.4-4.5,1.6v-0.7c1.5-0.2,3-0.8,4.2-1.7v0c1.7-1.3,3.2-2.7,4.6-4.3
		C86.8,36.5,89.2,30.6,87.2,28.9z"/>
	<path id="Path_131" class="st1" d="M35.6,55.5c0,3.3,8.1,10.1,14.5,10.1S59,58.8,59,55.5s-5.3,1.8-11.8,1.8S35.6,52.1,35.6,55.5z"
		/>
	<path id="Subtraction_7" class="st1" d="M39.4,35.8c-6.1,0-5.9,5.5-5.9,0.8S36,28,39.1,28s5.7,3.8,5.7,8.5S45.4,35.8,39.4,35.8z"/>
	<path id="Subtraction_8" class="st1" d="M56.4,35.8c-6.1,0-5.7,5.4-5.7,0.7s2.6-8.5,5.7-8.5s5.7,3.8,5.7,8.5S62.4,35.8,56.4,35.8z"
		/>
	<path id="Path_132" class="st0" d="M48.6,56.1c0,0,1.1,4.9-0.6,4.7s-3.3,0.1-1.9-4.6"/>
	<path id="Path_133" class="st0" d="M49.5,57.1c0,0-0.3,4.4,1.6,3.4s1.7-2.4,0.1-4.6"/>
</g>
</svg>
