<?xml version="1.0" encoding="utf-8"?>
<!-- Generator: Adobe Illustrator 25.4.1, SVG Export Plug-In . SVG Version: 6.00 Build 0)  -->
<svg version="1.1" id="Layer_1" xmlns="http://www.w3.org/2000/svg" xmlns:xlink="http://www.w3.org/1999/xlink" x="0px" y="0px"
	 viewBox="0 0 98.8 94.9" style="enable-background:new 0 0 98.8 94.9;" xml:space="preserve">
<style type="text/css">
	.st0{fill:#36557D;}
	.st1{fill:#3D5E89;}
</style>
<g id="Concept_art_3" transform="translate(667.784 -1005.333) rotate(45)">
	<g id="Concept_art_2" transform="translate(279.237 1142.046)">
		<path id="Rectangle_1" class="st0" d="M4.1,3.1h46.4c7.4,0,13.4,6,13.4,13.4v46.4c0,7.4-6,13.4-13.4,13.4H4.1
			c-7.4,0-13.4-6-13.4-13.4V16.4C-9.3,9.1-3.3,3.1,4.1,3.1z"/>
	</g>
</g>
<path id="Path_130" class="st1" d="M79.5,29.8c-1.4-1.2-5,0.5-8.5,3.9c-1.4,1.4-2.7,3-3.8,4.7l-0.5-0.4c0.7-1,1.4-2.1,2.1-3
	c-4.2-10.4-11.5-17-20.2-17c-8.7,0-16.3,6.7-20.4,17.2c0.8,0.6,1.5,1.3,2.1,2.1l-0.2,0.8c-1.9-2.2-4-4-6.4-5.5l0,0
	c-2.9-1.8-5.5-2.3-6.5-1.2c-1.4,1.6,1,6,5.4,10c0.1,0.1,0.3,0.3,0.4,0.4c1.6,1.3,4.1,3.1,6.2,3.3v0.7c-1.5-0.3-3-0.9-4.3-1.7
	c-0.6,3.3,0.2,9,0.2,12.5c0,16.1-0.6,12.9,12.7,10.5c3.1,2.8,7-0.8,11.5-0.8s8.7,3.6,11.7,0.8c13.3,2.4,11.8,5.5,11.8-10.5
	c-0.1-4-0.6-8-1.3-11.9c-1.1,0.7-2.3,1.1-3.6,1.2v-0.6c1.2-0.2,2.4-0.6,3.4-1.4v0c1.3-1,2.6-2.2,3.7-3.5
	C79.2,35.9,81.1,31.2,79.5,29.8z"/>
<path id="Path_131" class="st0" d="M38.4,51c0,2.7,6.4,8,11.6,8s7.1-5.3,7.1-8s-4.2,1.4-9.4,1.4S38.4,48.3,38.4,51z"/>
<path id="Subtraction_7" class="st0" d="M41.4,35.3c-4.8,0-4.7,4.4-4.7,0.6s2-6.8,4.5-6.8s4.5,3,4.5,6.8S46.3,35.3,41.4,35.3z"/>
<path id="Subtraction_8" class="st0" d="M54.9,35.3c-4.8,0-4.5,4.3-4.5,0.6s2-6.8,4.5-6.8s4.5,3,4.5,6.8S59.8,35.3,54.9,35.3z"/>
<path id="Path_132" class="st1" d="M48.8,51.5c0,0,0.9,3.9-0.4,3.7c-1.3-0.2-2.6,0.1-1.5-3.7"/>
<path id="Path_133" class="st1" d="M49.5,52.3c0,0-0.3,3.5,1.3,2.7s1.4-1.9,0.1-3.7"/>
</svg>
