<?xml version="1.0" encoding="utf-8"?>
<!-- Generator: Adobe Illustrator 25.4.1, SVG Export Plug-In . SVG Version: 6.00 Build 0)  -->
<svg version="1.1" id="Layer_1" xmlns="http://www.w3.org/2000/svg" xmlns:xlink="http://www.w3.org/1999/xlink" x="0px" y="0px"
	 viewBox="0 0 98.8 94.9" style="enable-background:new 0 0 98.8 94.9;" xml:space="preserve">
<style type="text/css">
	.st0{fill:#36557D;}
	.st1{fill:#3D5E89;}
</style>
<g id="Concept_art_3" transform="translate(667.784 -1005.333) rotate(45)">
	<g id="Concept_art_2" transform="translate(279.237 1142.046)">
		<path id="Rectangle_1" class="st0" d="M5,2.4h46.4c7.4,0,13.4,6,13.4,13.4v46.4c0,7.4-6,13.4-13.4,13.4H5c-7.4,0-13.4-6-13.4-13.4
			V15.7C-8.4,8.4-2.4,2.4,5,2.4z"/>
	</g>
</g>
<g id="ICON_ORANGE" transform="translate(29.016 33.416)">
	<path id="Subtraction_12" class="st1" d="M41.4,23.5L41.4,23.5c1.9-1.4,2.8-4.8,2.2-8.7c-0.5-3.9-2.2-6.6-4.5-7.4
		c0.1,0,0.2,0,0.3-0.1c0.2,0,0.4,0,0.7,0c1.6,0.1,3.2,0.8,4.2,2.1c1.3,1.5,2.1,3.3,2.3,5.2c0.2,1.1,0.1,2.2,0,3.2
		c-0.2,1-0.5,1.9-0.9,2.8c-0.4,0.8-1,1.5-1.7,2c-0.7,0.5-1.4,0.8-2.3,1C41.6,23.5,41.5,23.5,41.4,23.5L41.4,23.5z"/>
	<path id="Subtraction_11" class="st1" d="M23,35.6c-6.8,0-13-3.7-16.3-9.6c1.6-0.7,2.8-2.1,3.4-3.8c0.7-2,0.8-4.2,0.3-6.3
		c-0.5-2.6-2.1-5-4.3-6.5C10.3,0,21.3-4.1,30.7,0.1S44.2,15.3,40,24.7C37,31.4,30.3,35.6,23,35.6z"/>
	<g id="ICON_ORANGE-2" transform="translate(18.776 20.692)">
		<path id="Path_8" class="st0" d="M-6.8-4.7c0,0,0.6-1.6,3.8-2.2c2-0.4,4.2-0.1,6,0.8C5-5,5.1-3.4,5.8-2.6C3.7-3.8,1.4-4.5-0.9-4.7
			C-3-4.9-5-4.5-6.8-3.6c0,0,1.8-2.3,4.5-2S-6.8-4.7-6.8-4.7z"/>
		<path id="Path_9" class="st0" d="M15.2-10.5c2.2,0,3.9,3,3.9,6.7s-1.7,2.3-3.9,2.3s-3.9,1.4-3.9-2.3S13.1-10.5,15.2-10.5z"/>
		<path id="Path_11" class="st1" d="M13.5-10c1.5,0,2.7,2.1,2.7,4.7S15-1.7,13.5-1.7s-2.7-1-2.7-3.6S12-10,13.5-10z"/>
		<path id="Path_10" class="st0" d="M2.4,1.2c4.8-0.8,7.5-0.6,10.9,0.6s0,1.8,0,4.5v3.6c0,0-8.5,3.1-13.7,0.4
			c-2.7-1.4-4.9-7.6-4.9-7.6S-0.3,1.6,2.4,1.2z"/>
	</g>
	<path id="Path_12" class="st1" d="M46.9-6.9c-1.1,1.3-2.4,2.6-3.7,3.7c-1.7,1.4,2.9-0.5,2.9-0.5S46.1,2,40.3,2.8s1.3,0.9,1.3,0.9
		s-1.1,2.5-5.7,2.5c-7.7,1.7-21.5,3-27.8,0.4c2.1-3,2.3-3.5,7.2-7.2S46.9-6.9,46.9-6.9z"/>
	
		<ellipse id="Ellipse_71" transform="matrix(0.9703 -0.2419 0.2419 0.9703 -4.1156 1.283)" class="st1" cx="3.2" cy="17.4" rx="6.2" ry="8.2"/>
	<path id="Path_136" class="st1" d="M-0.6,3c1.8-3.8,6.8-6.7,12-7.8c2.8-0.7,5.7-1.2,8.6-1.5c3-0.1,6,0.2,8.9,1.1l-4.4,0.8
		c-3.5,0-7,0.5-10.3,1.6C9.1-1,7-0.6,4.4,2.7s0,8.5,0,8.5l-4.4,0.9C-0.1,12.1-2.4,6.8-0.6,3z"/>
</g>
</svg>
