<?xml version="1.0" encoding="utf-8"?>
<!-- Generator: Adobe Illustrator 25.4.1, SVG Export Plug-In . SVG Version: 6.00 Build 0)  -->
<svg version="1.1" id="Layer_1" xmlns="http://www.w3.org/2000/svg" xmlns:xlink="http://www.w3.org/1999/xlink" x="0px" y="0px"
	 viewBox="0 0 98.8 94.9" style="enable-background:new 0 0 98.8 94.9;" xml:space="preserve">
<style type="text/css">
	.st0{fill:#36557D;}
	.st1{fill:#3D5E89;}
</style>
<g id="ICON_ORANGE" transform="translate(0 0)">
	<path id="Subtraction_12" class="st0" d="M75.3,62.1L75.3,62.1c2.8-2,4-6.7,3.2-12.4c-0.8-5.5-3.1-9.4-6.3-10.5
		c0.1,0,0.3-0.1,0.4-0.1c0.3,0,0.6-0.1,0.9-0.1c2.3,0.1,4.5,1.2,6,2.9c1.8,2.1,3,4.6,3.3,7.4c0.2,1.5,0.2,3-0.1,4.6
		c-0.2,1.4-0.7,2.7-1.3,3.9C80.9,59,80,59.9,79,60.7c-0.9,0.7-2.1,1.2-3.2,1.4C75.6,62.1,75.5,62.1,75.3,62.1L75.3,62.1z"/>
	<path id="Subtraction_11" class="st0" d="M49.2,79.3c-9.6,0-18.5-5.2-23.1-13.7c2.3-1,4-3,4.8-5.4c1-2.9,1.1-6,0.4-8.9
		c-0.8-3.8-2.9-7.1-6.1-9.3c6-13.3,21.6-19.2,34.9-13.2s19.2,21.6,13.2,34.9C69,73.3,59.6,79.3,49.2,79.3z"/>
	<g id="ICON_ORANGE-2" transform="translate(23.716 26.137)">
		<path id="Path_8" class="st1" d="M9.8,25.3c0,0,0.9-2.3,5.4-3.2c2.9-0.6,5.9-0.2,8.5,1.2c2.9,1.7,3,3.9,3.9,5
			c-2.9-1.7-6.2-2.7-9.5-3c-5.3-0.4-8.3,1.6-8.3,1.6s2.6-3.2,6.3-2.9C19.9,24.4,9.8,25.3,9.8,25.3z"/>
		<path id="Path_9" class="st1" d="M41.1,17.2c3.1,0,5.5,4.2,5.5,9.5s-2.5,3.2-5.5,3.2c-3.1,0-5.5,2-5.5-3.2S38,17.2,41.1,17.2z"/>
		<path id="Path_11" class="st0" d="M38.6,17.8c2.1,0,3.9,3,3.9,6.6s-1.7,5.1-3.9,5.1s-3.9-1.4-3.9-5.1S36.5,17.8,38.6,17.8z"/>
		<path id="Path_10" class="st1" d="M22.9,33.7c6.8-1.1,10.6-0.8,15.5,0.8c4.9,1.6,0,2.5,0,6.3V46c0,0-12,4.4-19.4,0.6
			c-3.8-2-7-10.8-7-10.8S19.1,34.3,22.9,33.7z"/>
	</g>
	<path id="Path_12" class="st0" d="M83.1,19.1c-1.6,1.9-3.3,3.6-5.2,5.2c-2.4,2,4.2-0.7,4.2-0.7s-0.1,8-8.3,9.1s1.8,1.2,1.8,1.2
		s-1.6,3.6-8,3.6C56.6,40,37,41.8,28.2,38.1c3-4.2,3.2-4.9,10.2-10.2S83.1,19.1,83.1,19.1z"/>
	
		<ellipse id="Ellipse_71" transform="matrix(0.9703 -0.2419 0.2419 0.9703 -12.3111 6.6957)" class="st0" cx="21.1" cy="53.5" rx="8.7" ry="11.6"/>
	<path id="Path_136" class="st0" d="M15.8,33c2.5-5.4,9.6-9.4,16.9-11.1c4-1,8.1-1.7,12.2-2.1c4.3-0.2,8.6,0.4,12.6,1.6l-6.3,1.1
		c-5,0-9.9,0.7-14.6,2.3c-7.1,2.5-10.1,3.1-13.8,7.7s0,12.1,0,12.1l-6.3,1.2C16.5,45.9,13.2,38.4,15.8,33z"/>
</g>
</svg>
