<?xml version="1.0" encoding="utf-8"?>
<!-- Generator: Adobe Illustrator 25.4.1, SVG Export Plug-In . SVG Version: 6.00 Build 0)  -->
<svg version="1.1" id="Layer_1" xmlns="http://www.w3.org/2000/svg" xmlns:xlink="http://www.w3.org/1999/xlink" x="0px" y="0px"
	 viewBox="0 0 98.8 94.9" style="enable-background:new 0 0 98.8 94.9;" xml:space="preserve">
<style type="text/css">
	.st0{fill:#36557D;}
	.st1{fill:#3D5E89;}
	.st2{fill:none;stroke:#36665A;stroke-width:2.126;stroke-miterlimit:10;}
	.st3{fill:none;stroke:#36557D;stroke-width:3;stroke-miterlimit:10;}
</style>
<g id="Concept_art_3" transform="translate(667.784 -1005.333) rotate(45)">
	<g id="Concept_art_2" transform="translate(279.237 1142.046)">
		<path id="Rectangle_1" class="st0" d="M4.1,3.1h46.4c7.4,0,13.4,6,13.4,13.4v46.4c0,7.4-6,13.4-13.4,13.4H4.1
			c-7.4,0-13.4-6-13.4-13.4V16.4C-9.3,9.1-3.3,3.1,4.1,3.1z"/>
	</g>
</g>
<path id="Ellipse_33" class="st1" d="M48.9,38c15-0.1,23.1,5.7,23.1,18.4c0,12.7-10.3,23.1-23.1,23.1S25.8,69.2,25.8,56.5
	C25.8,43.7,33.9,38.1,48.9,38z"/>
<ellipse id="Ellipse_34" class="st0" cx="39.4" cy="55.4" rx="5.3" ry="5.4"/>
<ellipse id="Ellipse_35" transform="matrix(0.9751 -0.2218 0.2218 0.9751 -10.7776 14.4047)" class="st0" cx="58.7" cy="55.2" rx="5.7" ry="5.4"/>
<ellipse id="Ellipse_37" class="st1" cx="39.5" cy="54.8" rx="2.6" ry="2.4"/>
<path id="Path_108" class="st2" d="M65.9,34.1"/>
<path id="Path_105" class="st1" d="M29.1,27.1l2.8,13.6c0,0,6.2-4.6,17-4.2c6-0.1,11.9,1.3,17.2,4.2c0,0,2.9-12.2,3.1-15.2l-6,5.2
	l-1-10.2L55.4,28L49,14.5l-6.3,13.3l-6.7-6.6l-1.9,9.3L29.1,27.1z"/>
<circle id="Ellipse_59" class="st1" cx="28.7" cy="26.2" r="1.4"/>
<circle id="Ellipse_60" class="st1" cx="35.9" cy="21" r="1.7"/>
<circle id="Ellipse_61" class="st1" cx="69.1" cy="26.3" r="1.4"/>
<circle id="Ellipse_62" class="st1" cx="61.9" cy="21.1" r="1.7"/>
<circle id="Ellipse_63" class="st1" cx="49.1" cy="14.9" r="2.2"/>
<ellipse id="Ellipse_64" class="st0" cx="48.9" cy="30.5" rx="1.8" ry="3.5"/>
<ellipse id="Ellipse_65" transform="matrix(0.9764 -0.2161 0.2161 0.9764 -5.9044 9.1616)" class="st0" cx="38.9" cy="31.6" rx="1.6" ry="2.3"/>
<ellipse id="Ellipse_66" transform="matrix(0.2611 -0.9653 0.9653 0.2611 13.2297 80.4527)" class="st0" cx="59.2" cy="31.6" rx="2.3" ry="1.6"/>
<path id="Path_110" class="st3" d="M60.1,55.8c1.1,0.6,2,1.5,2.5,2.6c0.3,0.9,0.3,2,0.8,2.8c0.4,0.6,1.1,1.1,1.9,1.2
	c0.8,0.1,1.5,0.1,2.3,0"/>
<path id="Path_111" class="st0" d="M39.9,65.6c-0.1,0-0.2-0.1-0.2-0.2c-0.3-0.3-0.9-0.3-1.2,0c-0.5,0.4-0.7,1-0.6,1.5
	c0.1,0.3,0.4,0.6,0.7,0.6c0.7,0.2,1.5,0.1,2.1-0.3c0.7-0.5,1.4-1,2.1-1.4c0.6-0.4,1.3-0.8,2-1c0.8-0.3,1.7-0.3,2.6-0.1
	c0.6,0.2,1.2,0.4,1.8,0.8c0.1,0,0.1,0,0.2,0c0.7-0.4,1.4-0.7,2.2-0.9c0.5-0.1,1.1-0.1,1.6,0c1.1,0.3,2.1,0.8,3,1.5
	c0.6,0.5,1.3,0.9,2,1.3c0.6,0.3,1.3,0.4,2,0.1c0.4-0.2,0.6-0.6,0.5-1c0-0.5-0.3-0.9-0.6-1.1c-0.3-0.3-0.8-0.3-1.1,0
	c-0.1,0.1-0.2,0.1-0.3,0.2l0,0c0,0,0-0.1,0.1-0.1c0.4-0.7,1.3-0.8,2-0.4c0.9,0.5,1.4,1.4,1.4,2.5c-0.1,1.1-0.7,2-1.6,2.5
	c-0.7,0.4-1.4,0.6-2.2,0.7c-0.7,0.1-1.4,0.2-2.1,0.1c-0.8,0-1.5-0.1-2.2-0.3c-0.8-0.2-1.5-0.4-2.2-0.7c-0.7-0.3-1.4-0.7-2.1-1.3
	c-0.3-0.3-0.3-0.3-0.6,0c-0.5,0.5-1.1,0.8-1.7,1.1c-0.6,0.3-1.2,0.5-1.9,0.7c-0.6,0.1-1.2,0.3-1.8,0.3c-0.8,0.1-1.6,0.1-2.5,0.1
	c-0.5-0.1-1.1-0.1-1.6-0.3c-1-0.2-1.9-0.8-2.5-1.6c-0.9-1.2-0.6-2.9,0.7-3.7c0.1-0.1,0.1-0.1,0.2-0.1c0.6-0.4,1.3-0.3,1.8,0.1
	C39.7,65.3,39.8,65.4,39.9,65.6L39.9,65.6z"/>
</svg>
