<?xml version="1.0" encoding="utf-8"?>
<!-- Generator: Adobe Illustrator 25.4.1, SVG Export Plug-In . SVG Version: 6.00 Build 0)  -->
<svg version="1.1" id="Layer_1" xmlns="http://www.w3.org/2000/svg" xmlns:xlink="http://www.w3.org/1999/xlink" x="0px" y="0px"
	 viewBox="0 0 98.8 94.9" style="enable-background:new 0 0 98.8 94.9;" xml:space="preserve">
<style type="text/css">
	.st0{fill:#36557D;}
	.st1{fill:#3D5E89;}
	.st2{fill:none;stroke:#36665A;stroke-width:2.126;stroke-miterlimit:10;}
	.st3{fill:#3D5E89;stroke:#3D5E89;stroke-width:3;stroke-miterlimit:10;}
</style>
<path id="Ellipse_33" class="st0" d="M47.2,37.2c17.6-0.1,27.1,6.7,27.1,21.6c0,14.9-12.1,27.1-27.1,27.1S20.2,73.7,20.2,58.8
	C20.2,43.8,29.6,37.3,47.2,37.2z"/>
<ellipse id="Ellipse_34" class="st1" cx="36.1" cy="57.5" rx="6.2" ry="6.3"/>
<ellipse id="Ellipse_35" transform="matrix(0.9751 -0.2218 0.2218 0.9751 -11.2405 14.4629)" class="st1" cx="58.8" cy="57.3" rx="6.7" ry="6.4"/>
<ellipse id="Ellipse_37" class="st0" cx="36.2" cy="56.8" rx="3" ry="2.8"/>
<path id="Path_108" class="st2" d="M67.1,32.6"/>
<g id="Group_158" transform="translate(1.666)">
	<path id="Path_105" class="st0" d="M22.4,24.4l3.3,16c0,0,7.2-5.4,20-5c7-0.2,14,1.6,20.2,5c0,0,3.4-14.3,3.7-17.9l-7,6.1
		l-1.2-11.9l-8.1,8.7L45.6,9.5l-7.4,15.6l-7.9-7.7l-2.2,10.9L22.4,24.4z"/>
	<circle id="Ellipse_59" class="st0" cx="21.9" cy="23.3" r="1.7"/>
	<circle id="Ellipse_60" class="st0" cx="30.3" cy="17.2" r="2"/>
	<circle id="Ellipse_61" class="st0" cx="69.3" cy="23.4" r="1.7"/>
	<circle id="Ellipse_62" class="st0" cx="60.9" cy="17.3" r="2"/>
	<circle id="Ellipse_63" class="st0" cx="45.8" cy="10" r="2.6"/>
	<ellipse id="Ellipse_64" class="st1" cx="45.5" cy="28.4" rx="2.1" ry="4.1"/>
	
		<ellipse id="Ellipse_65" transform="matrix(0.9764 -0.2161 0.2161 0.9764 -5.594 8.0211)" class="st1" cx="33.9" cy="29.6" rx="1.8" ry="2.7"/>
	
		<ellipse id="Ellipse_66" transform="matrix(0.2611 -0.9653 0.9653 0.2611 13.9936 77.4718)" class="st1" cx="57.6" cy="29.6" rx="2.7" ry="1.8"/>
</g>
<path id="Path_110" class="st3" d="M60.4,58c1.3,0.7,2.3,1.7,3,3c0.4,1.1,0.3,2.3,0.9,3.2c0.5,0.7,1.3,1.2,2.2,1.4
	c0.9,0.1,1.8,0.2,2.7,0.1"/>
<path id="Path_111" class="st1" d="M36.7,69.4c-0.1-0.1-0.2-0.1-0.3-0.2c-0.4-0.4-1-0.4-1.4,0c-0.6,0.4-0.8,1.1-0.7,1.8
	c0.1,0.4,0.4,0.7,0.8,0.7c0.8,0.2,1.7,0.1,2.4-0.4c0.8-0.5,1.7-1.1,2.5-1.7c0.7-0.5,1.5-0.9,2.4-1.2c1-0.3,2-0.3,3-0.1
	c0.7,0.2,1.5,0.5,2.1,0.9c0.1,0,0.2,0,0.2,0c0.8-0.5,1.7-0.8,2.6-1c0.6-0.1,1.2-0.1,1.9,0c1.3,0.3,2.5,0.9,3.5,1.7
	c0.7,0.6,1.5,1.1,2.3,1.5c0.7,0.4,1.6,0.4,2.3,0.1c0.5-0.2,0.7-0.7,0.6-1.2c-0.1-0.5-0.3-1-0.8-1.3c-0.4-0.3-0.9-0.3-1.3,0
	c-0.1,0.1-0.2,0.2-0.3,0.2l0,0c0-0.1,0.1-0.1,0.1-0.2c0.5-0.8,1.6-1,2.3-0.5c1.1,0.6,1.7,1.7,1.6,2.9c-0.1,1.2-0.8,2.4-1.9,2.9
	c-0.8,0.4-1.7,0.7-2.6,0.8c-0.8,0.1-1.6,0.2-2.4,0.1c-0.9,0-1.8-0.1-2.6-0.3c-0.9-0.2-1.8-0.5-2.6-0.8c-0.9-0.4-1.7-0.9-2.4-1.5
	c-0.4-0.3-0.4-0.3-0.8,0c-0.6,0.5-1.3,1-2,1.3c-0.7,0.3-1.4,0.6-2.2,0.8c-0.7,0.2-1.4,0.3-2.1,0.4c-1,0.2-1.9,0.2-2.9,0.1
	c-0.6-0.1-1.3-0.2-1.9-0.3c-1.2-0.2-2.3-0.9-3-1.9c-1-1.4-0.7-3.4,0.8-4.4c0.1-0.1,0.2-0.1,0.3-0.2c0.6-0.4,1.5-0.4,2.1,0.1
	C36.5,69.1,36.6,69.2,36.7,69.4L36.7,69.4z"/>
</svg>
