<?xml version="1.0" encoding="utf-8"?>
<!-- Generator: Adobe Illustrator 25.4.1, SVG Export Plug-In . SVG Version: 6.00 Build 0)  -->
<svg version="1.1" id="Layer_1" xmlns="http://www.w3.org/2000/svg" xmlns:xlink="http://www.w3.org/1999/xlink" x="0px" y="0px"
	 viewBox="0 0 98.8 94.9" style="enable-background:new 0 0 98.8 94.9;" xml:space="preserve">
<style type="text/css">
	.st0{fill:#36557D;}
	.st1{fill:#3D5E89;}
</style>
<g id="Concept_art_3" transform="translate(667.784 -1005.333) rotate(45)">
	<g id="Concept_art_2" transform="translate(279.237 1142.046)">
		<path id="Rectangle_1" class="st0" d="M4.1,3.1h46.4c7.4,0,13.4,6,13.4,13.4v46.4c0,7.4-6,13.4-13.4,13.4H4.1
			c-7.4,0-13.4-6-13.4-13.4V16.4C-9.3,9.1-3.3,3.1,4.1,3.1z"/>
	</g>
</g>
<path id="Ellipse_33" class="st1" d="M48.5,15c15.4,0,27.9,12.5,27.9,27.9S63.9,70.8,48.5,70.8S20.5,58.3,20.5,42.9c0,0,0,0,0,0
	C20.5,27.5,33,15,48.5,15z"/>
<path id="Ellipse_34" class="st0" d="M37.7,45.6c-7,0.1-7.1,0-7.1-5.9s0.1-13.2,7.1-15.5s7.1,9.6,7.1,15.5S44.7,45.5,37.7,45.6z"/>
<path id="Ellipse_34-2" class="st0" d="M59.2,45.6c7,0.1,7.1,0,7.1-5.9s0.5-13.3-6.5-15.6s-7.6,9.7-7.6,15.6S52.2,45.5,59.2,45.6z"
	/>
<path id="Path_103" class="st0" d="M37.8,51.4c13,1.9,21.2-4.1,26.7-3s2.8,6.5,0.2,8.9c-2.6,2.4-9.7,6-16.3,6S39,64.6,36.7,62
	C34.5,59.4,31.3,51.4,37.8,51.4z"/>
<circle id="Ellipse_57" class="st1" cx="33.9" cy="30.3" r="4.4"/>
<circle id="Ellipse_58" class="st1" cx="53.4" cy="33.2" r="4.4"/>
<path class="st0" d="M61.6,75.1c-2.2,0-3.7-0.5-4.8-1.7c-1-1.1-1.6-2.6-2.2-4.2c-0.6-1.6-1.2-3.3-2.4-4.8c-1.3-1.8-3.5-1.8-4.8-1.8
	l-0.2,0l-0.2,0c-0.3,0-0.9,0-1.1-0.1c0.1-0.2,0.4-0.6,0.9-1.2c0.7-0.7,1.6-1.5,2.6-2.1c1.5-1,4.4-2.7,7.7-2.9c0.5,0,1,0,1.5,0
	c2.8,0,5.1,0.5,6.9,1.4c1.9,1,3.2,2.5,3.8,4.6c0.5,1.7,1,3.5,1.2,5.2c0.2,1.9-0.1,3.4-0.8,4.5c-1,1.6-3.1,2.6-6.2,2.9
	C62.8,75.1,62.2,75.1,61.6,75.1z"/>
<path class="st1" d="M58.6,57.3c-0.5,0-0.9,0-1.4,0c-2.2,0.1-4.6,1-6.9,2.6c-1.1,0.7-1.8,1.4-2.4,1.9c1.4,0,3.6,0.2,5.1,2.1
	c1.2,1.6,1.9,3.4,2.5,5c1.2,3.3,2,5.2,6.1,5.2c0.5,0,1.1,0,1.7-0.1c2.8-0.3,4.6-1.1,5.5-2.5c1.4-2.1,0.6-5.5-0.5-8.9
	c-0.6-1.8-1.7-3.2-3.4-4.1C63.4,57.8,61.3,57.3,58.6,57.3 M58.6,55.5c5.5,0,10,1.9,11.5,6.7c1.6,5.2,3.5,12.7-6.6,13.8
	c-10.1,1.1-8.4-6.1-12-10.9c-1.1-1.5-2.9-1.4-4.4-1.4c-1.1,0-2,0-2.1-0.8c-0.2-1.3,5.8-6.9,12.1-7.3C57.6,55.5,58.1,55.5,58.6,55.5z
	"/>
</svg>
