<?xml version="1.0" encoding="utf-8"?>
<!-- Generator: Adobe Illustrator 25.4.1, SVG Export Plug-In . SVG Version: 6.00 Build 0)  -->
<svg version="1.1" id="Layer_1" xmlns="http://www.w3.org/2000/svg" xmlns:xlink="http://www.w3.org/1999/xlink" x="0px" y="0px"
	 viewBox="0 0 98.8 94.9" style="enable-background:new 0 0 98.8 94.9;" xml:space="preserve">
<style type="text/css">
	.st0{fill:#36557D;}
	.st1{fill:#3D5E89;}
</style>
<path id="Ellipse_33" class="st0" d="M48.7,16.2c16.9,0,30.5,13.7,30.5,30.5S65.5,77.2,48.7,77.2S18.1,63.6,18.1,46.7c0,0,0,0,0,0
	C18.1,29.8,31.8,16.2,48.7,16.2z"/>
<path id="Ellipse_34" class="st1" d="M36.9,49.7c-7.7,0.1-7.8,0-7.8-6.5s0.1-14.4,7.8-17s7.8,10.5,7.8,17S44.6,49.6,36.9,49.7z"/>
<path id="Ellipse_34-2" class="st1" d="M60.4,49.7c7.7,0.1,7.8,0,7.8-6.5s0.5-14.5-7.2-17.1s-8.4,10.6-8.4,17.1S52.8,49.6,60.4,49.7
	z"/>
<path id="Path_103" class="st1" d="M37.1,56c14.2,2.1,23.2-4.4,29.2-3.2s3.1,7.1,0.2,9.7C63.6,65.1,55.9,69,48.7,69
	s-10.3,1.5-12.8-1.4C33.4,64.8,29.9,56,37.1,56z"/>
<circle id="Ellipse_57" class="st0" cx="32.7" cy="33" r="4.8"/>
<circle id="Ellipse_58" class="st0" cx="54.1" cy="36.2" r="4.8"/>
<g id="Path_104" transform="translate(19.838 48.798)">
	<path class="st1" d="M43.2,33.2c-2.4,0-4.1-0.6-5.3-1.8c-1.1-1.2-1.7-2.8-2.4-4.6c-0.7-1.8-1.4-3.6-2.6-5.2
		c-1.5-1.9-3.8-1.9-5.2-1.9l-0.2,0l-0.2,0c-0.3,0-0.9,0-1.2-0.1c0.1-0.2,0.4-0.7,1-1.3c0.7-0.8,1.8-1.6,2.8-2.4
		c1.6-1.1,4.8-3,8.4-3.2c0.6,0,1.1,0,1.6,0c3,0,5.6,0.5,7.5,1.6c2.1,1.1,3.5,2.8,4.2,5c0.6,1.8,1.1,3.8,1.3,5.7
		c0.2,2.1-0.1,3.7-0.9,4.9c-1.1,1.7-3.4,2.8-6.8,3.2C44.5,33.1,43.8,33.2,43.2,33.2z"/>
	<path class="st0" d="M40,13.7c-0.5,0-1,0-1.6,0c-2.4,0.1-5,1.1-7.6,2.8c-1.2,0.8-2,1.5-2.6,2.1c1.5,0,4,0.2,5.6,2.3
		c1.3,1.8,2.1,3.7,2.7,5.5c1.3,3.6,2.2,5.7,6.7,5.7c0.6,0,1.2,0,1.9-0.1c3-0.3,5.1-1.3,6-2.7c1.5-2.3,0.6-6-0.5-9.7
		c-0.6-2-1.8-3.5-3.7-4.4C45.2,14.2,42.8,13.7,40,13.7 M40,11.7c6.1,0,11,2,12.6,7.3c1.8,5.7,3.8,13.9-7.2,15.1
		c-11,1.2-9.2-6.7-13.2-11.9c-1.2-1.6-3.2-1.5-4.8-1.5c-1.2,0-2.2,0-2.3-0.9c-0.2-1.4,6.4-7.6,13.2-8C38.9,11.7,39.4,11.7,40,11.7z"
		/>
</g>
</svg>
