<?xml version="1.0" encoding="utf-8"?>
<!-- Generator: Adobe Illustrator 25.4.1, SVG Export Plug-In . SVG Version: 6.00 Build 0)  -->
<svg version="1.1" id="Layer_1" xmlns="http://www.w3.org/2000/svg" xmlns:xlink="http://www.w3.org/1999/xlink" x="0px" y="0px"
	 viewBox="0 0 98.8 94.9" style="enable-background:new 0 0 98.8 94.9;" xml:space="preserve">
<style type="text/css">
	.st0{fill:#36557D;}
	.st1{fill:#3D5E89;}
</style>
<g id="Concept_art_3" transform="translate(667.784 -1005.333) rotate(45)">
	<g id="Concept_art_2" transform="translate(279.237 1142.046)">
		<path id="Rectangle_1" class="st0" d="M4.1,3.1h46.4c7.4,0,13.4,6,13.4,13.4v46.4c0,7.4-6,13.4-13.4,13.4H4.1
			c-7.4,0-13.4-6-13.4-13.4V16.4C-9.3,9.1-3.3,3.1,4.1,3.1z"/>
	</g>
</g>
<g id="ICON_BLUE" transform="translate(0 11.513)">
	<g id="Group_7" transform="translate(0 0)">
		<path id="Path_115" class="st1" d="M48.8,6.3c12.5,0,22.7,10.1,22.7,22.7c0,12.5-10.1,15.9-22.7,15.9s-22.7-3.4-22.7-15.9
			C26.1,16.4,36.3,6.3,48.8,6.3z"/>
	</g>
	<path id="Path_2" class="st1" d="M30,41.2c0,0,1.7,5.7,19,5.8s18.7-5.8,18.7-5.8s1.8,10.9,0,13.1c-1.8,2.2-3.1,3.6-18.7,3.5
		s-15.6-1.6-17.5-3.5C29.6,52.5,30,41.2,30,41.2z"/>
	<rect id="Rectangle_11" x="56.5" y="48.7" class="st1" width="9.4" height="14.8"/>
</g>
<path id="Path_116" class="st0" d="M41.3,25.4c3,0,5.4,1.9,5.4,8s-2.4,6.4-5.4,6.4c-3,0-5.4-0.4-5.4-6.4S38.3,25.4,41.3,25.4z"/>
<path id="Path_118" class="st0" d="M48.7,54.3c-2.6-0.1-6-1.3-6-5.5s-0.4-3.1,6-4.5c6.3-1.3,6.2,0.3,6.2,4.5S51.2,54.3,48.7,54.3z"
	/>
<path id="Path_117" class="st0" d="M56.3,25.4c3,0,5.4,1.9,5.4,8s-2.4,6.4-5.4,6.4s-5.4-0.4-5.4-6.4S53.3,25.4,56.3,25.4z"/>
<path id="Path_119" class="st1" d="M45.8,10.1c1,1,1.1,0.8,1.3,2c0.6-0.9,0.8-2,0.3-3.1c2,0.8,1.3,2.3,1.6,3.1
	c0.8-1.1,0.6-1.7,0.4-2.8c3.8,1.6,6.2,6.9,3.8,9.3c-2.4,2.3-10.3,0-10.3,0s1.2-0.4,2.1-3.6C45.6,13.4,45.9,11.8,45.8,10.1z"/>
<g id="Group_161" transform="translate(15.062 25.666)">
	<path id="Polygon_5" class="st1" d="M26.2,2.8l1.1,2.4h-2.1L26.2,2.8z"/>
	<path id="Polygon_8" class="st1" d="M28.4,9.3l-2.2-1.4l1.8-1.2L28.4,9.3z"/>
	<path id="Polygon_10" class="st1" d="M22.8,5.2l2.6-0.1l-0.8,2L22.8,5.2z"/>
	<path id="Polygon_11" class="st1" d="M29.6,5.2l-1.8,1.9l-0.8-2L29.6,5.2z"/>
	<path id="Polygon_12" class="st1" d="M24.1,9.3l0.5-2.6l1.8,1.2L24.1,9.3z"/>
	<path id="Path_120" class="st1" d="M25.3,5.1l1.9,0l0.7,1.8l-1.6,1l-1.6-1L25.3,5.1z"/>
</g>
<g id="Group_162" transform="translate(34.998 25.666)">
	<path id="Polygon_5-2" class="st1" d="M21.3,2.8l1.1,2.4h-2.1L21.3,2.8z"/>
	<path id="Polygon_8-2" class="st1" d="M23.5,9.3l-2.2-1.4L23,6.7L23.5,9.3z"/>
	<path id="Polygon_10-2" class="st1" d="M17.9,5.2l2.6-0.1l-0.8,2L17.9,5.2z"/>
	<path id="Polygon_11-2" class="st1" d="M24.7,5.2l-1.8,1.9l-0.8-2L24.7,5.2z"/>
	<path id="Polygon_12-2" class="st1" d="M19.2,9.3l0.5-2.6l1.8,1.2L19.2,9.3z"/>
	<path id="Path_120-2" class="st1" d="M20.3,5.1l1.9,0l0.7,1.8l-1.6,1l-1.6-1L20.3,5.1z"/>
</g>
</svg>
