<?xml version="1.0" encoding="utf-8"?>
<!-- Generator: Adobe Illustrator 25.4.1, SVG Export Plug-In . SVG Version: 6.00 Build 0)  -->
<svg version="1.1" id="Layer_1" xmlns="http://www.w3.org/2000/svg" xmlns:xlink="http://www.w3.org/1999/xlink" x="0px" y="0px"
	 viewBox="0 0 98.8 94.9" style="enable-background:new 0 0 98.8 94.9;" xml:space="preserve">
<style type="text/css">
	.st0{fill:#36557D;}
	.st1{fill:#3D5E89;}
</style>
<g id="ICON_BLUE" transform="translate(0 11.513)">
	<g id="Group_7" transform="translate(0 0)">
		<path id="Path_115" class="st0" d="M51,4c16.6,0,30.1,13.5,30.1,30.1c0,16.6-13.5,21.2-30.1,21.2s-30.1-4.6-30.1-21.2
			C20.9,17.5,34.4,4,51,4z"/>
	</g>
	<path id="Path_2" class="st0" d="M26.1,50.4c0,0,2.2,7.6,25.2,7.7c23,0.1,24.9-7.7,24.9-7.7s2.4,14.5,0,17.4c-2.4,3-4,4.8-24.9,4.6
		s-20.7-2.1-23.2-4.6S26.1,50.4,26.1,50.4z"/>
	<rect id="Rectangle_11" x="61.3" y="60.3" class="st0" width="12.4" height="19.7"/>
</g>
<path id="Path_116" class="st1" d="M41.1,25.7c3.9,0,7.1,2.6,7.1,10.6s-3.2,8.6-7.1,8.6s-7.1-0.5-7.1-8.6S37.1,25.7,41.1,25.7z"/>
<path id="Path_118" class="st1" d="M50.9,64c-3.4-0.1-7.9-1.8-7.9-7.4s-0.5-4.2,7.9-5.9c8.4-1.7,8.2,0.3,8.2,5.9S54.3,64.1,50.9,64z
	"/>
<path id="Path_117" class="st1" d="M61,25.7c3.9,0,7.1,2.6,7.1,10.6s-3.2,8.6-7.1,8.6s-7.1-0.5-7.1-8.6S57.1,25.7,61,25.7z"/>
<path id="Path_119" class="st0" d="M47,5.4c1.4,1.3,1.4,1,1.8,2.7c0.8-1.2,1-2.7,0.4-4c2.6,1.1,1.7,3.1,2.1,4
	c1.1-1.5,0.8-2.2,0.5-3.7c5.1,2.1,8.2,9.2,5,12.3c-3.1,3.1-13.6,0-13.6,0s1.6-0.5,2.9-4.8C46.8,9.8,47.1,7.6,47,5.4z"/>
<g id="Group_161" transform="translate(15.062 25.666)">
	<path id="Polygon_5" class="st0" d="M26,4l1.4,3.2h-2.8L26,4z"/>
	<path id="Polygon_8" class="st0" d="M28.9,12.7l-3-1.9l2.4-1.6L28.9,12.7z"/>
	<path id="Polygon_10" class="st0" d="M21.5,7.2L25,7.1l-1.1,2.6L21.5,7.2z"/>
	<path id="Polygon_11" class="st0" d="M30.5,7.2l-2.4,2.5L27,7.1L30.5,7.2z"/>
	<path id="Polygon_12" class="st0" d="M23.2,12.7l0.6-3.4l2.4,1.6L23.2,12.7z"/>
	<path id="Path_120" class="st0" d="M24.7,7.2l2.5-0.1l0.9,2.4L26,10.8l-2.1-1.3L24.7,7.2z"/>
</g>
<g id="Group_162" transform="translate(34.998 25.666)">
	<path id="Polygon_5-2" class="st0" d="M26,4l1.4,3.2h-2.8L26,4z"/>
	<path id="Polygon_8-2" class="st0" d="M28.9,12.7l-3-1.9l2.4-1.6L28.9,12.7z"/>
	<path id="Polygon_10-2" class="st0" d="M21.5,7.2L25,7.1l-1.1,2.6L21.5,7.2z"/>
	<path id="Polygon_11-2" class="st0" d="M30.5,7.2l-2.4,2.5L27,7.1L30.5,7.2z"/>
	<path id="Polygon_12-2" class="st0" d="M23.2,12.7l0.6-3.4l2.4,1.6L23.2,12.7z"/>
	<path id="Path_120-2" class="st0" d="M24.7,7.2l2.5-0.1l0.9,2.4L26,10.8l-2.1-1.3L24.7,7.2z"/>
</g>
</svg>
