<?xml version="1.0" encoding="utf-8"?>
<!-- Generator: Adobe Illustrator 25.4.1, SVG Export Plug-In . SVG Version: 6.00 Build 0)  -->
<svg version="1.1" id="Layer_1" xmlns="http://www.w3.org/2000/svg" xmlns:xlink="http://www.w3.org/1999/xlink" x="0px" y="0px"
	 viewBox="0 0 98.8 94.9" style="enable-background:new 0 0 98.8 94.9;" xml:space="preserve">
<style type="text/css">
	.st0{fill:#36557D;}
	.st1{fill:#3D5E89;stroke:#36557D;stroke-width:2;stroke-miterlimit:10;}
	.st2{fill:#3D5E89;}
</style>
<ellipse id="Ellipse_24" transform="matrix(0.9876 -0.1569 0.1569 0.9876 -8.111 8.3234)" class="st0" cx="48.7" cy="55.5" rx="29" ry="29.5"/>
<path id="Path_85" class="st1" d="M32.3,45l45.4-7l1.1,10.2c-0.3,2-1.8,3.6-3.9,3.9c0,0-13.3,2.5-14.8,2.3S57.9,51,56,51.3
	s-1.3,3.6-3.4,4.4s-13.9,2.2-13.9,2.2c-1.7,0.3-3.3-0.5-4.2-2L32.3,45z"/>
<path id="Path_94" class="st2" d="M38.6,71.4c0.6,1.4,4.6,5.3,12.1,5.2c5,0,9.9-0.8,14.6-2.5c0.7-0.2,1.3-0.5,1.8-1
	c0.3-0.4,0.5-0.8,0.7-1.2c1-2.3,1.6-4.8,1.9-7.3c-2,0.7-4.1,1.2-6.1,1.7c-8,2-14.1,3.8-20.1,3.2S38,70.1,38.6,71.4z"/>
<path id="Path_97" class="st0" d="M43,6l0.9,1.9l4.1-2.6l0.7,1.9l3.8-2.4c-0.6,4.4-0.6,8.8,0,13.2c0.9,4.3,2.4,8.5,4.5,12.4
	l-10.5,1.9c0,0-16.5,20.8-20.3,6.9S43,6,43,6z"/>
</svg>
