<?xml version="1.0" encoding="utf-8"?>
<!-- Generator: Adobe Illustrator 25.4.1, SVG Export Plug-In . SVG Version: 6.00 Build 0)  -->
<svg version="1.1" id="Layer_1" xmlns="http://www.w3.org/2000/svg" xmlns:xlink="http://www.w3.org/1999/xlink" x="0px" y="0px"
	 viewBox="0 0 98.8 94.9" style="enable-background:new 0 0 98.8 94.9;" xml:space="preserve">
<style type="text/css">
	.st0{fill:#36557D;}
	.st1{fill:#3D5E89;}
	.st2{fill:#36557D;stroke:#3D5E89;stroke-width:2;stroke-miterlimit:10;}
</style>
<g id="Concept_art_3" transform="translate(667.784 -1005.333) rotate(45)">
	<g id="Concept_art_2" transform="translate(279.237 1142.046)">
		<path id="Rectangle_1" class="st0" d="M4.1,3.1h46.4c7.4,0,13.4,6,13.4,13.4v46.4c0,7.4-6,13.4-13.4,13.4H4.1
			c-7.4,0-13.4-6-13.4-13.4V16.4C-9.3,9.1-3.3,3.1,4.1,3.1z"/>
	</g>
</g>
<ellipse id="Ellipse_24" transform="matrix(0.9876 -0.1569 0.1569 0.9876 -7.9639 8.2406)" class="st1" cx="48.2" cy="54.6" rx="25.3" ry="25.7"/>
<path id="Path_85" class="st2" d="M34,45.4l39.5-6.1l0.9,8.9c-0.3,1.8-1.6,3.1-3.4,3.4c0,0-11.6,2.2-12.9,2
	c-1.3-0.2-1.9-3.1-3.6-2.8c-1.6,0.3-1.1,3.2-3,3.8c-1.9,0.7-12.1,1.9-12.1,1.9c-1.5,0.2-2.9-0.5-3.6-1.7L34,45.4z"/>
<path id="Path_94" class="st0" d="M39.5,68.4c0.5,1.2,4,4.7,10.5,4.5c4.3,0,8.6-0.7,12.7-2.2c0.6-0.2,1.1-0.5,1.5-0.9
	c0.3-0.3,0.5-0.7,0.6-1c0.8-2,1.4-4.2,1.7-6.3c-1.8,0.6-3.6,1.1-5.3,1.5c-7,1.8-12.3,3.3-17.6,2.8C38.4,66.4,38.9,67.2,39.5,68.4z"
	/>
<path id="Path_94_00000088823070989951546900000010394918333996957359_" class="st1" d="M192,24.9c0.6,1.4,4.6,5.3,12.1,5.2
	c5,0,9.9-0.8,14.6-2.5c0.7-0.2,1.3-0.5,1.8-1c0.3-0.4,0.5-0.8,0.7-1.2c1-2.3,1.6-4.8,1.9-7.3c-2,0.7-4.1,1.2-6.1,1.7
	c-8,2-14.1,3.8-20.1,3.2S191.4,23.5,192,24.9z"/>
<path id="Path_97" class="st1" d="M43.3,11.3L44,13l3.6-2.3l0.6,1.6l3.3-2.1c-0.6,3.8-0.6,7.7,0,11.5c0.8,3.8,2.1,7.4,3.9,10.8
	l-9.2,1.6c0,0-14.4,18.1-17.7,6.1S43.3,11.3,43.3,11.3z"/>
</svg>
