<svg xmlns="http://www.w3.org/2000/svg" width="47.088" height="47.088" viewBox="0 0 47.088 47.088">
  <path id="_20804882391579688354" data-name="20804882391579688354" d="M6.9,47.088H22.256V30.35H16.738V24.832h5.518v-6.9a6.905,6.905,0,0,1,6.9-6.9h6.9v5.518H30.534a2.762,2.762,0,0,0-2.759,2.759v5.518H35.8l-.92,5.518H27.774V47.088H40.19a6.905,6.905,0,0,0,6.9-6.9V6.9A6.905,6.905,0,0,0,40.19,0H6.9A6.905,6.905,0,0,0,0,6.9V40.19A6.905,6.905,0,0,0,6.9,47.088ZM2.759,6.9A4.143,4.143,0,0,1,6.9,2.759H40.19A4.143,4.143,0,0,1,44.329,6.9V40.19a4.143,4.143,0,0,1-4.139,4.139H30.534V33.109H37.22L39.06,22.072H30.534V19.313h8.277V8.277H29.154A9.667,9.667,0,0,0,19.5,17.934v4.139H13.979V33.109H19.5v11.22H6.9A4.143,4.143,0,0,1,2.759,40.19Zm0,0" fill="#f0f0f0"/>
</svg>
