<svg id="_706798691579688353" data-name="706798691579688353" xmlns="http://www.w3.org/2000/svg" width="47.088" height="47.088" viewBox="0 0 47.088 47.088">
  <path id="Path_6401" data-name="Path 6401" d="M6.9,47.088H40.19a6.905,6.905,0,0,0,6.9-6.9V6.9A6.905,6.905,0,0,0,40.19,0H6.9A6.905,6.905,0,0,0,0,6.9V40.19A6.905,6.905,0,0,0,6.9,47.088ZM2.759,6.9A4.143,4.143,0,0,1,6.9,2.759H40.19A4.143,4.143,0,0,1,44.329,6.9V40.19a4.143,4.143,0,0,1-4.139,4.139H6.9A4.143,4.143,0,0,1,2.759,40.19Zm0,0" fill="#f0f0f0"/>
  <path id="Path_6402" data-name="Path 6402" d="M133.416,145.832A12.416,12.416,0,1,0,121,133.416,12.43,12.43,0,0,0,133.416,145.832Zm0-22.072a9.657,9.657,0,1,1-9.657,9.657A9.667,9.667,0,0,1,133.416,123.759Zm0,0" transform="translate(-109.872 -109.872)" fill="#f0f0f0"/>
  <path id="Path_6403" data-name="Path 6403" d="M365.139,69.277A4.139,4.139,0,1,0,361,65.139,4.143,4.143,0,0,0,365.139,69.277Zm0-5.518a1.38,1.38,0,1,1-1.38,1.38A1.381,1.381,0,0,1,365.139,63.759Zm0,0" transform="translate(-327.799 -55.39)" fill="#f0f0f0"/>
</svg>
