<svg id="_2972125701579688347" data-name="2972125701579688347" xmlns="http://www.w3.org/2000/svg" width="47.088" height="47.088" viewBox="0 0 47.088 47.088">
  <path id="Path_6404" data-name="Path 6404" d="M40.19,0H6.9A6.905,6.905,0,0,0,0,6.9V40.19a6.905,6.905,0,0,0,6.9,6.9H40.19a6.905,6.905,0,0,0,6.9-6.9V6.9A6.905,6.905,0,0,0,40.19,0Zm4.139,40.19a4.143,4.143,0,0,1-4.139,4.139H6.9A4.143,4.143,0,0,1,2.759,40.19V6.9A4.143,4.143,0,0,1,6.9,2.759H40.19A4.143,4.143,0,0,1,44.329,6.9Zm0,0" fill="#f0f0f0"/>
  <path id="Path_6405" data-name="Path 6405" d="M91,229.5h8.277V210H91Zm2.759-16.738h2.759v13.979H93.759Zm0,0" transform="translate(-82.631 -190.687)" fill="#f0f0f0"/>
  <path id="Path_6406" data-name="Path 6406" d="M222.044,210h-.008a8.262,8.262,0,0,0-2.759.469V210H211v19.5h8.277v-9.841a1.38,1.38,0,0,1,2.759,0V229.5h8.277V218.708c0-4.465-3.622-8.7-8.269-8.708Zm5.51,16.738H224.8v-7.082a4.139,4.139,0,0,0-8.277,0v7.082h-2.759V212.759h2.759v2.761l2.208-1.658a5.469,5.469,0,0,1,3.31-1.1h.005a5.9,5.9,0,0,1,5.513,5.949Zm0,0" transform="translate(-191.595 -190.686)" fill="#f0f0f0"/>
  <path id="Path_6407" data-name="Path 6407" d="M91,98.277h8.277V90H91Zm2.759-5.518h2.759v2.759H93.759Zm0,0" transform="translate(-82.631 -81.723)" fill="#f0f0f0"/>
</svg>
