<?xml version="1.0" encoding="utf-8"?>
<!-- Generator: Adobe Illustrator 25.4.1, SVG Export Plug-In . SVG Version: 6.00 Build 0)  -->
<svg version="1.1" id="Layer_1" xmlns="http://www.w3.org/2000/svg" xmlns:xlink="http://www.w3.org/1999/xlink" x="0px" y="0px"
	 viewBox="0 0 98.8 94.9" style="enable-background:new 0 0 98.8 94.9;" xml:space="preserve">
<style type="text/css">
	.st0{fill:#DE4949;}
	.st1{enable-background:new    ;}
	.st2{fill:#702525;}
	.st3{fill:#752727;}
	.st4{fill:#6F2525;}
	.st5{clip-path:url(#SVGID_00000072982860497853645760000008051574264692604842_);enable-background:new    ;}
	.st6{fill:#732626;}
	.st7{clip-path:url(#SVGID_00000074413639663037097280000006701642994432609983_);enable-background:new    ;}
	.st8{clip-path:url(#SVGID_00000027603912457633195190000003738262434795944836_);enable-background:new    ;}
	.st9{fill:#DA4848;}
</style>
<ellipse class="st0" cx="51.7" cy="47.4" rx="28.2" ry="27.4"/>
<g>
	<g>
		<g class="st1">
			<g>
				<polygon class="st2" points="60.7,28.6 57.8,32.9 56.1,27.9 59,23.6 				"/>
			</g>
			<g>
				<polygon class="st3" points="59,23.6 56.1,27.9 32.9,32 35.8,27.7 				"/>
			</g>
			<g>
				<polygon class="st3" points="49.7,42.3 46.8,46.5 42.2,47.3 45.1,43.1 				"/>
			</g>
			<g>
				<polygon class="st4" points="45.1,43.1 42.2,47.3 39.5,36.1 42.5,31.8 				"/>
			</g>
			<g class="st1">
				<defs>
					<path id="SVGID_1_" class="st1" d="M69.9,61.1L67,65.3c1.9-2.7,2.1-6.1,0.9-9.7c-2.4-7.1-8.9-11.3-21.2-9.1l2.9-4.2
						c12.2-2.2,18.7,2,21.2,9.1C72,54.9,71.8,58.3,69.9,61.1z"/>
				</defs>
				<clipPath id="SVGID_00000059293289662555247370000008533370638013298852_">
					<use xlink:href="#SVGID_1_"  style="overflow:visible;"/>
				</clipPath>
				<g style="clip-path:url(#SVGID_00000059293289662555247370000008533370638013298852_);enable-background:new    ;">
					<path class="st6" d="M69.9,61.1L67,65.3c1.9-2.7,2.1-6.1,0.9-9.7c-2.4-7.1-8.9-11.3-21.2-9.1l2.9-4.2c12.2-2.2,18.7,2,21.2,9.1
						C72,54.9,71.8,58.3,69.9,61.1"/>
				</g>
			</g>
			<g class="st1">
				<defs>
					<path id="SVGID_00000169555626446474913690000009957330455601914555_" class="st1" d="M64.5,58l-2.9,4.2
						c-1.2,1.7-3.4,3-6.8,3.6c-5,0.9-10.2-0.1-13.8-2.1l2.9-4.2c3.6,2,8.8,3,13.8,2.1C61.1,61,63.4,59.7,64.5,58z"/>
				</defs>
				<clipPath id="SVGID_00000132810492859040878280000014045479595365845143_">
					<use xlink:href="#SVGID_00000169555626446474913690000009957330455601914555_"  style="overflow:visible;"/>
				</clipPath>
				<g style="clip-path:url(#SVGID_00000132810492859040878280000014045479595365845143_);enable-background:new    ;">
					<path class="st6" d="M64.5,58l-2.9,4.2c-1.2,1.7-3.4,3-6.8,3.6c-5,0.9-10.2-0.1-13.8-2.1l2.9-4.2c3.6,2,8.8,3,13.8,2.1
						C61.1,61,63.4,59.7,64.5,58"/>
				</g>
			</g>
			<g class="st1">
				<defs>
					<path id="SVGID_00000180324743936258369480000006151405557119131820_" class="st1" d="M81,65.8l-2.9,4.2
						c-4,5.8-10.3,10-18.4,11.5C42.1,84.7,23,73.2,17.1,55.8c-3.2-9.4-1.8-18.6,2.9-25.6l2.9-4.2C18.2,33,16.8,42.2,20,51.6
						c5.9,17.3,25,28.8,42.6,25.7C70.7,75.9,77.1,71.6,81,65.8z"/>
				</defs>
				<clipPath id="SVGID_00000091002453692452335290000010789466821775639730_">
					<use xlink:href="#SVGID_00000180324743936258369480000006151405557119131820_"  style="overflow:visible;"/>
				</clipPath>
				<g style="clip-path:url(#SVGID_00000091002453692452335290000010789466821775639730_);enable-background:new    ;">
					<path class="st6" d="M81,65.8l-2.9,4.2c-4,5.8-10.3,10-18.4,11.5C42.1,84.7,23,73.2,17.1,55.8c-3.2-9.4-1.8-18.6,2.9-25.6
						l2.9-4.2C18.2,33,16.8,42.2,20,51.6c5.9,17.3,25,28.8,42.6,25.7C70.7,75.9,77.1,71.6,81,65.8"/>
				</g>
			</g>
			<g>
				<path class="st9" d="M41.3,14.5C59,11.4,78.1,22.9,84,40.2c5.9,17.3-3.7,33.9-21.3,37C45,80.4,25.9,68.9,20,51.6
					S23.7,17.7,41.3,14.5z M59.6,66.7c10.5-1.9,13.6-8.3,11.3-15.3c-2.4-7.1-8.9-11.3-21.2-9.1l-4.6,0.8l-2.6-11.2l18.2-3.2l-1.7-5
					l-23.1,4.1l5,21.4l9.3-1.7c9.5-1.7,13.4,0.6,14.9,5.2c1.5,4.4-1.1,7.8-7.3,8.9c-5,0.9-10.2-0.1-13.8-2.1l-1.2,5
					C47.4,66.9,53.8,67.7,59.6,66.7"/>
			</g>
		</g>
	</g>
</g>
</svg>
