<?xml version="1.0" encoding="utf-8"?>
<!-- Generator: Adobe Illustrator 25.4.1, SVG Export Plug-In . SVG Version: 6.00 Build 0)  -->
<svg version="1.1" id="Layer_1" xmlns="http://www.w3.org/2000/svg" xmlns:xlink="http://www.w3.org/1999/xlink" x="0px" y="0px"
	 viewBox="0 0 98.8 94.9" style="enable-background:new 0 0 98.8 94.9;" xml:space="preserve">
<style type="text/css">
	.st0{fill:#E64C4C;}
	.st1{enable-background:new    ;}
	.st2{clip-path:url(#SVGID_00000106116895302053186850000001678904845967820951_);enable-background:new    ;}
	.st3{fill:#782828;}
	.st4{fill:#7C2929;}
	.st5{fill:#812B2B;}
	.st6{fill:#852C2C;}
	.st7{fill:#8A2E2E;}
	.st8{fill:#8F2F2F;}
	.st9{fill:#933131;}
	.st10{fill:#983232;}
	.st11{fill:#9C3434;}
	.st12{clip-path:url(#SVGID_00000114767548584808392600000015738742720204052412_);enable-background:new    ;}
	.st13{fill:#732626;}
	.st14{fill:#A33636;}
	.st15{fill:#A13535;}
	.st16{clip-path:url(#SVGID_00000092451032618065489280000016339861385518431620_);enable-background:new    ;}
	.st17{fill:#CF4444;}
</style>
<g>
	<circle class="st0" cx="54.6" cy="45.6" r="20.4"/>
	<g>
		<g>
			<g class="st1">
				<g class="st1">
					<defs>
						<path id="SVGID_1_" class="st1" d="M63.5,39.4l-0.8,7.8c0.1-0.8,0-1.5-0.2-2.2c-1.3-4.5-7.6-7-16.1-6.6
							c-6.4,0.3-11.4,2-13.8,4.7l0.8-7.8c2.5-2.7,7.5-4.4,13.8-4.7c8.5-0.4,14.8,2.1,16.1,6.6C63.5,37.9,63.6,38.7,63.5,39.4z"/>
					</defs>
					<clipPath id="SVGID_00000167379918690459818980000015633821408103351433_">
						<use xlink:href="#SVGID_1_"  style="overflow:visible;"/>
					</clipPath>
					<g style="clip-path:url(#SVGID_00000167379918690459818980000015633821408103351433_);enable-background:new    ;">
						<path class="st3" d="M63.5,39.4l-0.8,7.8c0.1-0.8,0-1.5-0.2-2.2c-0.6-2-2.1-3.6-4.5-4.7l0.8-7.8c2.3,1.1,3.9,2.7,4.5,4.7
							C63.5,37.9,63.6,38.7,63.5,39.4"/>
						<path class="st4" d="M58.8,32.4L58,40.2c-0.5-0.2-1-0.5-1.6-0.6l0.8-7.8C57.8,32,58.3,32.2,58.8,32.4"/>
						<path class="st5" d="M57.2,31.8l-0.8,7.8c-0.5-0.2-1-0.3-1.6-0.5l0.8-7.8C56.2,31.4,56.7,31.6,57.2,31.8"/>
						<path class="st6" d="M55.7,31.3l-0.8,7.8c-0.6-0.1-1.1-0.3-1.7-0.4l0.8-7.8C54.5,31,55.1,31.2,55.7,31.3"/>
						<path class="st7" d="M53.9,30.9l-0.8,7.8c-0.7-0.1-1.3-0.2-2.1-0.3l0.8-7.8C52.6,30.7,53.3,30.8,53.9,30.9"/>
						<path class="st8" d="M51.9,30.7l-0.8,7.8c-0.9-0.1-1.8-0.1-2.7-0.1l0.8-7.8C50.1,30.6,51,30.6,51.9,30.7"/>
						<path class="st9" d="M49.2,30.6l-0.8,7.8c-0.7,0-1.3,0-2,0c-0.7,0-1.3,0.1-1.9,0.1l0.8-7.8c0.6-0.1,1.3-0.1,1.9-0.1
							C47.9,30.6,48.5,30.6,49.2,30.6"/>
						<path class="st10" d="M45.3,30.7l-0.8,7.8c-2.4,0.2-4.6,0.7-6.5,1.3l0.8-7.8C40.7,31.4,42.9,31,45.3,30.7"/>
						<path class="st11" d="M38.8,32.1L38,39.9c-0.5,0.2-0.9,0.3-1.4,0.5l0.8-7.8C37.9,32.4,38.3,32.2,38.8,32.1"/>
						<path class="st10" d="M37.4,32.6l-0.8,7.8c-1.4,0.6-2.5,1.3-3.4,2.1l0.8-7.8C34.9,33.9,36.1,33.2,37.4,32.6"/>
						<path class="st9" d="M34,34.7l-0.8,7.8c-0.2,0.2-0.5,0.4-0.7,0.6l0.8-7.8C33.5,35.1,33.8,34.9,34,34.7"/>
					</g>
				</g>
				<g class="st1">
					<defs>
						<path id="SVGID_00000141438312318175666690000016185997584481577345_" class="st1" d="M57.7,39.3L56.9,47
							c-0.1,1.3-1,2.7-3.6,4.8l0.8-7.8C56.7,42,57.6,40.5,57.7,39.3z"/>
					</defs>
					<clipPath id="SVGID_00000082349106190983263970000015407901932875500185_">
						<use xlink:href="#SVGID_00000141438312318175666690000016185997584481577345_"  style="overflow:visible;"/>
					</clipPath>
					<g style="clip-path:url(#SVGID_00000082349106190983263970000015407901932875500185_);enable-background:new    ;">
						<path class="st6" d="M57.7,39.3L56.9,47c0,0.2-0.1,0.4-0.1,0.5l0.8-7.8C57.6,39.6,57.7,39.4,57.7,39.3"/>
						<path class="st7" d="M57.6,39.8l-0.8,7.8c-0.1,0.2-0.2,0.5-0.3,0.7l0.8-7.8C57.4,40.3,57.5,40,57.6,39.8"/>
						<path class="st8" d="M57.3,40.5l-0.8,7.8c-0.2,0.3-0.4,0.7-0.6,1l0.8-7.8C56.9,41.2,57.1,40.8,57.3,40.5"/>
						<path class="st9" d="M56.7,41.5l-0.8,7.8c-0.4,0.6-1.1,1.2-1.9,2l0.8-7.8C55.6,42.8,56.2,42.1,56.7,41.5"/>
						<path class="st10" d="M54.8,43.5L54,51.3c-0.2,0.2-0.4,0.4-0.7,0.6l0.8-7.8C54.3,43.9,54.6,43.7,54.8,43.5"/>
					</g>
				</g>
				<g>
					<polygon class="st13" points="70.5,56.2 69.7,64 68.7,60.8 69.5,53 					"/>
				</g>
				<g>
					<polygon class="st14" points="54.1,44.1 53.3,51.9 39.5,62.9 40.3,55.2 					"/>
				</g>
				<g>
					<polygon class="st15" points="69.5,53 68.7,60.8 47.8,61.8 48.6,54 					"/>
				</g>
				<g class="st1">
					<defs>
						<path id="SVGID_00000183941886995613142300000005408031416776591542_" class="st1" d="M88.9,47.7l-0.8,7.8
							C87,65.9,74.6,74.3,57.2,75.2c-20.4,1-40-8.7-43.7-21.7c-0.6-2-0.7-3.9-0.5-5.8l0.8-7.8c-0.2,1.9,0,3.8,0.5,5.8
							C18,58.7,37.6,68.4,58,67.4C75.4,66.5,87.8,58.2,88.9,47.7z"/>
					</defs>
					<clipPath id="SVGID_00000004517923134927104790000006175527828510537368_">
						<use xlink:href="#SVGID_00000183941886995613142300000005408031416776591542_"  style="overflow:visible;"/>
					</clipPath>
					<g style="clip-path:url(#SVGID_00000004517923134927104790000006175527828510537368_);enable-background:new    ;">
						<path class="st6" d="M88.9,47.7l-0.8,7.8c-0.1,0.8-0.2,1.6-0.4,2.3l0.8-7.8C88.6,49.3,88.8,48.5,88.9,47.7"/>
						<path class="st7" d="M88.4,50l-0.8,7.8c-0.3,1-0.6,1.9-1.1,2.8l0.8-7.8C87.8,51.9,88.2,51,88.4,50"/>
						<path class="st8" d="M87.4,52.8l-0.8,7.8c-0.5,1-1.1,2-1.8,2.9l0.8-7.8C86.3,54.8,86.9,53.8,87.4,52.8"/>
						<path class="st9" d="M85.6,55.7l-0.8,7.8c-0.8,1.1-1.8,2.2-3,3.2l0.8-7.8C83.7,57.9,84.7,56.8,85.6,55.7"/>
						<path class="st10" d="M82.6,58.9l-0.8,7.8c-2.2,2-5,3.6-8.2,5l0.8-7.8C77.6,62.5,80.4,60.8,82.6,58.9"/>
						<path class="st11" d="M74.4,63.9l-0.8,7.8c-0.8,0.4-1.7,0.7-2.6,1l0.8-7.8C72.7,64.5,73.6,64.2,74.4,63.9"/>
						<path class="st10" d="M71.8,64.9L71,72.6c-3.3,1.1-7,1.9-11,2.3l0.8-7.8C64.8,66.8,68.5,66,71.8,64.9"/>
						<path class="st9" d="M60.8,67.2L60,75c-0.9,0.1-1.8,0.2-2.8,0.2c-1.1,0.1-2.2,0.1-3.3,0.1l0.8-7.8c1.1,0,2.2,0,3.3-0.1
							C59,67.3,59.9,67.3,60.8,67.2"/>
						<path class="st8" d="M54.8,67.5L54,75.3c-1.7,0-3.4-0.1-5.1-0.2l0.8-7.8C51.4,67.4,53.1,67.5,54.8,67.5"/>
						<path class="st7" d="M49.7,67.2L48.9,75c-1.6-0.1-3.1-0.3-4.7-0.6l0.8-7.8C46.6,66.9,48.1,67.1,49.7,67.2"/>
						<path class="st6" d="M45,66.6l-0.8,7.8c-1.6-0.3-3.1-0.6-4.6-1l0.8-7.8C41.9,66,43.5,66.4,45,66.6"/>
						<path class="st5" d="M40.4,65.7l-0.8,7.8C38,73,36.4,72.5,34.9,72l0.8-7.8C37.2,64.8,38.8,65.2,40.4,65.7"/>
						<path class="st4" d="M35.7,64.2L34.9,72c-1.9-0.7-3.6-1.4-5.3-2.2l0.8-7.8C32,62.8,33.8,63.6,35.7,64.2"/>
						<path class="st3" d="M30.3,62l-0.8,7.8c-8.1-3.9-14.1-9.7-16-16.4c-0.6-2-0.7-3.9-0.5-5.8l0.8-7.8c-0.2,1.9,0,3.8,0.5,5.8
							C16.2,52.3,22.2,58.1,30.3,62"/>
					</g>
				</g>
				<g>
					<path class="st17" d="M44.6,20.2c20.4-1,40,8.7,43.7,21.7C92,55,78.5,66.4,58,67.4c-20.4,1-40-8.7-43.7-21.7
						C10.6,32.6,24.2,21.2,44.6,20.2z M70.5,56.2L69.5,53l-21,1.1l10.3-8.3c4.6-3.7,5.1-6,4.4-8.5c-1.3-4.5-7.6-7-16.1-6.6
						c-6.4,0.3-11.4,2-13.8,4.7l4.6,2c2-2.1,5.3-3.1,9.7-3.4c5.7-0.3,9.2,1.2,9.9,3.9c0.5,1.6,0.1,3.3-3.5,6.2L40.3,55.2l0.7,2.5
						L70.5,56.2"/>
				</g>
			</g>
		</g>
	</g>
</g>
</svg>
