<?xml version="1.0" encoding="utf-8"?>
<!-- Generator: Adobe Illustrator 25.4.1, SVG Export Plug-In . SVG Version: 6.00 Build 0)  -->
<svg version="1.1" id="Layer_1" xmlns="http://www.w3.org/2000/svg" xmlns:xlink="http://www.w3.org/1999/xlink" x="0px" y="0px"
	 viewBox="0 0 98.8 94.9" style="enable-background:new 0 0 98.8 94.9;" xml:space="preserve">
<style type="text/css">
	.st0{fill:#DE4949;}
	.st1{enable-background:new    ;}
	.st2{fill:#6F2525;}
	.st3{fill:#862C2C;}
	.st4{fill:#892D2D;}
	.st5{clip-path:url(#SVGID_00000003811707013373596000000007751645795198730885_);enable-background:new    ;}
	.st6{fill:#732626;}
	.st7{fill:#782727;}
	.st8{clip-path:url(#SVGID_00000106868723823459038120000000515168710852274109_);enable-background:new    ;}
	.st9{fill:#812A2A;}
	.st10{fill:#852C2C;}
	.st11{fill:#7C2929;}
	.st12{fill:#842C2C;}
	.st13{clip-path:url(#SVGID_00000156574070065983942000000013724058934608569234_);enable-background:new    ;}
	.st14{fill:#CF4444;}
</style>
<g>
	<circle class="st0" cx="51.9" cy="48" r="30.7"/>
	<g>
		<g>
			<g class="st1">
				<g>
					<polygon class="st2" points="60.8,29.1 60.5,34.8 59.3,31.5 59.6,25.8 					"/>
				</g>
				<g>
					<polygon class="st3" points="59.6,25.8 59.3,31.5 31.9,37.7 32.3,32 					"/>
				</g>
				<g>
					<polygon class="st4" points="53.8,31.8 53.4,37.4 46.9,50.4 47.2,44.7 					"/>
				</g>
				<g class="st1">
					<defs>
						<path id="SVGID_1_" class="st1" d="M70.7,53.4l-0.4,5.7c0.1-1.2-0.1-2.5-0.6-3.7c-1.9-5.3-7.6-8.2-16.1-7l0.4-5.7
							c8.5-1.3,14.1,1.7,16.1,7C70.6,50.9,70.8,52.2,70.7,53.4z"/>
					</defs>
					<clipPath id="SVGID_00000119818709360763715500000008966346060157708695_">
						<use xlink:href="#SVGID_1_"  style="overflow:visible;"/>
					</clipPath>
					<g style="clip-path:url(#SVGID_00000119818709360763715500000008966346060157708695_);enable-background:new    ;">
						<path class="st6" d="M70.7,53.4l-0.4,5.7c0.1-1.2-0.1-2.5-0.6-3.7c-1.5-4.2-5.4-6.9-11.2-7.2l0.4-5.7c5.8,0.3,9.7,3,11.2,7.2
							C70.6,50.9,70.8,52.2,70.7,53.4"/>
						<path class="st7" d="M58.9,42.4l-0.4,5.7c-1.5-0.1-3.1,0-4.9,0.3l0.4-5.7C55.8,42.4,57.4,42.4,58.9,42.4"/>
					</g>
				</g>
				<g class="st1">
					<defs>
						<path id="SVGID_00000172405391136050983130000011583219403860945067_" class="st1" d="M64.5,53.2l-0.4,5.7
							c-0.2,2.8-2.9,5-7.9,6.2c-5.1,1.2-10.3,0.7-13.8-0.8l0.4-5.7c3.6,1.5,8.7,2,13.8,0.8C61.6,58.2,64.4,56,64.5,53.2z"/>
					</defs>
					<clipPath id="SVGID_00000010286752009453164880000016325121753779737476_">
						<use xlink:href="#SVGID_00000172405391136050983130000011583219403860945067_"  style="overflow:visible;"/>
					</clipPath>
					<g style="clip-path:url(#SVGID_00000010286752009453164880000016325121753779737476_);enable-background:new    ;">
						<path class="st9" d="M64.5,53.2l-0.4,5.7c0,0.3-0.1,0.6-0.2,1l0.4-5.7C64.5,53.9,64.5,53.5,64.5,53.2"/>
						<path class="st10" d="M64.4,54.2L64,59.9c-0.3,1.1-1.1,2.1-2.3,3l0.4-5.7C63.3,56.3,64.1,55.3,64.4,54.2"/>
						<path class="st9" d="M62.1,57.2l-0.4,5.7c-0.8,0.6-1.8,1.1-3,1.5l0.4-5.7C60.3,58.2,61.3,57.7,62.1,57.2"/>
						<path class="st11" d="M59.1,58.7l-0.4,5.7c-0.7,0.3-1.5,0.5-2.4,0.7c-0.6,0.1-1.3,0.3-1.9,0.4l0.4-5.7
							c0.6-0.1,1.3-0.2,1.9-0.4C57.5,59.2,58.4,58.9,59.1,58.7"/>
						<path class="st7" d="M54.7,59.7l-0.4,5.7c-1.8,0.3-3.5,0.3-5.2,0.3l0.4-5.7C51.2,60.1,53,60,54.7,59.7"/>
						<path class="st6" d="M49.6,60l-0.4,5.7c-2.5-0.1-4.8-0.6-6.7-1.5l0.4-5.7C44.7,59.3,47,59.9,49.6,60"/>
					</g>
				</g>
				<g>
					<polygon class="st12" points="42.8,58.5 42.5,64.2 41.2,68.7 41.5,63 					"/>
				</g>
				<g class="st1">
					<defs>
						<path id="SVGID_00000160894994707819666100000014301136809829858463_" class="st1" d="M87.1,47.5l-0.4,5.7
							c-0.8,11.8-10.4,22.3-25,25.7C43.1,83,23.5,74,17.8,58.6c-1.2-3.3-1.7-6.7-1.5-9.9l0.4-5.7c-0.2,3.3,0.3,6.6,1.5,9.9
							c5.6,15.4,25.3,24.5,43.9,20.3C76.7,69.8,86.3,59.3,87.1,47.5z"/>
					</defs>
					<clipPath id="SVGID_00000176747197100436018200000002845696350386037913_">
						<use xlink:href="#SVGID_00000160894994707819666100000014301136809829858463_"  style="overflow:visible;"/>
					</clipPath>
					<g style="clip-path:url(#SVGID_00000176747197100436018200000002845696350386037913_);enable-background:new    ;">
						<path class="st9" d="M87.1,47.5l-0.4,5.7c-0.1,1.8-0.4,3.5-0.9,5.2l0.4-5.7C86.6,50.9,86.9,49.2,87.1,47.5"/>
						<path class="st10" d="M86.1,52.6l-0.4,5.7c-1.7,5.7-5.4,10.8-10.7,14.6l0.4-5.7C80.7,63.4,84.5,58.3,86.1,52.6"/>
						<path class="st9" d="M75.4,67.2l-0.4,5.7c-2.5,1.8-5.4,3.4-8.6,4.5l0.4-5.7C70,70.6,72.9,69,75.4,67.2"/>
						<path class="st11" d="M66.8,71.7l-0.4,5.7c-1.5,0.6-3.1,1-4.7,1.4c-1,0.2-2.1,0.4-3.1,0.6l0.4-5.7c1-0.2,2.1-0.3,3.1-0.6
							C63.7,72.7,65.3,72.3,66.8,71.7"/>
						<path class="st7" d="M59,73.7l-0.4,5.7c-2.8,0.4-5.7,0.5-8.5,0.4l0.4-5.7C53.3,74.3,56.1,74.1,59,73.7"/>
						<path class="st6" d="M50.5,74.1l-0.4,5.7c-14.6-0.8-27.8-9-32.3-21.2c-1.2-3.3-1.7-6.7-1.5-9.9l0.4-5.7
							c-0.2,3.3,0.3,6.6,1.5,9.9C22.7,65.1,35.9,73.3,50.5,74.1"/>
					</g>
				</g>
				<g>
					<path class="st14" d="M41.7,17.3C60.3,13,80,22.1,85.6,37.5s-4.9,31.4-23.5,35.6c-18.6,4.2-38.2-4.8-43.9-20.3
						S23.1,21.5,41.7,17.3z M58.3,63.7c10.5-2.4,14-8.3,11.9-14.1c-1.9-5.3-7.6-8.2-16.1-7l6.8-13.6l-1.2-3.3L32.3,32l1.6,4.3
						l19.9-4.5l-6.6,13l1.3,3.4l3.3-0.8c7.1-1.6,11.1,0,12.4,3.7c1.4,3.7-1.3,6.9-7.5,8.3c-5.1,1.2-10.3,0.7-13.8-0.8L41.5,63
						C46,64.8,52.3,65.1,58.3,63.7"/>
				</g>
			</g>
		</g>
	</g>
</g>
</svg>
