<?xml version="1.0" encoding="utf-8"?>
<!-- Generator: Adobe Illustrator 25.4.1, SVG Export Plug-In . SVG Version: 6.00 Build 0)  -->
<svg version="1.1" id="Layer_1" xmlns="http://www.w3.org/2000/svg" xmlns:xlink="http://www.w3.org/1999/xlink" x="0px" y="0px"
	 viewBox="0 0 98.8 94.9" style="enable-background:new 0 0 98.8 94.9;" xml:space="preserve">
<style type="text/css">
	.st0{enable-background:new    ;}
	.st1{fill:#7D2929;}
	.st2{fill:#732626;}
	.st3{clip-path:url(#SVGID_00000165236323896445747930000011693621709900882341_);enable-background:new    ;}
	.st4{fill:#7C2929;}
	.st5{fill:#782828;}
	.st6{fill:#DE4949;}
</style>
<g>
	<g>
		<g class="st0">
			<g>
				<polygon class="st1" points="45.9,25.7 43,32.3 30.4,37.8 33.2,31.2 				"/>
			</g>
			<g>
				<polygon class="st2" points="65.6,58.8 62.8,65.5 43,32.3 45.9,25.7 				"/>
			</g>
			<g class="st0">
				<defs>
					<path id="SVGID_1_" class="st0" d="M81.7,57.4L78.8,64c-2.6,6-7.4,11-14.2,13.9C49.1,84.6,29.4,78,20.5,63.1
						c-5-8.3-5.4-17.5-2.2-25.1l2.9-6.6c-3.3,7.6-2.8,16.8,2.2,25.1C32.2,71.4,52,78,67.5,71.3C74.3,68.4,79.1,63.4,81.7,57.4z"/>
				</defs>
				<clipPath id="SVGID_00000145776863608790823420000013493331252861624745_">
					<use xlink:href="#SVGID_1_"  style="overflow:visible;"/>
				</clipPath>
				<g style="clip-path:url(#SVGID_00000145776863608790823420000013493331252861624745_);enable-background:new    ;">
					<path class="st4" d="M81.7,57.4L78.8,64c-2.1,4.8-5.7,9.1-10.6,12l2.9-6.6C76,66.4,79.6,62.2,81.7,57.4"/>
					<path class="st5" d="M71.1,69.4l-2.9,6.6c-1.1,0.7-2.4,1.3-3.6,1.9C49.1,84.6,29.4,78,20.5,63.1c-5-8.3-5.4-17.5-2.2-25.1
						l2.9-6.6c-3.3,7.6-2.8,16.8,2.2,25.1C32.2,71.4,52,78,67.5,71.3C68.7,70.8,70,70.1,71.1,69.4"/>
				</g>
			</g>
			<g>
				<path class="st6" d="M35.4,17.5c15.5-6.7,35.3-0.1,44.1,14.8s3.5,32.3-12.1,39s-35.3,0.1-44.1-14.8S19.9,24.1,35.4,17.5z
					 M65.6,58.8L45.9,25.7l-12.7,5.5l2.5,4.1l7.8-3.4l17.3,29L65.6,58.8"/>
			</g>
		</g>
	</g>
</g>
</svg>
