<?xml version="1.0" encoding="utf-8"?>
<!-- Generator: Adobe Illustrator 25.4.1, SVG Export Plug-In . SVG Version: 6.00 Build 0)  -->
<svg version="1.1" id="Layer_1" xmlns="http://www.w3.org/2000/svg" xmlns:xlink="http://www.w3.org/1999/xlink" x="0px" y="0px"
	 viewBox="0 0 98.8 94.9" style="enable-background:new 0 0 98.8 94.9;" xml:space="preserve">
<style type="text/css">
	.st0{fill:#DE4949;}
	.st1{enable-background:new    ;}
	.st2{fill:#772727;}
	.st3{fill:#6F2525;}
	.st4{fill:#762727;}
	.st5{fill:#D64646;}
	.st6{clip-path:url(#SVGID_00000072977866441377142850000005419886607925153199_);enable-background:new    ;}
	.st7{fill:#782727;}
	.st8{fill:#732626;}
</style>
<circle class="st0" cx="50.7" cy="47.1" r="31.7"/>
<g>
	<g>
		<g class="st1">
			<g>
				<polygon class="st2" points="53.8,23.9 51.9,28.3 45.2,28.9 47.1,24.5 				"/>
			</g>
			<g>
				<polygon class="st2" points="58.6,40.4 56.7,44.9 50.9,45.4 52.8,41 				"/>
			</g>
			<g>
				<polygon class="st2" points="68.7,48.4 66.8,52.9 58.6,53.6 60.5,49.2 				"/>
			</g>
			<g>
				<polygon class="st3" points="60.5,49.2 58.6,53.6 56.7,44.9 58.6,40.4 				"/>
			</g>
			<g>
				<polygon class="st3" points="69.8,53.4 67.9,57.8 66.8,52.9 68.7,48.4 				"/>
			</g>
			<g>
				<polygon class="st2" points="54.6,49.7 52.7,54.2 36,55.7 37.9,51.3 				"/>
			</g>
			<g>
				<polygon class="st3" points="63.6,64.1 61.7,68.5 59.6,58.6 61.5,54.2 				"/>
			</g>
			<g>
				<polygon class="st4" points="47.1,24.5 45.2,28.9 28.6,57.3 30.5,52.9 				"/>
			</g>
			<g>
				<path class="st5" d="M43.8,14.8c18.7-1.7,36.9,11,40.6,28.3s-8.5,32.8-27.3,34.5c-18.7,1.7-36.9-11-40.6-28.3
					S25.1,16.5,43.8,14.8z M69.8,53.4l-1.1-5l-8.3,0.8l-1.9-8.8L52.8,41l1.9,8.8l-16.7,1.5l15.9-27.4l-6.7,0.6L30.5,52.9l0.9,4
					l24.2-2.2l2.1,9.9l6-0.5l-2.1-9.9L69.8,53.4"/>
			</g>
			<g class="st1">
				<defs>
					<path id="SVGID_1_" class="st1" d="M82.9,60.1L81,64.5C76.9,74,67.5,80.9,55.3,82.1c-18.7,1.7-36.9-11-40.6-28.3
						c-1.3-6.1-0.6-11.9,1.5-17l1.9-4.4c-2.2,5.1-2.8,10.9-1.5,17c3.7,17.3,21.9,30,40.6,28.3C69.4,76.5,78.8,69.6,82.9,60.1z"/>
				</defs>
				<clipPath id="SVGID_00000155144302632014557080000015768264040260990346_">
					<use xlink:href="#SVGID_1_"  style="overflow:visible;"/>
				</clipPath>
				<g style="clip-path:url(#SVGID_00000155144302632014557080000015768264040260990346_);enable-background:new    ;">
					<path class="st7" d="M82.9,60.1L81,64.5c-2.3,5.3-6.3,9.9-11.5,13l1.9-4.4C76.6,69.9,80.6,65.4,82.9,60.1"/>
					<path class="st8" d="M71.4,73.1l-1.9,4.4c-4.1,2.5-8.9,4.1-14.2,4.6c-18.7,1.7-36.9-11-40.6-28.3c-1.3-6.1-0.6-11.9,1.5-17
						l1.9-4.4c-2.2,5.1-2.8,10.9-1.5,17c3.7,17.3,21.9,30,40.6,28.3C62.5,77.1,67.4,75.5,71.4,73.1"/>
				</g>
			</g>
		</g>
	</g>
</g>
</svg>
